#N canvas 557 528 450 300 10;
#X obj 118 93 outlet;
#X obj 118 40 unpack f f f;
#X obj 153 120 outlet;
#X obj 182 83 outlet;
#X obj 118 19 r \$1-CTLIN;
#X connect 1 0 0 0;
#X connect 1 1 2 0;
#X connect 1 2 3 0;
#X connect 4 0 1 0;
