#N canvas 109 113 1111 662 10;
#X declare -lib iemmatrix;
#X obj 55 353 t b a;
#X obj 390 271 inlet~;
#X obj 406 296 inlet~;
#X obj 425 315 inlet~;
#X obj 442 337 inlet~;
#X obj 371 380 outlet~;
#X obj 35 7 inlet;
#X obj 424 -19 inlet;
#X obj 424 2 t a a;
#X obj 700 19 list length;
#X obj 701 61 sel 0;
#X obj 701 101 print warning;
#X obj 717 191 import iemmatrix;
#X obj 372 356 mtx_mul~ 1 10 10 ----------------;
#X obj 460 271 inlet~;
#X obj 476 296 inlet~;
#X obj 495 315 inlet~;
#X obj 512 337 inlet~;
#X obj 530 271 inlet~;
#X obj 548 309 inlet~;
#X obj 400 411 inlet~;
#X obj 416 436 inlet~;
#X obj 435 455 inlet~;
#X obj 452 477 inlet~;
#X obj 381 520 outlet~;
#X obj 382 496 mtx_mul~ 1 10 10 ----------------;
#X obj 470 411 inlet~;
#X obj 486 436 inlet~;
#X obj 505 455 inlet~;
#X obj 522 477 inlet~;
#X obj 540 411 inlet~;
#X obj 558 449 inlet~;
#X obj 137 99 inlet;
#N canvas 10 66 450 300 q 0;
#X obj 138 66 inlet;
#X obj 138 94 t f f;
#X obj 138 117 *;
#X obj 138 139 t f f;
#X obj 138 163 *;
#X obj 138 188 outlet;
#X connect 0 0 1 0;
#X connect 1 0 2 0;
#X connect 1 1 2 1;
#X connect 2 0 3 0;
#X connect 3 0 4 0;
#X connect 3 1 4 1;
#X connect 4 0 5 0;
#X restore 36 183 pd q;
#X obj 36 217 pack f f;
#X obj 80 49 loadbang;
#X obj 35 121 unpack f f;
#X obj 36 154 / 127;
#X obj 80 70 purepd/float_argument \$1 127;
#X obj 701 40 == 10;
#X obj 94 167 list-index;
#X obj 138 122 unpack f f;
#X text 178 101 Raw input (val 0-1 \, index);
#X text 78 10 Midi input (val 0-\$1 \, midi ctl);
#X obj 55 376 mtx 1 10;
#X obj 96 186 + 1;
#X msg 36 311 element 1 \$2 \$1;
#X msg 701 81 Wrong mixer arguments. Needs 10 cc values.;
#X connect 0 0 44 0;
#X connect 0 1 44 0;
#X connect 1 0 13 1;
#X connect 2 0 13 2;
#X connect 3 0 13 3;
#X connect 4 0 13 4;
#X connect 6 0 36 0;
#X connect 7 0 8 0;
#X connect 8 0 40 1;
#X connect 8 1 9 0;
#X connect 9 0 39 0;
#X connect 10 0 47 0;
#X connect 13 0 5 0;
#X connect 14 0 13 5;
#X connect 15 0 13 6;
#X connect 16 0 13 7;
#X connect 17 0 13 8;
#X connect 18 0 13 9;
#X connect 19 0 13 10;
#X connect 20 0 25 1;
#X connect 21 0 25 2;
#X connect 22 0 25 3;
#X connect 23 0 25 4;
#X connect 25 0 24 0;
#X connect 26 0 25 5;
#X connect 27 0 25 6;
#X connect 28 0 25 7;
#X connect 29 0 25 8;
#X connect 30 0 25 9;
#X connect 31 0 25 10;
#X connect 32 0 41 0;
#X connect 33 0 34 0;
#X connect 34 0 46 0;
#X connect 35 0 38 0;
#X connect 36 0 37 0;
#X connect 36 1 40 0;
#X connect 37 0 33 0;
#X connect 38 0 37 1;
#X connect 39 0 10 0;
#X connect 40 0 45 0;
#X connect 41 0 33 0;
#X connect 41 1 34 1;
#X connect 44 0 13 0;
#X connect 44 0 25 0;
#X connect 45 0 34 1;
#X connect 46 0 0 0;
#X connect 47 0 11 0;
