#N canvas 0 19 817 714 10;
#X msg 172 83 2 3 5-9;
#X obj 172 153 print;
#X msg 191 50 2;
#X msg 244 85 2 3-7 99-101;
#X msg 226 58 2-88;
#X text 299 113 Convert a list of x-y range expressions and floats
to a list of floats.;
#X text 411 367 Johannes Burström 2009 License GNU GPL.;
#X obj 172 120 mctl-intervals;
#X connect 0 0 7 0;
#X connect 2 0 7 0;
#X connect 3 0 7 0;
#X connect 4 0 7 0;
#X connect 7 0 1 0;
