#N canvas 439 309 450 300 10;
#X msg 64 86 \$2 \$1;
#X obj 63 66 pack f f;
#X obj 63 138 t f f;
#X obj 119 129 == 0;
#X obj 121 198 spigot;
#X obj 153 169 -;
#X msg 151 147 1 \$1;
#X obj 62 230 outlet;
#X obj 121 229 outlet;
#X obj 62 197 spigot 1;
#X obj 67 42 mctl-ctlin \$1;
#X obj 63 107 route \$2 \$3;
#X connect 0 0 11 0;
#X connect 1 0 0 0;
#X connect 2 0 9 0;
#X connect 2 1 4 0;
#X connect 3 0 6 0;
#X connect 3 0 9 1;
#X connect 4 0 8 0;
#X connect 5 0 4 1;
#X connect 6 0 5 0;
#X connect 9 0 7 0;
#X connect 10 0 1 0;
#X connect 10 1 1 1;
#X connect 11 0 2 0;
#X connect 11 1 3 0;
