#N canvas 0 19 817 714 10;
#X obj 216 420 outlet;
#X obj 540 251 table \$0-vals 127;
#X text 538 235 FIXME: state saving doesn't work for nrpn's;
#X obj 212 184 t b a;
#X obj 213 268 sel;
#X obj 215 303 list;
#X obj 212 156 pack 0 0;
#X obj 185 86 spigot 1;
#X obj 306 9 inlet;
#X obj 203 57 t f f;
#X obj 185 25 mctl-ctlin \$1;
#X obj 309 127 dollarg;
#X obj 212 205 list;
#X obj 309 148 list split 1;
#X obj 309 99 loadbang;
#X text 434 159 Controllers are expressed as floats or ranges (x-y).
See list-intervals help file.;
#X obj 216 323 t a a;
#X obj 243 353 tabwrite \$0-vals;
#X obj 281 218 list;
#X obj 281 173 sel 1;
#X obj 282 262 t f f;
#X obj 283 306 pack;
#X obj 388 88 bng 15 250 50 0 empty empty empty 17 7 0 10 -262144 -1
-1;
#X obj 283 325 outlet;
#X text 328 325 Outputs all values when toggling on.;
#X obj 416 283 spigot 1;
#X obj 416 259 inlet;
#X obj 254 67 t a a a;
#X obj 281 282 tabread \$0-vals;
#X msg 458 62 const 0;
#X obj 458 83 s \$0-vals;
#X obj 301 32 route set reset bang;
#X obj 281 239 drip;
#X obj 212 231 drip;
#X obj 343 171 mctl-intervals;
#X connect 3 0 12 0;
#X connect 3 1 5 1;
#X connect 4 0 5 0;
#X connect 5 0 16 0;
#X connect 6 0 3 0;
#X connect 7 0 6 0;
#X connect 8 0 31 0;
#X connect 9 0 6 1;
#X connect 9 1 4 1;
#X connect 10 0 7 0;
#X connect 10 1 9 0;
#X connect 11 0 13 0;
#X connect 12 0 33 0;
#X connect 13 1 34 0;
#X connect 14 0 11 0;
#X connect 16 0 0 0;
#X connect 16 1 17 0;
#X connect 18 0 32 0;
#X connect 19 0 18 0;
#X connect 20 0 28 0;
#X connect 20 1 21 1;
#X connect 21 0 23 0;
#X connect 22 0 11 0;
#X connect 25 0 23 0;
#X connect 26 0 25 0;
#X connect 27 0 7 1;
#X connect 27 1 19 0;
#X connect 27 2 25 1;
#X connect 28 0 21 0;
#X connect 29 0 30 0;
#X connect 31 0 17 0;
#X connect 31 1 29 0;
#X connect 31 2 18 0;
#X connect 31 3 27 0;
#X connect 32 0 20 0;
#X connect 33 0 4 0;
#X connect 34 0 12 1;
#X connect 34 0 18 1;
