#N canvas 456 385 478 477 10;
#X obj 196 359 outlet;
#X obj 196 203 list-extend;
#X obj 170 101 tgl 15 0 empty empty empty 17 7 0 10 -262144 -1 -1 0
1;
#X obj 101 101 cnv 15 68 15 empty empty setcontrols 1 6 0 8 -233017
-66577 0;
#X obj 196 298 spigot;
#X obj 227 117 t f b;
#X obj 196 337 prepent set;
#X obj 196 318 t a a;
#X obj 197 175 change;
#X obj 129 205 inlet;
#X msg 266 307 set;
#X obj 266 286 sel 1;
#X msg 267 170 set -1;
#X obj 308 124 key;
#X obj 213 231 list;
#X obj 213 251 list-splat -1;
#X obj 282 209 t b a;
#X obj 271 80 spigot;
#X obj 332 166 t b b;
#X obj 290 340 spigot;
#X obj 168 148 mctl-ctlin \$1;
#X obj 309 144 sel 8 10 32;
#X msg 94 144 -1;
#X connect 1 0 14 1;
#X connect 1 0 4 0;
#X connect 2 0 5 0;
#X connect 4 0 7 0;
#X connect 5 0 4 1;
#X connect 5 0 11 0;
#X connect 5 0 17 1;
#X connect 5 0 19 1;
#X connect 5 1 1 1;
#X connect 5 1 12 0;
#X connect 6 0 0 0;
#X connect 7 0 6 0;
#X connect 8 0 1 0;
#X connect 9 0 0 0;
#X connect 10 0 0 0;
#X connect 11 0 10 0;
#X connect 12 0 8 0;
#X connect 13 0 21 0;
#X connect 14 0 15 0;
#X connect 15 0 16 0;
#X connect 16 0 1 0;
#X connect 16 1 1 1;
#X connect 17 0 2 0;
#X connect 18 0 17 0;
#X connect 18 1 19 0;
#X connect 19 0 0 0;
#X connect 20 1 8 0;
#X connect 21 0 14 0;
#X connect 21 1 18 0;
#X connect 21 2 22 0;
#X connect 22 0 1 0;
#X coords 0 -1 1 1 85 17 2 100 100;
