#N canvas 424 132 1016 551 10;
#X obj 156 312 !=;
#X obj 129 287 t f f;
#X obj 129 344 spigot;
#X obj 129 79 f;
#X obj 285 228 t b b;
#X obj 242 324 f;
#X obj 312 357 f;
#X obj 340 357 + 1;
#X obj 372 358 mod 2;
#X msg 327 292 0;
#X obj 242 381 *;
#X obj 148 232 sel 0;
#X obj 175 253 t f b;
#X text 625 -46 Midi cc receiver.;
#X obj 129 -3 t f f;
#X obj 129 170 t f f f;
#X obj 169 192 outlet;
#X obj 285 177 > 0;
#X obj 285 206 sel 1;
#X text 628 32 Johannes Burstrom 2009;
#X obj 129 100 max 0;
#X text 627 -22 Receives and outputs cc \$1 (cropped to be within cc
\$2 value and cc \$3 value). cc \$4 toggles between 0 and last value
> 0;
#X obj 245 4 == -1;
#X obj 214 27 spigot;
#X obj 295 67 == -1;
#X obj 277 87 spigot;
#X obj 345 126 == -1;
#X obj 330 147 spigot;
#X obj 131 -33 spigot;
#X obj 129 398 f;
#X obj 126 -74 t f f;
#X obj 417 -53 dollarg;
#X obj 285 -18 spigot;
#X obj 313 40 spigot;
#X obj 380 96 spigot;
#X obj 337 -86 t b b b b;
#X obj 214 50 + 1;
#X obj 214 99 - 1;
#X obj 129 493 ctlout \$2;
#X obj 131 -100 mctl-ctlin \$1;
#X obj 167 -56 == \$2;
#X obj 287 -42 \$3;
#X obj 311 18 \$4;
#X obj 378 74 \$5;
#X obj 452 -27 > 2;
#X obj 434 6 > 3;
#X obj 437 72 > 4;
#X obj 210 -77 b;
#X obj 238 -76 once;
#X text 466 194 FIXME;
#X obj 129 122 min 32768;
#X connect 0 0 2 1;
#X connect 1 0 2 0;
#X connect 1 1 0 0;
#X connect 2 0 29 0;
#X connect 3 0 20 0;
#X connect 4 0 5 0;
#X connect 4 1 6 0;
#X connect 5 0 10 0;
#X connect 6 0 7 0;
#X connect 6 0 10 1;
#X connect 7 0 8 0;
#X connect 8 0 6 1;
#X connect 9 0 6 1;
#X connect 10 0 29 0;
#X connect 11 1 12 0;
#X connect 12 0 5 1;
#X connect 12 1 9 0;
#X connect 14 0 3 0;
#X connect 14 1 0 1;
#X connect 15 0 1 0;
#X connect 15 1 11 0;
#X connect 15 2 16 0;
#X connect 17 0 18 0;
#X connect 18 0 4 0;
#X connect 20 0 50 0;
#X connect 22 0 23 1;
#X connect 23 0 36 0;
#X connect 24 0 25 1;
#X connect 25 0 37 0;
#X connect 26 0 27 1;
#X connect 27 0 17 0;
#X connect 28 0 14 0;
#X connect 29 0 38 0;
#X connect 30 0 28 0;
#X connect 30 1 23 0;
#X connect 30 1 25 0;
#X connect 30 1 27 0;
#X connect 31 1 44 0;
#X connect 31 1 45 0;
#X connect 31 1 46 0;
#X connect 32 0 22 1;
#X connect 33 0 24 1;
#X connect 34 0 26 1;
#X connect 35 0 41 0;
#X connect 35 1 42 0;
#X connect 35 2 43 0;
#X connect 35 3 31 0;
#X connect 36 0 20 1;
#X connect 37 0 50 1;
#X connect 39 0 30 0;
#X connect 39 1 22 0;
#X connect 39 1 26 0;
#X connect 39 1 24 0;
#X connect 39 1 40 0;
#X connect 39 2 47 0;
#X connect 40 0 28 1;
#X connect 41 0 32 0;
#X connect 42 0 33 0;
#X connect 43 0 34 0;
#X connect 44 0 32 1;
#X connect 45 0 33 1;
#X connect 46 0 34 1;
#X connect 47 0 48 0;
#X connect 48 0 35 0;
#X connect 50 0 15 0;
