#N canvas 104 91 1111 662 10;
#X declare -lib iemmatrix;
#X obj 280 153 t b a;
#X obj 148 148 inlet~;
#X obj 141 128 inlet~;
#X obj 157 220 inlet~;
#X obj 193 397 inlet~;
#X obj 176 284 inlet~;
#X obj 163 240 inlet~;
#X obj 183 305 inlet~;
#X obj 203 377 inlet~;
#X obj 124 476 outlet~;
#X obj 131 502 outlet~;
#X obj 151 522 outlet~;
#X obj 161 542 outlet~;
#X obj 181 562 outlet~;
#X obj 211 612 outlet~;
#X obj 192 585 outlet~;
#X obj 232 635 outlet~;
#X obj 281 177 mtx 5 5;
#X obj 372 357 mtx_mul~ 5 5 10;
#X obj 123 447 mtx_mul~ 5 5 10;
#X obj 465 607 outlet~;
#X obj 486 630 outlet~;
#X text 517 463 4 in => 4 sends and a master.;
#X text 528 20 FIXME: ctl 98/NRPN;
#X obj 279 6 inlet;
#N canvas 655 347 566 323 split 0;
#X obj 226 21 inlet;
#X obj 226 203 outlet;
#X msg 226 53 \$1 \$2 \$3 \$4;
#X obj 278 203 outlet;
#X obj 334 206 outlet;
#X obj 381 208 outlet;
#X obj 431 208 outlet;
#X msg 276 33 \$6 \$7 \$8 \$9;
#X msg 340 59 \$11 \$12 \$13 \$14;
#X msg 386 81 \$16 \$17 \$18 \$19;
#X msg 430 106 \$5 \$10 \$15 \$20;
#X connect 0 0 2 0;
#X connect 0 0 7 0;
#X connect 0 0 8 0;
#X connect 0 0 9 0;
#X connect 0 0 10 0;
#X connect 2 0 1 0;
#X connect 7 0 3 0;
#X connect 8 0 4 0;
#X connect 9 0 5 0;
#X connect 10 0 6 0;
#X restore 424 21 pd split;
#X obj 424 -19 inlet;
#X obj 424 2 t a a;
#X obj 700 19 list length;
#X obj 701 40 == 20;
#X obj 701 61 sel 0;
#X obj 701 101 print warning;
#X msg 701 81 Wrong mixer arguments. Needs 20 (5x4) cc values.;
#X obj 717 191 import iemmatrix;
#X obj 280 55 matrix-to4 1 \$1;
#X obj 280 76 matrix-to4 2 \$1;
#X obj 281 95 matrix-to4 3 \$1;
#X obj 280 116 matrix-to4 4 \$1;
#X obj 480 60 matrix-to4 5 \$1;
#X text 472 266 TODO;
#X connect 0 0 17 0;
#X connect 0 1 17 0;
#X connect 1 0 18 1;
#X connect 2 0 19 1;
#X connect 3 0 19 2;
#X connect 4 0 19 4;
#X connect 5 0 19 3;
#X connect 6 0 18 2;
#X connect 7 0 18 3;
#X connect 8 0 18 4;
#X connect 17 0 19 0;
#X connect 17 0 18 0;
#X connect 18 0 10 0;
#X connect 18 1 12 0;
#X connect 18 2 15 0;
#X connect 18 3 16 0;
#X connect 18 4 21 0;
#X connect 19 0 9 0;
#X connect 19 1 11 0;
#X connect 19 2 13 0;
#X connect 19 3 14 0;
#X connect 19 4 20 0;
#X connect 24 0 34 0;
#X connect 24 0 35 0;
#X connect 24 0 36 0;
#X connect 24 0 37 0;
#X connect 24 0 38 0;
#X connect 25 0 34 1;
#X connect 25 1 35 1;
#X connect 25 2 36 1;
#X connect 25 3 37 1;
#X connect 25 4 38 1;
#X connect 26 0 27 0;
#X connect 27 0 25 0;
#X connect 27 1 28 0;
#X connect 28 0 29 0;
#X connect 29 0 30 0;
#X connect 30 0 32 0;
#X connect 32 0 31 0;
#X connect 34 0 0 0;
#X connect 35 0 0 0;
#X connect 36 0 0 0;
#X connect 37 0 0 0;
#X connect 38 1 0 0;
