#N canvas 113 44 1111 662 10;
#X declare -lib iemmatrix;
#X obj 280 153 t b a;
#X obj 148 148 inlet~;
#X obj 141 128 inlet~;
#X obj 124 476 outlet~;
#X obj 131 502 outlet~;
#X obj 151 522 outlet~;
#X obj 161 542 outlet~;
#X obj 181 562 outlet~;
#X obj 211 612 outlet~;
#X obj 192 585 outlet~;
#X obj 232 635 outlet~;
#X obj 465 607 outlet~;
#X obj 486 630 outlet~;
#X obj 279 6 inlet;
#X obj 424 -19 inlet;
#X obj 424 2 t a a;
#X obj 700 19 list length;
#X obj 701 61 sel 0;
#X obj 701 101 print warning;
#X obj 717 191 import iemmatrix;
#X obj 280 55 matrix-to4 1 \$1;
#X obj 378 56 matrix-to4 5 \$1;
#X text 517 463 1 in => 4 sends and a master.;
#X msg 701 81 Wrong mixer arguments. Needs 5 cc values.;
#X obj 701 40 == 5;
#X obj 424 22 list split 4;
#X msg 475 37 \$1 -1 -1 -1;
#X obj 372 357 mtx_mul~ 5 1 10;
#X obj 123 447 mtx_mul~ 5 1 10;
#X obj 281 177 mtx 5 1;
#X connect 0 0 29 0;
#X connect 0 1 29 0;
#X connect 1 0 27 1;
#X connect 2 0 28 1;
#X connect 13 0 20 0;
#X connect 13 0 21 0;
#X connect 14 0 15 0;
#X connect 15 0 25 0;
#X connect 15 1 16 0;
#X connect 16 0 24 0;
#X connect 17 0 23 0;
#X connect 20 0 0 0;
#X connect 21 1 0 0;
#X connect 23 0 18 0;
#X connect 24 0 17 0;
#X connect 25 0 20 1;
#X connect 25 1 26 0;
#X connect 26 0 21 1;
#X connect 27 0 4 0;
#X connect 27 1 6 0;
#X connect 27 2 9 0;
#X connect 27 3 10 0;
#X connect 27 4 12 0;
#X connect 28 0 3 0;
#X connect 28 1 5 0;
#X connect 28 2 7 0;
#X connect 28 3 8 0;
#X connect 28 4 11 0;
#X connect 29 0 27 0;
#X connect 29 0 28 0;
