#N canvas 0 19 817 714 10;
#X msg 213 116 \$2 \$1;
#X obj 213 137 -;
#X obj 213 183 until;
#X obj 213 204 0;
#X obj 250 205 + 1;
#X obj 302 268 list;
#X obj 213 268 list prepend;
#X msg 358 123 0;
#X obj 192 42 route symbol;
#X obj 192 -63 inlet;
#X obj 136 247 list;
#X obj 136 279 outlet;
#X obj 212 228 +;
#X msg 295 130 \$1;
#X text 40 350 Johannes Burström 2009;
#X obj 214 161 + 1;
#X obj 192 -39 t a b b;
#X obj 192 87 t b a a b;
#X text 47 319 Incoming list of separate floats or "x-y" expressions
=> a list of floats. Example: 2 3 6-9 => 2 3 6 7 8 9 Needs Zexy.;
#X obj 192 66 symbol2list -;
#X obj 391 62 drip;
#X obj 192 19 drip;
#X obj 177 -6 t b a;
#X connect 0 0 1 0;
#X connect 1 0 15 0;
#X connect 2 0 3 0;
#X connect 3 0 4 0;
#X connect 3 0 12 0;
#X connect 4 0 3 1;
#X connect 5 0 6 1;
#X connect 6 0 5 0;
#X connect 6 0 10 1;
#X connect 7 0 3 1;
#X connect 8 0 19 0;
#X connect 8 1 6 0;
#X connect 9 0 16 0;
#X connect 10 0 11 0;
#X connect 12 0 6 0;
#X connect 13 0 12 1;
#X connect 15 0 2 0;
#X connect 16 0 22 0;
#X connect 16 1 6 1;
#X connect 17 1 0 0;
#X connect 17 2 13 0;
#X connect 17 3 7 0;
#X connect 19 0 17 0;
#X connect 21 0 8 0;
#X connect 22 0 10 0;
#X connect 22 1 21 0;
