#N canvas 192 400 593 462 10;
#X declare -lib list-abs;
#X obj 39 -32 inlet;
#X msg 39 22 \$2 \$1;
#X obj 39 43 route \$1;
#X obj 210 156 outlet;
#X obj 39 86 \$5;
#X obj 391 13 inlet;
#X obj 391 58 \$6;
#X obj 391 104 list append \$1;
#X obj 39 0 route list;
#X obj 391 125 outlet;
#X obj 39 65 mctl-scalefrom \$3 \$4;
#X obj 391 81 mctl-scaleto \$3 \$4;
#X obj 391 36 route \$2;
#X msg 84 85 \$2 \$1;
#X obj 230 -23 import list-abs;
#X obj 39 108 prepent \$2;
#X connect 0 0 8 0;
#X connect 1 0 2 0;
#X connect 2 0 10 0;
#X connect 2 1 13 0;
#X connect 4 0 15 0;
#X connect 5 0 12 0;
#X connect 6 0 11 0;
#X connect 7 0 9 0;
#X connect 8 0 1 0;
#X connect 8 1 3 0;
#X connect 10 0 4 0;
#X connect 11 0 7 0;
#X connect 12 0 6 0;
#X connect 12 1 9 0;
#X connect 13 0 3 0;
#X connect 15 0 3 0;
