#N canvas 5 44 791 488 10;
#X obj 216 288 route 0 1 2;
#X obj 218 4 mctl-ctlin;
#X obj 216 242 route 0 1;
#X obj 216 265 f;
#X obj 216 311 1;
#X obj 237 333 0;
#X obj 258 311 1;
#X obj 321 247 r \$0-c;
#X obj 216 402 s \$0-c;
#X obj 306 294 route 0 1 2;
#X obj 306 270 f;
#X obj 304 315 2;
#X obj 325 338 2;
#X obj 216 379 t f b;
#X obj 219 43 pack;
#X floatatom 288 52 5 0 0 0 - - -;
#X obj 220 64 route 56 88;
#X obj 216 150 t b b;
#X obj 216 171 timer;
#X msg 217 85 \$2;
#X obj 215 196 moses 90;
#X obj 216 223 < 300;
#X obj 153 382 outlet;
#X obj 217 105 select \$1;
#X obj 310 380 inlet;
#X connect 0 0 4 0;
#X connect 0 1 5 0;
#X connect 0 2 6 0;
#X connect 1 0 14 0;
#X connect 1 1 14 1;
#X connect 2 0 3 0;
#X connect 2 1 10 0;
#X connect 3 0 0 0;
#X connect 4 0 13 0;
#X connect 5 0 13 0;
#X connect 6 0 13 0;
#X connect 7 0 3 1;
#X connect 7 0 10 1;
#X connect 9 1 12 0;
#X connect 10 0 9 0;
#X connect 11 0 13 0;
#X connect 12 0 13 0;
#X connect 13 0 8 0;
#X connect 13 0 22 0;
#X connect 14 0 16 0;
#X connect 16 2 19 0;
#X connect 17 0 18 0;
#X connect 17 1 18 1;
#X connect 18 0 20 0;
#X connect 19 0 23 0;
#X connect 20 1 21 0;
#X connect 21 0 2 0;
#X connect 23 0 17 0;
#X connect 24 0 8 0;
