#N canvas 352 470 450 300 10;
#X obj 81 -3 inlet;
#X obj 81 187 outlet;
#X obj 138 76 > 0;
#X obj 136 103 spigot;
#X obj 140 49 mctl-prectlin \$1;
#X obj 175 78 == \$2;
#X obj 190 192 outlet;
#X obj 221 136 == 0;
#X obj 81 125 t a a;
#X obj 174 156 spigot;
#X obj 82 153 spigot;
#X obj 280 79 \$2;
#X obj 281 100 == -1;
#X obj 280 57 once;
#X obj 82 19 t a b;
#X connect 0 0 14 0;
#X connect 2 0 3 0;
#X connect 3 0 7 0;
#X connect 3 0 10 1;
#X connect 4 0 2 0;
#X connect 4 1 5 0;
#X connect 5 0 3 1;
#X connect 7 0 9 1;
#X connect 8 0 10 0;
#X connect 8 1 9 0;
#X connect 9 0 6 0;
#X connect 10 0 1 0;
#X connect 11 0 12 0;
#X connect 12 0 10 1;
#X connect 12 0 7 0;
#X connect 13 0 11 0;
#X connect 14 0 8 0;
#X connect 14 1 13 0;
