#N canvas 368 338 653 348 10;
#X obj 285 -5 dollarg;
#X obj 132 192 list prepend;
#X obj 132 212 list trim;
#X obj 132 -18 r OUT;
#X obj 132 235 s IN;
#X obj 319 72 list-drip;
#N canvas 0 0 450 300 \$0-foo 0;
#X obj 131 176 outlet;
#X obj 126 20 inlet;
#X restore 132 5 pd \$0-foo;
#X obj 311 227 s pd-\$0-foo;
#X obj 344 109 2;
#X obj 373 111 + 1;
#X obj 318 90 t a b;
#X obj 314 174 list;
#X obj 339 155 pack 0 0;
#X obj 342 130 t f f;
#X obj 401 140 - 1;
#X obj 403 172 f;
#X msg 396 224 connect \$1 0 0 0;
#X msg 314 198 obj 0 0 route \$1 \, connect \$3 0 \$2 0;
#X obj 319 41 list split 2;
#X obj 284 -46 r \$1-INOUT;
#X obj 286 -26 route init;
#X obj 132 85 mctl-cell \$1 \$2 \$3 \$4 \$5 \$6;
#X obj 285 15 list split 6;
#X obj 132 115 \$9 \$10 \$11;
#X obj 132 42 \$12 \$13 \$14;
#X connect 0 0 22 0;
#X connect 1 0 2 0;
#X connect 2 0 4 0;
#X connect 3 0 6 0;
#X connect 5 0 10 0;
#X connect 5 1 15 0;
#X connect 6 0 24 0;
#X connect 8 0 9 0;
#X connect 8 0 13 0;
#X connect 9 0 8 1;
#X connect 10 0 11 0;
#X connect 10 1 8 0;
#X connect 11 0 17 0;
#X connect 12 0 11 1;
#X connect 13 0 12 0;
#X connect 13 0 15 1;
#X connect 13 1 14 0;
#X connect 14 0 12 1;
#X connect 15 0 16 0;
#X connect 16 0 7 0;
#X connect 17 0 7 0;
#X connect 18 0 5 0;
#X connect 18 0 1 1;
#X connect 19 0 20 0;
#X connect 20 0 0 0;
#X connect 21 0 23 0;
#X connect 22 1 18 0;
#X connect 23 0 1 0;
#X connect 24 0 21 0;
