#N canvas 396 375 450 300 10;
#X obj 80 46 inlet;
#X obj 80 228 outlet;
#X obj 80 173 *;
#X obj 130 126 \$2;
#X obj 130 148 - \$1;
#X obj 80 203 + \$1;
#X obj 80 73 t a b;
#X obj 80 107 / 999;
#X connect 0 0 6 0;
#X connect 2 0 5 0;
#X connect 3 0 4 0;
#X connect 4 0 2 1;
#X connect 5 0 1 0;
#X connect 6 0 7 0;
#X connect 6 1 3 0;
#X connect 7 0 2 0;
