#N canvas 25 132 450 300 10;
#X msg 144 -113 0;
#X obj 163 -87 metro 300;
#X obj 158 -33 yambc 2;
#X msg 183 -112 0;
#X msg 342 -17 127;
#X obj 163 -67 t b b;
#X obj 162 -9 * 32;
#X obj 163 13 + 56;
#X obj 144 -134 route 0 2 1;
#X obj 146 -162 inlet;
#X obj 142 54 ctlout \$1;
#X obj 261 23 inlet;
#X connect 0 0 1 0;
#X connect 0 0 10 0;
#X connect 1 0 5 0;
#X connect 2 1 6 0;
#X connect 3 0 1 0;
#X connect 4 0 10 0;
#X connect 5 0 2 0;
#X connect 6 0 7 0;
#X connect 7 0 10 0;
#X connect 8 0 0 0;
#X connect 8 1 1 0;
#X connect 8 2 3 0;
#X connect 8 2 4 0;
#X connect 9 0 8 0;
#X connect 11 0 10 1;
