#N canvas 105 84 811 405 10;
#X obj 188 242 > 0;
#X obj 188 263 sel 1;
#X obj 188 285 f;
#X obj 238 258 inlet;
#X obj 131 217 inlet;
#X text 253 119 Store float in 2nd inlet \, which is sent to cc \$1
when cc \$2 is > 0 Force sending with bang/float in 1st inlet.;
#X text 303 171 JOhannes Burstrom 2009;
#X obj 187 215 spigot;
#X obj 187 164 mctl-postctlin \$1;
#X obj 188 310 ctlout \$2;
#X obj 223 189 == \$3;
#X connect 0 0 1 0;
#X connect 1 0 2 0;
#X connect 2 0 9 0;
#X connect 3 0 2 1;
#X connect 4 0 2 0;
#X connect 7 0 0 0;
#X connect 8 0 7 0;
#X connect 8 1 10 0;
#X connect 10 0 7 1;
