#N canvas 585 482 450 300 10;
#X msg 210 185 add2 \$1;
#X obj 210 156 change;
#X obj 103 117 bng 15 250 50 0 empty empty empty 17 7 0 10 -262144
-1 -1;
#X obj 210 134 mctl-ctlin;
#X msg 267 185 bang \, set;
#X obj 267 238 outlet;
#X text 102 142 press bang;
#X floatatom 148 116 5 0 0 0 - - -;
#X msg 275 156 set -1;
#X text 100 131 Turn knob. and;
#X connect 0 0 5 0;
#X connect 1 0 0 0;
#X connect 2 0 4 0;
#X connect 2 0 8 0;
#X connect 3 1 1 0;
#X connect 3 1 7 0;
#X connect 4 0 5 0;
#X connect 8 0 1 0;
#X coords 0 -1 1 1 85 60 1 100 100;
