#N canvas 10 66 450 300 10;
#X obj 23 31 mctl-setcontrols;
#X msg 23 51 33 34 35 46 47 36 39 7;
#X obj 23 10 loadbang;
#X obj 280 158 mctl-singlestation;
#X obj 23 77 list split 1;
#X floatatom 23 104 5 0 0 0 - - -;
#X text 113 32 Toggle to "midi learn" a list of cc/nrpn values;
#X connect 0 0 1 0;
#X connect 1 0 4 0;
#X connect 2 0 0 0;
#X connect 4 0 5 0;
