#N canvas 5 44 677 490 10;
#X obj 173 -57 t b b;
#X obj 172 1 * 32;
#X obj 173 23 + 56;
#X obj 173 -162 inlet;
#X obj 286 -80 inlet;
#X obj 173 -77 metro \$2;
#X obj 171 -29 f;
#X obj 201 -28 + 1;
#X obj 146 -103 t a a a;
#X obj 231 -57 sel 0;
#X msg 274 -51 0;
#X obj 235 -28 mod 2;
#X obj 108 -82 change;
#X obj 104 -53 sel 0;
#X obj 106 -16 0;
#X obj 174 56 list append \$1;
#X obj 174 81 outlet;
#X connect 0 0 6 0;
#X connect 1 0 2 0;
#X connect 2 0 15 0;
#X connect 3 0 8 0;
#X connect 4 0 5 1;
#X connect 5 0 0 0;
#X connect 6 0 7 0;
#X connect 7 0 11 0;
#X connect 8 0 12 0;
#X connect 8 1 5 0;
#X connect 8 2 9 0;
#X connect 9 0 10 0;
#X connect 10 0 6 1;
#X connect 11 0 6 1;
#X connect 11 0 1 0;
#X connect 12 0 13 0;
#X connect 13 0 14 0;
#X connect 14 0 15 0;
#X connect 15 0 16 0;
