#N canvas 347 224 829 417 10;
#X obj 324 192 f;
#X msg 324 277 \$1;
#X obj 210 145 sel 0;
#X obj 375 146 sel 127;
#X msg 246 194 127;
#X obj 246 231 change;
#X msg 210 190 0;
#X obj 210 42 ctlin;
#X obj 375 122 spigot;
#X obj 408 97 == \$2;
#X obj 210 121 spigot;
#X obj 242 98 == \$1;
#X obj 324 310 list append \$1;
#X obj 246 331 list append \$2;
#X obj 246 357 ctlout;
#X text 446 170 Mute cc \$1 with cc \$2 (and remember state to unmute)
;
#X connect 0 0 1 0;
#X connect 1 0 12 0;
#X connect 2 0 6 0;
#X connect 2 1 0 1;
#X connect 2 1 4 0;
#X connect 3 0 0 0;
#X connect 3 1 1 0;
#X connect 4 0 5 0;
#X connect 5 0 13 0;
#X connect 6 0 5 0;
#X connect 7 0 8 0;
#X connect 7 0 10 0;
#X connect 7 1 9 0;
#X connect 7 1 11 0;
#X connect 8 0 3 0;
#X connect 9 0 8 1;
#X connect 10 0 2 0;
#X connect 11 0 10 1;
#X connect 12 0 14 0;
#X connect 13 0 14 0;
