#N canvas 324 200 1111 662 10;
#X declare -lib iemmatrix;
#X obj -145 411 t b a;
#X obj -167 -18 inlet;
#X obj 222 -16 inlet;
#X obj 222 5 t a a;
#X obj 203 116 list length;
#X obj 204 158 sel 0;
#X obj 204 223 print warning;
#X obj 430 159 import iemmatrix;
#X obj -63 157 inlet;
#N canvas 10 66 450 300 q 0;
#X obj 138 66 inlet;
#X obj 138 94 t f f;
#X obj 138 117 *;
#X obj 138 139 t f f;
#X obj 138 163 *;
#X obj 138 188 outlet;
#X connect 0 0 1 0;
#X connect 1 0 2 0;
#X connect 1 1 2 1;
#X connect 2 0 3 0;
#X connect 3 0 4 0;
#X connect 3 1 4 1;
#X connect 4 0 5 0;
#X restore -164 241 pd q;
#X obj -78 111 loadbang;
#X obj -165 179 unpack f f;
#X obj -164 212 / 127;
#X obj -106 225 list-index;
#X obj -62 180 unpack f f;
#X text -22 159 Raw input (val 0-1 \, index);
#X text -124 13 Midi input (val 0-\$1 \, midi ctl);
#X obj 204 137 == 20;
#X obj -164 341 pack f f f;
#X obj -148 454 outlet;
#X obj -145 434 mtx \$1 \$2;
#X obj 303 141 *;
#X obj 303 64 loadbang;
#X obj 308 107 t f b;
#X obj 307 86 f \$1;
#X obj 335 129 f \$2;
#X obj 205 180 f;
#X msg 204 203 Wrong number of mixer arguments. Needs \$1 cc values.
;
#X obj -104 265 t f f;
#X obj -106 314 + 1;
#X obj -69 315 + 1;
#X msg -164 369 element \$3 \$2 \$1;
#X obj -62 291 mod \$1;
#X obj -106 293 div \$1;
#X obj -78 132 purepd/float_argument \$3 127;
#X obj -164 110 multi-sel;
#X obj -165 131 list;
#X obj -167 32 t a a;
#X msg -168 7 \$2 \$1;
#X msg -164 154 \$2 \$1;
#X msg -112 -13 100 66;
#X obj -166 68 list split 1;
#X connect 0 0 20 0;
#X connect 0 1 20 0;
#X connect 1 0 38 0;
#X connect 2 0 3 0;
#X connect 3 0 13 1;
#X connect 3 0 35 1;
#X connect 3 1 4 0;
#X connect 4 0 17 0;
#X connect 5 0 26 0;
#X connect 8 0 14 0;
#X connect 9 0 18 0;
#X connect 10 0 34 0;
#X connect 11 0 12 0;
#X connect 11 1 13 0;
#X connect 12 0 9 0;
#X connect 13 0 28 0;
#X connect 14 0 9 0;
#X connect 14 1 28 0;
#X connect 17 0 5 0;
#X connect 18 0 31 0;
#X connect 20 0 19 0;
#X connect 21 0 17 1;
#X connect 21 0 26 1;
#X connect 22 0 24 0;
#X connect 23 0 21 0;
#X connect 23 1 25 0;
#X connect 24 0 23 0;
#X connect 25 0 21 1;
#X connect 26 0 27 0;
#X connect 27 0 6 0;
#X connect 28 0 33 0;
#X connect 28 1 32 0;
#X connect 29 0 18 1;
#X connect 30 0 18 2;
#X connect 31 0 0 0;
#X connect 32 0 30 0;
#X connect 33 0 29 0;
#X connect 34 0 12 1;
#X connect 35 0 36 0;
#X connect 36 0 39 0;
#X connect 37 0 41 0;
#X connect 37 1 36 1;
#X connect 38 0 37 0;
#X connect 39 0 11 0;
#X connect 40 0 37 0;
#X connect 41 0 35 0;
