#N canvas 0 0 471 452 10;
#X obj 134 26 inlet;
#X obj 204 333 outlet;
#X obj 212 200 sel;
#X obj 211 111 t f f;
#X obj 212 240 f;
#X obj 212 220 t b b;
#X obj 211 56 t b a b;
#X obj 212 168 tabread \$1;
#X obj 211 91 countup \$2;
#X obj 297 108 -1;
#X obj 199 133 t f f;
#X obj 157 159 + 1;
#X obj 147 197 sel \$2;
#X obj 233 295 f;
#X connect 0 0 6 0;
#X connect 2 0 5 0;
#X connect 3 0 10 0;
#X connect 3 1 4 1;
#X connect 4 0 1 0;
#X connect 5 0 4 0;
#X connect 5 1 8 1;
#X connect 6 0 8 0;
#X connect 6 1 2 1;
#X connect 6 2 9 0;
#X connect 7 0 2 0;
#X connect 8 0 3 0;
#X connect 9 0 13 1;
#X connect 10 0 11 0;
#X connect 10 1 7 0;
#X connect 11 0 12 0;
#X connect 12 0 13 0;
#X connect 13 0 1 0;
