#N canvas 390 102 945 635 10;
#X declare -lib list-abs;
#X declare -lib list-abs;
#X declare -lib list-abs;
#X declare -lib list-abs;
#X declare -lib list-abs;
#X declare -lib list-abs;
#X declare -lib list-abs;
#X declare -lib list-abs;
#X declare -lib list-abs;
#X declare -lib list-abs;
#X declare -lib lua;
#X obj 51 169 mctl-group \$1 65-72;
#X obj 52 445 mctl-exclusive \$1 65-72;
#X obj 89 390 mctl-ctlout \$1;
#X msg -70 209 reset \, bang;
#X obj 90 362 mctl-blink 72 400;
#N canvas 0 0 1022 569 midigroups 0;
#X obj 74 207 mctl-group \$1 65-71;
#X obj 46 77 == 65;
#X obj 94 257 mctl-group \$1 65-71;
#X obj 134 307 mctl-group \$1 65-71;
#X obj 154 357 mctl-group \$1 65-71;
#X obj 234 207 mctl-group \$1 65-71;
#X obj 254 257 mctl-group \$1 65-71;
#X obj 294 307 mctl-group \$1 65-71;
#X obj 314 357 mctl-group \$1 65-71;
#X obj 94 233 == 66;
#X obj 135 282 == 67;
#X obj 154 333 == 68;
#X obj 206 77 == 69;
#X obj 254 233 == 70;
#X obj 294 283 == 71;
#X obj 314 333 == 72;
#X obj 45 28 inlet;
#X obj 440 440 outlet;
#X obj 402 81 0;
#X obj 403 56 loadbang;
#X obj 548 80 inlet;
#X obj 414 167 route 1 2 3 4 5 6 7 8;
#X obj 101 437 outlet;
#X connect 0 0 22 0;
#X connect 0 1 17 0;
#X connect 1 0 0 0;
#X connect 2 0 22 0;
#X connect 2 1 17 0;
#X connect 3 0 22 0;
#X connect 3 1 17 0;
#X connect 4 0 22 0;
#X connect 4 1 17 0;
#X connect 5 0 22 0;
#X connect 5 1 17 0;
#X connect 6 0 22 0;
#X connect 6 1 17 0;
#X connect 7 0 22 0;
#X connect 7 1 17 0;
#X connect 8 0 22 0;
#X connect 8 1 17 0;
#X connect 9 0 2 0;
#X connect 10 0 3 0;
#X connect 11 0 4 0;
#X connect 12 0 5 0;
#X connect 13 0 6 0;
#X connect 14 0 7 0;
#X connect 15 0 8 0;
#X connect 16 0 1 0;
#X connect 16 0 9 0;
#X connect 16 0 10 0;
#X connect 16 0 11 0;
#X connect 16 0 12 0;
#X connect 16 0 13 0;
#X connect 16 0 14 0;
#X connect 16 0 15 0;
#X connect 18 0 0 0;
#X connect 18 0 2 0;
#X connect 18 0 3 0;
#X connect 18 0 4 0;
#X connect 18 0 5 0;
#X connect 18 0 6 0;
#X connect 18 0 7 0;
#X connect 18 0 8 0;
#X connect 19 0 18 0;
#X connect 20 0 21 0;
#X connect 21 0 0 1;
#X connect 21 1 2 1;
#X connect 21 2 3 1;
#X connect 21 3 4 1;
#X connect 21 4 5 1;
#X connect 21 5 6 1;
#X connect 21 6 7 1;
#X connect 21 7 8 1;
#X restore 150 311 pd midigroups;
#X text 238 311 1-8 set val cc;
#X obj 434 112 import lua;
#X obj 51 232 t f f f;
#X obj 70 261 sel 0;
#X obj 52 424 -;
#X msg 51 404 1 \$1;
#X obj 51 210 luax buttons65-72;
#X obj 225 282 inlet;
#X obj 150 332 outlet;
#X text 171 210 Here's the logic.;
#X text 52 112 8 buttons (65-72) with two modes: one for selecting
instrument and going into second mode \, where you can edit 7 parameters
(65-71) and go back to first mode (72).;
#X connect 0 0 12 0;
#X connect 0 1 2 0;
#X connect 3 0 0 0;
#X connect 4 0 2 0;
#X connect 5 0 14 0;
#X connect 5 1 2 0;
#X connect 8 0 11 0;
#X connect 8 1 9 0;
#X connect 8 2 4 0;
#X connect 9 0 3 0;
#X connect 10 0 1 0;
#X connect 11 0 10 0;
#X connect 12 0 8 0;
#X connect 12 1 5 0;
#X connect 13 0 5 1;
