#N canvas 0 15 790 850 10;
#N canvas 0 15 790 850 delay 0;
#X obj 216 101 inlet~;
#X obj 146 101 inlet~;
#X obj 215 252 outlet~;
#X obj 149 251 outlet~;
#X obj 348 125 inlet~ lfo;
#X obj 144 -13 r OSC;
#X obj 459 207 switch~;
#X obj 147 220 volctl~ 0 10;
#X obj 217 220 volctl~ 0 10;
#X obj 144 175 delay_mono;
#X obj 502 142 max;
#X obj 501 99 t b f;
#X obj 499 122 f;
#X obj 146 132 volctl~ 0 10;
#X obj 236 135 volctl~ 0 10;
#X obj 459 181 switchdelay 2000;
#X obj 132 43 OSCroute /ltime /rtime /lfb /rfb /dry-notused /vol /onoff
;
#X obj 323 -5 outlet;
#X obj 328 230 OSCroute /gapper-prob /gapper-size;
#X obj 144 8 OSCroute /delay /tempo;
#X obj -21 27 OSCroute /master_tempo;
#X obj -20 64 t f f f f;
#X obj 43 -3 r MASTER_TEMPO;
#X obj 5 132 /;
#X obj 2 95 sel 0;
#X obj 3 165 spigot;
#X obj 125 76 spigot 1;
#X obj 187 76 spigot 1;
#X obj 60 76 == 0;
#X obj 293 19 simple-osc-seq-4 /delay;
#X floatatom 22 242 5 0 0 0 - - -;
#X obj 215 172 delay_mono;
#X connect 0 0 14 0;
#X connect 1 0 13 0;
#X connect 4 0 9 4;
#X connect 4 0 31 4;
#X connect 5 0 17 0;
#X connect 5 0 19 0;
#X connect 7 0 3 0;
#X connect 8 0 2 0;
#X connect 9 0 7 0;
#X connect 10 0 15 0;
#X connect 11 0 12 0;
#X connect 11 1 10 1;
#X connect 12 0 10 0;
#X connect 13 0 9 0;
#X connect 14 0 31 0;
#X connect 15 0 6 0;
#X connect 16 0 26 0;
#X connect 16 1 12 0;
#X connect 16 1 27 0;
#X connect 16 2 9 2;
#X connect 16 2 11 0;
#X connect 16 3 31 2;
#X connect 16 5 9 3;
#X connect 16 5 31 3;
#X connect 16 6 7 1;
#X connect 16 6 8 1;
#X connect 16 6 13 1;
#X connect 16 6 14 1;
#X connect 16 6 15 0;
#X connect 16 7 18 0;
#X connect 18 0 9 5;
#X connect 18 0 31 5;
#X connect 18 1 9 6;
#X connect 18 1 31 6;
#X connect 19 0 16 0;
#X connect 19 0 20 0;
#X connect 19 0 29 0;
#X connect 20 0 21 0;
#X connect 21 0 25 1;
#X connect 21 1 24 0;
#X connect 21 3 28 0;
#X connect 22 0 23 0;
#X connect 23 0 25 0;
#X connect 24 1 23 1;
#X connect 25 0 9 1;
#X connect 25 0 31 1;
#X connect 26 0 9 1;
#X connect 27 0 31 1;
#X connect 28 0 26 1;
#X connect 28 0 27 1;
#X connect 29 0 16 0;
#X connect 31 0 8 0;
#X restore 137 97 pd delay;
#X obj 101 51 inlet~;
#X obj 141 51 inlet~;
#X obj 181 51 inlet~;
#X obj 139 205 outlet~;
#X obj 159 225 outlet~;
#X connect 0 0 4 0;
#X connect 0 1 5 0;
#X connect 1 0 0 0;
#X connect 2 0 0 1;
#X connect 3 0 0 2;
