#N canvas 0 15 790 850 10;
#X obj 70 305 outlet~;
#X obj 115 197 delwrite~ \$0_delay1 2000;
#X obj 122 86 vd~ \$0_delay1;
#X obj 258 259 inlet vol;
#X obj 108 167 volctl~ 0 10;
#X obj 191 133 inlet fb;
#X obj 94 -3 inlet time;
#X obj 12 193 inlet~ sig;
#X obj 188 218 noise~;
#X obj 186 242 *~ 1e-10;
#X obj 258 305 > 0;
#X obj 258 359 switch~;
#X obj 371 35 inlet~ sigctl;
#X obj 122 61 *~;
#X obj 95 61 +~;
#X obj 337 145 lop~ 0.1;
#X obj 191 155 / 100;
#X obj 94 39 line~;
#X msg 95 18 \$1 30;
#X obj 75 277 myvolctl~ 0 10;
#X obj 171 278 / 100;
#X obj 108 147 hip~ 5;
#X obj 258 326 switchdelay;
#X obj 92 110 gapper~;
#X obj 497 37 inlet gapper-prob;
#X obj 519 57 inlet gapper-size;
#X connect 2 0 23 0;
#X connect 3 0 10 0;
#X connect 3 0 20 0;
#X connect 4 0 1 0;
#X connect 5 0 16 0;
#X connect 6 0 18 0;
#X connect 6 0 22 1;
#X connect 7 0 1 0;
#X connect 8 0 9 0;
#X connect 9 0 1 0;
#X connect 10 0 22 0;
#X connect 12 0 15 0;
#X connect 13 0 14 1;
#X connect 14 0 2 0;
#X connect 15 0 13 1;
#X connect 16 0 4 1;
#X connect 17 0 13 0;
#X connect 17 0 14 0;
#X connect 18 0 17 0;
#X connect 19 0 0 0;
#X connect 20 0 19 1;
#X connect 21 0 4 0;
#X connect 22 0 11 0;
#X connect 23 0 19 0;
#X connect 23 0 21 0;
#X connect 24 0 23 1;
#X connect 25 0 23 2;
