#N canvas 244 44 921 818 10;
#X obj 94 348 outlet~;
#X obj 92 33 vd~ \$0_delay1;
#X obj 108 167 volctl~ 0 10;
#X obj 12 157 inlet~ sig;
#X obj 108 147 hip~ 5;
#X obj 92 110 gapper~;
#X obj 93 8 inlet~ time;
#X obj 273 65 inlet;
#X obj 273 88 dispatch \$0 /gapper-prob;
#X obj 273 111 dispatch \$0 /gapper-size;
#X obj 107 188 delwrite~ \$0_delay1 \$2;
#X obj 273 132 dispatch \$0 /feedback;
#X obj 142 123 r \$0-/feedback;
#X obj 111 59 r \$0-/gapper-prob;
#X obj 131 79 r \$0-/gapper-size;
#X connect 1 0 5 0;
#X connect 2 0 10 0;
#X connect 3 0 10 0;
#X connect 4 0 2 0;
#X connect 5 0 4 0;
#X connect 5 0 0 0;
#X connect 6 0 1 0;
#X connect 7 0 8 0;
#X connect 8 0 9 0;
#X connect 9 0 11 0;
#X connect 12 0 2 1;
#X connect 13 0 5 1;
#X connect 14 0 5 2;
