#N canvas 162 478 980 339 10;
#X obj 249 190 measurestotime;
#X obj 249 216 / \$7;
#X obj 222 122 list \$4 \$5 \$6;
#X obj 222 142 measures-minus \$1 \$2 \$3;
#X obj 222 164 t a a;
#X obj 398 82 t a a;
#X obj 398 59 spigot \$8;
#X obj 220 -6 inlet;
#X obj 221 13 t a a;
#X obj 300 -6 inlet;
#X obj 301 13 t a a;
#X obj 401 -5 inlet;
#X obj 481 -3 inlet;
#X obj 249 312 outlet;
#X obj 479 246 outlet;
#X obj 249 263 t b f f;
#X obj 583 206 outlet;
#X obj 223 91 t b b;
#X obj 398 37 measures-plus \$1 \$2 \$3;
#X text 3 39 Two bang objects for looping \; Makes sure that abstraction
resets \; upon bang from transport;
#X text 430 111 A metro Going with \$7 ticks from [\$1 \$2 \$3] to
[\$4 \$5 \$6]. If \$8 is != 0 \, Everything loops.;
#X text 706 196 TODO: add resets for transport change;
#X obj 222 35 transport.bang \$1 \$2 \$3;
#X obj 247 63 transport.bang 0 0 0;
#X text 590 25 BROKEN;
#X obj 248 287 metroforawhile 1000 \$7;
#X connect 0 0 1 0;
#X connect 1 0 15 0;
#X connect 2 0 3 0;
#X connect 3 0 4 0;
#X connect 4 0 18 0;
#X connect 4 1 0 0;
#X connect 5 0 23 0;
#X connect 5 1 18 1;
#X connect 6 0 5 0;
#X connect 7 0 8 0;
#X connect 8 0 22 0;
#X connect 8 1 3 1;
#X connect 9 0 10 0;
#X connect 10 0 2 1;
#X connect 10 1 18 1;
#X connect 11 0 1 1;
#X connect 12 0 6 1;
#X connect 15 0 25 0;
#X connect 15 1 25 1;
#X connect 15 2 14 0;
#X connect 17 0 2 0;
#X connect 17 1 16 0;
#X connect 18 0 6 0;
#X connect 22 0 17 0;
#X connect 23 0 17 0;
#X connect 25 0 13 0;
