#N canvas 483 250 926 590 10;
#X declare -lib list-abs;
#X declare -lib list-abs;
#X declare -lib list-abs;
#X declare -lib list-abs;
#X declare -lib list-abs;
#X declare -lib list-abs;
#X declare -lib list-abs;
#X declare -lib list-abs;
#X declare -lib list-abs;
#X declare -lib list-abs;
#X declare -lib list-abs;
#X obj 12 5 inlet;
#X text 265 -4 bank select;
#X obj 455 86 route keypad;
#X msg 395 41 keydown-x;
#X obj 231 87 route keypad;
#X msg 170 35 keydown-b;
#X obj 80 84 msgtree keydown-b;
#X obj 80 105 msgtree keypad;
#X obj 315 80 msgtree keydown-x;
#X obj 315 100 msgtree keypad;
#X obj 16 225 msgtree keydown-v;
#X obj 23 184 msgtree keydown-Space 1 b;
#X obj 11 498 route _ctl;
#X obj 11 519 sel 1;
#X obj 10 540 f \$1;
#X msg 10 563 Graintrainr-\$1;
#N canvas 546 365 696 497 touchpad 0;
#X obj 115 6 inlet;
#N canvas 55 264 930 588 chaos 0;
#X obj 75 20 inlet;
#X obj 66 479 outlet;
#X obj 75 84 prepent lengthdev;
#X obj 88 110 prepent speeddev;
#X obj 75 59 t a a a a a a a a a;
#X obj 105 129 prepent lengthdev;
#X obj 118 150 prepent speeddev;
#X obj 125 169 prepent lengthdev;
#X obj 138 190 prepent speeddev;
#X obj 155 209 prepent lengthdev;
#X obj 168 230 prepent speeddev;
#N canvas 15 88 450 300 scale 0;
#X obj 58 67 inlet;
#X obj 81 222 outlet;
#X connect 0 0 1 0;
#X restore 75 258 pd scale;
#N canvas 10 66 450 300 scale 0;
#X obj 58 67 inlet;
#X obj 81 222 outlet;
#X connect 0 0 1 0;
#X restore 85 278 pd scale;
#N canvas 5 44 450 300 scale 0;
#X obj 58 67 inlet;
#X obj 81 222 outlet;
#X restore 95 298 pd scale;
#N canvas 5 44 450 300 scale 0;
#X obj 58 67 inlet;
#X obj 81 222 outlet;
#X restore 105 318 pd scale;
#N canvas 5 44 450 300 scale 0;
#X obj 58 67 inlet;
#X obj 81 222 outlet;
#X restore 115 338 pd scale;
#N canvas 5 44 450 300 scale 0;
#X obj 58 67 inlet;
#X obj 81 222 outlet;
#X restore 125 358 pd scale;
#N canvas 5 44 450 300 scale 0;
#X obj 58 67 inlet;
#X obj 81 222 outlet;
#X restore 135 378 pd scale;
#N canvas 5 44 450 300 scale 0;
#X obj 58 67 inlet;
#X obj 81 222 outlet;
#X restore 145 398 pd scale;
#X text 320 294 Todo: optional pitch \, bpbw and bpfq dev's;
#X connect 0 0 4 0;
#X connect 2 0 11 0;
#X connect 3 0 12 0;
#X connect 4 0 2 0;
#X connect 4 1 3 0;
#X connect 4 2 5 0;
#X connect 4 3 6 0;
#X connect 4 4 7 0;
#X connect 4 5 8 0;
#X connect 4 6 9 0;
#X connect 4 7 10 0;
#X connect 11 0 1 0;
#X connect 12 0 1 0;
#X connect 13 0 1 0;
#X connect 14 0 1 0;
#X connect 15 0 1 0;
#X connect 16 0 1 0;
#X connect 17 0 1 0;
#X connect 18 0 1 0;
#X restore 187 196 pd chaos;
#N canvas 40 198 930 588 speed 0;
#X obj 75 20 inlet;
#X obj 66 479 outlet;
#X obj 286 82 prepent speeddev;
#X obj 75 59 t a a a a a a a a a;
#X obj 303 101 prepent lengthdev;
#X obj 316 122 prepent speeddev;
#X obj 323 141 prepent lengthdev;
#X obj 336 162 prepent speeddev;
#X obj 353 181 prepent lengthdev;
#X obj 366 202 prepent speeddev;
#X obj 80 311 prepent speed;
#X connect 0 0 3 0;
#X connect 3 0 10 0;
#X connect 3 1 2 0;
#X connect 3 2 4 0;
#X connect 3 3 5 0;
#X connect 3 4 6 0;
#X connect 3 5 7 0;
#X connect 3 6 8 0;
#X connect 3 7 9 0;
#X connect 10 0 1 0;
#X restore 255 192 pd speed;
#N canvas 50 242 930 588 density 0;
#X obj 75 20 inlet;
#X obj 66 479 outlet;
#X obj 75 59 t a a a a a a a a a;
#N canvas 10 66 450 300 scale 0;
#X obj 58 67 inlet;
#X obj 81 222 outlet;
#X connect 0 0 1 0;
#X restore 75 258 pd scale;
#N canvas 5 44 450 300 scale 0;
#X obj 58 67 inlet;
#X obj 81 222 outlet;
#X restore 85 278 pd scale;
#N canvas 5 44 450 300 scale 0;
#X obj 58 67 inlet;
#X obj 81 222 outlet;
#X restore 95 298 pd scale;
#N canvas 5 44 450 300 scale 0;
#X obj 58 67 inlet;
#X obj 81 222 outlet;
#X restore 105 318 pd scale;
#N canvas 5 44 450 300 scale 0;
#X obj 58 67 inlet;
#X obj 81 222 outlet;
#X restore 115 338 pd scale;
#N canvas 5 44 450 300 scale 0;
#X obj 58 67 inlet;
#X obj 81 222 outlet;
#X restore 125 358 pd scale;
#N canvas 5 44 450 300 scale 0;
#X obj 58 67 inlet;
#X obj 81 222 outlet;
#X restore 135 378 pd scale;
#N canvas 5 44 450 300 scale 0;
#X obj 58 67 inlet;
#X obj 81 222 outlet;
#X restore 145 398 pd scale;
#X obj 75 84 prepent density;
#X connect 0 0 2 0;
#X connect 2 0 11 0;
#X connect 3 0 1 0;
#X connect 4 0 1 0;
#X connect 5 0 1 0;
#X connect 6 0 1 0;
#X connect 7 0 1 0;
#X connect 8 0 1 0;
#X connect 9 0 1 0;
#X connect 10 0 1 0;
#X connect 11 0 3 0;
#X restore 220 171 pd density;
#X obj 194 280 outlet;
#X obj 186 133 route touchpad-x touchpad-y touchpad-z touchpad-fingerWidth
;
#X obj 183 30 msgtree touchpad-x;
#X obj 183 50 msgtree touchpad-y;
#X obj 183 70 msgtree touchpad-z;
#X obj 183 90 msgtree touchpad-fingerWidth;
#X connect 0 0 6 0;
#X connect 0 0 7 0;
#X connect 0 0 8 0;
#X connect 0 0 9 0;
#X connect 1 0 4 0;
#X connect 3 0 4 0;
#X connect 5 0 1 0;
#X connect 5 1 3 0;
#X connect 5 2 2 0;
#X connect 6 1 5 0;
#X connect 7 1 5 0;
#X connect 8 1 5 0;
#X connect 9 1 5 0;
#X restore 52 316 pd touchpad;
#X obj 11 364 msgtree keydown-m 1;
#X obj 80 63 msgtree-exclusive keydown-b keydown-x;
#X obj 352 375 reroute keydown-m /onoff;
#X obj 48 588 s \$2-current;
#X obj 351 348 reroute keydown-Space /random;
#X obj 354 465 s OSC;
#X obj 160 129 reroute keypad /bank;
#X obj 396 127 reroute keypad /temposync;
#X obj 353 421 OSCprepend /\$1;
#X obj 355 443 OSCprepend /gtr;
#X obj 296 498 reroute keydown-v /meta/gtr/\$1/vis;
#X connect 0 0 10 0;
#X connect 0 0 11 0;
#X connect 0 0 12 0;
#X connect 0 0 16 0;
#X connect 0 0 17 0;
#X connect 0 0 18 0;
#X connect 2 0 3 0;
#X connect 3 0 18 0;
#X connect 4 0 5 0;
#X connect 5 0 18 0;
#X connect 6 0 7 0;
#X connect 7 1 4 0;
#X connect 7 1 23 0;
#X connect 8 0 9 0;
#X connect 9 1 2 0;
#X connect 9 1 24 0;
#X connect 10 1 21 0;
#X connect 11 1 21 0;
#X connect 12 0 13 0;
#X connect 13 0 14 0;
#X connect 14 0 15 0;
#X connect 15 0 20 0;
#X connect 16 0 21 0;
#X connect 17 1 21 0;
#X connect 18 0 6 0;
#X connect 18 0 8 0;
#X connect 19 0 25 0;
#X connect 21 0 19 0;
#X connect 21 0 27 0;
#X connect 23 0 21 0;
#X connect 24 0 21 0;
#X connect 25 0 26 0;
#X connect 26 0 22 0;
#X connect 27 0 22 0;
