#N canvas 563 76 745 581 10;
#X declare -lib list-abs;
#X declare -lib hcs;
#X declare -lib list-abs -lib mrpeach;
#X declare -lib list-abs -lib mrpeach;
#X declare -lib list-abs;
#X declare -lib tabreadc;
#X declare -lib tabreadc;
#X declare -lib tabreadc;
#X declare -lib tabreadc;
#X declare -lib tabreadc;
#X declare -lib tabreadc;
#X declare -lib tabreadc;
#X declare -lib tabreadc;
#X declare -lib tabreadc;
#X declare -lib tabreadc;
#X declare -lib tabreadc;
#X declare -lib tabreadc;
#X declare -lib tabreadc;
#X declare -lib tabreadc;
#X declare -lib tabreadc;
#X declare -lib tabreadc;
#X obj 91 87 inlet;
#X obj -31 401 outlet~;
#X obj -1 421 outlet~;
#X obj 19 441 outlet~;
#X obj 186 378 s \$0-SSSAD;
#X obj 186 322 loadbang;
#X obj -33 236 undispatch \$0 /window;
#X obj -33 217 dispatch \$0 /window;
#N canvas 281 411 450 300 samplebank 0;
#X obj 237 271 outlet;
#X obj 58 70 route /bank /random;
#X obj 175 40 inlet;
#N canvas 717 180 561 660 load 0;
#X obj 66 225 globalsend WAVBANK;
#X obj 65 276 globalreceive WAVBANK;
#X obj 65 301 route file;
#X obj 38 51 inlet;
#X obj 65 581 outlet;
#X msg 66 99 random;
#X msg 141 51 random;
#X obj 39 74 t b b b;
#X obj 176 125 inlet;
#X obj 66 175 list append 0;
#X obj 66 204 prepent \$0;
#X obj 65 323 route \$0;
#X obj 65 344 t b a;
#X obj 65 388 list append;
#X obj 65 366 yambc 2;
#X obj 65 434 route 0 1;
#N canvas 0 0 450 300 load1 0;
#X obj 210 -146 wavpreload-getdata channels;
#X obj 70 -170 t a a;
#X msg 210 -126 channels \$1;
#X obj 70 -149 prepent load;
#X obj 136 -19 prepent /sample;
#X obj 136 -40 list;
#X obj 70 -52 t a b;
#X obj 70 8 list split 1;
#X obj 73 -193 inlet;
#X obj 70 91 outlet;
#X obj 70 -101 sample-safeload 4.8e+06;
#X obj 70 31 prepent /bufL;
#X obj 104 57 prepent /bufR;
#X obj 56 -76 list;
#X obj 11 -110 inlet;
#X connect 0 0 2 0;
#X connect 1 0 3 0;
#X connect 1 1 0 0;
#X connect 1 1 5 1;
#X connect 2 0 10 0;
#X connect 3 0 10 0;
#X connect 4 0 9 0;
#X connect 5 0 4 0;
#X connect 6 0 7 0;
#X connect 6 1 5 0;
#X connect 7 0 11 0;
#X connect 7 1 12 0;
#X connect 8 0 1 0;
#X connect 10 0 13 1;
#X connect 11 0 9 0;
#X connect 12 0 9 0;
#X connect 13 0 6 0;
#X connect 14 0 13 0;
#X restore 62 495 pd load1;
#N canvas 0 0 450 300 load1 0;
#X obj 210 -146 wavpreload-getdata channels;
#X obj 70 -170 t a a;
#X msg 210 -126 channels \$1;
#X obj 70 -149 prepent load;
#X obj 136 -19 prepent /sample;
#X obj 136 -40 list;
#X obj 70 -52 t a b;
#X obj 70 8 list split 1;
#X obj 73 -193 inlet;
#X obj 70 91 outlet;
#X obj 70 -101 sample-safeload 4.8e+06;
#X obj 70 31 prepent /bufL;
#X obj 104 57 prepent /bufR;
#X obj 56 -76 list;
#X obj 11 -110 inlet;
#X connect 0 0 2 0;
#X connect 1 0 3 0;
#X connect 1 1 0 0;
#X connect 1 1 5 1;
#X connect 2 0 10 0;
#X connect 3 0 10 0;
#X connect 4 0 9 0;
#X connect 5 0 4 0;
#X connect 6 0 7 0;
#X connect 6 1 5 0;
#X connect 7 0 11 0;
#X connect 7 1 12 0;
#X connect 8 0 1 0;
#X connect 10 0 13 1;
#X connect 11 0 9 0;
#X connect 12 0 9 0;
#X connect 13 0 6 0;
#X connect 14 0 13 0;
#X restore 132 495 pd load1;
#X obj 131 474 b;
#X obj 63 473 b;
#X text 219 473 Preloads sample (preloading 2 while playing 1);
#X connect 1 0 2 0;
#X connect 2 0 11 0;
#X connect 3 0 7 0;
#X connect 5 0 9 0;
#X connect 6 0 7 0;
#X connect 7 1 5 0;
#X connect 8 0 9 1;
#X connect 9 0 10 0;
#X connect 10 0 0 0;
#X connect 11 0 12 0;
#X connect 12 0 14 0;
#X connect 12 1 13 1;
#X connect 13 0 15 0;
#X connect 14 0 13 0;
#X connect 15 0 16 1;
#X connect 15 0 18 0;
#X connect 15 1 17 1;
#X connect 15 1 19 0;
#X connect 16 0 4 0;
#X connect 17 0 4 0;
#X connect 18 0 17 0;
#X connect 19 0 16 0;
#X restore 59 127 pd load;
#X connect 1 0 3 1;
#X connect 1 1 3 0;
#X connect 1 2 0 0;
#X connect 2 0 1 0;
#X connect 3 0 0 0;
#X restore -33 141 pd samplebank;
#N canvas 945 149 286 349 \$0-gui 0;
#X obj 6 -24 cnv 15 270 20 empty empty Graintrainr~- 1 12 0 14 -261234
-66577 0;
#X obj 42 -1 sssad.presets_ gtr~ \$0;
#X obj 236 -18 inlet;
#X obj 240 -18 inlet;
#X obj 126 294 hradio 15 1 0 10 \$0-/window \$0-/window empty 0 -8
0 10 -262144 -1 -1 0;
#X text 73 291 Window;
#X obj 4 272 hradio 15 1 0 17 \$0-/temposync \$0-temposync empty 0
-8 0 10 -262144 -1 -1 0;
#X floatatom 260 271 5 0 0 0 - - -;
#X obj 142 229 sssad-tgl \$0 /bponoff;
#X obj 3 229 sssad-tgl \$0 /onoff;
#X obj 3 249 sssad-tgl \$0 /onsetalign;
#X obj 142 69 sssad-slider \$0 /speeddev 0 1;
#X obj 3 89 sssad-slider \$0 /lengthdev 0 1;
#X obj 3 69 sssad-slider \$0 /speed 0 1 log;
#X obj 142 189 sssad-slider \$0 /bpfq 0 20000;
#X obj 142 89 sssad-slider \$0 /density 0 1 log;
#X obj 3 109 sssad-slider \$0 /pitchdev 0 1;
#X obj 142 129 sssad-slider \$0 /pan -45 45;
#X obj 3 129 sssad-slider \$0 /pandev 0 1;
#X obj 142 149 sssad-slider \$0 /vol 0 1;
#X obj 3 149 sssad-slider \$0 /voldev 0 1;
#X obj 142 169 sssad-slider \$0 /fxsend 0 1;
#X obj 3 169 sssad-slider \$0 /fxsendprob 0 1;
#X obj 3 189 sssad-slider \$0 /bpfqdev 0 1;
#X obj 142 209 sssad-slider \$0 /bpbw 0 20000;
#X obj 3 209 sssad-slider \$0 /bpbwdev 0 1;
#X obj 142 249 sssad-slider \$0 /maxgrainsize 0 5000;
#X obj 142 109 sssad-slider \$0 /pitch -4 4;
#X connect 2 0 1 0;
#X connect 6 0 7 0;
#X restore 235 157 pd \$0-gui;
#X obj -33 170 dispatch \$0 /temposync;
#X obj -33 189 undispatch \$0 /temposync;
#X msg -38 116 help;
#X msg -127 109 /speed 1;
#X obj -33 256 sendbus-dispatch \$0;
#X msg 186 343 /bpbwrange 0 5000 \, /pitchrange -4 4 \, /bpfqrange
0 20000 \, /temposync 0;
#N canvas 687 562 450 300 vis 0;
#X obj 323 245 s pd-\$0-gui;
#X msg 323 220 vis \$1;
#X obj 323 188 yambc 2;
#X obj 323 145 route bang float;
#X obj 368 170 == 0;
#X obj 322 72 inlet;
#X connect 1 0 0 0;
#X connect 2 1 1 0;
#X connect 3 0 2 0;
#X connect 3 1 4 0;
#X connect 4 0 2 0;
#X connect 5 0 3 0;
#X restore 287 111 pd vis;
#X obj 90 110 routeOSC /\$1;
#X msg 378 108 symbol 0_init;
#X obj 277 40 sssad-localtoglobal \$0 \$2 /gtr /\$1;
#X obj -100 136 r \$0-GUI;
#X obj -33 332 graintrain-onsetalign \$0;
#X obj 235 85 route /preset /vis;
#X msg 120 138 /temposync 8;
#X obj -110 168 route list;
#X obj -33 310 graintrain \$0;
#X obj 235 31 inlet;
#X obj 235 61 routeOSC /\$1;
#X msg 13 62 /bank 0 \, /random;
#X obj -32 378 bufgrainr~ \$0;
#X connect 0 0 17 0;
#X connect 5 0 15 0;
#X connect 6 0 14 0;
#X connect 7 0 6 0;
#X connect 8 0 10 0;
#X connect 10 0 11 0;
#X connect 11 0 7 0;
#X connect 14 0 25 0;
#X connect 15 0 4 0;
#X connect 17 0 8 0;
#X connect 18 0 9 0;
#X connect 20 0 24 0;
#X connect 21 0 29 0;
#X connect 22 0 9 0;
#X connect 22 1 16 0;
#X connect 23 0 8 0;
#X connect 24 0 8 0;
#X connect 25 0 21 0;
#X connect 26 0 27 0;
#X connect 27 0 22 0;
#X connect 28 0 8 0;
#X connect 29 0 1 0;
#X connect 29 1 2 0;
#X connect 29 2 3 0;
