#N canvas 10 66 450 300 10;
#N canvas 30 154 450 300 vumeter 0;
#X obj 58 42 env~;
#X obj 87 146 max;
#X obj 122 144 f;
#X obj 52 181 pack f f;
#X obj 56 127 t f f;
#X obj 57 94 - 100;
#X obj 123 122 -100;
#X obj 253 154 == 1;
#X obj 259 184 switch~;
#X obj 59 18 inlet~;
#X obj 163 168 sel 0;
#X msg 160 192 -100 -100;
#X obj 49 222 s \$1-vumeter;
#X obj 261 134 r \$1-vuchooser;
#X obj 123 102 r \$1-vureset;
#X connect 0 0 5 0;
#X connect 1 0 2 0;
#X connect 1 0 3 1;
#X connect 2 0 1 1;
#X connect 3 0 12 0;
#X connect 4 0 3 0;
#X connect 4 1 1 0;
#X connect 5 0 4 0;
#X connect 6 0 2 0;
#X connect 7 0 8 0;
#X connect 9 0 0 0;
#X connect 10 0 11 0;
#X connect 11 0 12 0;
#X connect 13 0 7 0;
#X connect 13 0 10 0;
#X connect 14 0 6 0;
#X restore 168 46 pd vumeter;
#X obj 149 77 pitch+onsets~;
#X obj 57 22 adc~ \$2;
#X obj 149 101 prepent adc\$2;
#X obj 55 150 outlet~;
#X obj 149 123 globalsend MSG;
#X connect 1 0 3 0;
#X connect 2 0 0 0;
#X connect 2 0 1 0;
#X connect 2 0 4 0;
#X connect 3 0 5 0;
