#N canvas 0 22 1004 818 10;
#X declare -lib list-abs;
#X declare -lib list-abs;
#X declare -lib list-abs;
#X declare -lib list-abs;
#X declare -lib list-abs;
#X declare -lib list-abs;
#X declare -lib list-abs;
#X declare -lib list-abs;
#X declare -lib list-abs;
#X declare -lib list-abs;
#X declare -lib list-abs;
#X declare -lib list-abs;
#X declare -lib list-abs;
#X declare -lib list-abs;
#X declare -lib list-abs;
#X declare -lib list-abs;
#X declare -lib list-abs;
#X declare -lib list-abs;
#X declare -lib list-abs;
#X declare -lib list-abs;
#X declare -lib list-abs;
#X declare -lib list-abs;
#X declare -lib list-abs;
#X declare -lib list-abs;
#X declare -lib list-abs;
#X declare -lib list-abs;
#X declare -lib list-abs;
#X declare -lib list-abs;
#X declare -lib list-abs;
#X declare -lib list-abs;
#X declare -lib list-abs;
#X declare -lib list-abs;
#X declare -lib list-abs;
#X declare -lib list-abs;
#X declare -lib list-abs;
#X declare -lib list-abs;
#X declare -lib list-abs;
#X declare -lib list-abs;
#X declare -lib list-abs;
#X declare -lib list-abs;
#X declare -lib list-abs;
#X declare -lib list-abs;
#X declare -lib list-abs;
#X declare -lib list-abs;
#X declare -lib list-abs;
#X declare -lib list-abs;
#X declare -lib list-abs;
#X declare -lib list-abs;
#X declare -lib list-abs;
#X declare -lib list-abs;
#X declare -lib list-abs;
#X declare -lib list-abs;
#X declare -lib list-abs;
#X declare -lib list-abs;
#X declare -lib list-abs;
#X declare -lib list-abs;
#X declare -lib list-abs;
#X declare -lib list-abs;
#X declare -lib list-abs;
#X declare -lib list-abs;
#X declare -lib list-abs;
#X declare -lib list-abs;
#X declare -lib list-abs;
#X declare -lib list-abs;
#X declare -lib list-abs;
#X declare -lib list-abs;
#X declare -lib list-abs;
#X declare -lib list-abs;
#X declare -lib list-abs;
#X declare -lib list-abs;
#X declare -lib list-abs;
#X declare -lib list-abs;
#X declare -lib list-abs;
#X declare -lib list-abs;
#X declare -lib list-abs;
#X declare -lib list-abs -lib mrpeach;
#X declare -lib list-abs -lib mrpeach;
#X declare -lib list-abs -lib mrpeach;
#X declare -lib list-abs -lib mrpeach;
#X declare -lib list-abs;
#X declare -lib list-abs;
#X declare -lib list-abs;
#X declare -lib list-abs;
#X declare -lib list-abs;
#X declare -lib list-abs;
#X declare -lib list-abs;
#X declare -lib list-abs;
#X declare -lib list-abs;
#X declare -lib list-abs;
#X declare -lib list-abs;
#X declare -lib list-abs;
#X declare -lib list-abs;
#X declare -lib list-abs;
#X declare -lib list-abs;
#X declare -lib list-abs;
#X declare -lib list-abs;
#X declare -lib list-abs;
#X declare -lib mrpeach;
#X declare -lib list-abs;
#X declare -lib list-abs;
#X declare -lib list-abs;
#X declare -lib list-abs;
#X declare -lib list-abs;
#X declare -lib list-abs;
#X declare -lib list-abs;
#X declare -lib list-abs;
#X declare -lib list-abs;
#X declare -lib list-abs;
#X declare -lib list-abs;
#X declare -lib list-abs;
#X declare -lib list-abs;
#X declare -lib list-abs;
#X declare -lib list-abs;
#X declare -lib list-abs;
#X declare -lib list-abs;
#X declare -lib list-abs;
#X declare -lib list-abs;
#X declare -lib mrpeach;
#X declare -lib list-abs;
#X declare -lib list-abs;
#X declare -lib list-abs;
#X declare -lib list-abs;
#X declare -lib list-abs;
#X declare -lib list-abs;
#X declare -lib list-abs;
#X declare -lib list-abs;
#X declare -lib list-abs;
#X declare -lib list-abs;
#X declare -lib list-abs;
#X declare -lib list-abs;
#X declare -lib list-abs;
#X declare -lib list-abs;
#X declare -lib list-abs;
#X declare -lib list-abs;
#X declare -lib list-abs;
#X declare -lib list-abs;
#X declare -lib list-abs;
#X declare -lib mrpeach;
#X declare -lib list-abs;
#X declare -lib list-abs;
#X declare -lib list-abs;
#X declare -lib list-abs;
#X declare -lib list-abs;
#X declare -lib list-abs;
#X declare -lib list-abs;
#X declare -lib list-abs;
#X declare -lib list-abs;
#X declare -lib list-abs;
#X declare -lib list-abs;
#X declare -lib list-abs;
#X declare -lib list-abs;
#X declare -lib list-abs;
#X declare -lib list-abs;
#X declare -lib list-abs;
#X declare -lib list-abs;
#X declare -lib list-abs;
#X declare -lib list-abs;
#X declare -lib mrpeach;
#X declare -lib list-abs;
#X declare -lib list-abs;
#X declare -lib list-abs;
#X declare -lib list-abs;
#X declare -lib list-abs;
#X declare -lib list-abs;
#X declare -lib list-abs;
#X declare -lib list-abs;
#X declare -lib list-abs;
#X declare -lib list-abs;
#X declare -lib list-abs;
#X declare -lib list-abs;
#X declare -lib lua;
#X declare -lib list-abs;
#X declare -lib list-abs;
#X declare -lib list-abs;
#X declare -lib list-abs;
#X declare -lib list-abs;
#X declare -lib list-abs;
#X declare -lib list-abs;
#X declare -lib list-abs;
#X declare -lib list-abs;
#X declare -lib list-abs;
#X declare -lib list-abs;
#X declare -lib list-abs;
#X declare -lib list-abs;
#X declare -lib list-abs;
#X declare -lib list-abs;
#X declare -lib list-abs;
#X declare -lib list-abs;
#X declare -lib list-abs;
#X declare -lib list-abs;
#X declare -lib list-abs;
#X declare -lib list-abs;
#X declare -lib list-abs;
#X declare -lib list-abs;
#X declare -lib list-abs;
#X declare -lib list-abs;
#X declare -lib list-abs;
#X declare -lib list-abs;
#X declare -lib lua;
#X declare -lib list-abs;
#X declare -lib list-abs;
#X declare -lib list-abs;
#X declare -lib list-abs;
#X declare -lib list-abs;
#X declare -lib list-abs;
#X declare -lib list-abs;
#X declare -lib list-abs;
#X declare -lib list-abs;
#X declare -lib list-abs;
#X declare -lib list-abs;
#X declare -lib list-abs;
#X declare -lib list-abs;
#X declare -lib list-abs;
#X declare -lib list-abs;
#X declare -lib list-abs;
#X declare -lib list-abs;
#X declare -lib list-abs;
#X declare -lib list-abs;
#X declare -lib list-abs;
#X declare -lib list-abs;
#X declare -lib list-abs;
#X declare -lib list-abs;
#X declare -lib list-abs;
#X declare -lib list-abs;
#X declare -lib list-abs;
#X declare -lib list-abs;
#X declare -lib list-abs;
#X declare -lib list-abs;
#X declare -lib list-abs;
#X declare -lib list-abs;
#X declare -lib list-abs;
#X declare -lib list-abs;
#X declare -lib list-abs;
#X declare -lib list-abs;
#X declare -lib lua;
#X declare -lib list-abs;
#X declare -lib list-abs;
#X declare -lib list-abs;
#X declare -lib list-abs;
#X declare -lib list-abs;
#X declare -lib list-abs;
#X declare -lib list-abs;
#X declare -lib list-abs;
#X declare -lib list-abs;
#X declare -lib list-abs;
#X declare -lib list-abs;
#X declare -lib list-abs;
#X declare -lib list-abs;
#X declare -lib list-abs;
#X declare -lib list-abs;
#X declare -lib list-abs;
#X declare -lib list-abs;
#X declare -lib list-abs;
#X declare -lib list-abs;
#X declare -lib list-abs;
#X declare -lib list-abs;
#X declare -lib list-abs;
#X declare -lib list-abs;
#X declare -lib list-abs;
#X declare -lib list-abs;
#X declare -lib list-abs;
#X declare -lib list-abs;
#X declare -lib list-abs;
#X declare -lib list-abs;
#X declare -lib list-abs;
#X declare -lib list-abs;
#X declare -lib list-abs;
#X declare -lib list-abs;
#X declare -lib list-abs;
#X declare -lib list-abs;
#X declare -lib list-abs;
#X declare -lib list-abs;
#X declare -lib list-abs;
#X declare -lib list-abs;
#X declare -lib list-abs;
#X declare -lib list-abs;
#X declare -lib list-abs;
#X declare -lib list-abs;
#X declare -lib list-abs;
#X declare -lib list-abs;
#X declare -lib list-abs;
#X declare -lib list-abs;
#X declare -lib list-abs;
#X declare -lib mrpeach;
#X declare -lib list-abs;
#X declare -lib list-abs -lib mrpeach;
#X declare -lib list-abs -lib mrpeach;
#X declare -lib list-abs -lib mrpeach;
#X declare -lib list-abs -lib mrpeach;
#X declare -lib hcs;
#X declare -lib iemmatrix;
#X declare -lib hcs;
#X declare -lib list-abs -lib mrpeach;
#X declare -lib list-abs -lib mrpeach;
#X declare -lib list-abs;
#X declare -lib list-abs;
#X declare -lib list-abs;
#X declare -lib list-abs;
#X declare -lib list-abs;
#X declare -lib list-abs;
#X declare -lib list-abs;
#X declare -lib list-abs;
#X declare -lib list-abs;
#X declare -lib list-abs;
#X declare -lib list-abs;
#X declare -lib list-abs;
#X declare -lib list-abs;
#X declare -lib list-abs;
#X declare -lib list-abs;
#X declare -lib list-abs;
#X declare -lib list-abs;
#X declare -lib hardware -lib mapping;
#X declare -lib hardware -lib flatspace -lib iemlib -lib mapping;
#X declare -lib list-abs;
#X declare -lib list-abs;
#X declare -lib list-abs -lib mrpeach;
#X declare -lib list-abs -lib mrpeach;
#X declare -lib hcs;
#X declare -lib list-abs;
#X declare -lib aubio;
#X declare -lib aubio;
#X declare -lib aubio;
#X declare -lib list-abs;
#X declare -lib hcs -lib list-abs;
#X declare -lib list-abs;
#X declare -lib list-abs;
#X declare -lib hcs;
#X declare -lib list-abs -lib mrpeach;
#X declare -lib list-abs -lib mrpeach;
#X declare -lib list-abs;
#X declare -lib tabreadc;
#X declare -lib tabreadc;
#X declare -lib tabreadc;
#X declare -lib tabreadc;
#X declare -lib tabreadc;
#X declare -lib tabreadc;
#X declare -lib tabreadc;
#X declare -lib tabreadc;
#X declare -lib tabreadc;
#X declare -lib tabreadc;
#X declare -lib tabreadc;
#X declare -lib tabreadc;
#X declare -lib tabreadc;
#X declare -lib tabreadc;
#X declare -lib tabreadc;
#X declare -lib tabreadc;
#X declare -lib list-abs;
#X declare -lib hcs;
#X declare -lib list-abs -lib mrpeach;
#X declare -lib list-abs -lib mrpeach;
#X declare -lib list-abs;
#X declare -lib tabreadc;
#X declare -lib tabreadc;
#X declare -lib tabreadc;
#X declare -lib tabreadc;
#X declare -lib tabreadc;
#X declare -lib tabreadc;
#X declare -lib tabreadc;
#X declare -lib tabreadc;
#X declare -lib tabreadc;
#X declare -lib tabreadc;
#X declare -lib tabreadc;
#X declare -lib tabreadc;
#X declare -lib tabreadc;
#X declare -lib tabreadc;
#X declare -lib tabreadc;
#X declare -lib tabreadc;
#X declare -lib list-abs;
#X declare -lib hcs;
#X declare -lib list-abs -lib mrpeach;
#X declare -lib list-abs -lib mrpeach;
#X declare -lib list-abs;
#X declare -lib tabreadc;
#X declare -lib tabreadc;
#X declare -lib tabreadc;
#X declare -lib tabreadc;
#X declare -lib tabreadc;
#X declare -lib tabreadc;
#X declare -lib tabreadc;
#X declare -lib tabreadc;
#X declare -lib tabreadc;
#X declare -lib tabreadc;
#X declare -lib tabreadc;
#X declare -lib tabreadc;
#X declare -lib tabreadc;
#X declare -lib tabreadc;
#X declare -lib tabreadc;
#X declare -lib tabreadc;
#X declare -lib list-abs;
#X declare -lib hcs;
#X declare -lib list-abs -lib mrpeach;
#X declare -lib list-abs -lib mrpeach;
#X declare -lib list-abs;
#X declare -lib tabreadc;
#X declare -lib tabreadc;
#X declare -lib tabreadc;
#X declare -lib tabreadc;
#X declare -lib tabreadc;
#X declare -lib tabreadc;
#X declare -lib tabreadc;
#X declare -lib tabreadc;
#X declare -lib tabreadc;
#X declare -lib tabreadc;
#X declare -lib tabreadc;
#X declare -lib tabreadc;
#X declare -lib tabreadc;
#X declare -lib tabreadc;
#X declare -lib tabreadc;
#X declare -lib tabreadc;
#X declare -lib list-abs;
#X declare -lib hcs;
#X declare -lib list-abs -lib mrpeach;
#X declare -lib list-abs -lib mrpeach;
#X obj 483 -47 tgl 60 0 empty \$0-performance-mode empty 17 7 0 10
-258113 -1 -1 1 1;
#X obj 83 -48 cnv 15 100 60 empty \$0-currentcnv Grandel 20 12 0 14
-233017 -66577 0;
#X obj 2 -48 cnv 15 80 20 empty empty Current: 11 10 0 14 -1 -228856
0;
#X obj 83 -27 cnv 15 100 60 empty \$0-command load 20 12 0 14 -233017
-66577 0;
#N canvas 85 354 849 508 wavbank 0;
#X obj 102 79 prepent options;
#X obj 264 141 r \$0-current;
#X obj 220 188 prepent;
#X obj 221 209 s \$0-msgs;
#X msg 219 160 bank \$1;
#X obj 102 101 cnv 15 128 20 empty empty bank 50 8 0 14 -1 -262144
0;
#X obj 336 80 s \$0-banks;
#X obj 102 55 r \$0-banks;
#X text 286 187 FIXME;
#X obj 103 123 flatspace/popup 124 25 #ffffff popup beats foo fum;
#X connect 1 0 2 1;
#X connect 2 0 3 0;
#X connect 4 0 2 0;
#X connect 7 0 0 0;
#X coords 0 -1 1 1 130 50 1 100 100;
#X restore 127 27 pd wavbank;
#N canvas 344 22 1004 818 guts 1;
#X msg 465 41 start;
#N canvas 0 19 1004 818 midi 0;
#X obj 663 35 midi.exclusive MIDI 105-108;
#X obj 647 102 route 105 106 107 108;
#X obj 648 59 midi.group MIDI 105-108;
#N canvas 0 19 1004 844 grandel-midi 0;
#X obj 83 81 inlet;
#X obj 84 121 == 127;
#X obj 84 167 midi.bridge 81 /density 0 1 quartic 2xsqrt;
#X obj 84 187 midi.bridge 82 /speed 0 1 quartic 2xsqrt;
#X obj 84 247 midi.bridge 85 /vol 0 1 quartic 2xsqrt;
#X obj 84 287 midi.bridge 87 /senddev 0 1 quartic 2xsqrt;
#X obj 84 307 midi.bridge 88 /todelay 0 1 quartic 2xsqrt;
#X obj 84 447 midi.bridge 95 /todist 0 1 quartic 2xsqrt;
#X obj 84 467 midi.bridge 96 /torev 0 1 quartic 2xsqrt;
#X obj 84 207 midi.bridge 83 /transp -12 12;
#X obj 84 327 midi.bridge 89 /sizedev 0 1;
#X obj 84 347 midi.bridge 90 /speeddev 0 1;
#X obj 84 387 midi.bridge 92 /pandev 0 1;
#X obj 84 407 midi.bridge 93 /voldev 0 1;
#X obj 84 427 midi.bridge 94 /delaydev 0 1;
#X obj 321 487 route list;
#X obj 433 534 route list;
#X obj 548 442 r \$0-midi;
#X obj 549 464 midi.bridge 77 /onoff 0 1;
#X obj 84 227 midi.bridge 84 /pan 0 1;
#X obj 84 267 midi.bridge 86 /delay 0 2000;
#X obj 84 366 midi.bridge 91 /transpdev 0 12;
#X obj 432 557 OSCprepend /grandel;
#X obj 432 632 routeOSC /grandel;
#X msg 151 113;
#X obj 84 141 midi.group MIDI 81-96;
#X obj 432 578 messagelink \$0-SSSAD OSC;
#X obj 321 511 midi.ctlout MIDI;
#X obj 225 141 midi.ctlout MIDI;
#X connect 0 0 1 0;
#X connect 1 0 25 0;
#X connect 2 0 3 0;
#X connect 2 1 3 1;
#X connect 3 0 9 0;
#X connect 3 1 9 1;
#X connect 4 0 20 0;
#X connect 4 1 20 1;
#X connect 5 0 6 0;
#X connect 5 1 6 1;
#X connect 6 0 10 0;
#X connect 6 1 10 1;
#X connect 7 0 8 0;
#X connect 7 1 8 1;
#X connect 8 0 16 0;
#X connect 8 1 15 0;
#X connect 9 0 19 0;
#X connect 9 1 19 1;
#X connect 10 0 11 0;
#X connect 10 1 11 1;
#X connect 11 0 21 0;
#X connect 11 1 21 1;
#X connect 12 0 13 0;
#X connect 12 1 13 1;
#X connect 13 0 14 0;
#X connect 13 1 14 1;
#X connect 14 0 7 0;
#X connect 14 1 7 1;
#X connect 15 0 27 0;
#X connect 16 1 22 0;
#X connect 17 0 18 0;
#X connect 18 0 16 0;
#X connect 18 1 15 0;
#X connect 19 0 4 0;
#X connect 19 1 4 1;
#X connect 20 0 5 0;
#X connect 20 1 5 1;
#X connect 21 0 12 0;
#X connect 21 1 12 1;
#X connect 22 0 26 0;
#X connect 23 0 2 1;
#X connect 23 0 18 1;
#X connect 25 0 2 0;
#X connect 25 1 28 0;
#X connect 26 0 23 0;
#X restore 647 122 pd grandel-midi;
#N canvas 396 141 1039 721 delay-midi 0;
#X obj 83 81 inlet;
#X obj 84 121 == 127;
#X obj 84 447 midi.bridge 95 /todist 0 1 quartic 2xsqrt;
#X obj 84 467 midi.bridge 96 /torev 0 1 quartic 2xsqrt;
#X obj 321 487 route list;
#X obj 84 247 midi.bridge 85 /vol 0 1 quartic 2xsqrt;
#X obj 354 267 midi.bridge 86 /delay 0 1 quartic 2xsqrt;
#X obj 84 287 midi.bridge 87 /tograndel 0 1 quartic 2xsqrt;
#X obj 364 307 midi.bridge 88 /rfb 0 1 quartic 2xsqrt;
#X obj 84 327 midi.bridge 89 /lfb 0 1;
#X obj 84 347 midi.bridge 90 /rfb 0 1;
#X obj 84 387 midi.bridge 92 /lfodepth 0 1;
#X obj 361 398 midi.bridge 93 /voldev 0 1;
#X obj 361 418 midi.bridge 94 /delaydev 0 1;
#X obj 448 559 route list;
#X obj 84 167 midi.bridge 81 /ltime 0 2000;
#X obj 84 187 midi.bridge 82 /rtime 0 2000;
#X obj 84 367 midi.bridge 91 /gapper-size 0 1 quartic 2xsqrt;
#X obj 83 207 midi.bridge 83 /gapper-prob -0.1 1;
#X obj 84 227 midi.bridge 84 /lfofreq 0 10;
#X obj 558 452 r \$0-midi;
#X obj 559 474 midi.bridge 78 /onoff 0 1;
#X obj 455 664 routeOSC /delay;
#X obj 450 584 OSCprepend /delay;
#X obj 84 141 midi.group MIDI 81-96;
#X obj 448 607 messagelink \$0-SSSAD OSC;
#X obj 321 511 midi.ctlout MIDI;
#X obj 235 137 midi.ctlout MIDI;
#X connect 0 0 1 0;
#X connect 1 0 24 0;
#X connect 2 0 3 0;
#X connect 2 1 3 1;
#X connect 3 0 14 0;
#X connect 3 1 4 0;
#X connect 4 0 26 0;
#X connect 5 0 7 0;
#X connect 5 1 7 1;
#X connect 7 0 9 0;
#X connect 7 1 9 1;
#X connect 9 0 10 0;
#X connect 9 1 10 1;
#X connect 10 0 17 0;
#X connect 10 1 17 1;
#X connect 11 0 2 0;
#X connect 11 1 2 1;
#X connect 12 0 13 0;
#X connect 12 1 13 1;
#X connect 14 1 23 0;
#X connect 15 0 16 0;
#X connect 15 1 16 1;
#X connect 16 0 18 0;
#X connect 16 1 18 1;
#X connect 17 0 11 0;
#X connect 17 1 11 1;
#X connect 18 0 19 0;
#X connect 18 1 19 1;
#X connect 19 0 5 0;
#X connect 19 1 5 1;
#X connect 20 0 21 0;
#X connect 21 0 14 0;
#X connect 22 0 15 1;
#X connect 22 0 21 1;
#X connect 23 0 25 0;
#X connect 24 0 15 0;
#X connect 24 1 27 0;
#X connect 25 0 22 0;
#X restore 677 142 pd delay-midi;
#N canvas 193 22 1237 818 distrev-midi 0;
#X obj 83 81 inlet;
#X obj 84 121 == 127;
#X obj 311 407 midi.bridge 88 /todelay 0 1 quartic 2xsqrt;
#X obj 312 429 midi.bridge 95 /todist 0 1 quartic 2xsqrt;
#X obj 118 470 route list;
#X obj 709 192 midi.bridge 82 /speed 0 1 quartic 2xsqrt;
#X obj 779 252 midi.bridge 85 /vol 0 1 quartic 2xsqrt;
#X obj 779 272 midi.bridge 86 /delay 0 1 quartic 2xsqrt;
#X obj 311 387 midi.bridge 87 /tograndel 0 1 quartic 2xsqrt;
#X obj 84 227 midi.bridge 84 /todelay 0 1 quartic 2xsqrt;
#X obj 759 332 midi.bridge 89 /sizedev 0 1;
#X obj 759 352 midi.bridge 90 /speeddev 0 1;
#X obj 759 372 midi.bridge 91 /transpdev 0 1;
#X obj 739 412 midi.bridge 93 /voldev 0 1;
#X obj 739 432 midi.bridge 94 /delaydev 0 1;
#X obj 739 472 midi.bridge 96 /torev 0 1 quartic 2xsqrt;
#X obj 80 262 midi.bridge 92 /torev 0 1 quartic 2xaqrt;
#X obj 449 221 route list;
#X obj 403 537 route list;
#X obj 84 167 midi.bridge 81 /drive 0 500;
#X obj 568 462 r \$0-midi;
#X obj 569 484 midi.bridge 80 /onoff 0 1;
#X obj 463 121 r \$0-midi;
#X obj 464 143 midi.bridge 79 /onoff 0 1;
#X obj 84 207 midi.bridge 83 /tograndel 0 1 quartic 2xsqrt;
#X obj 447 240 OSCprepend /dist;
#X obj 447 283 routeOSC /dist;
#X obj 401 563 OSCprepend /rev;
#X obj 402 659 routeOSC /rev;
#X obj 84 141 midi.group MIDI 81-96;
#X obj 452 619 route list;
#X obj 447 261 messagelink \$0-SSSAD OSC;
#X obj 401 584 messagelink \$0-SSSAD OSC;
#X obj 118 494 midi.ctlout MIDI;
#X obj 224 138 midi.ctlout MIDI;
#X connect 0 0 1 0;
#X connect 1 0 29 0;
#X connect 2 0 3 0;
#X connect 2 1 3 1;
#X connect 3 0 18 0;
#X connect 3 1 4 0;
#X connect 4 0 33 0;
#X connect 6 0 7 0;
#X connect 6 1 7 1;
#X connect 8 0 2 0;
#X connect 8 1 2 1;
#X connect 9 0 16 0;
#X connect 9 1 16 1;
#X connect 10 0 11 0;
#X connect 10 1 11 1;
#X connect 11 0 12 0;
#X connect 11 1 12 1;
#X connect 13 0 14 0;
#X connect 13 1 14 1;
#X connect 16 0 17 0;
#X connect 16 1 4 0;
#X connect 17 1 25 0;
#X connect 18 1 27 0;
#X connect 19 0 24 0;
#X connect 19 1 24 1;
#X connect 20 0 21 0;
#X connect 21 0 18 0;
#X connect 21 1 4 0;
#X connect 22 0 23 0;
#X connect 23 0 17 0;
#X connect 23 1 4 0;
#X connect 24 0 9 0;
#X connect 24 1 9 1;
#X connect 25 0 31 0;
#X connect 26 0 19 1;
#X connect 26 0 23 1;
#X connect 27 0 32 0;
#X connect 28 0 8 1;
#X connect 28 0 21 1;
#X connect 29 0 8 0;
#X connect 29 0 19 0;
#X connect 29 1 34 0;
#X connect 30 0 28 0;
#X connect 31 0 26 0;
#X connect 32 0 30 0;
#X restore 707 162 pd distrev-midi;
#X msg 648 83 \$2 \$1;
#N canvas 358 44 932 818 viet-midi 0;
#X obj 83 81 inlet;
#X obj 84 121 == 127;
#X obj 321 487 route list;
#X obj 84 167 midi.bridge 81 /sawmix 0 1 quartic 2xsqrt;
#X obj 84 187 midi.bridge 82 /squaremix 0 1 quartic 2xsqrt;
#X obj 84 247 midi.bridge 85 /tograndel 0 1 quartic 2xsqrt;
#X obj 84 267 midi.bridge 86 /todelay 0 1 quartic 2xsqrt;
#X obj 384 287 midi.bridge 87 /senddev 0 1 quartic 2xsqrt;
#X obj 384 307 midi.bridge 88 /todelay 0 1 quartic 2xsqrt;
#X obj 394 447 midi.bridge 95 /todist 0 1 quartic 2xsqrt;
#X obj 394 467 midi.bridge 96 /torev 0 1 quartic 2xsqrt;
#X obj 84 207 midi.bridge 83 /trianglemix 0 1 quartic 2xsqrt;
#X obj 84 347 midi.bridge 90 /squarepitch -24 24;
#X obj 84 367 midi.bridge 91 /trianglepitch -24 24;
#X obj 84 327 midi.bridge 89 /sawpitch -24 24;
#X obj 84 407 midi.bridge 93 /todist 0 1 quartic 2xsqrt;
#X obj 84 427 midi.bridge 94 /torev 0 1 quartic 2xsqrt;
#X obj 85 229 midi.bridge 84 /lfospeed 0 2;
#X obj 84 387 midi.bridge 92 /lfodepth 0 1;
#X obj 112 457 route list;
#X obj 205 471 OSCprepend /viet;
#X obj 206 559 routeOSC /viet;
#X obj 84 141 midi.group MIDI 81-96;
#X obj 210 535 messagelink \$0-SSSAD OSC;
#X obj 321 511 midi.ctlout MIDI;
#X obj 227 137 midi.ctlout MIDI;
#X connect 0 0 1 0;
#X connect 1 0 22 0;
#X connect 2 0 24 0;
#X connect 3 0 4 0;
#X connect 3 1 4 1;
#X connect 4 0 11 0;
#X connect 4 1 11 1;
#X connect 5 0 6 0;
#X connect 5 1 6 1;
#X connect 6 0 14 0;
#X connect 6 1 14 1;
#X connect 7 0 8 0;
#X connect 7 1 8 1;
#X connect 9 0 10 0;
#X connect 9 1 10 1;
#X connect 11 0 17 0;
#X connect 11 1 17 1;
#X connect 12 0 13 0;
#X connect 12 1 13 1;
#X connect 13 0 18 0;
#X connect 13 1 18 1;
#X connect 14 0 12 0;
#X connect 14 1 12 1;
#X connect 15 0 16 0;
#X connect 15 1 16 1;
#X connect 16 0 19 0;
#X connect 16 1 2 0;
#X connect 17 0 5 0;
#X connect 17 1 5 1;
#X connect 18 0 15 0;
#X connect 18 1 15 1;
#X connect 19 1 20 0;
#X connect 20 0 23 0;
#X connect 21 0 3 1;
#X connect 22 0 3 0;
#X connect 22 1 25 0;
#X connect 23 0 21 0;
#X restore 737 182 pd viet-midi;
#N canvas 505 59 935 615 gtr-input 0;
#X obj 53 165 route list;
#X obj 53 144 midi.bridge 73 /onoff 0 1;
#X obj 53 114 r \$0-midi;
#X obj 199 72 OSCprepend /gtr/1;
#X obj 199 114 routeOSC-many /gtr /1;
#X obj 199 94 messagelink \$0-SSSAD OSC;
#X obj 337 253 route list;
#X obj 338 279 midi.ctlout MIDI;
#X obj 443 175 route list;
#X obj 443 124 r \$0-midi;
#X obj 589 104 messagelink \$0-SSSAD OSC;
#X obj 63 485 route list;
#X obj 63 434 r \$0-midi;
#X obj 209 414 messagelink \$0-SSSAD OSC;
#X obj 453 495 route list;
#X obj 453 444 r \$0-midi;
#X obj 599 424 messagelink \$0-SSSAD OSC;
#X obj 589 82 OSCprepend /gtr/2;
#X obj 589 124 routeOSC-many /gtr /2;
#X obj 209 392 OSCprepend /gtr/3;
#X obj 207 434 routeOSC-many /gtr /3;
#X obj 599 402 OSCprepend /gtr/4;
#X obj 599 444 routeOSC-many /gtr /4;
#X obj 443 154 midi.bridge 74 /onoff 0 1;
#X obj 63 464 midi.bridge 75 /onoff 0 1;
#X obj 453 474 midi.bridge 76 /onoff 0 1;
#X obj 48 37 miditogtr2 1-8 33-40 1 2 3 4 5 6 7 8 128 129 130 131 132
133 134 135 1;
#X obj 433 37 miditogtr2 9-16 41-48 9 10 11 12 13 14 15 16 136 137
138 139 140 141 142 143;
#X obj 58 357 miditogtr2 17-24 49-56 17 18 19 20 21 22 23 24 144 145
146 147 148 149 150 151;
#X obj 443 357 miditogtr2 25-32 57-64 25 26 27 28 29 30 31 32 152 153
154 155 156 157 158 159;
#X connect 0 1 3 0;
#X connect 1 0 0 0;
#X connect 1 1 6 0;
#X connect 2 0 1 0;
#X connect 3 0 5 0;
#X connect 4 0 1 1;
#X connect 4 0 26 0;
#X connect 5 0 4 0;
#X connect 6 0 7 0;
#X connect 8 1 17 0;
#X connect 9 0 23 0;
#X connect 10 0 18 0;
#X connect 11 1 19 0;
#X connect 12 0 24 0;
#X connect 13 0 20 0;
#X connect 14 1 21 0;
#X connect 15 0 25 0;
#X connect 16 0 22 0;
#X connect 17 0 10 0;
#X connect 18 0 23 1;
#X connect 18 0 27 0;
#X connect 19 0 13 0;
#X connect 20 0 24 1;
#X connect 20 0 28 0;
#X connect 21 0 16 0;
#X connect 22 0 25 1;
#X connect 22 0 29 0;
#X connect 23 0 8 0;
#X connect 23 1 6 0;
#X connect 24 0 11 0;
#X connect 24 1 6 0;
#X connect 25 0 14 0;
#X connect 25 1 6 0;
#X connect 26 0 3 0;
#X connect 27 0 17 0;
#X connect 28 0 19 0;
#X connect 29 0 21 0;
#X restore 643 221 pd gtr-input;
#X obj 361 339 outlet;
#X obj 361 318 midi-page2;
#N canvas 0 0 450 300 change 0;
#X obj 127 44 r OSC;
#X obj 128 66 routeOSC /bcrmod;
#X obj 128 89 routeOSC /btn;
#X obj 129 113 routeOSC /1 /2;
#X obj 128 136 sel 1;
#X msg 128 158 1;
#X obj 167 135 sel 1;
#X msg 167 157 2;
#X obj 127 191 outlet;
#X connect 0 0 1 0;
#X connect 1 0 2 0;
#X connect 2 0 3 0;
#X connect 3 0 4 0;
#X connect 3 1 6 0;
#X connect 4 0 5 0;
#X connect 5 0 8 0;
#X connect 6 0 7 0;
#X connect 7 0 8 0;
#X restore 360 252 pd change;
#X obj 361 292 == 2;
#X obj 435 296 == 1;
#X obj 436 316 midi.singlestation MIDI 0;
#N canvas 0 0 450 300 led 0;
#X obj 150 26 inlet;
#X obj 152 86 s OSC;
#X msg 148 47 /bcrmod/led/1 \$1;
#X connect 0 0 2 0;
#X connect 2 0 1 0;
#X restore 299 346 pd led;
#X obj 416 360 print;
#N canvas 0 19 1004 844 buttons65-72 0;
#X obj 134 52 buttons65-72 MIDI;
#X text 137 120 FIXME: 8 button toggle bug;
#X restore 669 289 pd buttons65-72;
#N canvas 0 19 1004 844 master 0;
#X obj 319 459 route list;
#X obj 443 544 route list;
#X obj 442 588 messagelink \$0-SSSAD OSC;
#X obj 319 483 midi.ctlout MIDI;
#X obj 94 151 midi.group MASTER 97-104;
#X obj 352 202 midi.singlestation MASTER;
#X obj 442 567 OSCprepend /master;
#X obj 442 642 routeOSC /master;
#X obj 94 297 midi.bridge 97 /gtr/1 0 1 quartic 2xsqrt;
#X obj 93 319 midi.bridge 98 /gtr/2 0 1 quartic 2xsqrt;
#X obj 94 337 midi.bridge 99 /gtr/3 0 1 quartic 2xsqrt;
#X obj 94 357 midi.bridge 100 /gtr/4 0 1 quartic 2xsqrt;
#X obj 94 376 midi.bridge 101 /grandel 0 1 quartic 2xsqrt;
#X obj 94 397 midi.bridge 102 /delay 0 1 quartic 2xsqrt;
#X obj 94 437 midi.bridge 104 /rev 0 1 quartic 2xsqrt;
#X obj 94 417 midi.bridge 103 /dist 0 1 quartic 2xsqrt;
#X connect 0 0 3 0;
#X connect 1 1 6 0;
#X connect 2 0 7 0;
#X connect 4 0 8 0;
#X connect 6 0 2 0;
#X connect 7 0 8 1;
#X connect 8 0 9 0;
#X connect 8 1 9 1;
#X connect 9 0 10 0;
#X connect 9 1 10 1;
#X connect 10 0 11 0;
#X connect 10 1 11 1;
#X connect 11 0 12 0;
#X connect 11 1 12 1;
#X connect 12 0 13 0;
#X connect 12 1 13 1;
#X connect 13 0 15 0;
#X connect 13 1 15 1;
#X connect 14 0 1 0;
#X connect 14 1 0 0;
#X connect 15 0 14 0;
#X connect 15 1 14 1;
#X restore 668 312 pd master;
#X connect 0 0 6 0;
#X connect 1 0 3 0;
#X connect 1 1 4 0;
#X connect 1 2 5 0;
#X connect 1 3 7 0;
#X connect 2 0 6 0;
#X connect 6 0 1 0;
#X connect 10 0 9 0;
#X connect 10 0 16 0;
#X connect 11 0 12 0;
#X connect 11 0 13 0;
#X connect 12 0 10 0;
#X connect 12 0 15 0;
#X connect 13 0 14 0;
#X restore 850 102 pd midi;
#N canvas 199 228 1102 612 input-logic 0;
#X text 281 128 Toggle performance mode;
#X msg 27 -20 reset;
#X obj 265 146 msgtree-dispatch \$0 keydown-Escape performance-mode
;
#X obj 106 127 msgtree keydown-Escape 1 \$0;
#X obj 174 -20 r \$0-msgtree;
#X obj 174 0 route float;
#X floatatom 173 25 5 0 0 0 - - -;
#X obj 263 22 tgl 15 0 empty empty empty 17 7 0 10 -262144 -1 -1 0
1;
#N canvas 818 478 450 300 fx 0;
#N canvas 178 178 802 684 grandel 0;
#X text 275 6 bank select;
#X obj 361 427 outlet;
#X obj 26 235 msgtree keydown-v;
#X obj 21 508 route _ctl;
#X obj 21 529 sel 1;
#X obj 20 550 f \$1;
#N canvas 551 365 696 497 touchpad 0;
#X obj 115 6 inlet;
#N canvas 55 264 930 588 chaos 0;
#X obj 75 20 inlet;
#X obj 66 479 outlet;
#X obj 75 84 prepent lengthdev;
#X obj 88 110 prepent speeddev;
#X obj 75 59 t a a a a a a a a a;
#X obj 105 129 prepent lengthdev;
#X obj 118 150 prepent speeddev;
#X obj 125 169 prepent lengthdev;
#X obj 138 190 prepent speeddev;
#X obj 155 209 prepent lengthdev;
#X obj 168 230 prepent speeddev;
#N canvas 15 88 450 300 scale 0;
#X obj 58 67 inlet;
#X obj 81 222 outlet;
#X connect 0 0 1 0;
#X restore 75 258 pd scale;
#N canvas 10 66 450 300 scale 0;
#X obj 58 67 inlet;
#X obj 81 222 outlet;
#X connect 0 0 1 0;
#X restore 85 278 pd scale;
#N canvas 5 44 450 300 scale 0;
#X obj 58 67 inlet;
#X obj 81 222 outlet;
#X restore 95 298 pd scale;
#N canvas 5 44 450 300 scale 0;
#X obj 58 67 inlet;
#X obj 81 222 outlet;
#X restore 105 318 pd scale;
#N canvas 5 44 450 300 scale 0;
#X obj 58 67 inlet;
#X obj 81 222 outlet;
#X restore 115 338 pd scale;
#N canvas 5 44 450 300 scale 0;
#X obj 58 67 inlet;
#X obj 81 222 outlet;
#X restore 125 358 pd scale;
#N canvas 5 44 450 300 scale 0;
#X obj 58 67 inlet;
#X obj 81 222 outlet;
#X restore 135 378 pd scale;
#N canvas 5 44 450 300 scale 0;
#X obj 58 67 inlet;
#X obj 81 222 outlet;
#X restore 145 398 pd scale;
#X text 320 294 Todo: optional pitch \, bpbw and bpfq dev's;
#X connect 0 0 4 0;
#X connect 2 0 11 0;
#X connect 3 0 12 0;
#X connect 4 0 2 0;
#X connect 4 1 3 0;
#X connect 4 2 5 0;
#X connect 4 3 6 0;
#X connect 4 4 7 0;
#X connect 4 5 8 0;
#X connect 4 6 9 0;
#X connect 4 7 10 0;
#X connect 11 0 1 0;
#X connect 12 0 1 0;
#X connect 13 0 1 0;
#X connect 14 0 1 0;
#X connect 15 0 1 0;
#X connect 16 0 1 0;
#X connect 17 0 1 0;
#X connect 18 0 1 0;
#X restore 187 196 pd chaos;
#N canvas 40 198 930 588 speed 0;
#X obj 75 20 inlet;
#X obj 66 479 outlet;
#X obj 286 82 prepent speeddev;
#X obj 75 59 t a a a a a a a a a;
#X obj 303 101 prepent lengthdev;
#X obj 316 122 prepent speeddev;
#X obj 323 141 prepent lengthdev;
#X obj 336 162 prepent speeddev;
#X obj 353 181 prepent lengthdev;
#X obj 366 202 prepent speeddev;
#X obj 80 311 prepent speed;
#X connect 0 0 3 0;
#X connect 3 0 10 0;
#X connect 3 1 2 0;
#X connect 3 2 4 0;
#X connect 3 3 5 0;
#X connect 3 4 6 0;
#X connect 3 5 7 0;
#X connect 3 6 8 0;
#X connect 3 7 9 0;
#X connect 10 0 1 0;
#X restore 255 192 pd speed;
#N canvas 50 242 930 588 density 0;
#X obj 75 20 inlet;
#X obj 66 479 outlet;
#X obj 75 59 t a a a a a a a a a;
#N canvas 10 66 450 300 scale 0;
#X obj 58 67 inlet;
#X obj 81 222 outlet;
#X connect 0 0 1 0;
#X restore 75 258 pd scale;
#N canvas 5 44 450 300 scale 0;
#X obj 58 67 inlet;
#X obj 81 222 outlet;
#X restore 85 278 pd scale;
#N canvas 5 44 450 300 scale 0;
#X obj 58 67 inlet;
#X obj 81 222 outlet;
#X restore 95 298 pd scale;
#N canvas 5 44 450 300 scale 0;
#X obj 58 67 inlet;
#X obj 81 222 outlet;
#X restore 105 318 pd scale;
#N canvas 5 44 450 300 scale 0;
#X obj 58 67 inlet;
#X obj 81 222 outlet;
#X restore 115 338 pd scale;
#N canvas 5 44 450 300 scale 0;
#X obj 58 67 inlet;
#X obj 81 222 outlet;
#X restore 125 358 pd scale;
#N canvas 5 44 450 300 scale 0;
#X obj 58 67 inlet;
#X obj 81 222 outlet;
#X restore 135 378 pd scale;
#N canvas 5 44 450 300 scale 0;
#X obj 58 67 inlet;
#X obj 81 222 outlet;
#X restore 145 398 pd scale;
#X obj 75 84 prepent density;
#X connect 0 0 2 0;
#X connect 2 0 11 0;
#X connect 3 0 1 0;
#X connect 4 0 1 0;
#X connect 5 0 1 0;
#X connect 6 0 1 0;
#X connect 7 0 1 0;
#X connect 8 0 1 0;
#X connect 9 0 1 0;
#X connect 10 0 1 0;
#X connect 11 0 3 0;
#X restore 220 171 pd density;
#X obj 194 280 outlet;
#X obj 186 133 route touchpad-x touchpad-y touchpad-z touchpad-fingerWidth
;
#X obj 183 30 msgtree touchpad-x;
#X obj 183 50 msgtree touchpad-y;
#X obj 183 70 msgtree touchpad-z;
#X obj 183 90 msgtree touchpad-fingerWidth;
#X connect 0 0 6 0;
#X connect 0 0 7 0;
#X connect 0 0 8 0;
#X connect 0 0 9 0;
#X connect 1 0 4 0;
#X connect 3 0 4 0;
#X connect 5 0 1 0;
#X connect 5 1 3 0;
#X connect 5 2 2 0;
#X connect 6 1 5 0;
#X connect 7 1 5 0;
#X connect 8 1 5 0;
#X connect 9 1 5 0;
#X restore 62 326 pd touchpad;
#X obj 21 374 msgtree keydown-m 1;
#X obj 26 610 s \$0-current;
#X msg 19 573 Grandel;
#X obj -17 91 msgtree keydown-t;
#X obj 19 30 inlet;
#X obj 361 358 reroute keydown-m /onoff;
#X obj 361 405 OSCprepend /grandel;
#X obj 269 382 reroute keydown-v /meta/grandel/vis;
#X connect 2 1 12 0;
#X connect 3 0 4 0;
#X connect 4 0 5 0;
#X connect 5 0 9 0;
#X connect 7 1 12 0;
#X connect 9 0 8 0;
#X connect 10 0 2 0;
#X connect 10 0 3 0;
#X connect 10 0 7 0;
#X connect 11 0 10 0;
#X connect 12 0 13 0;
#X connect 12 0 14 0;
#X connect 13 0 1 0;
#X connect 14 0 1 0;
#X restore 195 152 pd grandel;
#X obj 195 125 inlet;
#N canvas 173 178 802 684 delay 0;
#X text 275 6 bank select;
#X obj 361 427 outlet;
#X obj 26 235 msgtree keydown-v;
#X obj 21 508 route _ctl;
#X obj 21 529 sel 1;
#X obj 20 550 f \$1;
#N canvas 551 365 696 497 touchpad 0;
#X obj 115 6 inlet;
#N canvas 55 264 930 588 chaos 0;
#X obj 75 20 inlet;
#X obj 66 479 outlet;
#X obj 75 84 prepent lengthdev;
#X obj 88 110 prepent speeddev;
#X obj 75 59 t a a a a a a a a a;
#X obj 105 129 prepent lengthdev;
#X obj 118 150 prepent speeddev;
#X obj 125 169 prepent lengthdev;
#X obj 138 190 prepent speeddev;
#X obj 155 209 prepent lengthdev;
#X obj 168 230 prepent speeddev;
#N canvas 15 88 450 300 scale 0;
#X obj 58 67 inlet;
#X obj 81 222 outlet;
#X connect 0 0 1 0;
#X restore 75 258 pd scale;
#N canvas 10 66 450 300 scale 0;
#X obj 58 67 inlet;
#X obj 81 222 outlet;
#X connect 0 0 1 0;
#X restore 85 278 pd scale;
#N canvas 5 44 450 300 scale 0;
#X obj 58 67 inlet;
#X obj 81 222 outlet;
#X restore 95 298 pd scale;
#N canvas 5 44 450 300 scale 0;
#X obj 58 67 inlet;
#X obj 81 222 outlet;
#X restore 105 318 pd scale;
#N canvas 5 44 450 300 scale 0;
#X obj 58 67 inlet;
#X obj 81 222 outlet;
#X restore 115 338 pd scale;
#N canvas 5 44 450 300 scale 0;
#X obj 58 67 inlet;
#X obj 81 222 outlet;
#X restore 125 358 pd scale;
#N canvas 5 44 450 300 scale 0;
#X obj 58 67 inlet;
#X obj 81 222 outlet;
#X restore 135 378 pd scale;
#N canvas 5 44 450 300 scale 0;
#X obj 58 67 inlet;
#X obj 81 222 outlet;
#X restore 145 398 pd scale;
#X text 320 294 Todo: optional pitch \, bpbw and bpfq dev's;
#X connect 0 0 4 0;
#X connect 2 0 11 0;
#X connect 3 0 12 0;
#X connect 4 0 2 0;
#X connect 4 1 3 0;
#X connect 4 2 5 0;
#X connect 4 3 6 0;
#X connect 4 4 7 0;
#X connect 4 5 8 0;
#X connect 4 6 9 0;
#X connect 4 7 10 0;
#X connect 11 0 1 0;
#X connect 12 0 1 0;
#X connect 13 0 1 0;
#X connect 14 0 1 0;
#X connect 15 0 1 0;
#X connect 16 0 1 0;
#X connect 17 0 1 0;
#X connect 18 0 1 0;
#X restore 187 196 pd chaos;
#N canvas 40 198 930 588 speed 0;
#X obj 75 20 inlet;
#X obj 66 479 outlet;
#X obj 286 82 prepent speeddev;
#X obj 75 59 t a a a a a a a a a;
#X obj 303 101 prepent lengthdev;
#X obj 316 122 prepent speeddev;
#X obj 323 141 prepent lengthdev;
#X obj 336 162 prepent speeddev;
#X obj 353 181 prepent lengthdev;
#X obj 366 202 prepent speeddev;
#X obj 80 311 prepent speed;
#X connect 0 0 3 0;
#X connect 3 0 10 0;
#X connect 3 1 2 0;
#X connect 3 2 4 0;
#X connect 3 3 5 0;
#X connect 3 4 6 0;
#X connect 3 5 7 0;
#X connect 3 6 8 0;
#X connect 3 7 9 0;
#X connect 10 0 1 0;
#X restore 255 192 pd speed;
#N canvas 50 242 930 588 density 0;
#X obj 75 20 inlet;
#X obj 66 479 outlet;
#X obj 75 59 t a a a a a a a a a;
#N canvas 10 66 450 300 scale 0;
#X obj 58 67 inlet;
#X obj 81 222 outlet;
#X connect 0 0 1 0;
#X restore 75 258 pd scale;
#N canvas 5 44 450 300 scale 0;
#X obj 58 67 inlet;
#X obj 81 222 outlet;
#X restore 85 278 pd scale;
#N canvas 5 44 450 300 scale 0;
#X obj 58 67 inlet;
#X obj 81 222 outlet;
#X restore 95 298 pd scale;
#N canvas 5 44 450 300 scale 0;
#X obj 58 67 inlet;
#X obj 81 222 outlet;
#X restore 105 318 pd scale;
#N canvas 5 44 450 300 scale 0;
#X obj 58 67 inlet;
#X obj 81 222 outlet;
#X restore 115 338 pd scale;
#N canvas 5 44 450 300 scale 0;
#X obj 58 67 inlet;
#X obj 81 222 outlet;
#X restore 125 358 pd scale;
#N canvas 5 44 450 300 scale 0;
#X obj 58 67 inlet;
#X obj 81 222 outlet;
#X restore 135 378 pd scale;
#N canvas 5 44 450 300 scale 0;
#X obj 58 67 inlet;
#X obj 81 222 outlet;
#X restore 145 398 pd scale;
#X obj 75 84 prepent density;
#X connect 0 0 2 0;
#X connect 2 0 11 0;
#X connect 3 0 1 0;
#X connect 4 0 1 0;
#X connect 5 0 1 0;
#X connect 6 0 1 0;
#X connect 7 0 1 0;
#X connect 8 0 1 0;
#X connect 9 0 1 0;
#X connect 10 0 1 0;
#X connect 11 0 3 0;
#X restore 220 171 pd density;
#X obj 194 280 outlet;
#X obj 186 133 route touchpad-x touchpad-y touchpad-z touchpad-fingerWidth
;
#X obj 183 30 msgtree touchpad-x;
#X obj 183 50 msgtree touchpad-y;
#X obj 183 70 msgtree touchpad-z;
#X obj 183 90 msgtree touchpad-fingerWidth;
#X connect 0 0 6 0;
#X connect 0 0 7 0;
#X connect 0 0 8 0;
#X connect 0 0 9 0;
#X connect 1 0 4 0;
#X connect 3 0 4 0;
#X connect 5 0 1 0;
#X connect 5 1 3 0;
#X connect 5 2 2 0;
#X connect 6 1 5 0;
#X connect 7 1 5 0;
#X connect 8 1 5 0;
#X connect 9 1 5 0;
#X restore 62 326 pd touchpad;
#X obj 21 374 msgtree keydown-m 1;
#X obj 26 610 s \$0-current;
#X obj 19 30 inlet;
#X obj 22 55 msgtree keydown-y;
#X msg 19 573 Delay;
#X obj 361 358 reroute keydown-m /onoff;
#X obj 361 405 OSCprepend /delay;
#X obj 477 384 reroute keydown-v /meta/delay/vis;
#X connect 2 1 12 0;
#X connect 3 0 4 0;
#X connect 4 0 5 0;
#X connect 5 0 11 0;
#X connect 7 1 12 0;
#X connect 9 0 10 0;
#X connect 10 0 2 0;
#X connect 10 0 3 0;
#X connect 10 0 7 0;
#X connect 11 0 8 0;
#X connect 12 0 13 0;
#X connect 12 0 14 0;
#X connect 13 0 1 0;
#X connect 14 0 1 0;
#X restore 215 172 pd delay;
#N canvas 173 178 802 684 dist 0;
#X text 275 6 bank select;
#X obj 361 427 outlet;
#X obj 21 508 route _ctl;
#X obj 21 529 sel 1;
#X obj 20 550 f \$1;
#N canvas 551 365 696 497 touchpad 0;
#X obj 115 6 inlet;
#N canvas 55 264 930 588 chaos 0;
#X obj 75 20 inlet;
#X obj 66 479 outlet;
#X obj 75 84 prepent lengthdev;
#X obj 88 110 prepent speeddev;
#X obj 75 59 t a a a a a a a a a;
#X obj 105 129 prepent lengthdev;
#X obj 118 150 prepent speeddev;
#X obj 125 169 prepent lengthdev;
#X obj 138 190 prepent speeddev;
#X obj 155 209 prepent lengthdev;
#X obj 168 230 prepent speeddev;
#N canvas 15 88 450 300 scale 0;
#X obj 58 67 inlet;
#X obj 81 222 outlet;
#X connect 0 0 1 0;
#X restore 75 258 pd scale;
#N canvas 10 66 450 300 scale 0;
#X obj 58 67 inlet;
#X obj 81 222 outlet;
#X connect 0 0 1 0;
#X restore 85 278 pd scale;
#N canvas 5 44 450 300 scale 0;
#X obj 58 67 inlet;
#X obj 81 222 outlet;
#X restore 95 298 pd scale;
#N canvas 5 44 450 300 scale 0;
#X obj 58 67 inlet;
#X obj 81 222 outlet;
#X restore 105 318 pd scale;
#N canvas 5 44 450 300 scale 0;
#X obj 58 67 inlet;
#X obj 81 222 outlet;
#X restore 115 338 pd scale;
#N canvas 5 44 450 300 scale 0;
#X obj 58 67 inlet;
#X obj 81 222 outlet;
#X restore 125 358 pd scale;
#N canvas 5 44 450 300 scale 0;
#X obj 58 67 inlet;
#X obj 81 222 outlet;
#X restore 135 378 pd scale;
#N canvas 5 44 450 300 scale 0;
#X obj 58 67 inlet;
#X obj 81 222 outlet;
#X restore 145 398 pd scale;
#X text 320 294 Todo: optional pitch \, bpbw and bpfq dev's;
#X connect 0 0 4 0;
#X connect 2 0 11 0;
#X connect 3 0 12 0;
#X connect 4 0 2 0;
#X connect 4 1 3 0;
#X connect 4 2 5 0;
#X connect 4 3 6 0;
#X connect 4 4 7 0;
#X connect 4 5 8 0;
#X connect 4 6 9 0;
#X connect 4 7 10 0;
#X connect 11 0 1 0;
#X connect 12 0 1 0;
#X connect 13 0 1 0;
#X connect 14 0 1 0;
#X connect 15 0 1 0;
#X connect 16 0 1 0;
#X connect 17 0 1 0;
#X connect 18 0 1 0;
#X restore 187 196 pd chaos;
#N canvas 40 198 930 588 speed 0;
#X obj 75 20 inlet;
#X obj 66 479 outlet;
#X obj 286 82 prepent speeddev;
#X obj 75 59 t a a a a a a a a a;
#X obj 303 101 prepent lengthdev;
#X obj 316 122 prepent speeddev;
#X obj 323 141 prepent lengthdev;
#X obj 336 162 prepent speeddev;
#X obj 353 181 prepent lengthdev;
#X obj 366 202 prepent speeddev;
#X obj 80 311 prepent speed;
#X connect 0 0 3 0;
#X connect 3 0 10 0;
#X connect 3 1 2 0;
#X connect 3 2 4 0;
#X connect 3 3 5 0;
#X connect 3 4 6 0;
#X connect 3 5 7 0;
#X connect 3 6 8 0;
#X connect 3 7 9 0;
#X connect 10 0 1 0;
#X restore 255 192 pd speed;
#N canvas 50 242 930 588 density 0;
#X obj 75 20 inlet;
#X obj 66 479 outlet;
#X obj 75 59 t a a a a a a a a a;
#N canvas 10 66 450 300 scale 0;
#X obj 58 67 inlet;
#X obj 81 222 outlet;
#X connect 0 0 1 0;
#X restore 75 258 pd scale;
#N canvas 5 44 450 300 scale 0;
#X obj 58 67 inlet;
#X obj 81 222 outlet;
#X restore 85 278 pd scale;
#N canvas 5 44 450 300 scale 0;
#X obj 58 67 inlet;
#X obj 81 222 outlet;
#X restore 95 298 pd scale;
#N canvas 5 44 450 300 scale 0;
#X obj 58 67 inlet;
#X obj 81 222 outlet;
#X restore 105 318 pd scale;
#N canvas 5 44 450 300 scale 0;
#X obj 58 67 inlet;
#X obj 81 222 outlet;
#X restore 115 338 pd scale;
#N canvas 5 44 450 300 scale 0;
#X obj 58 67 inlet;
#X obj 81 222 outlet;
#X restore 125 358 pd scale;
#N canvas 5 44 450 300 scale 0;
#X obj 58 67 inlet;
#X obj 81 222 outlet;
#X restore 135 378 pd scale;
#N canvas 5 44 450 300 scale 0;
#X obj 58 67 inlet;
#X obj 81 222 outlet;
#X restore 145 398 pd scale;
#X obj 75 84 prepent density;
#X connect 0 0 2 0;
#X connect 2 0 11 0;
#X connect 3 0 1 0;
#X connect 4 0 1 0;
#X connect 5 0 1 0;
#X connect 6 0 1 0;
#X connect 7 0 1 0;
#X connect 8 0 1 0;
#X connect 9 0 1 0;
#X connect 10 0 1 0;
#X connect 11 0 3 0;
#X restore 220 171 pd density;
#X obj 194 280 outlet;
#X obj 186 133 route touchpad-x touchpad-y touchpad-z touchpad-fingerWidth
;
#X obj 183 30 msgtree touchpad-x;
#X obj 183 50 msgtree touchpad-y;
#X obj 183 70 msgtree touchpad-z;
#X obj 183 90 msgtree touchpad-fingerWidth;
#X connect 0 0 6 0;
#X connect 0 0 7 0;
#X connect 0 0 8 0;
#X connect 0 0 9 0;
#X connect 1 0 4 0;
#X connect 3 0 4 0;
#X connect 5 0 1 0;
#X connect 5 1 3 0;
#X connect 5 2 2 0;
#X connect 6 1 5 0;
#X connect 7 1 5 0;
#X connect 8 1 5 0;
#X connect 9 1 5 0;
#X restore 62 326 pd touchpad;
#X obj 26 610 s \$0-current;
#X obj 19 30 inlet;
#X obj 23 54 msgtree keydown-u;
#X msg 19 573 Dist;
#X obj 21 374 msgtree keydown-m;
#X obj 48 406 msgtree keydown-v;
#X obj 361 358 reroute keydown-m /onoff;
#X obj 361 405 OSCprepend /dist;
#X obj 217 328 reroute keydown-v /meta/dist/vis;
#X obj 292 468 routeOSC;
#X connect 2 0 3 0;
#X connect 3 0 4 0;
#X connect 4 0 9 0;
#X connect 7 0 8 0;
#X connect 8 0 2 0;
#X connect 8 0 10 0;
#X connect 8 0 11 0;
#X connect 9 0 6 0;
#X connect 10 1 12 0;
#X connect 11 1 14 0;
#X connect 12 0 13 0;
#X connect 13 0 1 0;
#X connect 14 0 1 0;
#X restore 235 192 pd dist;
#X obj 185 235 s OSC;
#X connect 0 0 4 0;
#X connect 1 0 0 0;
#X connect 1 0 2 0;
#X connect 1 0 3 0;
#X connect 2 0 4 0;
#X connect 3 0 4 0;
#X restore 196 209 pd fx;
#X obj 106 166 msgtree-exclusive keydown-q keydown-w keydown-e keydown-r
keydown-t keydown-y keydown-u;
#N canvas 10 66 450 300 disable 0;
#X obj 108 49 inlet;
#X obj 111 77 sel 0;
#X obj 114 117 s \$0-current;
#X msg 115 97 ---;
#X connect 0 0 1 0;
#X connect 1 0 3 0;
#X connect 3 0 2 0;
#X restore 473 179 pd disable;
#X obj 17 251 msgtree keydown-a;
#X obj 116 273 route keydown-a;
#X obj 116 296 s \$0-viet-r;
#X obj 27 331 msgtree keydown-s;
#X obj 126 353 route keydown-s;
#X obj 126 376 s \$0-bd-r;
#N canvas 215 159 586 504 snapshots 0;
#X obj 71 11 inlet;
#X obj 138 159 spigot;
#X obj 239 160 spigot;
#X msg 160 259 save \$1;
#X msg 251 261 load \$1;
#X obj 336 271 s \$0-msgtree;
#X obj 336 157 sel 1;
#X obj 336 205 0;
#X obj 204 161 0;
#X obj 304 214 1;
#X obj 91 58 msgtree keydown-p;
#X obj 72 80 msgtree keydown-å;
#X obj 171 102 route keydown-å keydown-p;
#X msg 349 124 keydown-p;
#X msg 10 131 keydown-å;
#X obj 189 217 sel 27;
#X obj 79 228 sel 27;
#X obj 138 128 key;
#X obj 262 206 b;
#X obj 138 182 t f b f;
#X obj 238 180 t f b f;
#X obj 410 210 s \$0-command;
#X msg 478 174 label load;
#X msg 409 173 label save;
#X obj 283 319 verbose snapshot;
#X obj 72 36 msgtree-exclusive keydown-p keydown-å;
#X obj 259 343 inlet;
#X obj 159 385 snapshots \$0;
#X obj 24 266 ctlin 110;
#X obj 24 287 sel 0 127;
#X msg 24 335 load pedal;
#X msg 49 312 save pedal;
#X obj 422 359 globalvar presetdir;
#X obj 397 309 loadbang;
#X msg 422 379 symbol \$1/snapshots.lua;
#X obj 395 331 t b b;
#X msg 368 355 recall;
#X text 159 409 FIXME: this interface is strange.;
#X obj 462 333 bng 15 250 50 0 empty empty empty 17 7 0 10 -262144
-1 -1;
#X msg 396 406 print;
#X connect 0 0 25 0;
#X connect 1 0 19 0;
#X connect 2 0 20 0;
#X connect 3 0 24 0;
#X connect 3 0 27 0;
#X connect 4 0 24 0;
#X connect 4 0 27 0;
#X connect 6 0 7 0;
#X connect 7 0 5 0;
#X connect 8 0 1 1;
#X connect 8 0 2 1;
#X connect 9 0 5 0;
#X connect 10 1 12 0;
#X connect 11 1 12 0;
#X connect 12 0 1 1;
#X connect 12 0 6 0;
#X connect 12 0 23 0;
#X connect 12 1 2 1;
#X connect 12 1 6 0;
#X connect 12 1 22 0;
#X connect 13 0 25 0;
#X connect 14 0 25 0;
#X connect 15 1 4 0;
#X connect 15 1 18 0;
#X connect 16 1 3 0;
#X connect 16 1 18 0;
#X connect 17 0 1 0;
#X connect 17 0 2 0;
#X connect 18 0 9 0;
#X connect 19 0 14 0;
#X connect 19 1 8 0;
#X connect 19 2 16 0;
#X connect 20 0 13 0;
#X connect 20 1 8 0;
#X connect 20 2 15 0;
#X connect 22 0 21 0;
#X connect 23 0 21 0;
#X connect 25 0 10 0;
#X connect 25 0 11 0;
#X connect 26 0 27 0;
#X connect 28 0 29 0;
#X connect 29 0 30 0;
#X connect 29 1 31 0;
#X connect 30 0 27 0;
#X connect 31 0 27 0;
#X connect 32 0 34 0;
#X connect 33 0 35 0;
#X connect 34 0 27 1;
#X connect 35 0 36 0;
#X connect 35 1 32 0;
#X connect 36 0 27 0;
#X connect 38 0 32 0;
#X connect 39 0 27 0;
#X restore 353 216 pd snapshots --;
#N canvas 651 388 726 474 gtr 0;
#X obj 115 143 msgtree keydown-q;
#X obj 255 143 msgtree keydown-w;
#X obj 405 143 msgtree keydown-e;
#X obj 545 143 msgtree keydown-r;
#X obj 115 93 inlet;
#X obj 115 179 gtr-msgtree 1 \$0;
#X obj 255 179 gtr-msgtree 2 \$0;
#X obj 405 179 gtr-msgtree 3 \$0;
#X obj 545 179 gtr-msgtree 4 \$0;
#X connect 0 0 5 0;
#X connect 1 0 6 0;
#X connect 2 0 7 0;
#X connect 3 0 8 0;
#X connect 4 0 0 0;
#X connect 4 0 1 0;
#X connect 4 0 2 0;
#X connect 4 0 3 0;
#X restore 106 210 pd gtr;
#X obj 641 196 inlet;
#X obj 640 219 route snapshot;
#X obj 642 268 list;
#X msg 642 288 \$1 \$3;
#N canvas 574 385 600 477 touchpad 0;
#X obj 164 38 oscsynclient 9888;
#X obj 185 206 prepent touchpad-x;
#X obj 195 226 prepent touchpad-y;
#X obj 204 247 prepent touchpad-z;
#X obj 217 269 prepent touchpad-fingerWidth;
#X obj 182 339 outlet;
#X connect 0 0 1 0;
#X connect 0 1 2 0;
#X connect 0 2 3 0;
#X connect 0 3 4 0;
#X connect 1 0 5 0;
#X connect 2 0 5 0;
#X connect 3 0 5 0;
#X connect 4 0 5 0;
#X restore 27 -75 pd touchpad;
#N canvas 439 392 730 470 keys 0;
#X obj 50 -21 keyname;
#X obj 50 0 pack f s;
#X msg 89 82 keytgl-\$2 \$1;
#X obj 50 100 route 0 1;
#X obj 133 159 list;
#X msg 133 192 keydown-\$1;
#X obj 50 161 list;
#X msg 50 194 keyup-\$1;
#X obj 90 60 list;
#X msg 90 41 \$2 \$1;
#X obj 50 21 t a a;
#N canvas 348 232 772 630 keypad 0;
#X obj 147 11 inlet;
#X obj 147 38 t a a;
#X obj 160 543 outlet;
#X obj 200 110 list-find;
#X msg 333 46 keydown-KP_Insert keydown-KP_End keydown-KP_Down keydown-KP_Next
keydown-KP_Left keydown-KP_Begin keydown-KP_Right keydown-KP_Home keydown-KP_Up
keydown-KP_Prior;
#X obj 333 26 loadbang;
#X obj 200 86 list split 1;
#X obj 193 435 * 1;
#X obj 193 457 +;
#X obj 229 458 f;
#X obj 188 307 t f b;
#X obj 220 354 f;
#X obj 251 355 + 1;
#X msg 219 374 10 \$1;
#X obj 219 394 pow;
#X obj 174 60 route keydown-Return;
#X msg 223 247 0;
#X obj 190 284 list-rdrip;
#X obj 183 232 t a b;
#X obj 202 141 list-extend;
#X obj 185 192 list;
#X obj 342 162 b;
#X obj 342 182 delay 500;
#X obj 178 512 prepent keypad;
#X obj 178 492 f;
#X connect 0 0 1 0;
#X connect 1 0 2 0;
#X connect 1 1 15 0;
#X connect 3 0 19 0;
#X connect 3 0 21 0;
#X connect 4 0 3 1;
#X connect 5 0 4 0;
#X connect 6 0 3 0;
#X connect 7 0 8 0;
#X connect 8 0 9 0;
#X connect 8 0 24 1;
#X connect 9 0 8 1;
#X connect 10 0 7 0;
#X connect 10 1 11 0;
#X connect 11 0 12 0;
#X connect 11 0 13 0;
#X connect 12 0 11 1;
#X connect 13 0 14 0;
#X connect 14 0 7 1;
#X connect 15 0 20 0;
#X connect 15 1 6 0;
#X connect 16 0 11 1;
#X connect 16 0 9 0;
#X connect 17 0 10 0;
#X connect 17 1 24 0;
#X connect 18 0 17 0;
#X connect 18 1 16 0;
#X connect 18 1 19 1;
#X connect 19 0 20 1;
#X connect 20 0 18 0;
#X connect 21 0 22 0;
#X connect 22 0 16 0;
#X connect 22 0 19 1;
#X connect 22 0 20 1;
#X connect 23 0 2 0;
#X connect 24 0 23 0;
#X restore 133 214 pd keypad;
#X obj 98 256 inlet;
#X obj 48 281 outlet;
#X connect 0 0 1 0;
#X connect 0 1 1 1;
#X connect 1 0 10 0;
#X connect 2 0 13 0;
#X connect 3 0 6 0;
#X connect 3 1 4 0;
#X connect 4 0 5 0;
#X connect 5 0 11 0;
#X connect 6 0 7 0;
#X connect 7 0 13 0;
#X connect 8 0 2 0;
#X connect 9 0 8 0;
#X connect 10 0 3 0;
#X connect 10 1 9 0;
#X connect 11 0 13 0;
#X connect 12 0 13 0;
#X restore 28 -52 pd keys;
#X obj 102 -99 cnv 15 100 20 empty empty empty 20 12 0 14 -257985 -66577
0;
#X text 106 -98 INPUT;
#X obj 688 275 print;
#X obj 639 242 route select inst;
#X connect 1 0 3 0;
#X connect 3 0 9 0;
#X connect 3 0 11 0;
#X connect 3 0 14 0;
#X connect 3 1 2 0;
#X connect 4 0 5 0;
#X connect 5 0 3 2;
#X connect 5 0 6 0;
#X connect 7 0 3 2;
#X connect 9 0 18 0;
#X connect 9 0 17 0;
#X connect 9 0 8 0;
#X connect 9 1 10 0;
#X connect 11 1 12 0;
#X connect 12 0 13 0;
#X connect 14 1 15 0;
#X connect 15 0 16 0;
#X connect 19 0 20 0;
#X connect 20 0 27 0;
#X connect 20 0 28 0;
#X connect 21 0 22 0;
#X connect 22 0 17 1;
#X connect 23 0 24 0;
#X connect 24 0 3 0;
#X connect 28 2 21 0;
#X restore 851 182 pd input-logic;
#X msg 557 495 vis 1;
#X obj 501 494 adc~;
#N canvas 356 22 1074 818 misc 0;
#X text 314 -14 Used by sssad.preset;
#X obj 568 51 rtc/RTC-seed;
#X obj 567 12 r \$0-init;
#X obj 16 106 value VERBOSE;
#X obj 15 35 loadbang;
#X obj 16 149 r \$0-SSSAD;
#X obj 15 176 verbose sssad-local 4;
#X obj 532 134 singletable dummy;
#X text 531 119 This is just to avoid error messages about missing
tables.;
#X obj 16 199 r OSC;
#X obj 15 226 verbose OSC 4;
#X text 308 98 Cleaning up midi connections;
#X obj 155 164 ggee/shell;
#X obj 164 194 print;
#X msg 155 88 neumidi;
#X obj 584 190 r \$0-dostatus;
#X obj 634 335 list;
#X obj 636 354 l2s;
#X msg 634 373 label \$1;
#X obj 633 393 s \$0-status;
#X obj 584 210 list split 1;
#X obj 583 233 route float;
#X obj 640 310 list append;
#X obj 584 254 t f b;
#X obj 584 277 delay;
#X msg 583 299 label;
#X obj 45 355 s OSC;
#X msg 125 371 /gtr/2/pitch -4;
#X obj 43 286 inlet;
#X obj 440 492 cputime;
#X obj 440 352 loadbang;
#X obj 440 436 metro 1000;
#X msg 440 380 1;
#X floatatom 440 408 0 0 0 0 - - -;
#X obj 440 464 t b b;
#X obj 440 521 int;
#X text 485 408 <-- on/off;
#X obj 440 552 * 0.001;
#X msg 447 581 /bcrmod/led/3 \$1;
#X msg 15 85 2;
#X obj 695 537 mapping/debytemask;
#X obj 694 690 s OSC;
#X msg 710 587 /bcrmod/led/3 \$1;
#X msg 694 563 /bcrmod/led/4 \$1;
#X msg 730 619 /bcrmod/led/2 \$1;
#X msg 746 643 /bcrmod/led/1 \$1;
#X obj 693 463 bng 15 250 50 0 empty empty empty 17 7 0 10 -262144
-1 -1;
#X obj 691 432 ctlin 65;
#X obj 695 500 yambc 16;
#X obj 568 32 seedor;
#X obj 9 -17 globalvar presetdir /home/johannes/pd/neu/presets;
#X msg 43 307 /gtr/1/preset 0 \, /gtr/2/preset 0 \, /gtr/3/preset 0
\, /gtr/4/preset 0 \, /grandel/preset 1 \, /delay/preset 0 \, /dist/preset
0 \, /rev/preset 0;
#X text 325 2 Used by sssad.preset;
#X obj 9 3 globalvar logdir /home/johannes/pd/neu/logs;
#X connect 2 0 49 0;
#X connect 4 0 39 0;
#X connect 4 0 14 0;
#X connect 5 0 6 0;
#X connect 9 0 10 0;
#X connect 12 0 13 0;
#X connect 14 0 12 0;
#X connect 15 0 20 0;
#X connect 16 0 17 0;
#X connect 17 0 18 0;
#X connect 18 0 19 0;
#X connect 20 0 21 0;
#X connect 20 1 22 1;
#X connect 21 0 23 0;
#X connect 21 1 22 0;
#X connect 22 0 16 0;
#X connect 23 0 24 0;
#X connect 23 1 22 0;
#X connect 24 0 25 0;
#X connect 25 0 19 0;
#X connect 27 0 26 0;
#X connect 28 0 51 0;
#X connect 28 0 32 0;
#X connect 29 0 35 0;
#X connect 30 0 32 0;
#X connect 31 0 34 0;
#X connect 32 0 33 0;
#X connect 33 0 31 0;
#X connect 34 0 29 0;
#X connect 34 1 29 1;
#X connect 35 0 37 0;
#X connect 38 0 26 0;
#X connect 39 0 3 0;
#X connect 40 0 43 0;
#X connect 40 1 42 0;
#X connect 40 2 44 0;
#X connect 40 3 45 0;
#X connect 42 0 41 0;
#X connect 43 0 41 0;
#X connect 44 0 41 0;
#X connect 45 0 41 0;
#X connect 46 0 48 0;
#X connect 47 0 46 0;
#X connect 48 0 40 0;
#X connect 49 0 1 0;
#X connect 51 0 26 0;
#X restore 517 42 pd misc;
#X obj 373 175 viet-synth;
#N canvas 577 551 450 300 delay 0;
#X obj 38 16 inlet~;
#X obj 249 18 inlet~;
#X obj 35 182 outlet~;
#X obj 246 184 outlet~;
#X obj 72 132 mod-delay~ \$0 2000;
#X obj 269 56 inlet;
#X obj 302 97 inlet;
#X connect 0 0 4 0;
#X connect 1 0 4 1;
#X connect 4 0 2 0;
#X connect 4 1 3 0;
#X connect 5 0 4 2;
#X connect 6 0 4 3;
#X restore 147 350 pd delay;
#N canvas 5 44 932 818 reverb 0;
#X obj 156 69 inlet~;
#X obj 155 174 dac~ 3;
#X obj 155 213 adc~ 3 4;
#X obj 155 239 outlet~;
#X obj 205 259 outlet~;
#X obj 156 111 *~ 0.63;
#X obj 231 136 sendbus-dispatch \$0;
#X obj 289 76 inlet;
#X connect 0 0 5 0;
#X connect 2 0 3 0;
#X connect 2 1 4 0;
#X connect 5 0 1 0;
#X restore 347 352 pd reverb;
#N canvas 0 19 1004 823 its 0;
#X obj 58 7 inlet~;
#X obj 87 34 inlet~;
#X obj 113 57 inlet~;
#X obj 142 83 inlet~;
#X obj 68 257 inlet~;
#X obj 97 284 inlet~;
#X obj 123 307 inlet~;
#X obj 152 333 inlet~;
#X obj 75 232 inlet~;
#X obj 105 201 inlet~;
#X obj 135 181 inlet~;
#X obj 185 171 inlet~;
#X obj 830 -18 catch~ \$0-gL;
#X obj 870 1 catch~ \$0-dlL;
#X obj 910 21 catch~ \$0-dsL;
#X obj 840 232 catch~ \$0-gR;
#X obj 880 251 catch~ \$0-dlR;
#X obj 920 271 catch~ \$0-dsR;
#X obj 950 41 catch~ \$0-rL;
#X obj 960 291 catch~ \$0-rR;
#X obj 858 134 outlet~;
#X obj 923 134 outlet~;
#X obj 992 134 outlet~;
#X obj 868 364 outlet~;
#X obj 933 364 outlet~;
#X obj 1002 364 outlet~;
#X obj 25 392 safety-limiter~;
#X obj 34 435 dac~;
#X obj 423 115 inlet~;
#X obj 476 115 inlet~;
#X obj 384 500 import iemmatrix;
#X obj 32 113 mtx_mul~ 1 10 10 ----------------------------------;
#X obj 50 361 mtx_mul~ 1 10 10 ----------------------------------;
#X obj 790 80 mtx_mul~ 4 4 10 ------------------;
#X obj 800 330 mtx_mul~ 4 4 10 ------------------;
#X obj 789 134 outlet~;
#X obj 799 364 outlet~;
#X obj 440 210 mtx_mul~ 4 5 10 ------------------;
#N canvas 0 19 1004 844 route 0;
#X obj 117 461 outlet;
#X obj 163 28 list split 1;
#X obj 503 84 loadbang;
#X obj 477 201 prepent add;
#X obj 168 316 pack f f f;
#X text 257 418 convert \$0-msg to matrix-style row/col + value instructions
;
#X obj 109 409 t b a;
#X msg 168 340 element \$2 \$1 \$3;
#X obj 109 432 mtx 4 5;
#X obj 150 279 spigot;
#X obj 150 247 list split 1;
#X obj 163 2 r OSC;
#X obj 503 132 route float;
#X obj 149 118 list prepend 5;
#X obj 208 145 list prepend 1;
#X obj 253 166 list prepend 2;
#X obj 308 185 list prepend 3;
#X obj 353 206 list prepend 4;
#X obj 206 91 routeOSC /1 /2 /3 /4;
#X obj 163 55 routeOSC /viet /gtr;
#X msg 503 110 gtr1 \, gtr2 \, gtr3 \, gtr4 \, viet;
#X msg 475 178 /tograndel \, /todelay \, /todist \, /torev;
#X obj 202 270 index;
#X obj 258 283 route float;
#X connect 1 0 19 0;
#X connect 1 1 23 0;
#X connect 2 0 20 0;
#X connect 2 0 21 0;
#X connect 3 0 22 0;
#X connect 4 0 7 0;
#X connect 6 0 8 0;
#X connect 6 1 8 0;
#X connect 7 0 6 0;
#X connect 8 0 0 0;
#X connect 9 0 4 0;
#X connect 10 0 9 0;
#X connect 10 1 22 0;
#X connect 11 0 1 0;
#X connect 13 0 10 0;
#X connect 14 0 10 0;
#X connect 15 0 10 0;
#X connect 16 0 10 0;
#X connect 17 0 10 0;
#X connect 18 0 14 0;
#X connect 18 1 15 0;
#X connect 18 2 16 0;
#X connect 18 3 17 0;
#X connect 19 0 13 0;
#X connect 19 1 18 0;
#X connect 20 0 12 0;
#X connect 21 0 3 0;
#X connect 22 0 9 1;
#X connect 22 0 4 1;
#X connect 23 0 4 2;
#X restore 265 -45 pd route;
#N canvas 0 19 1004 844 route 0;
#X obj 111 395 outlet;
#X obj 162 250 pack f f f;
#X text 251 352 convert \$0-msg to matrix-style row/col + value instructions
;
#X obj 103 343 t b a;
#X msg 162 309 element \$2 \$1 \$3;
#X obj 103 366 mtx 4 4;
#X obj 161 -15 list split 1;
#X obj 160 30 list split 1;
#X obj 160 -59 r OSC;
#X obj 160 10 symbol2list /;
#X obj 158 73 route grandel delay dist rev;
#X obj 158 93 1;
#X obj 199 94 2;
#X obj 240 93 3;
#X obj 281 93 4;
#X obj 203 185 1;
#X obj 244 186 2;
#X obj 285 185 3;
#X obj 326 185 4;
#X obj 202 166 route tograndel todelay todist torev;
#X obj 161 281 spigot;
#X msg 233 280 0;
#X obj 158 52 list trim;
#X obj 202 145 list trim;
#X obj 162 -37 t a b;
#X msg 288 290 1;
#X obj 243 245 route float;
#X connect 1 0 20 0;
#X connect 3 0 5 0;
#X connect 3 1 5 0;
#X connect 4 0 3 0;
#X connect 5 0 0 0;
#X connect 6 0 9 0;
#X connect 6 1 26 0;
#X connect 7 0 22 0;
#X connect 7 1 23 0;
#X connect 8 0 24 0;
#X connect 9 0 7 0;
#X connect 10 0 11 0;
#X connect 10 1 12 0;
#X connect 10 2 13 0;
#X connect 10 3 14 0;
#X connect 11 0 1 0;
#X connect 12 0 1 0;
#X connect 13 0 1 0;
#X connect 14 0 1 0;
#X connect 15 0 1 1;
#X connect 16 0 1 1;
#X connect 17 0 1 1;
#X connect 18 0 1 1;
#X connect 19 0 15 0;
#X connect 19 1 16 0;
#X connect 19 2 17 0;
#X connect 19 3 18 0;
#X connect 19 4 21 0;
#X connect 20 0 4 0;
#X connect 21 0 20 1;
#X connect 22 0 10 0;
#X connect 23 0 19 0;
#X connect 24 0 6 0;
#X connect 24 1 25 0;
#X connect 25 0 20 1;
#X connect 26 0 1 2;
#X restore 348 -46 pd route;
#N canvas 0 19 1004 844 mtx 0;
#X obj 77 370 t b a;
#X obj 74 413 outlet;
#X obj 218 155 list prepend 1;
#X obj 245 175 list prepend 2;
#X obj 273 195 list prepend 3;
#X obj 305 217 list prepend 4;
#X obj 216 101 routeOSC /1 /2 /3 /4;
#X obj 366 101 routeOSC /grandel /delay /dist /rev;
#X obj 368 155 list prepend 5;
#X obj 395 175 list prepend 6;
#X obj 455 217 list prepend 8;
#X obj 423 195 list prepend 7;
#X obj 213 50 routeOSC /master;
#X obj 216 19 r OSC;
#X obj 214 76 routeOSC /gtr;
#X obj 77 393 mtx 1 10;
#X msg 58 328 element 1 \$1 \$2;
#X connect 0 0 15 0;
#X connect 0 1 15 0;
#X connect 2 0 16 0;
#X connect 3 0 16 0;
#X connect 4 0 16 0;
#X connect 5 0 16 0;
#X connect 6 0 2 0;
#X connect 6 1 3 0;
#X connect 6 2 4 0;
#X connect 6 3 5 0;
#X connect 7 0 8 0;
#X connect 7 1 9 0;
#X connect 7 2 11 0;
#X connect 7 3 10 0;
#X connect 8 0 16 0;
#X connect 9 0 16 0;
#X connect 10 0 16 0;
#X connect 11 0 16 0;
#X connect 12 0 14 0;
#X connect 13 0 12 0;
#X connect 14 0 6 0;
#X connect 14 1 7 0;
#X connect 15 0 1 0;
#X connect 16 0 0 0;
#X restore 7 6 pd mtx;
#X connect 0 0 31 1;
#X connect 1 0 31 2;
#X connect 2 0 31 3;
#X connect 3 0 31 4;
#X connect 4 0 32 1;
#X connect 5 0 32 2;
#X connect 6 0 32 3;
#X connect 7 0 32 4;
#X connect 8 0 37 1;
#X connect 9 0 37 2;
#X connect 10 0 37 3;
#X connect 11 0 37 4;
#X connect 12 0 31 5;
#X connect 12 0 33 1;
#X connect 13 0 31 6;
#X connect 13 0 33 2;
#X connect 14 0 31 7;
#X connect 14 0 33 3;
#X connect 15 0 32 5;
#X connect 15 0 34 1;
#X connect 16 0 32 6;
#X connect 16 0 34 2;
#X connect 17 0 32 7;
#X connect 17 0 34 3;
#X connect 18 0 31 8;
#X connect 18 0 33 4;
#X connect 19 0 32 8;
#X connect 19 0 34 4;
#X connect 26 0 27 0;
#X connect 26 1 27 1;
#X connect 28 0 26 0;
#X connect 28 0 37 5;
#X connect 29 0 26 1;
#X connect 31 0 26 0;
#X connect 32 0 26 1;
#X connect 33 0 35 0;
#X connect 33 1 20 0;
#X connect 33 2 21 0;
#X connect 33 3 22 0;
#X connect 34 0 36 0;
#X connect 34 1 23 0;
#X connect 34 2 24 0;
#X connect 34 3 25 0;
#X connect 37 0 35 0;
#X connect 37 0 36 0;
#X connect 37 1 20 0;
#X connect 37 1 23 0;
#X connect 37 2 21 0;
#X connect 37 2 24 0;
#X connect 37 3 22 0;
#X connect 37 3 25 0;
#X connect 38 0 37 0;
#X connect 39 0 33 0;
#X connect 39 0 34 0;
#X connect 40 0 31 0;
#X connect 40 0 32 0;
#X restore 48 237 pd its fun to redo all the routing work when pd has
crashed;
#N canvas 283 562 450 300 dist 0;
#X obj 150 29 inlet~;
#X obj 190 49 inlet~;
#X obj 152 115 outlet~;
#X obj 186 151 outlet~;
#X obj 151 76 tanh-s~ \$0;
#X obj 234 21 inlet;
#X obj 245 50 inlet;
#X connect 0 0 4 0;
#X connect 1 0 4 1;
#X connect 4 0 2 0;
#X connect 4 1 3 0;
#X connect 5 0 4 2;
#X connect 6 0 4 3;
#X restore 248 349 pd dist;
#N canvas 20 110 795 542 another 0;
#X obj -299 2 inlet~;
#X obj -289 22 inlet~;
#X obj -186 46 inlet~;
#X obj -156 7 inlet~;
#X obj -28 14 inlet~;
#X obj 2 34 inlet~;
#X obj 106 -6 inlet~;
#X obj 116 14 inlet~;
#X obj -298 65 throw~ \$0-gL;
#X obj -286 124 throw~ \$0-gR;
#X obj -175 159 throw~ \$0-dlR;
#X obj -17 166 throw~ \$0-dsR;
#X obj 116 162 throw~ \$0-rR;
#X obj 106 92 throw~ \$0-rL;
#X obj -27 96 throw~ \$0-dsL;
#X obj -185 89 throw~ \$0-dlL;
#X connect 0 0 8 0;
#X connect 1 0 9 0;
#X connect 2 0 15 0;
#X connect 3 0 10 0;
#X connect 4 0 14 0;
#X connect 5 0 11 0;
#X connect 6 0 13 0;
#X connect 7 0 12 0;
#X restore 47 368 pd another subpatch with a long name with throws
in it-----;
#N canvas 25 132 855 402 sequencer 0;
#X obj 97 26 inlet;
#X obj 97 47 route sequencer;
#X obj 185 68 outlet;
#X obj 97 94 route stop play rec;
#X msg 97 115 \$1 0;
#X msg 133 116 \$1 1;
#X msg 172 115 \$1 2;
#X obj 152 161 simple-msg-seq-15;
#X obj 152 184 route list;
#X obj 297 163 messagelink \$0-SSSAD OSC;
#X obj 298 186 routeOSC /meta;
#X obj 280 -106 ctlin 109;
#X obj 280 -86 sel 127 0;
#X obj 282 -36 timer;
#X obj 306 -63 t b b;
#X obj 282 -14 < 500;
#X obj 282 6 sel 1;
#X obj 278 68 list prepend 15;
#X msg 279 28 0;
#X msg 328 18 2;
#X msg 331 -36 1;
#X connect 0 0 1 0;
#X connect 1 0 3 0;
#X connect 1 1 2 0;
#X connect 3 0 4 0;
#X connect 3 1 5 0;
#X connect 3 2 6 0;
#X connect 4 0 7 0;
#X connect 5 0 7 0;
#X connect 6 0 7 0;
#X connect 7 0 8 0;
#X connect 8 0 9 0;
#X connect 9 0 10 0;
#X connect 10 1 7 1;
#X connect 11 0 12 0;
#X connect 12 0 13 0;
#X connect 12 0 19 0;
#X connect 12 1 14 0;
#X connect 13 0 15 0;
#X connect 14 0 13 1;
#X connect 14 1 20 0;
#X connect 15 0 16 0;
#X connect 16 0 18 0;
#X connect 17 0 7 0;
#X connect 18 0 17 0;
#X connect 19 0 17 0;
#X connect 20 0 17 0;
#X restore 850 121 pd sequencer;
#N canvas 0 19 932 818 bassdrum 0;
#X obj 436 106 table \$0-bassdrum;
#X obj 75 12 inlet;
#X obj 103 168 line~;
#X obj 73 211 *~;
#X obj 74 80 t b b f;
#X obj 103 146 pack f f;
#X obj 166 145 0;
#X obj 151 90 3;
#X obj 72 241 outlet~;
#X obj 436 136 table \$0-bassdrum2;
#X obj 508 266 soundfiler;
#X obj 507 193 \$0;
#X obj 463 188 bng 15 250 50 0 empty empty empty 17 7 0 10 -262144
-1 -1;
#X msg 505 216 read -resize /media/maxi/samples/drums/Cassette808/Cassette808_Samples/Cassette808_BD01.wav
\$1-bassdrum2;
#X obj 74 114 tabplay~ \$0-bassdrum2;
#X obj 508 165 loadbang;
#X obj 296 19 r MSG;
#X obj 298 53 route adc1;
#X obj 279 79 route onset;
#X obj 279 102 / 100;
#X obj 281 127 spigot;
#X obj 323 102 r \$0-BD;
#X obj 317 266 inlet~;
#X obj 129 305 delread~ \$0tech 170;
#X obj 318 293 delwrite~ \$0tech 300;
#X obj 117 217 *~;
#X obj 166 263 loadbang;
#X msg 167 281 170;
#X connect 1 0 4 0;
#X connect 2 0 3 1;
#X connect 3 0 8 0;
#X connect 4 0 14 0;
#X connect 4 1 7 0;
#X connect 4 2 5 0;
#X connect 5 0 2 0;
#X connect 6 0 5 1;
#X connect 7 0 5 1;
#X connect 11 0 13 0;
#X connect 12 0 11 0;
#X connect 13 0 10 0;
#X connect 14 0 3 0;
#X connect 14 1 6 0;
#X connect 15 0 11 0;
#X connect 16 0 17 0;
#X connect 17 0 18 0;
#X connect 18 0 19 0;
#X connect 19 0 20 0;
#X connect 20 0 4 0;
#X connect 21 0 20 1;
#X connect 21 0 25 1;
#X connect 22 0 24 0;
#X connect 25 0 8 0;
#X connect 26 0 27 0;
#X connect 27 0 23 0;
#X restore 374 423 pd bassdrum;
#X obj 251 447 dac~;
#X msg 374 402 1;
#X obj 373 134 r \$0-VIET;
#X obj 373 154 prepent /onoff;
#X text 88 490 TODO: bassdrum-thing -- fx: delay reverb -- midi setup
-- global presets? -- viet-synth params -- adc=>graintrainr pitchenv
;
#X obj 44 12 import list-abs;
#N canvas 0 19 1076 818 echo 0;
#X msg 199 109 label \$1;
#X obj 199 143 s \$0-command;
#X obj 300 36 r \$0-current;
#X obj 301 122 s \$0-currentcnv;
#X msg 301 88 label \$1;
#X obj 195 61 list split 1;
#X obj 197 35 r \$0-SSSAD;
#X obj 198 85 list2symbol;
#X obj 300 64 list2symbol;
#X connect 2 0 8 0;
#X connect 4 0 3 0;
#X connect 5 1 7 0;
#X connect 6 0 5 0;
#X connect 7 0 0 0;
#X connect 8 0 4 0;
#X restore 853 686 pd echo;
#X text 849 80 INPUT;
#X obj 47 108 r OSC;
#N canvas 414 231 778 443 preset 0;
#X obj 97 26 inlet;
#X obj 185 68 outlet;
#X obj 97 47 route preset;
#X obj 107 101 route load;
#X obj 106 317 s OSC;
#X obj 107 143 moses 5;
#X obj 107 121 unpack;
#X obj 107 163 pack;
#X msg 107 201 /gtr/\$1/preset \$2;
#X obj 211 152 route 5 6 7 8;
#X text 261 72 TODO: midi=>preset selection;
#X msg 211 174 /grandel/preset \$1;
#X msg 221 194 /delay/preset \$1;
#X msg 251 214 /dist/preset \$1;
#X msg 261 234 /rev/preset \$1;
#X connect 0 0 2 0;
#X connect 2 0 3 0;
#X connect 2 1 1 0;
#X connect 3 0 6 0;
#X connect 5 0 7 0;
#X connect 5 1 9 0;
#X connect 6 0 5 0;
#X connect 6 1 7 1;
#X connect 7 0 8 0;
#X connect 8 0 4 0;
#X connect 9 0 11 0;
#X connect 9 1 12 0;
#X connect 9 2 13 0;
#X connect 9 3 14 0;
#X connect 11 0 4 0;
#X connect 12 0 4 0;
#X connect 13 0 4 0;
#X connect 14 0 4 0;
#X restore 850 162 pd preset;
#N canvas 736 160 450 300 samplebank 0;
#X obj 97 26 inlet;
#X obj 185 68 outlet;
#X obj 97 47 route samplebank;
#X obj 97 91 route load;
#X obj 97 196 s OSC;
#X obj 97 133 moses 5;
#X obj 97 111 unpack;
#X obj 97 153 pack;
#X msg 97 175 /gtr/\$1/bank \$2 \, /gtr/\$1/random 0;
#X connect 0 0 2 0;
#X connect 2 0 3 0;
#X connect 2 1 1 0;
#X connect 3 0 6 0;
#X connect 5 0 7 0;
#X connect 6 0 5 0;
#X connect 6 1 7 1;
#X connect 7 0 8 0;
#X connect 8 0 4 0;
#X restore 850 142 pd samplebank;
#X obj 105 272 routeOSC /grandel /delay /dist /rev;
#N canvas 405 69 1004 818 bcrmod 0;
#X obj 98 82 bcrmod;
#X obj 95 172 s OSC;
#X obj 97 119 OSCprepend /bcrmod;
#X obj 98 54 routeOSC /bcrmod;
#X obj 98 28 r OSC;
#X text 237 94 Sic!;
#X obj 498 113 r OSC;
#X obj 498 188 routeOSC /bcrmod;
#X obj 497 233 routeOSC /1 /2 /3;
#X floatatom 447 262 5 0 0 0 - - -;
#X obj 656 177;
#X obj 497 275 -;
#X msg 497 254 1 \$1;
#X floatatom 459 309 5 0 0 0 - - -;
#X obj 497 298 max 0;
#X obj 578 449 s OSC;
#X obj 683 307;
#X obj 538 275 -;
#X msg 538 254 1 \$1;
#X obj 538 298 max 0;
#X obj 574 272 -;
#X msg 574 251 1 \$1;
#X obj 574 295 max 0;
#N canvas 0 0 450 300 max 0;
#X obj 123 81 inlet;
#X obj 193 81 inlet;
#X obj 253 81 inlet;
#X obj 253 104 t b f;
#X obj 156 152 t b f;
#X obj 121 237 outlet;
#X obj 218 132 max;
#X obj 121 180 max;
#X connect 0 0 7 0;
#X connect 1 0 6 0;
#X connect 2 0 3 0;
#X connect 3 0 6 0;
#X connect 3 1 6 1;
#X connect 4 0 7 0;
#X connect 4 1 7 1;
#X connect 6 0 4 0;
#X connect 7 0 5 0;
#X restore 572 340 pd max;
#N canvas 0 0 450 300 foo 0;
#X obj 112 102 inlet;
#X obj 112 155 mapping/bytemask;
#X obj 128 55 inlet;
#X obj 150 98 inlet;
#X obj 81 198 outlet;
#X obj 128 78 > 0.1;
#X obj 150 121 > 0.1;
#X obj 112 125 > 0.1;
#X connect 0 0 7 0;
#X connect 1 0 4 0;
#X connect 2 0 5 0;
#X connect 3 0 6 0;
#X connect 5 0 1 1;
#X connect 6 0 1 2;
#X connect 7 0 1 0;
#X restore 478 341 pd foo;
#X msg 473 490 /viet/pitch \$1;
#X obj 478 363 / 7;
#X obj 470 417 * 12;
#X obj 472 438 + 48;
#X msg 680 435 /viet/amp \$1;
#X obj 680 337 * 0.2;
#X obj 701 400 line;
#X msg 699 369 \$1 300;
#X floatatom 621 376 5 0 0 0 - - -;
#X obj 648 323 > 0.1;
#X floatatom 402 373 5 0 0 0 - - -;
#X obj 478 389 +;
#X obj 506 389 t b f;
#X floatatom 664 498 5 0 0 0 - - -;
#X floatatom 740 240 5 0 0 0 - - -;
#N canvas 0 0 450 300 oct 0;
#X obj 116 223 outlet;
#X obj 114 14 t f f;
#X obj 68 14 inlet;
#X floatatom 183 212 5 0 0 0 - - -;
#X obj 195 48;
#X obj 138 62 -;
#X msg 138 36 0.45 \$1;
#X floatatom 209 121 5 0 0 0 - - -;
#X floatatom 70 82 5 0 0 0 - - -;
#X obj 139 87 max 0;
#X floatatom 77 143 5 0 0 0 - - -;
#X obj 122 161 mapping/autoscale 0 1;
#X connect 1 1 6 0;
#X connect 2 0 1 0;
#X connect 5 0 8 0;
#X connect 5 0 9 0;
#X connect 6 0 5 0;
#X connect 9 0 11 0;
#X connect 11 0 0 0;
#X restore 642 261 pd oct;
#X msg 542 370 1;
#X msg 585 398 /viet/lfodepth \$1;
#X obj 498 211 routeOSC /ldr /x /z;
#X floatatom 632 238 5 0 0 0 - - -;
#X obj 701 266;
#X msg 741 298 /viet/todist \$1;
#X text 493 149 VIET;
#X connect 0 0 2 0;
#X connect 2 0 1 0;
#X connect 3 0 0 0;
#X connect 4 0 3 0;
#X connect 6 0 7 0;
#X connect 7 0 43 0;
#X connect 8 0 9 0;
#X connect 8 0 12 0;
#X connect 8 1 18 0;
#X connect 8 2 21 0;
#X connect 11 0 13 0;
#X connect 11 0 14 0;
#X connect 12 0 11 0;
#X connect 14 0 23 0;
#X connect 14 0 24 0;
#X connect 17 0 19 0;
#X connect 18 0 17 0;
#X connect 19 0 23 1;
#X connect 19 0 24 1;
#X connect 20 0 22 0;
#X connect 21 0 20 0;
#X connect 22 0 23 2;
#X connect 22 0 24 2;
#X connect 23 0 33 0;
#X connect 23 0 34 0;
#X connect 24 0 26 0;
#X connect 24 0 35 0;
#X connect 25 0 15 0;
#X connect 26 0 36 0;
#X connect 27 0 28 0;
#X connect 28 0 25 0;
#X connect 29 0 15 0;
#X connect 30 0 32 0;
#X connect 30 0 29 0;
#X connect 32 0 31 0;
#X connect 34 0 30 0;
#X connect 36 0 27 0;
#X connect 37 0 36 0;
#X connect 37 1 36 1;
#X connect 40 0 37 0;
#X connect 40 0 42 0;
#X connect 41 0 37 0;
#X connect 42 0 15 0;
#X connect 43 0 8 0;
#X connect 43 1 38 0;
#X connect 43 1 40 0;
#X connect 43 2 44 0;
#X connect 43 2 46 0;
#X connect 46 0 15 0;
#X restore 849 208 pd bcrmod;
#X obj 292 40 loadbang;
#X obj 293 85 s \$0-init;
#X obj 292 63 delay 5000;
#X obj 466 1 r \$0-init;
#X obj 433 17 bng 15 250 50 0 empty empty empty 17 7 0 10 -262144 -1
-1;
#X obj 622 444 bpm2ms;
#X floatatom 622 414 5 0 0 0 - - -;
#X floatatom 627 468 5 0 0 0 - - -;
#X obj 465 64 globaltempo 2400;
#X obj 47 130 routeOSC /gtr /viet /meta;
#X obj 145 154 routeOSC /gtr /viet;
#X obj 117 292 routeOSC /meta;
#X obj 115 312 routeOSC /grandel /delay /dist /rev;
#X obj 501 522 mod-delay~;
#N canvas 0 0 721 575 logging 1;
#X obj 426 98 messagelink \$0-SSSAD OSC;
#X obj 76 446 qlist;
#N canvas 0 0 450 300 filename 0;
#X obj 207 175 time;
#X obj 125 198 pack s f f f f f f;
#X obj 125 96 inlet;
#X obj 125 243 outlet;
#X obj 207 126 loadbang;
#X obj 148 175 date;
#X obj 125 120 t b b b;
#X obj 125 218 makesymbol %s_%s-%s-%s_%s:%s:%s;
#X obj 42 155 symbol session;
#X connect 0 0 1 4;
#X connect 0 1 1 5;
#X connect 0 2 1 6;
#X connect 1 0 7 0;
#X connect 2 0 6 0;
#X connect 4 0 0 0;
#X connect 4 0 5 0;
#X connect 5 0 1 1;
#X connect 5 1 1 2;
#X connect 5 2 1 3;
#X connect 6 0 8 0;
#X connect 6 1 5 0;
#X connect 6 2 0 0;
#X connect 7 0 3 0;
#X connect 8 0 1 0;
#X restore 214 223 pd filename;
#X obj 225 42 r OSC;
#X obj 225 65 routeOSC /logging;
#X obj 225 90 routeOSC /start /stop;
#X obj 225 118 spigot 1;
#X obj 214 246 pack s s;
#X obj 289 223 globalvar logdir;
#X msg 214 273 symbol \$2/\$1.qlist;
#X obj 84 185 bangspigot;
#X obj 81 289 timer;
#X obj 83 258 t b b a;
#X msg 256 432 write \$1;
#X obj 404 379 symbol;
#X obj 438 136 t b b;
#X msg 108 393 clear;
#X obj 225 189 t b b b b;
#X obj 365 492 openpanel;
#X obj 367 469 globalvar logdir;
#X obj 367 448 bng 15 250 50 0 empty empty empty 17 7 0 10 -262144
-1 -1;
#X obj 83 221 list prepend OSC;
#X obj 77 327 list append;
#X msg 366 52 /start;
#X msg 379 75 /stop;
#X obj 102 23 r \$0-SSSAD;
#X msg 168 404 print;
#X floatatom 26 459 5 0 0 0 - - -;
#X msg 15 393 rewind \, bang;
#X obj 10 121;
#X obj 10 255 bng 15 250 50 0 empty empty empty 17 7 0 10 -262144 -1
-1;
#X obj 210 382 print;
#X obj 76 359 prepent add;
#X msg 363 515 read \$1;
#X connect 1 0 27 0;
#X connect 2 0 7 0;
#X connect 3 0 4 0;
#X connect 4 0 5 0;
#X connect 5 0 6 0;
#X connect 5 1 15 0;
#X connect 6 0 17 0;
#X connect 7 0 9 0;
#X connect 8 0 7 1;
#X connect 9 0 14 1;
#X connect 10 0 21 0;
#X connect 11 0 22 0;
#X connect 12 0 11 0;
#X connect 12 1 11 1;
#X connect 12 2 22 1;
#X connect 13 0 1 0;
#X connect 14 0 13 0;
#X connect 15 0 14 0;
#X connect 15 1 10 2;
#X connect 16 0 1 0;
#X connect 17 0 2 0;
#X connect 17 1 8 0;
#X connect 17 2 10 1;
#X connect 17 3 16 0;
#X connect 17 3 11 0;
#X connect 18 0 33 0;
#X connect 19 0 18 0;
#X connect 20 0 19 0;
#X connect 21 0 12 0;
#X connect 21 0 30 0;
#X connect 22 0 32 0;
#X connect 23 0 5 0;
#X connect 24 0 5 0;
#X connect 25 0 10 0;
#X connect 26 0 1 0;
#X connect 28 0 1 0;
#X connect 32 0 1 0;
#X connect 32 0 31 0;
#X connect 33 0 1 0;
#X restore 852 235 pd logging;
#N canvas 0 0 450 300 to_led 0;
#X obj 64 160 s OSC;
#X obj 60 81 line;
#X msg 63 137 /bcrmod/led/4 \$1;
#X obj 20 102 quartic;
#X msg 56 55 1 \, 0.2 \$1;
#X obj 184 140 r OSC;
#X floatatom 166 106 5 0 0 0 - - -;
#X obj 141 215 line;
#X msg 142 191 \$1 \, 0 1000;
#X obj 221 185 change;
#X obj 184 161 route /bcrmod/ldr/1;
#X obj 134 239 prepent /gtr/1/speed;
#X obj 54 23 inlet;
#X connect 1 0 3 0;
#X connect 3 0 2 0;
#X connect 4 0 1 0;
#X connect 5 0 10 0;
#X connect 7 0 11 0;
#X connect 8 0 7 0;
#X connect 9 0 8 0;
#X connect 10 0 6 0;
#X restore 465 85 pd to_led;
#N canvas 364 82 1076 818 load_samples 0;
#X obj 52 116 s \$0-banks;
#X msg 248 68 loading samples...;
#X obj 213 92 s \$0-dostatus;
#X obj 174 -18 t b b;
#X obj 347 175 s OSC;
#X obj 346 132 countup 5;
#X msg 347 154 /bcrmod/led/\$1 0.02;
#X obj 196 142 countup 5;
#X msg 197 164 /bcrmod/led/\$1 0;
#X obj 350 105 bng 15 250 50 0 empty empty empty 17 7 0 10 -262144
-1 -1;
#X msg 199 62 done;
#X obj 175 200 outlet;
#X obj 174 -38 inlet;
#X obj 136 27 bng 15 250 50 0 empty empty empty 17 7 0 10 -262144 -1
-1;
#X obj 52 94 wavpreload-getsamples;
#X connect 1 0 2 0;
#X connect 3 0 14 1;
#X connect 3 1 1 0;
#X connect 3 1 5 0;
#X connect 5 0 6 0;
#X connect 6 0 4 0;
#X connect 7 0 8 0;
#X connect 9 0 5 0;
#X connect 10 0 2 0;
#X connect 12 0 3 0;
#X connect 13 0 14 1;
#X connect 14 0 0 0;
#X connect 14 1 7 0;
#X connect 14 1 10 0;
#X connect 14 1 11 0;
#X restore 465 21 pd load_samples;
#X obj 129 207 gtr~ 2 \$0;
#X obj 47 207 gtr~ 1 \$0;
#X obj 209 208 gtr~ 3 \$0;
#X obj 290 210 gtr~ 4 \$0;
#X obj 650 323 inchannel~ \$0 1;
#N canvas 278 562 450 300 grandel 0;
#X obj 109 40 inlet~;
#X obj 110 116 outlet~;
#X obj 170 116 outlet~;
#X obj 109 62 grandel/grandelback2.3 \$0;
#X obj 182 18 inlet;
#X obj 256 32 inlet;
#X connect 0 0 3 0;
#X connect 3 0 1 0;
#X connect 3 1 2 0;
#X connect 4 0 3 1;
#X connect 5 0 3 2;
#X restore 49 345 pd grandel;
#N canvas 0 0 450 300 README 0;
#N canvas 185 76 994 704 Message 0;
#X text 19 41 OSC;
#X text 19 13 Special Messages (may or may not be correct);
#X text 15 80 \$0-SSSAD;
#N canvas 0 0 450 300 External 0;
#X obj 120 138 outlet;
#X restore 34 187 pd External controller in;
#X msg 34 280 \; OSC /machine/param;
#X msg 254 280 \; \$0-SSSAD list /path/to/param;
#X text 16 153 So it's a bit like this (in pseudo-code):;
#N canvas 0 0 450 300 Global 0;
#X obj 120 138 outlet;
#X restore 254 187 pd Global State saving;
#X obj 19 356 cnv 15 400 200 empty empty empty 20 12 0 14 -233017 -66577
0;
#N canvas 0 0 450 300 Machine 0;
#X obj 122 54 inlet;
#X obj 128 179 outlet;
#X restore 34 408 pd Machine;
#N canvas 0 0 450 300 External 0;
#X obj 122 54 inlet;
#X restore 254 334 pd External controller out;
#X obj 254 308 route list;
#X obj 34 432 route /param /param2 /param...;
#N canvas 0 0 450 300 gui 0;
#X obj 168 37 inlet;
#X restore 34 514 pd gui;
#N canvas 0 0 450 300 Local 0;
#X obj 168 37 inlet;
#X restore 85 515 pd Local State saving;
#N canvas 0 0 450 300 State 0;
#X obj 120 138 outlet;
#X restore 96 384 pd State saving;
#X obj 283 532 OSCprepend /machine;
#N canvas 0 0 450 300 Global 0;
#X obj 168 37 inlet;
#X restore 283 606 pd Global State saving;
#X obj 85 493 list;
#X obj 283 586 list;
#X obj 431 603 s \$0-SSSAD;
#X text 472 363 Which means;
#X text 166 42 OSC-style messages received by all dsp units. External
controllers use this.;
#X text 167 77 Global (\$0 of main.pd) or abstraction-local OSC-style
messages \, prepended with a list selector. External controllers can
use global \$0-SSSAD to get updates from other controllers \, sequencers
and state saving.;
#X text 559 24 To not get stuck in message loops we use this;
#X obj 562 51 messagelink \$0-SSSAD OSC;
#X text 556 80 Which will receive \$0-SSSAD and send OSC \, but block
receiving while sending.;
#N canvas 0 0 450 300 sequencer 0;
#X obj 120 138 outlet;
#X restore 44 207 pd sequencer;
#N canvas 0 0 450 300 ... 0;
#X obj 120 138 outlet;
#X restore 54 227 pd ...;
#X connect 3 0 4 0;
#X connect 4 0 9 0;
#X connect 5 0 9 0;
#X connect 5 0 11 0;
#X connect 7 0 5 0;
#X connect 9 0 12 0;
#X connect 11 0 10 0;
#X connect 12 0 13 0;
#X connect 12 0 16 0;
#X connect 12 0 18 0;
#X connect 15 0 9 0;
#X connect 16 0 19 0;
#X connect 18 0 14 0;
#X connect 19 0 17 0;
#X connect 19 0 20 0;
#X connect 27 0 4 0;
#X connect 28 0 4 0;
#X restore 182 13 pd Message flow;
#X text 14 13 The way our messages flows;
#X restore 850 8 pd README;
#X text 849 650 Unused;
#X connect 0 0 35 0;
#X connect 1 0 12 0;
#X connect 3 0 40 2;
#X connect 4 0 40 0;
#X connect 6 0 9 12;
#X connect 6 1 9 13;
#X connect 7 0 11 2;
#X connect 7 1 11 3;
#X connect 8 0 11 6;
#X connect 8 1 11 7;
#X connect 9 0 49 0;
#X connect 9 1 49 0;
#X connect 9 2 7 0;
#X connect 9 3 7 1;
#X connect 9 4 10 0;
#X connect 9 5 10 1;
#X connect 9 6 8 0;
#X connect 9 7 8 0;
#X connect 10 0 11 4;
#X connect 10 1 11 5;
#X connect 12 0 24 0;
#X connect 13 0 14 0;
#X connect 13 0 14 1;
#X connect 13 0 10 0;
#X connect 13 0 10 1;
#X connect 15 0 13 0;
#X connect 16 0 17 0;
#X connect 17 0 6 0;
#X connect 22 0 36 0;
#X connect 23 0 2 0;
#X connect 24 0 23 0;
#X connect 25 0 49 1;
#X connect 25 1 7 2;
#X connect 25 2 10 2;
#X connect 25 3 8 1;
#X connect 25 4 38 0;
#X connect 27 0 29 0;
#X connect 29 0 28 0;
#X connect 31 0 43 0;
#X connect 32 0 34 0;
#X connect 33 0 32 0;
#X connect 35 0 42 0;
#X connect 36 0 44 0;
#X connect 36 0 45 0;
#X connect 36 0 46 0;
#X connect 36 0 47 0;
#X connect 36 1 6 0;
#X connect 36 2 37 0;
#X connect 36 3 25 0;
#X connect 37 0 44 1;
#X connect 37 0 45 1;
#X connect 37 0 46 1;
#X connect 37 0 47 1;
#X connect 37 1 6 1;
#X connect 38 0 39 0;
#X connect 39 0 49 2;
#X connect 39 1 7 3;
#X connect 39 2 10 3;
#X connect 43 0 0 0;
#X connect 44 0 9 3;
#X connect 44 1 9 4;
#X connect 44 2 9 5;
#X connect 45 0 9 0;
#X connect 45 1 9 1;
#X connect 45 2 9 2;
#X connect 46 0 9 6;
#X connect 46 1 9 7;
#X connect 46 2 9 8;
#X connect 47 0 9 9;
#X connect 47 1 9 10;
#X connect 47 2 9 11;
#X connect 48 0 13 1;
#X connect 49 0 11 0;
#X connect 49 1 11 1;
#X restore 437 85 pd guts;
#X obj 74 182 vu 14 120 \$0-vumeter empty -1 -8 0 10 -66577 -1 1 0
;
#X obj 73 164 bng 15 250 50 0 empty empty empty 17 7 0 10 -262144 -1
-1;
#X obj 60 178 vradio 12 1 0 3 \$0-vuchooser empty c 0 -8 0 10 -262144
-1 -1 0;
#X obj 353 -32 bng 30 250 50 0 \$0-init empty INIT 3 15 0 10 -262144
-1 -1;
#X obj 513 221 tgl 50 0 \$0-BD \$0-bd-r BD 2 25 0 32 -262144 -1 -1
1 1;
#X obj 421 220 tgl 50 0 \$0-VIET \$0-viet-r VIET 2 25 0 32 -262144
-1 -1 0 1;
#X text 421 272 A;
#X text 516 272 S;
#X obj 565 -49 cnv 15 200 20 empty \$0-status done 2 10 0 12 -1 -228856
0;
#X floatatom 546 509 5 0 0 0 - - -;
