#N canvas 355 22 727 493 10;
#X obj 24 29 inlet;
#X text 28 6 Start [measure beat tick] to End [measure beat tick] =>
Measures;
#X obj 24 50 route bang list;
#X obj 32 347 pack 0 0 0;
#X obj 32 386 outlet;
#X obj 201 159 v TRANSPORT-TICK;
#X obj 146 303 v TRANSPORT-NUMERATOR;
#X obj 123 244 mod;
#X obj 173 137 t b b;
#X obj 82 217 +;
#X obj 26 311 +;
#X obj 108 193 div;
#X obj 50 258 div;
#X obj 81 261 mod;
#X obj 26 104 t b b b b;
#X obj 43 159 - \$1;
#X obj 83 159 - \$2;
#X obj 123 159 - \$3;
#X obj 324 54 inlet;
#X obj 325 77 unpack 0 0 0;
#X obj 96 75 t a b;
#X obj 96 96 unpack 0 0 0;
#X obj 43 134 0;
#X obj 83 134 0;
#X obj 123 134 0;
#X connect 0 0 2 0;
#X connect 2 0 14 0;
#X connect 2 1 20 0;
#X connect 3 0 4 0;
#X connect 5 0 7 1;
#X connect 5 0 11 1;
#X connect 6 0 12 1;
#X connect 6 0 13 1;
#X connect 7 0 3 2;
#X connect 8 0 6 0;
#X connect 8 1 5 0;
#X connect 9 0 12 0;
#X connect 9 0 13 0;
#X connect 10 0 3 0;
#X connect 11 0 9 1;
#X connect 12 0 10 1;
#X connect 13 0 3 1;
#X connect 14 0 22 0;
#X connect 14 1 23 0;
#X connect 14 2 24 0;
#X connect 14 3 8 0;
#X connect 15 0 10 0;
#X connect 16 0 9 0;
#X connect 17 0 7 0;
#X connect 17 0 11 0;
#X connect 18 0 19 0;
#X connect 19 0 15 1;
#X connect 19 1 16 1;
#X connect 19 2 17 1;
#X connect 20 0 21 0;
#X connect 20 1 8 0;
#X connect 21 0 22 0;
#X connect 21 1 23 0;
#X connect 21 2 24 0;
#X connect 22 0 15 0;
#X connect 23 0 16 0;
#X connect 24 0 17 0;
