#N canvas 312 228 572 513 10;
#X obj 241 100 v TRANSPORT-BPM;
#X obj 257 156 v TRANSPORT-NUMERATOR;
#X obj 287 187 v TRANSPORT-DENOMINATOR;
#X obj 287 210 / 4;
#X obj 257 247 *;
#X obj 215 130 bpm2ms;
#X obj 220 275 *;
#X obj 350 299 v TRANSPORT-TICK;
#X obj 328 332 /;
#X obj 328 272 \$3;
#X obj 293 332 \$2;
#X obj 293 359 +;
#X obj 280 386 *;
#X obj 234 419 +;
#X obj 235 372 * \$1;
#X obj 241 77 t b b b b b b b;
#X obj 380 6 inlet;
#X obj 213 156 t f f;
#X obj 254 314 *;
#X obj 381 29 route bang list;
#X obj 394 61 unpack 0 0 0;
#X obj 379 91 t b f;
#X obj 238 444 outlet;
#X connect 0 0 5 0;
#X connect 1 0 4 0;
#X connect 2 0 3 0;
#X connect 3 0 4 1;
#X connect 3 0 12 0;
#X connect 4 0 6 1;
#X connect 5 0 17 0;
#X connect 6 0 14 0;
#X connect 7 0 8 1;
#X connect 8 0 11 1;
#X connect 9 0 8 0;
#X connect 10 0 11 0;
#X connect 11 0 12 1;
#X connect 12 0 18 1;
#X connect 13 0 22 0;
#X connect 14 0 13 0;
#X connect 15 0 0 0;
#X connect 15 1 1 0;
#X connect 15 2 2 0;
#X connect 15 4 10 0;
#X connect 15 5 9 0;
#X connect 15 6 7 0;
#X connect 16 0 19 0;
#X connect 17 0 6 0;
#X connect 17 1 18 0;
#X connect 18 0 13 1;
#X connect 19 0 15 0;
#X connect 19 1 20 0;
#X connect 20 0 21 0;
#X connect 20 1 10 1;
#X connect 20 2 9 1;
#X connect 21 0 15 0;
#X connect 21 1 14 1;
