#N canvas 289 324 450 300 10;
#X obj 122 117 delay \$1;
#X obj 121 80 t b b;
#X obj 122 145 t b b;
#X obj 150 169 f;
#X obj 180 171 + 1;
#X msg 148 99 0;
#X obj 122 237 outlet;
#X obj 94 55 t b b;
#X obj 213 260 b;
#X msg 179 259 stop;
#X obj 181 236 sel 1;
#X obj 180 212 > \$2;
#X obj 181 192 + 1;
#X obj 94 5 inlet trig;
#X obj 181 28 inlet bangs;
#X obj 235 56 inlet interval;
#X msg 16 155 stop;
#X msg 9 198 0;
#X obj 9 100 route stop;
#X obj 281 135 timer;
#X text 193 2 Bang \$2 times with \$1 ms interval;
#X connect 0 0 2 0;
#X connect 1 0 0 0;
#X connect 1 1 5 0;
#X connect 2 0 6 0;
#X connect 2 1 3 0;
#X connect 3 0 4 0;
#X connect 4 0 3 1;
#X connect 4 0 12 0;
#X connect 5 0 3 1;
#X connect 7 0 2 0;
#X connect 7 1 1 0;
#X connect 8 0 0 0;
#X connect 9 0 0 0;
#X connect 10 0 9 0;
#X connect 10 1 8 0;
#X connect 11 0 10 0;
#X connect 12 0 11 0;
#X connect 13 0 18 0;
#X connect 13 0 19 0;
#X connect 14 0 0 1;
#X connect 15 0 11 1;
#X connect 16 0 0 0;
#X connect 17 0 3 1;
#X connect 18 0 16 0;
#X connect 18 0 17 0;
#X connect 18 1 7 0;
