#N canvas 301 56 826 726 10;
#X declare -lib list-abs;
#X declare -lib list-abs;
#X declare -lib list-abs;
#X declare -lib list-abs;
#X declare -lib list-abs;
#X declare -lib list-abs;
#X declare -lib list-abs;
#X declare -lib list-abs;
#X declare -lib list-abs;
#X declare -lib list-abs;
#X declare -lib list-abs;
#X declare -lib list-abs;
#X declare -lib list-abs;
#X declare -lib list-abs;
#X declare -lib list-abs;
#X declare -lib list-abs;
#X declare -lib list-abs;
#X declare -lib list-abs;
#X obj 86 117 == 127;
#X obj 94 190 mctl-group MIDI 1-8;
#X obj 89 295 mctl-bridge 3 /pitch -4 4;
#X obj 89 315 mctl-bridge 4 /bpfq 0 20000;
#X obj 96 494 route list;
#X obj 315 117 inlet;
#X obj 426 117 == 127;
#X obj 419 190 mctl-group MIDI 1-8;
#X obj 278 579 outlet;
#X obj 429 375 mctl-bridge 7 /todist 0 1;
#X obj 429 395 mctl-bridge 8 /torev 0 1;
#X obj 429 355 mctl-bridge 6 /fxsendprob 0 1;
#X obj 429 295 mctl-bridge 3 /pitchdev 0 1;
#X obj 429 255 mctl-bridge 1 /lengthdev 0 1;
#X obj 429 275 mctl-bridge 2 /speeddev 0 1;
#X obj 87 70 inlet;
#X obj 85 94 route \$1 \$2;
#X obj 89 355 mctl-bridge 6 /maxgrainsize 0 4000;
#X obj 89 335 mctl-bridge 5 /bpbw 0 20000;
#X obj 429 315 mctl-bridge 4 /bpfqdev 0 1;
#X obj 429 334 mctl-bridge 5 /bpbwdev 0 1;
#X obj 96 524 spigot;
#X obj 570 473 spigot;
#X obj 92 141 t f f;
#X obj 425 138 t f f;
#X obj -96 388 prepent set;
#X obj 570 440 route list;
#X obj 648 365 prepent set;
#X obj 438 610 s OSC;
#X msg 518 626 /gtr/2/pitch -4;
#X obj 95 628 print;
#X msg 286 616 64 4 1;
#X obj 294 648 mctl-ctlout MIDI;
#X obj 89 255 mctl-bridge 1 /density 0 1;
#X obj 89 375 mctl-bridge 7 /tograndel 0 1;
#X obj 89 395 mctl-bridge 8 /todelay 0 1;
#X obj 89 275 mctl-bridge 2 /speed 0 1 quartic 2xsqrt;
#X connect 0 0 23 0;
#X connect 1 0 33 0;
#X connect 1 1 33 1;
#X connect 2 0 3 0;
#X connect 2 1 3 1;
#X connect 3 0 18 0;
#X connect 3 1 18 1;
#X connect 4 0 25 0;
#X connect 4 0 21 0;
#X connect 5 0 13 1;
#X connect 5 0 33 1;
#X connect 6 0 24 0;
#X connect 7 0 13 0;
#X connect 7 1 13 1;
#X connect 9 0 10 0;
#X connect 9 1 10 1;
#X connect 10 0 8 0;
#X connect 10 1 26 0;
#X connect 11 0 9 0;
#X connect 11 1 9 1;
#X connect 12 0 19 0;
#X connect 12 1 19 1;
#X connect 13 0 14 0;
#X connect 13 1 14 1;
#X connect 14 0 12 0;
#X connect 14 1 12 1;
#X connect 15 0 16 0;
#X connect 16 0 0 0;
#X connect 16 1 6 0;
#X connect 17 0 34 0;
#X connect 17 1 34 1;
#X connect 18 0 17 0;
#X connect 18 1 17 1;
#X connect 19 0 20 0;
#X connect 19 1 20 1;
#X connect 20 0 11 0;
#X connect 20 1 11 1;
#X connect 21 0 30 0;
#X connect 21 0 32 0;
#X connect 22 0 32 0;
#X connect 23 0 1 0;
#X connect 23 1 21 1;
#X connect 24 0 7 0;
#X connect 24 1 22 1;
#X connect 25 0 1 0;
#X connect 26 0 27 0;
#X connect 26 0 22 0;
#X connect 27 0 7 0;
#X connect 29 0 28 0;
#X connect 31 0 32 0;
#X connect 33 0 36 0;
#X connect 33 1 36 1;
#X connect 34 0 35 0;
#X connect 34 1 35 1;
#X connect 35 0 8 0;
#X connect 35 1 4 0;
#X connect 36 0 2 0;
#X connect 36 1 2 1;
