#N canvas 38 23 733 551 10;
#X declare -lib list-abs;
#X declare -lib list-abs;
#X declare -lib list-abs;
#X declare -lib list-abs;
#X declare -lib list-abs;
#X declare -lib list-abs;
#X declare -lib list-abs;
#X declare -lib list-abs;
#X declare -lib list-abs;
#X declare -lib list-abs;
#X declare -lib list-abs;
#X declare -lib list-abs;
#X declare -lib list-abs;
#X declare -lib list-abs;
#X declare -lib list-abs;
#X declare -lib list-abs;
#X declare -lib zexy -lib iemlib;
#X declare -lib list-abs;
#X declare -lib list-abs;
#X declare -lib list-abs;
#X declare -lib list-abs;
#X declare -lib list-abs;
#X declare -lib list-abs;
#X declare -lib list-abs;
#X declare -lib list-abs;
#X declare -lib zexy -lib iemlib;
#X declare -lib iemlib -lib iemguts;
#X declare -lib list-abs;
#X declare -lib list-abs;
#X declare -lib list-abs;
#X declare -lib list-abs;
#X declare -lib list-abs;
#X declare -lib list-abs;
#X declare -lib list-abs;
#X declare -lib list-abs;
#X declare -lib zexy -lib iemlib;
#X declare -lib list-abs;
#X declare -lib list-abs;
#X declare -lib list-abs;
#X declare -lib list-abs;
#X declare -lib list-abs;
#X declare -lib list-abs;
#X declare -lib list-abs;
#X declare -lib list-abs;
#X declare -lib zexy -lib iemlib;
#X declare -lib list-abs;
#X declare -lib list-abs;
#X declare -lib list-abs;
#X declare -lib list-abs;
#X declare -lib list-abs;
#X declare -lib list-abs;
#X declare -lib list-abs;
#X declare -lib list-abs;
#X declare -lib zexy -lib iemlib;
#X declare -lib zexy -lib iemlib;
#X declare -lib list-abs;
#X declare -lib list-abs;
#X declare -lib list-abs;
#X declare -lib list-abs;
#X declare -lib list-abs;
#X declare -lib list-abs;
#X declare -lib list-abs;
#X declare -lib list-abs;
#X declare -lib zexy -lib iemlib;
#X declare -lib list-abs;
#X declare -lib list-abs;
#X declare -lib list-abs;
#X declare -lib list-abs;
#X declare -lib list-abs;
#X declare -lib list-abs;
#X declare -lib list-abs;
#X declare -lib zexy -lib iemlib;
#X declare -lib list-abs;
#X declare -lib list-abs;
#X declare -lib list-abs -lib mrpeach;
#X declare -lib list-abs -lib mrpeach;
#X declare -lib list-abs;
#X declare -lib list-abs;
#X declare -lib list-abs;
#X declare -lib list-abs;
#X declare -lib list-abs;
#X declare -lib list-abs;
#X declare -lib list-abs;
#X declare -lib list-abs;
#X declare -lib list-abs;
#X declare -lib list-abs;
#X declare -lib list-abs;
#X declare -lib list-abs;
#X declare -lib list-abs;
#X declare -lib list-abs;
#X declare -lib list-abs;
#X declare -lib list-abs;
#X declare -lib mrpeach;
#X declare -lib list-abs;
#X declare -lib zexy -lib iemlib;
#X declare -lib zexy -lib iemlib;
#X declare -lib list-abs;
#X declare -lib list-abs;
#X declare -lib list-abs;
#X declare -lib list-abs;
#X declare -lib list-abs;
#X declare -lib list-abs;
#X declare -lib list-abs;
#X declare -lib list-abs;
#X declare -lib list-abs;
#X declare -lib list-abs;
#X declare -lib list-abs;
#X declare -lib list-abs;
#X declare -lib list-abs;
#X declare -lib list-abs;
#X declare -lib list-abs;
#X declare -lib list-abs;
#X declare -lib mrpeach;
#X declare -lib list-abs;
#X declare -lib zexy -lib iemlib;
#X declare -lib zexy -lib iemlib;
#X declare -lib lua;
#X declare -lib zexy -lib iemlib;
#X declare -lib zexy -lib iemlib;
#X declare -lib list-abs;
#X declare -lib list-abs;
#X declare -lib zexy -lib iemlib;
#X declare -lib zexy -lib iemlib;
#X declare -lib list-abs;
#X declare -lib list-abs;
#X obj 82 4 mctl-ctlin \$0-MIDI;
#X obj 233 21 inlet;
#X floatatom 190 57 5 0 0 0 - - -;
#X obj 233 44 mctl-singlestation \$0-MIDI 0;
#X obj 511 321 messagelink \$0-SSSAD OSC;
#N canvas 244 63 884 617 16-knobs 0;
#X obj 411 393 route list;
#X obj 413 452 route list;
#X obj 411 417 mctl-ctlout MIDI;
#X obj 685 251 messagelink \$0-SSSAD OSC;
#X obj 174 153 mctl-bridge 85;
#X obj 174 173 mctl-bridge 86;
#X obj 174 233 mctl-bridge 89 /recorder/1/chaos 0 1;
#X obj 174 253 mctl-bridge 90 /recorder/2/chaos 0 1;
#X obj 174 293 mctl-bridge 92 /recorder/4/chaos 0 1;
#X obj 174 313 mctl-bridge 93 /recorder/5/chaos 0 1;
#X obj 174 333 mctl-bridge 94 /recorder/6/chaos 0 1;
#X obj 174 272 mctl-bridge 91 /recorder/3/chaos 0 1;
#X obj 174 353 mctl-bridge 95 /recorder/7/chaos 0 1;
#X obj 174 373 mctl-bridge 96 /recorder/8/chaos 0 1;
#X obj 174 73 mctl-bridge 81 /gtr/1/window 0 9 roundint;
#X obj 174 93 mctl-bridge 82 /gtr/2/window 0 9 roundint;
#X obj 174 113 mctl-bridge 83 /gtr/3/window 0 9 roundint;
#X obj 174 133 mctl-bridge 84 /gtr/4/window 0 9 roundint;
#X obj 174 193 mctl-bridge 87 /global/pitch -1 1;
#X obj 174 213 mctl-bridge 88 /global/tempo 20 2000;
#X obj 175 46 mctl-group \$0-MIDI 81-96;
#X connect 0 0 2 0;
#X connect 1 1 3 0;
#X connect 3 0 14 1;
#X connect 4 0 5 0;
#X connect 4 1 5 1;
#X connect 5 0 18 0;
#X connect 5 1 18 1;
#X connect 6 0 7 0;
#X connect 6 1 7 1;
#X connect 7 0 11 0;
#X connect 7 1 11 1;
#X connect 8 0 9 0;
#X connect 8 1 9 1;
#X connect 9 0 10 0;
#X connect 9 1 10 1;
#X connect 10 0 12 0;
#X connect 10 1 12 1;
#X connect 11 0 8 0;
#X connect 11 1 8 1;
#X connect 12 0 13 0;
#X connect 12 1 13 1;
#X connect 13 0 1 0;
#X connect 13 1 0 0;
#X connect 14 0 15 0;
#X connect 14 1 15 1;
#X connect 15 0 16 0;
#X connect 15 1 16 1;
#X connect 16 0 17 0;
#X connect 16 1 17 1;
#X connect 17 0 4 0;
#X connect 17 1 4 1;
#X connect 18 0 19 0;
#X connect 18 1 19 1;
#X connect 19 0 6 0;
#X connect 19 1 6 1;
#X connect 20 0 14 0;
#X restore 184 204 pd 16-knobs;
#N canvas 640 184 645 421 buttons 0;
#X obj 330 60 ctlin;
#X floatatom 340 86 5 0 0 0 - - -;
#X msg 62 86 \$2 \$1;
#X obj 63 108 route 65 66 67 68 69 70 71 72;
#N canvas 338 193 521 437 gtr1 0;
#X obj 60 57 == 127;
#X obj 60 35 inlet;
#X obj 236 339 route list;
#X obj 308 270 messagelink \$0-SSSAD OSC;
#X obj 61 307 route list;
#X obj 61 99 mctl-bridge 73 /gtr/1/onsetalign 0 1;
#X text 183 172 [DISABLED];
#X msg 61 329 0 \$1;
#X obj 235 363 mctl-ctlout \$0-MIDI;
#X text 98 329 return 0 when disabled;
#X obj 61 120 mctl-bridge 74 74;
#X obj 61 140 mctl-bridge 75 75;
#X obj 61 160 mctl-bridge 76 76;
#X obj 61 180 mctl-bridge 77 77;
#X obj 61 201 mctl-bridge 78 78;
#X obj 62 220 mctl-bridge 79 79;
#X obj 61 239 mctl-bridge 80 80;
#X obj 60 77 mctl-group \$0-MIDI 73-80;
#X connect 0 0 17 0;
#X connect 1 0 0 0;
#X connect 2 0 8 0;
#X connect 3 0 5 1;
#X connect 4 0 7 0;
#X connect 4 1 3 0;
#X connect 5 0 10 0;
#X connect 5 1 10 1;
#X connect 7 0 8 0;
#X connect 10 0 11 0;
#X connect 10 1 11 1;
#X connect 11 0 12 0;
#X connect 11 1 12 1;
#X connect 12 0 13 0;
#X connect 12 1 13 1;
#X connect 13 0 14 0;
#X connect 13 1 14 1;
#X connect 14 0 15 0;
#X connect 14 1 15 1;
#X connect 15 0 16 0;
#X connect 15 1 16 1;
#X connect 16 0 4 0;
#X connect 16 1 2 0;
#X connect 17 0 5 0;
#X connect 17 1 8 0;
#X restore 61 273 pd gtr1;
#X obj 296 114 TODO midi page 2 buttons;
#N canvas 338 193 521 437 gtr4 0;
#X obj 60 57 == 127;
#X obj 60 35 inlet;
#X obj 236 339 route list;
#X obj 308 270 messagelink \$0-SSSAD OSC;
#X obj 61 307 route list;
#X text 183 172 [DISABLED];
#X msg 61 329 0 \$1;
#X obj 235 363 mctl-ctlout \$0-MIDI;
#X text 98 329 return 0 when disabled;
#X obj 61 120 mctl-bridge 74 74;
#X obj 61 140 mctl-bridge 75 75;
#X obj 61 160 mctl-bridge 76 76;
#X obj 61 180 mctl-bridge 77 77;
#X obj 61 201 mctl-bridge 78 78;
#X obj 62 220 mctl-bridge 79 79;
#X obj 61 239 mctl-bridge 80 80;
#X obj 61 99 mctl-bridge 73 /gtr/4/onsetalign 0 1;
#X obj 60 77 mctl-group \$0-MIDI 73-80;
#X connect 0 0 17 0;
#X connect 1 0 0 0;
#X connect 2 0 7 0;
#X connect 3 0 16 1;
#X connect 4 0 6 0;
#X connect 4 1 3 0;
#X connect 6 0 7 0;
#X connect 9 0 10 0;
#X connect 9 1 10 1;
#X connect 10 0 11 0;
#X connect 10 1 11 1;
#X connect 11 0 12 0;
#X connect 11 1 12 1;
#X connect 12 0 13 0;
#X connect 12 1 13 1;
#X connect 13 0 14 0;
#X connect 13 1 14 1;
#X connect 14 0 15 0;
#X connect 14 1 15 1;
#X connect 15 0 4 0;
#X connect 15 1 2 0;
#X connect 16 0 9 0;
#X connect 16 1 9 1;
#X connect 17 0 16 0;
#X connect 17 1 7 0;
#X restore 121 213 pd gtr4;
#N canvas 338 193 521 437 gtr3 0;
#X obj 60 57 == 127;
#X obj 60 35 inlet;
#X obj 236 339 route list;
#X obj 308 270 messagelink \$0-SSSAD OSC;
#X obj 61 307 route list;
#X text 183 172 [DISABLED];
#X msg 61 329 0 \$1;
#X obj 235 363 mctl-ctlout \$0-MIDI;
#X text 98 329 return 0 when disabled;
#X obj 61 120 mctl-bridge 74 74;
#X obj 61 140 mctl-bridge 75 75;
#X obj 61 160 mctl-bridge 76 76;
#X obj 61 180 mctl-bridge 77 77;
#X obj 61 201 mctl-bridge 78 78;
#X obj 62 220 mctl-bridge 79 79;
#X obj 61 239 mctl-bridge 80 80;
#X obj 61 99 mctl-bridge 73 /gtr/3/onsetalign 0 1;
#X obj 60 77 mctl-group \$0-MIDI 73-80;
#X connect 0 0 17 0;
#X connect 1 0 0 0;
#X connect 2 0 7 0;
#X connect 3 0 16 1;
#X connect 4 0 6 0;
#X connect 4 1 3 0;
#X connect 6 0 7 0;
#X connect 9 0 10 0;
#X connect 9 1 10 1;
#X connect 10 0 11 0;
#X connect 10 1 11 1;
#X connect 11 0 12 0;
#X connect 11 1 12 1;
#X connect 12 0 13 0;
#X connect 12 1 13 1;
#X connect 13 0 14 0;
#X connect 13 1 14 1;
#X connect 14 0 15 0;
#X connect 14 1 15 1;
#X connect 15 0 4 0;
#X connect 15 1 2 0;
#X connect 16 0 9 0;
#X connect 16 1 9 1;
#X connect 17 0 16 0;
#X connect 17 1 7 0;
#X restore 101 233 pd gtr3;
#N canvas 338 193 521 437 gtr2 0;
#X obj 60 57 == 127;
#X obj 60 35 inlet;
#X obj 236 339 route list;
#X obj 308 270 messagelink \$0-SSSAD OSC;
#X obj 61 307 route list;
#X text 183 172 [DISABLED];
#X msg 61 329 0 \$1;
#X obj 235 363 mctl-ctlout \$0-MIDI;
#X text 98 329 return 0 when disabled;
#X obj 61 120 mctl-bridge 74 74;
#X obj 61 140 mctl-bridge 75 75;
#X obj 61 160 mctl-bridge 76 76;
#X obj 61 180 mctl-bridge 77 77;
#X obj 61 201 mctl-bridge 78 78;
#X obj 62 220 mctl-bridge 79 79;
#X obj 61 239 mctl-bridge 80 80;
#X obj 61 99 mctl-bridge 73 /gtr/2/onsetalign 0 1;
#X obj 60 77 mctl-group \$0-MIDI 73-80;
#X connect 0 0 17 0;
#X connect 1 0 0 0;
#X connect 2 0 7 0;
#X connect 3 0 16 1;
#X connect 4 0 6 0;
#X connect 4 1 3 0;
#X connect 6 0 7 0;
#X connect 9 0 10 0;
#X connect 9 1 10 1;
#X connect 10 0 11 0;
#X connect 10 1 11 1;
#X connect 11 0 12 0;
#X connect 11 1 12 1;
#X connect 12 0 13 0;
#X connect 12 1 13 1;
#X connect 13 0 14 0;
#X connect 13 1 14 1;
#X connect 14 0 15 0;
#X connect 14 1 15 1;
#X connect 15 0 4 0;
#X connect 15 1 2 0;
#X connect 16 0 9 0;
#X connect 16 1 9 1;
#X connect 17 0 16 0;
#X connect 17 1 7 0;
#X restore 81 253 pd gtr2;
#N canvas 796 220 521 437 misc 0;
#X obj 60 57 == 127;
#X obj 60 35 inlet;
#X obj 236 339 route list;
#X obj 308 270 messagelink \$0-SSSAD OSC;
#X obj 61 307 route list;
#X obj 60 77 mctl-group \$0-MIDI 73-80;
#X text 183 172 [DISABLED];
#X msg 61 329 0 \$1;
#X obj 235 363 mctl-ctlout \$0-MIDI;
#X text 98 329 return 0 when disabled;
#X obj 61 160 mctl-bridge 76 76;
#X obj 61 180 mctl-bridge 77 77;
#X obj 61 201 mctl-bridge 78 78;
#X obj 61 120 mctl-bridge 74 /trigger/bassdrum/onoff 0 1;
#X obj 61 99 mctl-bridge 73 /global/tempo/tap 0 1;
#X obj 62 220 mctl-bridge 79 /input/adc/1/onoff 0 1;
#X obj 61 239 mctl-bridge 80 /input/adc/2/onoff 0 1;
#X obj 61 140 mctl-bridge 75 /trigger/bassdrum/delay/onoff 0 1;
#X connect 0 0 5 0;
#X connect 1 0 0 0;
#X connect 2 0 8 0;
#X connect 3 0 14 1;
#X connect 4 0 7 0;
#X connect 4 1 3 0;
#X connect 5 0 14 0;
#X connect 5 1 8 0;
#X connect 7 0 8 0;
#X connect 10 0 11 0;
#X connect 10 1 11 1;
#X connect 11 0 12 0;
#X connect 11 1 12 1;
#X connect 12 0 15 0;
#X connect 12 1 15 1;
#X connect 13 0 17 0;
#X connect 13 1 17 1;
#X connect 14 0 13 0;
#X connect 14 1 13 1;
#X connect 15 0 16 0;
#X connect 15 1 16 1;
#X connect 16 0 4 0;
#X connect 16 1 2 0;
#X connect 17 0 10 0;
#X connect 17 1 10 1;
#X restore 212 135 pd misc;
#X obj 62 17 mctl-group \$0-MIDI 65-72;
#X obj 127 50 mctl-exclusive \$0-MIDI 65-72;
#N canvas 338 193 521 437 grandel 0;
#X obj 60 57 == 127;
#X obj 60 35 inlet;
#X obj 236 339 route list;
#X obj 308 270 messagelink \$0-SSSAD OSC;
#X obj 61 307 route list;
#X text 183 172 [DISABLED];
#X msg 61 329 0 \$1;
#X obj 235 363 mctl-ctlout \$0-MIDI;
#X text 98 329 return 0 when disabled;
#X obj 61 140 mctl-bridge 75 75;
#X obj 61 160 mctl-bridge 76 76;
#X obj 61 180 mctl-bridge 77 77;
#X obj 61 201 mctl-bridge 78 78;
#X obj 62 220 mctl-bridge 79 79;
#X obj 61 239 mctl-bridge 80 80;
#X obj 60 77 mctl-group \$0-MIDI 73-80;
#X obj 61 99 mctl-bridge 73 /grandel/gliss 0 1;
#X obj 61 120 mctl-bridge 74 /grandel/freeze 0 1;
#X connect 0 0 15 0;
#X connect 1 0 0 0;
#X connect 2 0 7 0;
#X connect 3 0 16 1;
#X connect 4 0 6 0;
#X connect 4 1 3 0;
#X connect 6 0 7 0;
#X connect 9 0 10 0;
#X connect 9 1 10 1;
#X connect 10 0 11 0;
#X connect 10 1 11 1;
#X connect 11 0 12 0;
#X connect 11 1 12 1;
#X connect 12 0 13 0;
#X connect 12 1 13 1;
#X connect 13 0 14 0;
#X connect 13 1 14 1;
#X connect 14 0 4 0;
#X connect 14 1 2 0;
#X connect 15 0 16 0;
#X connect 15 1 7 0;
#X connect 16 0 17 0;
#X connect 16 1 17 1;
#X connect 17 0 9 0;
#X connect 17 1 9 1;
#X restore 148 189 pd grandel;
#X connect 0 1 1 0;
#X connect 2 0 3 0;
#X connect 3 0 4 0;
#X connect 3 1 8 0;
#X connect 3 2 7 0;
#X connect 3 3 6 0;
#X connect 3 4 12 0;
#X connect 3 7 9 0;
#X connect 10 0 2 0;
#X connect 11 0 2 0;
#X restore 185 174 pd buttons;
#X obj 83 351 outlet;
#N canvas 0 0 843 427 adcrouting 0;
#X obj 103 118 messagelink \$0-SSSAD OSC;
#X obj 102 161 route list;
#X obj 103 182 mctl-ctlout \$0-MIDI;
#X obj 463 118 messagelink \$0-SSSAD OSC;
#X obj 103 138 routeOSC-many /adc /1;
#X obj 103 96 OSCprepend /adc/1;
#X obj 463 96 OSCprepend /adc/2;
#X obj 463 138 routeOSC-many /adc /2;
#X obj 45 38 miditoadcrouting 1-8 33-40 1 2 3 4 5 6 7 8 128 129 130
131 132 133 134 135 \$0;
#X obj 405 38 miditoadcrouting 9-16 41-48 9 10 11 12 13 14 15 16 136
137 138 139 140 141 142 143 \$0;
#X connect 0 0 4 0;
#X connect 1 0 2 0;
#X connect 3 0 7 0;
#X connect 4 0 1 0;
#X connect 4 0 8 0;
#X connect 5 0 0 0;
#X connect 6 0 3 0;
#X connect 7 0 1 0;
#X connect 7 0 9 0;
#X connect 8 0 5 0;
#X connect 9 0 6 0;
#X restore 187 149 pd adcrouting;
#N canvas 0 0 760 559 deprecated-lua-thing 0;
#X obj 164 138 s \$0-msg;
#X obj 83 155 list trim;
#X obj 226 127 route ctlout;
#X obj 82 254 list append snapshot preset sequencer recorder samplebank
;
#X obj 84 176 list split 1;
#X obj 84 199 t b f;
#X obj 83 275 list-idx;
#X obj 83 295 list append;
#X obj 111 223 - 1;
#N canvas 0 0 450 300 route 0;
#X obj 99 56 list split 1;
#X obj 99 77 route snapshot preset sequencer recorder samplebank;
#X obj 99 98 1;
#X obj 160 99 2;
#X obj 224 103 3;
#X obj 282 99 4;
#X obj 338 101 5;
#X obj 99 159 list append;
#X obj 100 32 inlet;
#X obj 99 186 outlet;
#X connect 0 0 1 0;
#X connect 0 1 7 1;
#X connect 1 0 2 0;
#X connect 1 1 3 0;
#X connect 1 2 4 0;
#X connect 1 3 5 0;
#X connect 1 4 6 0;
#X connect 2 0 7 0;
#X connect 3 0 7 0;
#X connect 4 0 7 0;
#X connect 5 0 7 0;
#X connect 6 0 7 0;
#X connect 7 0 9 0;
#X connect 8 0 0 0;
#X restore 174 176 pd route;
#X obj 83 323 list trim;
#X obj 226 148 mctl-ctlout \$0-MIDI;
#X obj 83 104 luax midilogic;
#X msg 330 124 0 \$1;
#X obj 330 102 countup 128;
#X obj 329 70 bng 15 250 50 0 empty empty empty 17 7 0 10 -262144 -1
-1;
#X obj 357 73 loadbang;
#N canvas 564 265 656 340 blink 0;
#X obj 282 2 r \$0-msg;
#X obj 282 28 route presetselect blink action;
#X obj 343 54 route save play stop rec;
#X obj 375 156 mctl-blink 105 500;
#X msg 375 134 1;
#X msg 387 115 0;
#X msg 520 111 1;
#X msg 488 111 0;
#X obj 233 161 mctl-blink 106 500;
#X obj 492 153 mctl-blink 106 500;
#X obj 375 203 mctl-ctlout DISABLED;
#X connect 0 0 1 0;
#X connect 1 1 2 0;
#X connect 2 0 8 0;
#X connect 2 1 4 0;
#X connect 2 1 7 0;
#X connect 2 2 5 0;
#X connect 2 2 7 0;
#X connect 2 3 5 0;
#X connect 2 3 6 0;
#X connect 3 0 10 0;
#X connect 4 0 3 0;
#X connect 5 0 3 0;
#X connect 6 0 9 0;
#X connect 7 0 9 0;
#X connect 8 0 10 0;
#X connect 9 0 10 0;
#X restore 539 168 pd blink;
#X obj 514 31 import lua;
#N canvas 0 19 1004 818 main_modes 0;
#X obj 62 118 route 0;
#X msg 200 144 \$2;
#X obj 200 163 - 65;
#X obj 200 226 s \$0-msg;
#X obj 200 202 prepent mode;
#X obj 428 225 s \$0-msg;
#X obj 63 37;
#X text 94 39 MODES;
#X text 395 90 ACTIONS;
#X obj 392 162 list split 1;
#X obj 426 183 - 104;
#X obj 427 204 prepent action;
#X obj 392 142 mctl-group \$0-MIDI 105-108;
#X obj 60 94 mctl-group \$0-MIDI 65-72;
#X obj 392 119 mctl-exclusive DISABLED 105-108;
#X obj 61 68 mctl-exclusive DISABLED 65-72;
#X connect 1 0 2 0;
#X connect 2 0 4 0;
#X connect 4 0 3 0;
#X connect 10 0 11 0;
#X connect 11 0 5 0;
#X connect 12 0 9 0;
#X connect 13 0 0 0;
#X restore 540 123 pd main_modes;
#N canvas 0 135 832 701 bank+preset 0;
#X obj 376 -88 - 73;
#X obj 542 -111 - 77;
#X obj 376 -68 * 4;
#X obj 376 -43 +;
#X msg 376 -144 \$2;
#X obj 349 -118 t a a;
#X msg 348 24 127 \$1;
#X msg 515 -157 \$2;
#X obj 516 -136 t a a;
#X text 401 -21 Bank+Preset logic. First select bank \, then preset=>a
number 0-15;
#X obj 164 -307 r \$0-msg;
#X obj 376 60 prepent preset;
#X obj 376 80 s \$0-msg;
#X obj 308 71 outlet;
#X obj 165 -264 t f f f f f f f f;
#X obj 376 -222 != 0;
#X obj 164 -283 route presetselect action;
#X obj 284 -250;
#X msg 419 -138 reset;
#X obj 348 106 mctl-ctlout DISABLED;
#X obj 515 -178 mctl-group \$0-MIDI 77-80;
#X obj 376 -178 mctl-group \$0-MIDI 73-76;
#X obj 437 -266 mctl-exclusive DISABLED 73-76;
#X obj 524 -243 mctl-exclusive DISABLED 77-80;
#X connect 0 0 2 0;
#X connect 1 0 3 0;
#X connect 2 0 3 1;
#X connect 3 0 11 0;
#X connect 4 0 5 0;
#X connect 5 0 6 0;
#X connect 5 1 0 0;
#X connect 6 0 13 0;
#X connect 6 0 19 0;
#X connect 7 0 8 0;
#X connect 8 0 6 0;
#X connect 8 1 1 0;
#X connect 10 0 16 0;
#X connect 11 0 12 0;
#X connect 14 0 15 0;
#X connect 15 0 20 0;
#X connect 15 0 21 0;
#X connect 16 0 14 0;
#X connect 18 0 21 0;
#X connect 20 0 7 0;
#X connect 21 0 4 0;
#X restore 539 146 pd bank+preset;
#X connect 1 0 4 0;
#X connect 2 0 11 0;
#X connect 3 0 6 0;
#X connect 4 0 5 0;
#X connect 4 1 7 1;
#X connect 5 0 3 0;
#X connect 5 1 8 0;
#X connect 6 0 7 0;
#X connect 7 0 10 0;
#X connect 8 0 6 1;
#X connect 9 0 4 1;
#X connect 12 0 1 0;
#X connect 12 1 0 0;
#X connect 13 0 11 0;
#X connect 14 0 13 0;
#X connect 15 0 14 0;
#X connect 16 0 14 0;
#X restore 525 -9 pd deprecated-lua-thing;
#X connect 0 1 2 0;
#X connect 1 0 3 0;
