#N canvas 213 53 1217 571 10;
#X declare -lib list-abs;
#X declare -lib list-abs;
#X declare -lib list-abs;
#X declare -lib list-abs;
#X declare -lib list-abs;
#X declare -lib list-abs;
#X declare -lib list-abs;
#X declare -lib list-abs;
#X declare -lib list-abs;
#X declare -lib list-abs;
#X declare -lib list-abs;
#X declare -lib list-abs;
#X declare -lib list-abs;
#X declare -lib list-abs;
#X declare -lib list-abs;
#X declare -lib list-abs;
#X declare -lib mrpeach;
#X declare -lib list-abs;
#X declare -lib list-abs;
#X declare -lib zexy -lib iemlib;
#X declare -lib list-abs;
#X declare -lib zexy -lib iemlib;
#X declare -lib list-abs;
#X obj 140 97 t a a;
#X obj 480 115 inlet;
#X obj 296 391 route list;
#X obj 10 388 list;
#X obj 140 368 route list;
#X obj 147 412 outlet;
#X floatatom 166 138 5 0 0 0 - - -;
#X obj 472 193 mctl-bridge \$11 /lengthdev 0 1;
#X obj 472 213 mctl-bridge \$12 /speeddev 0 1;
#X obj 472 233 mctl-bridge \$13 /pitchdev 0 1;
#X obj 472 253 mctl-bridge \$14 /bpfqdev 0 1;
#X obj 472 272 mctl-bridge \$15 /bpbwdev 0 1;
#X obj 472 293 mctl-bridge \$16 /fxsendprob 0 1;
#X obj 472 313 mctl-bridge \$17 /todist 0 1;
#X obj 472 333 mctl-bridge \$18 /torev 0 1;
#X obj 140 199 mctl-bridge \$3 /togtr/1 0 1;
#X obj 140 219 mctl-bridge \$4 /togtr/2 0 1;
#X obj 140 319 mctl-bridge \$9 /todist 0 1;
#X obj 140 339 mctl-bridge \$10;
#X obj 139 299 mctl-bridge \$8 /todelay 0 1;
#X obj 140 279 mctl-bridge \$7 /tograndel 0 1;
#X obj 140 259 mctl-bridge \$6 /togtr/4 0 1;
#X obj 140 239 mctl-bridge \$5 /togtr/3 0 1;
#X obj 140 75 mctl-knob-buttongroup \$19-MIDI \$1 \$2;
#X connect 0 0 6 0;
#X connect 0 0 15 0;
#X connect 1 0 15 1;
#X connect 2 0 3 0;
#X connect 3 0 23 0;
#X connect 4 1 5 0;
#X connect 7 0 8 0;
#X connect 7 1 8 1;
#X connect 8 0 9 0;
#X connect 8 1 9 1;
#X connect 9 0 10 0;
#X connect 9 1 10 1;
#X connect 10 0 11 0;
#X connect 10 1 11 1;
#X connect 11 0 12 0;
#X connect 11 1 12 1;
#X connect 12 0 13 0;
#X connect 12 1 13 1;
#X connect 13 0 14 0;
#X connect 13 1 14 1;
#X connect 15 0 16 0;
#X connect 15 1 16 1;
#X connect 16 0 22 0;
#X connect 16 1 22 1;
#X connect 17 0 18 0;
#X connect 17 1 18 1;
#X connect 18 0 4 0;
#X connect 18 1 2 0;
#X connect 19 0 17 0;
#X connect 19 1 17 1;
#X connect 20 0 19 0;
#X connect 20 1 19 1;
#X connect 21 0 20 0;
#X connect 21 1 20 1;
#X connect 22 0 21 0;
#X connect 22 1 21 1;
#X connect 23 0 0 0;
