#N canvas 0 19 1004 844 10;
#X declare -lib list-abs;
#X declare -lib list-abs;
#X declare -lib list-abs;
#X declare -lib list-abs;
#X declare -lib list-abs;
#X declare -lib list-abs;
#X declare -lib list-abs;
#X declare -lib list-abs;
#X declare -lib lua;
#X declare -lib list-abs;
#X declare -lib list-abs;
#X declare -lib list-abs;
#X declare -lib list-abs;
#X declare -lib list-abs;
#X declare -lib list-abs;
#X declare -lib list-abs;
#X declare -lib list-abs;
#X declare -lib list-abs;
#X declare -lib list-abs;
#X declare -lib list-abs;
#X declare -lib list-abs;
#X declare -lib list-abs;
#X declare -lib list-abs;
#X declare -lib list-abs;
#X declare -lib list-abs;
#X declare -lib list-abs;
#N canvas 0 135 832 701 bank+preset 0;
#X obj 376 -88 - 73;
#X obj 542 -111 - 77;
#X obj 376 -68 * 4;
#X obj 376 -43 +;
#X msg 376 -144 \$2;
#X obj 349 -118 t a a;
#X msg 348 24 127 \$1;
#X msg 515 -157 \$2;
#X obj 516 -136 t a a;
#X text 401 -21 Bank+Preset logic. First select bank \, then preset=>a
number 0-15;
#X obj 164 -307 r \$0-msg;
#X obj 376 60 prepent preset;
#X obj 376 80 s \$0-msg;
#X obj 308 71 outlet;
#X obj 165 -264 t f f f f f f f f;
#X obj 376 -222 != 0;
#X obj 164 -283 route presetselect action;
#X obj 284 -250;
#X msg 419 -138 reset;
#X obj 524 -243 midi.exclusive \$0-MIDI 77-80;
#X obj 437 -266 midi.exclusive \$0-MIDI 73-76;
#X obj 515 -178 midi.group \$0-MIDI 77-80;
#X obj 376 -178 midi.group \$0-MIDI 73-76;
#X obj 348 106 midi.ctlout \$0-MIDI;
#X connect 0 0 2 0;
#X connect 1 0 3 0;
#X connect 2 0 3 1;
#X connect 3 0 11 0;
#X connect 4 0 5 0;
#X connect 5 0 6 0;
#X connect 5 1 0 0;
#X connect 6 0 13 0;
#X connect 6 0 23 0;
#X connect 7 0 8 0;
#X connect 8 0 6 0;
#X connect 8 1 1 0;
#X connect 10 0 16 0;
#X connect 11 0 12 0;
#X connect 14 0 15 0;
#X connect 15 0 21 0;
#X connect 15 0 22 0;
#X connect 16 0 14 0;
#X connect 18 0 22 0;
#X connect 21 0 7 0;
#X connect 22 0 4 0;
#X restore 539 146 pd bank+preset;
#N canvas 564 265 656 340 blink 0;
#X obj 282 2 r \$0-msg;
#X obj 282 28 route presetselect blink action;
#X obj 343 54 route save play stop rec;
#X obj 375 156 midi.blink 105 500;
#X msg 375 134 1;
#X msg 387 115 0;
#X msg 520 111 1;
#X msg 488 111 0;
#X obj 375 203 midi.ctlout \$0-MIDI;
#X obj 233 161 midi.blink 106 500;
#X obj 492 153 midi.blink 106 500;
#X connect 0 0 1 0;
#X connect 1 1 2 0;
#X connect 2 0 9 0;
#X connect 2 1 4 0;
#X connect 2 1 7 0;
#X connect 2 2 5 0;
#X connect 2 2 7 0;
#X connect 2 3 5 0;
#X connect 2 3 6 0;
#X connect 3 0 8 0;
#X connect 4 0 3 0;
#X connect 5 0 3 0;
#X connect 6 0 10 0;
#X connect 7 0 10 0;
#X connect 9 0 8 0;
#X connect 10 0 8 0;
#X restore 539 168 pd blink;
#N canvas 0 19 1004 844 main_modes 0;
#X obj 62 118 route 0;
#X msg 200 144 \$2;
#X obj 200 163 - 65;
#X obj 200 226 s \$0-msg;
#X obj 200 202 prepent mode;
#X obj 428 225 s \$0-msg;
#X obj 63 37;
#X text 94 39 MODES;
#X text 395 90 ACTIONS;
#X obj 392 162 list split 1;
#X obj 426 183 - 104;
#X obj 427 204 prepent action;
#X obj 392 119 midi.exclusive \$0-MIDI 105-108;
#X obj 392 142 midi.group \$0-MIDI 105-108;
#X obj 61 68 midi.exclusive \$0-MIDI 65-72;
#X obj 60 94 midi.group \$0-MIDI 65-72;
#X connect 0 1 1 0;
#X connect 1 0 2 0;
#X connect 2 0 4 0;
#X connect 4 0 3 0;
#X connect 9 1 10 0;
#X connect 10 0 11 0;
#X connect 11 0 5 0;
#X connect 13 0 9 0;
#X connect 15 0 0 0;
#X restore 540 123 pd main_modes;
#X obj 514 31 import lua;
#X obj 83 42 pack f f;
#X obj 164 138 s \$0-msg;
#X obj 83 155 list trim;
#X obj 226 127 route ctlout;
#X obj 82 254 list append snapshot preset sequencer recorder samplebank
;
#X obj 84 176 list split 1;
#X obj 84 199 t b f;
#X obj 83 275 list-idx;
#X obj 83 295 list append;
#X obj 111 223 - 1;
#N canvas 0 0 450 300 route 0;
#X obj 99 56 list split 1;
#X obj 99 77 route snapshot preset sequencer recorder samplebank;
#X obj 99 98 1;
#X obj 160 99 2;
#X obj 224 103 3;
#X obj 282 99 4;
#X obj 338 101 5;
#X obj 99 159 list append;
#X obj 100 32 inlet;
#X obj 99 186 outlet;
#X connect 0 0 1 0;
#X connect 0 1 7 1;
#X connect 1 0 2 0;
#X connect 1 1 3 0;
#X connect 1 2 4 0;
#X connect 1 3 5 0;
#X connect 1 4 6 0;
#X connect 2 0 7 0;
#X connect 3 0 7 0;
#X connect 4 0 7 0;
#X connect 5 0 7 0;
#X connect 6 0 7 0;
#X connect 7 0 9 0;
#X connect 8 0 0 0;
#X restore 174 176 pd route;
#X obj 83 351 outlet;
#X obj 82 4 midi.ctlin \$0-MIDI;
#X obj 83 323 list trim;
#X obj 226 148 midi.ctlout \$0-MIDI;
#X obj 83 104 luax midilogic;
#X obj 233 21 inlet;
#X floatatom 198 80 5 0 0 0 - - -;
#X msg 330 124 0 \$1;
#X obj 330 102 countup 128;
#X obj 329 70 bng 15 250 50 0 empty empty empty 17 7 0 10 -262144 -1
-1;
#X obj 233 44 midi.singlestation \$0-MIDI 0;
#X obj 357 73 loadbang;
#X obj 217 315 midi.group \$0-MIDI 81-96;
#X obj 216 342 midi.bridge 81 /density 0 1 quartic 2xsqrt;
#X obj 216 362 midi.bridge 82 /speed 0 1 quartic 2xsqrt;
#X obj 216 422 midi.bridge 85 /vol 0 1 quartic 2xsqrt;
#X obj 216 462 midi.bridge 87 /senddev 0 1 quartic 2xsqrt;
#X obj 216 482 midi.bridge 88 /todelay 0 1 quartic 2xsqrt;
#X obj 216 622 midi.bridge 95 /todist 0 1 quartic 2xsqrt;
#X obj 216 642 midi.bridge 96 /torev 0 1 quartic 2xsqrt;
#X obj 216 382 midi.bridge 83 /transp -12 12;
#X obj 216 502 midi.bridge 89 /sizedev 0 1;
#X obj 216 522 midi.bridge 90 /speeddev 0 1;
#X obj 216 562 midi.bridge 92 /pandev 0 1;
#X obj 216 582 midi.bridge 93 /voldev 0 1;
#X obj 216 602 midi.bridge 94 /delaydev 0 1;
#X obj 453 662 route list;
#X obj 565 709 route list;
#X obj 216 402 midi.bridge 84 /pan 0 1;
#X obj 216 442 midi.bridge 86 /delay 0 2000;
#X obj 216 541 midi.bridge 91 /transpdev 0 12;
#X obj 564 753 messagelink \$0-SSSAD OSC;
#X obj 453 686 midi.ctlout MIDI;
#X text 507 398 Here we wanna set some real stuff;
#X connect 4 0 19 0;
#X connect 6 0 9 0;
#X connect 7 0 18 0;
#X connect 8 0 11 0;
#X connect 9 0 10 0;
#X connect 9 1 12 1;
#X connect 10 0 8 0;
#X connect 10 1 13 0;
#X connect 11 0 12 0;
#X connect 12 0 17 0;
#X connect 13 0 11 1;
#X connect 14 0 9 1;
#X connect 16 0 4 0;
#X connect 16 1 4 1;
#X connect 16 1 21 0;
#X connect 17 0 15 0;
#X connect 19 0 6 0;
#X connect 19 1 5 0;
#X connect 19 1 7 0;
#X connect 20 0 25 0;
#X connect 22 0 18 0;
#X connect 23 0 22 0;
#X connect 24 0 23 0;
#X connect 26 0 23 0;
#X connect 27 0 28 0;
#X connect 28 0 29 0;
#X connect 28 1 29 1;
#X connect 29 0 35 0;
#X connect 29 1 35 1;
#X connect 30 0 44 0;
#X connect 30 1 44 1;
#X connect 31 0 32 0;
#X connect 31 1 32 1;
#X connect 32 0 36 0;
#X connect 32 1 36 1;
#X connect 33 0 34 0;
#X connect 33 1 34 1;
#X connect 34 0 42 0;
#X connect 34 1 41 0;
#X connect 35 0 43 0;
#X connect 35 1 43 1;
#X connect 36 0 37 0;
#X connect 36 1 37 1;
#X connect 37 0 45 0;
#X connect 37 1 45 1;
#X connect 38 0 39 0;
#X connect 38 1 39 1;
#X connect 39 0 40 0;
#X connect 39 1 40 1;
#X connect 40 0 33 0;
#X connect 40 1 33 1;
#X connect 41 0 47 0;
#X connect 43 0 30 0;
#X connect 43 1 30 1;
#X connect 44 0 31 0;
#X connect 44 1 31 1;
#X connect 45 0 38 0;
#X connect 45 1 38 1;
