#N canvas 365 74 766 714 10;
#X declare -lib list-abs -lib mrpeach;
#X declare -lib list-abs -lib mrpeach;
#X declare -lib hcs;
#N canvas 474 23 766 693 delay 0;
#X obj 142 236 inlet~;
#X obj 143 614 outlet~;
#X obj 944 483 switch~;
#X obj 987 418 max;
#X obj 986 375 t b f;
#X obj 984 398 f;
#X obj 142 267 volctl~ 0 10;
#X obj 986 350 r \$0-/ltime;
#X obj 975 322 r \$0-rtime;
#X obj 615 7 inlet;
#N canvas 0 22 766 714 delayL 0;
#X obj 106 456 outlet~;
#X obj 120 275 volctl~ 0 10;
#X obj 24 265 inlet~ sig;
#X obj 120 255 hip~ 5;
#X obj 104 218 gapper~;
#X obj 119 296 delwrite~ \$0_delay1 \$2;
#X obj 123 167 r \$0-/gapper-prob;
#X obj 143 187 r \$0-/gapper-size;
#X obj 154 231 r \$0-/lfb;
#X obj 119 98 *~;
#X obj 105 119 +~;
#X obj 105 70 line~;
#X msg 106 49 \$1 30;
#X obj 107 28 r \$0-/ltime;
#X obj 147 74 inlet~;
#X obj 104 141 vd~ \$0_delay1;
#X obj 149 97 lop~ 2;
#X connect 1 0 5 0;
#X connect 2 0 5 0;
#X connect 3 0 1 0;
#X connect 4 0 3 0;
#X connect 4 0 0 0;
#X connect 6 0 4 1;
#X connect 7 0 4 2;
#X connect 8 0 1 1;
#X connect 9 0 10 1;
#X connect 10 0 15 0;
#X connect 11 0 9 0;
#X connect 11 0 10 0;
#X connect 12 0 11 0;
#X connect 13 0 12 0;
#X connect 14 0 16 0;
#X connect 15 0 4 0;
#X connect 16 0 9 1;
#X restore 142 356 pd delayL;
#N canvas 0 22 766 714 lfo 0;
#X obj 131 -17 r \$0-/lfofreq;
#X obj 256 -13 r \$0-/lfotype;
#X obj 257 50 t a a;
#X obj 284 87 == 5;
#X obj 198 54 sel 5;
#X obj 193 130 noise~;
#X obj 192 152 samphold~;
#X obj 165 206 == 0;
#X obj 144 330 outlet~;
#X msg 180 81 set \$1-lfotab;
#X obj 131 227 volctl~ 0 100;
#X obj 231 227 volctl~ 0 100;
#X obj 144 299 volctl~ 0 10;
#X obj 233 269 r \$0-/lfodepth;
#X obj 132 36 sig~;
#X obj 132 10 * 10;
#X obj 256 29 int;
#X obj 130 184 tabosc4~ 1-lfotab;
#X obj 236 295 / 10;
#X connect 0 0 15 0;
#X connect 1 0 16 0;
#X connect 2 0 4 0;
#X connect 2 1 3 0;
#X connect 3 0 7 0;
#X connect 3 0 11 1;
#X connect 4 1 9 0;
#X connect 5 0 6 0;
#X connect 6 0 11 0;
#X connect 7 0 10 1;
#X connect 9 0 17 0;
#X connect 10 0 12 0;
#X connect 11 0 12 0;
#X connect 12 0 8 0;
#X connect 13 0 18 0;
#X connect 14 0 17 0;
#X connect 15 0 14 0;
#X connect 16 0 2 0;
#X connect 17 0 10 0;
#X connect 18 0 12 1;
#X restore 387 249 pd lfo;
#X obj 31 31 singleton lfotabs lfotabs;
#X obj 317 -12 hradio 15 1 0 8 empty empty empty 0 -8 0 10 -262144
-1 -1 0;
#X msg 318 8 /lfofreq 3 \, /lfotype \$1 \, /lfodepth 1;
#X obj 918 415 r \$0-/onoff;
#X obj 760 6 r \$0-GUI;
#X obj 144 545 volctl~ 0 10;
#X obj 944 457 switchdelay 2000;
#X obj 615 30 dispatch \$0 /ltime;
#X obj 615 70 dispatch \$0 /lfb;
#X obj 615 110 dispatch \$0 /vol;
#X obj 615 130 dispatch \$0 /onoff;
#X obj 615 150 dispatch \$0 /gapper-prob;
#X obj 615 170 dispatch \$0 /gapper-size;
#X obj 615 236 dispatch \$0 /lfodepth;
#X obj 615 193 dispatch \$0 /lfotype;
#X obj 615 214 dispatch \$0 /lfofreq;
#X obj 615 258 sendbus-dispatch \$0;
#X obj 887 60 sssad-localtoglobal \$0 \$1 /delay;
#X obj 253 425 r \$0-/vol;
#X connect 0 0 6 0;
#X connect 3 0 18 1;
#X connect 4 0 5 0;
#X connect 4 1 3 1;
#X connect 5 0 3 0;
#X connect 6 0 10 0;
#X connect 7 0 4 0;
#X connect 8 0 5 0;
#X connect 9 0 19 0;
#X connect 10 0 17 0;
#X connect 11 0 10 1;
#X connect 13 0 14 0;
#X connect 14 0 19 0;
#X connect 15 0 18 0;
#X connect 16 0 19 0;
#X connect 17 0 1 0;
#X connect 18 0 2 0;
#X connect 19 0 20 0;
#X connect 20 0 21 0;
#X connect 21 0 22 0;
#X connect 22 0 23 0;
#X connect 23 0 24 0;
#X connect 24 0 26 0;
#X connect 25 0 28 0;
#X connect 26 0 27 0;
#X connect 27 0 25 0;
#X connect 30 0 6 1;
#X connect 30 0 17 1;
#X restore 194 201 pd delay;
#X obj 194 116 inlet~;
#X obj 195 229 outlet~;
#N canvas 395 29 308 292 \$0-gui 1;
#X obj 6 -24 cnv 15 270 20 empty empty Mod-delay 1 12 0 14 -261234
-66577 0;
#X obj 236 -18 inlet;
#X obj 240 -18 inlet;
#X obj 126 211 hradio 15 1 0 5 \$0-/lfotype empty empty 0 -8 0 10 -262144
-1 -1 1;
#X obj 4 189 hradio 15 1 0 17 \$0-/transpdevq empty empty 0 -8 0 10
-262144 -1 -1 0;
#X floatatom 256 204 5 0 0 0 - - -;
#X obj 2 69 sssad-slider \$0 /ltime 0 2000 log;
#X obj 2 89 sssad-slider \$0 /lfb 0 1;
#X obj 143 109 sssad-slider \$0 /vol 0 1;
#X obj 142 129 sssad-slider \$0 /gapper-prob 0 1;
#X obj 3 129 sssad-slider \$0 /gapper-size 0 1 log;
#X obj 142 149 sssad-slider \$0 /lfofreq 0.1 10;
#X obj 3 149 sssad-slider \$0 /lfodepth 0 1 log;
#X text 73 208 Lfo type;
#X obj 3 169 sssad-tgl \$0 /onoff;
#X obj 42 -1 sssad.presets_ mod_delay~ \$0;
#X connect 1 0 15 0;
#X connect 4 0 5 0;
#X restore 344 82 pd \$0-gui;
#N canvas 60 286 450 300 vis 0;
#X msg 167 237 vis \$1;
#X obj 167 205 yambc 2;
#X obj 167 162 route bang float;
#X obj 184 181 == 0;
#X obj 164 257 s pd-\$0-gui;
#X obj 101 118 inlet;
#X connect 0 0 4 0;
#X connect 1 1 0 0;
#X connect 2 0 1 0;
#X connect 2 1 3 0;
#X connect 3 0 1 0;
#X connect 5 0 2 0;
#X restore 292 81 pd vis;
#X obj 292 37 inlet;
#X obj 292 59 routeOSC /vis /preset;
#X connect 0 0 2 0;
#X connect 1 0 0 0;
#X connect 5 0 6 0;
#X connect 6 0 4 0;
#X connect 6 1 3 0;
#X connect 6 2 0 1;
