#N canvas 246 88 642 469 10;
#X obj 309 91 bonk~;
#X obj 67 165 prepent pitch;
#X obj 170 143 prepent notes;
#X obj 274 143 prepent env;
#X obj 324 37 inlet;
#X obj 383 42 inlet;
#X msg 309 169 onset \$2;
#X obj 274 119 change;
#X obj 67 116 change;
#X obj 68 63 inlet~;
#X obj 67 141 sel -1500;
#X obj 309 220 outlet;
#X obj 67 90 sigmund~ -npts 1024 pitch notes env;
#X connect 0 0 6 0;
#X connect 1 0 11 0;
#X connect 2 0 11 0;
#X connect 3 0 11 0;
#X connect 4 0 12 0;
#X connect 5 0 0 0;
#X connect 6 0 11 0;
#X connect 7 0 3 0;
#X connect 8 0 10 0;
#X connect 9 0 0 0;
#X connect 9 0 12 0;
#X connect 10 1 1 0;
#X connect 12 0 8 0;
#X connect 12 1 2 0;
#X connect 12 2 7 0;
