#N canvas 246 88 642 469 10;
#X obj 309 91 bonk~;
#X obj 324 37 inlet;
#X obj 383 42 inlet;
#X obj 274 119 change;
#X obj 68 63 inlet~;
#X obj 67 169 sel -1500;
#X obj 309 220 outlet;
#X obj 67 193 prepent /pitch;
#X obj 170 143 prepent /notes;
#X msg 309 169 /onset \$2;
#X obj 274 143 prepent /env;
#X obj 424 259 switch~;
#X obj 424 187 inlet;
#X obj 67 90 sigmund~ -npts 1024 -hop 4096 pitch notes env;
#X connect 0 0 9 0;
#X connect 1 0 13 0;
#X connect 2 0 0 0;
#X connect 3 0 10 0;
#X connect 4 0 0 0;
#X connect 4 0 13 0;
#X connect 5 1 7 0;
#X connect 7 0 6 0;
#X connect 8 0 6 0;
#X connect 9 0 6 0;
#X connect 10 0 6 0;
#X connect 12 0 11 0;
#X connect 13 0 5 0;
#X connect 13 1 8 0;
#X connect 13 2 3 0;
