#N canvas 0 19 714 714 10;
#X obj 102 232 readsf~;
#X obj 105 50 inlet;
#X obj 105 105 t b a;
#X obj 104 158 delay 2000;
#X obj 104 181 t b b;
#X msg 132 125 open \$1;
#X obj 491 152 table \$0-sample 960000;
#X obj 105 316 timer;
#X obj 106 389 outlet;
#X obj 105 357 list append \$0-sample;
#X msg 104 203 1;
#X obj 457 398 block~ 64 1 8;
#X obj 104 337 * 8;
#X obj 103 269 tabwrite~ \$0-sample;
#X connect 0 0 13 0;
#X connect 0 1 7 1;
#X connect 1 0 2 0;
#X connect 2 0 3 0;
#X connect 2 1 5 0;
#X connect 3 0 4 0;
#X connect 4 0 10 0;
#X connect 4 1 7 0;
#X connect 4 1 13 0;
#X connect 5 0 0 0;
#X connect 7 0 12 0;
#X connect 9 0 8 0;
#X connect 10 0 0 0;
#X connect 12 0 9 0;
