#N canvas 10 66 450 300 10;
#X obj 158 36 limiter~ 10 1;
#X obj 74 -14 inlet~;
#X obj 233 -15 inlet~;
#X obj 73 35 z~ 64;
#X obj 259 36 z~ 64;
#X obj 73 79 *~;
#X obj 158 79 *~;
#X obj 73 133 outlet~;
#X obj 158 132 outlet~;
#X obj 74 110 hip~ 5;
#X obj 159 112 hip~ 5;
#X connect 0 0 6 0;
#X connect 0 0 5 1;
#X connect 1 0 0 0;
#X connect 1 0 3 0;
#X connect 2 0 4 0;
#X connect 2 0 0 1;
#X connect 3 0 5 0;
#X connect 4 0 6 1;
#X connect 5 0 9 0;
#X connect 6 0 10 0;
#X connect 9 0 7 0;
#X connect 10 0 8 0;
