#N canvas 216 78 869 529 10;
#X obj 112 30 inlet;
#X obj 114 292 outlet;
#X text 248 199 Takes messages as (playerID \, sampletoload \, channels)
;
#X msg 112 229 \$1 channels \$3 \, \$1 prefix \$4 \, \$1 load \$2;
#X obj 112 201 luax safeload-logic;
#X text 217 276 Out: playerID \, filename;
#X obj 174 103 wavpreload-getdata channels;
#X obj 110 72 t a a;
#X obj 110 141 pack f s f;
#X msg 172 83 \$2;
#X text 166 31 Filename;
#N canvas 0 0 754 641 safeload 0;
#X obj 63 95 route 0 1 2 3 4 5 6 7 8 9 10 11 12 13 14 15;
#X obj 79 537 outlet;
#X obj 63 69 inlet;
#X obj 83 196 sample-safeload \$1;
#X obj 63 116 sample-safeload \$1;
#X obj 73 156 sample-safeload \$1;
#X obj 93 236 sample-safeload \$1;
#X obj 103 276 sample-safeload \$1;
#X obj 113 316 sample-safeload \$1;
#X obj 123 356 sample-safeload \$1;
#X obj 133 396 sample-safeload \$1;
#X obj 193 116 sample-safeload \$1;
#X obj 203 156 sample-safeload \$1;
#X obj 213 196 sample-safeload \$1;
#X obj 223 236 sample-safeload \$1;
#X obj 233 276 sample-safeload \$1;
#X obj 243 316 sample-safeload \$1;
#X obj 253 356 sample-safeload \$1;
#X obj 263 396 sample-safeload \$1;
#X connect 0 0 4 0;
#X connect 0 1 5 0;
#X connect 0 2 3 0;
#X connect 0 3 6 0;
#X connect 0 4 7 0;
#X connect 0 5 8 0;
#X connect 0 6 9 0;
#X connect 0 7 10 0;
#X connect 0 8 11 0;
#X connect 0 9 12 0;
#X connect 0 10 13 0;
#X connect 0 11 14 0;
#X connect 0 12 15 0;
#X connect 0 13 16 0;
#X connect 0 14 17 0;
#X connect 0 15 18 0;
#X connect 2 0 0 0;
#X connect 3 0 1 0;
#X connect 4 0 1 0;
#X connect 5 0 1 0;
#X connect 6 0 1 0;
#X connect 7 0 1 0;
#X connect 8 0 1 0;
#X connect 9 0 1 0;
#X connect 10 0 1 0;
#X connect 11 0 1 0;
#X connect 12 0 1 0;
#X connect 13 0 1 0;
#X connect 14 0 1 0;
#X connect 15 0 1 0;
#X connect 16 0 1 0;
#X connect 17 0 1 0;
#X connect 18 0 1 0;
#X restore 114 256 pd safeload 4.8e+06;
#X connect 0 0 7 0;
#X connect 3 0 11 0;
#X connect 4 0 3 0;
#X connect 6 0 8 2;
#X connect 7 0 8 0;
#X connect 7 1 9 0;
#X connect 8 0 4 0;
#X connect 9 0 6 0;
#X connect 11 0 1 0;
