#N canvas 0 19 766 714 10;
#N canvas 0 19 714 714 fetch_ample 0;
#X obj 129 214 msgfile;
#X obj 235 159 globalvar presetdir;
#X msg 235 192 read \$1/tvp-samples.txt;
#X obj 235 134 loadbang;
#X msg 130 130 goto \$1 \, bang;
#X obj 132 89 inlet;
#X obj 128 249 outlet;
#X obj 306 135 bng 15 250 50 0 empty empty empty 17 7 0 10 -262144
-1 -1;
#X connect 0 0 6 0;
#X connect 1 0 2 0;
#X connect 2 0 0 0;
#X connect 3 0 1 0;
#X connect 4 0 0 0;
#X connect 5 0 4 0;
#X connect 7 0 1 0;
#X restore 339 130 pd fetch_ample;
#X obj 339 157 rsload;
#X obj 339 97 r \$0-/sample;
#X obj 543 53 inlet;
#X obj 544 84 dispatch \$0 /sample;
#X obj 340 180 unpack f s;
#X obj 397 200 s \$0-buf;
#X obj 340 204 s \$0-len;
#X obj 68 204 phasor~;
#X obj 69 147 line~;
#X obj 71 73 ms2hz;
#X obj 71 104 *;
#X obj 113 99 t b f;
#X obj 72 50 r \$0-len;
#X obj 142 34 r \$0-/pitch;
#X obj 547 108 dispatch \$0 /pitch;
#X obj 143 79 pow;
#X msg 142 57 2 \$1;
#X obj 69 305 *~;
#X obj 115 250 r \$0-len;
#X obj 74 477 tabread4~;
#X obj 68 256 +~;
#X obj 115 270 * 48;
#X obj 547 134 dispatch \$0 /offset;
#X obj 184 159 r \$0-/offset;
#X obj 151 211 line~;
#X obj 101 419 r \$0-buf;
#X msg 102 450 set \$1;
#X obj 70 597 volctl~ 0 10;
#X obj 104 576 quartic;
#X obj 102 553 r \$0-/vol;
#X obj 547 163 dispatch \$0 /vol;
#X obj 548 189 dispatch \$0 /lop;
#X obj 313 343 quartic;
#X obj 313 317 + 0.22;
#X obj 314 369 * 9000;
#X obj 314 285 r \$0-/lop;
#X obj 383 433 quartic;
#X obj 383 407 + 0.22;
#X obj 384 459 * 9000;
#X obj 384 375 r \$0-/hip;
#X obj 548 209 dispatch \$0 /hip;
#X obj 65 639 outlet~;
#X obj 75 505 iemlib/lp4_cheb~ 20000 100;
#X obj 75 525 iemlib/hp4_cheb~ 20 100;
#X obj 69 279 wrap~;
#X msg 152 190 \$1 3;
#X msg 69 124 \$1 2;
#X connect 0 0 1 0;
#X connect 1 0 5 0;
#X connect 2 0 0 0;
#X connect 3 0 4 0;
#X connect 4 0 15 0;
#X connect 5 0 7 0;
#X connect 5 1 6 0;
#X connect 8 0 21 0;
#X connect 9 0 8 0;
#X connect 10 0 11 0;
#X connect 11 0 47 0;
#X connect 12 0 11 0;
#X connect 12 1 11 1;
#X connect 13 0 10 0;
#X connect 14 0 17 0;
#X connect 15 0 23 0;
#X connect 16 0 12 0;
#X connect 17 0 16 0;
#X connect 18 0 20 0;
#X connect 19 0 22 0;
#X connect 20 0 43 0;
#X connect 21 0 45 0;
#X connect 22 0 18 1;
#X connect 23 0 31 0;
#X connect 24 0 46 0;
#X connect 25 0 21 1;
#X connect 26 0 27 0;
#X connect 27 0 20 0;
#X connect 28 0 42 0;
#X connect 29 0 28 1;
#X connect 30 0 29 0;
#X connect 31 0 32 0;
#X connect 32 0 41 0;
#X connect 33 0 35 0;
#X connect 34 0 33 0;
#X connect 35 0 43 1;
#X connect 36 0 34 0;
#X connect 37 0 39 0;
#X connect 38 0 37 0;
#X connect 39 0 44 1;
#X connect 40 0 38 0;
#X connect 43 0 44 0;
#X connect 44 0 28 0;
#X connect 45 0 18 0;
#X connect 46 0 25 0;
#X connect 47 0 9 0;
