#N canvas 715 22 498 329 10;
#X declare -path grandel -path mctl;
#X declare -lib list-abs;
#X declare -lib list-abs;
#X declare -lib list-abs;
#X declare -lib list-abs;
#X declare -lib list-abs;
#X declare -lib list-abs;
#X declare -lib list-abs;
#X declare -lib list-abs;
#X declare -lib list-abs;
#X declare -lib list-abs;
#X declare -lib list-abs;
#X declare -lib list-abs;
#X declare -lib list-abs;
#X declare -lib list-abs;
#X declare -lib list-abs;
#X declare -lib list-abs;
#X declare -lib list-abs;
#X declare -lib list-abs;
#X declare -lib list-abs;
#X declare -lib list-abs;
#X declare -lib list-abs;
#X declare -lib list-abs;
#X declare -lib list-abs;
#X declare -lib list-abs;
#X declare -lib list-abs;
#X declare -lib list-abs;
#X declare -lib list-abs;
#X declare -lib list-abs;
#X declare -lib list-abs;
#X declare -lib list-abs;
#X declare -lib list-abs;
#X declare -lib list-abs;
#X declare -lib list-abs;
#X declare -lib list-abs;
#X declare -lib hcs;
#X declare -lib hcs;
#X declare -lib list-abs -lib mrpeach;
#X declare -lib list-abs -lib mrpeach;
#X declare -lib iemlib;
#X declare -lib list-abs -lib mrpeach;
#X declare -lib list-abs -lib mrpeach;
#X declare -lib hcs;
#X declare -lib list-abs -lib mrpeach;
#X declare -lib iemlib;
#N canvas 277 88 1003 669 guts 0;
#X obj 579 13 declare -path grandel -path mctl;
#N canvas 0 22 745 714 midimapping 0;
#X obj 63 37 mctl-ctlin \$0-MIDI;
#X obj 63 59 pack f f;
#X floatatom 292 63 5 0 0 0 - - -;
#X obj 62 13 midi.singlestation \$0-MIDI;
#X obj 63 95 mctl-bridge 1 /grandel/density 0 1 quartic 2xsqrt;
#X obj 63 115 mctl-bridge 2 /grandel/sizedev 0 1;
#X obj 60 135 mctl-bridge 3 /grandel/speed 0 1 quartic 2xsqrt;
#X obj 62 157 mctl-bridge 4 /grandel/speeddev 0 1;
#X obj 61 176 mctl-bridge 5 /grandel/transp -12 12;
#X obj 61 198 mctl-bridge 6 /grandel/transpdev 0 12;
#X obj 62 219 mctl-bridge 7 /grandel/delay 0 5000;
#X obj 62 240 mctl-bridge 8 /grandel/delaydev 0 1;
#X text 74 306 DELAY;
#X obj 62 338 mctl-bridge 97 /delay/ltime 0 2000;
#X obj 62 358 mctl-bridge 98 /delay/lfb 0 1;
#X obj 61 378 mctl-bridge 99 /delay/gapper-prob -0.1 1;
#X obj 62 399 mctl-bridge 100 /delay/gapper-size 0 1 quartic 2xsqrt
;
#X obj 62 418 mctl-bridge 101 /delay/lfodepth 0 1;
#X obj 62 438 mctl-bridge 102 /delay/lfofreq 0 10;
#X obj 62 479 mctl-bridge 104 /delay/vol 0 1 quartic 2xsqrt;
#X obj 67 533 mctl-bridge 81 /viet/sawmix 0 1 quartic 2xsqrt;
#X obj 67 553 mctl-bridge 82 /viet/squaremix 0 1 quartic 2xsqrt;
#X obj 68 573 mctl-bridge 83 /viet/trianglemix 0 1 quartic 2xsqrt;
#X obj 68 595 mctl-bridge 84 /viet/lfospeed 0 2;
#X obj 67 613 mctl-bridge 89 /viet/sawpitch -24 24;
#X obj 66 633 mctl-bridge 90 /viet/squarepitch -24 24;
#X obj 67 653 mctl-bridge 91 /viet/trianglepitch -24 24;
#X obj 67 673 mctl-bridge 92 /viet/lfodepth 0 1;
#X text 72 515 VIET;
#X obj 67 714 mctl-bridge 105 /input/adc/1/onoff 0 1;
#X obj 62 831 mctl-bridge 86 /sampleplayer/sample 0 127 roundint;
#X obj 62 851 mctl-bridge 87 /sampleplayer/offset 0 1;
#X obj 62 871 mctl-bridge 88 /sampleplayer/pitch -4 4;
#X obj 61 893 mctl-bridge 94 /sampleplayer/hip 0 1;
#X obj 60 917 mctl-bridge 95 /sampleplayer/lop 0 1;
#X obj 60 937 mctl-bridge 96 /sampleplayer/vol 0 1;
#X obj 359 1007 mctl-ctlout \$0-MIDI;
#X obj 485 871 messagelink \$0-SSSAD OSC;
#X obj 471 298 ctlin 87;
#X obj 471 320 sel 127 0;
#X obj 500 342 126;
#X obj 467 435 ctlout 87;
#X obj 472 342 1;
#X obj 120 788 mctl-bridge 85 /dist/drive 0 2;
#X obj 62 458 mctl-bridge 103 /delay/lfotype 1 5 roundint;
#N canvas 0 22 766 714 grandel-window 0;
#X obj 23 61 mctl-exclusive \$0-MIDI 65-72;
#X obj 24 82 mctl-group \$0-MIDI 65-72;
#X obj 25 105 route 127;
#X obj 25 126 - 65;
#X obj 29 159 moses 3;
#X obj 66 188 + 2;
#X msg 28 211 /grandel/window \$1;
#X obj 28 272 s OSC;
#X obj 272 114 r \$0-SSSAD;
#X obj 275 140 route list;
#X obj 273 164 route /grandel/window;
#X obj 275 254 midi.ctlout \$0-MIDI;
#X floatatom 301 203 5 0 0 0 - - -;
#X obj 351 203 FIXME;
#X obj 28 249 list trim;
#X connect 1 0 2 0;
#X connect 2 0 3 0;
#X connect 3 0 4 0;
#X connect 4 0 6 0;
#X connect 4 1 5 0;
#X connect 5 0 6 0;
#X connect 6 0 14 0;
#X connect 8 0 9 0;
#X connect 9 0 10 0;
#X connect 10 0 12 0;
#X connect 14 0 7 0;
#X restore 447 85 pd grandel-window;
#X obj 274 999 route list;
#X obj 478 912 list trim;
#X obj 446 197 route 127;
#X obj 446 222 - 73;
#X obj 445 246 outlet;
#X obj 488 846 route list;
#X obj 445 175 mctl-group \$0-MIDI 73-80;
#X obj 443 142 mctl-exclusive \$0-MIDI 73-80;
#X obj 60 286 mctl-bridge 10 /grandel/voldev 0 1;
#X obj 62 259 mctl-bridge 9 /grandel/vol 0 1 quartic 2xsqrt;
#X connect 0 0 1 0;
#X connect 0 1 1 1;
#X connect 0 1 2 0;
#X connect 1 0 4 0;
#X connect 4 0 5 0;
#X connect 4 1 5 1;
#X connect 5 0 6 0;
#X connect 5 1 6 1;
#X connect 6 0 7 0;
#X connect 6 1 7 1;
#X connect 7 0 8 0;
#X connect 7 1 8 1;
#X connect 8 0 9 0;
#X connect 8 1 9 1;
#X connect 9 0 10 0;
#X connect 9 1 10 1;
#X connect 10 0 11 0;
#X connect 10 1 11 1;
#X connect 11 0 55 0;
#X connect 11 1 55 1;
#X connect 13 0 14 0;
#X connect 13 1 14 1;
#X connect 14 0 15 0;
#X connect 14 1 15 1;
#X connect 15 0 16 0;
#X connect 15 1 16 1;
#X connect 16 0 17 0;
#X connect 16 1 17 1;
#X connect 17 0 18 0;
#X connect 17 1 18 1;
#X connect 18 0 44 0;
#X connect 18 1 44 1;
#X connect 19 0 20 0;
#X connect 19 1 20 1;
#X connect 20 0 21 0;
#X connect 20 1 21 1;
#X connect 21 0 22 0;
#X connect 21 1 22 1;
#X connect 22 0 23 0;
#X connect 22 1 23 1;
#X connect 23 0 24 0;
#X connect 23 1 24 1;
#X connect 24 0 25 0;
#X connect 24 1 25 1;
#X connect 25 0 26 0;
#X connect 25 1 26 1;
#X connect 26 0 27 0;
#X connect 26 1 27 1;
#X connect 27 0 29 0;
#X connect 27 1 29 1;
#X connect 29 0 43 0;
#X connect 29 1 43 1;
#X connect 30 0 31 0;
#X connect 30 1 31 1;
#X connect 31 0 32 0;
#X connect 31 1 32 1;
#X connect 32 0 33 0;
#X connect 32 1 33 1;
#X connect 33 0 34 0;
#X connect 33 1 34 1;
#X connect 34 0 35 0;
#X connect 34 1 35 1;
#X connect 35 0 51 0;
#X connect 35 1 46 0;
#X connect 37 0 47 0;
#X connect 38 0 39 0;
#X connect 39 0 42 0;
#X connect 39 1 40 0;
#X connect 40 0 41 0;
#X connect 42 0 41 0;
#X connect 43 0 30 0;
#X connect 43 1 30 1;
#X connect 44 0 19 0;
#X connect 44 1 19 1;
#X connect 46 0 36 0;
#X connect 47 0 4 1;
#X connect 48 0 49 0;
#X connect 49 0 50 0;
#X connect 51 1 37 0;
#X connect 52 0 48 0;
#X connect 54 0 13 0;
#X connect 54 1 13 1;
#X connect 55 0 54 0;
#X connect 55 1 54 1;
#X restore 579 34 pd midimapping;
#X obj 195 111 r OSC;
#X obj 85 333 e_tanh~;
#X obj 518 195 r \$0-SSSAD;
#X obj 518 243 print globalsssad;
#X obj 460 294 s \$0-SSSAD_ADMIN;
#X msg 458 272 save;
#X obj 195 132 routeOSC /grandel /delay /viet;
#X obj 410 336 route /dist/drive;
#X msg 424 359 drive \$1;
#X obj 625 308 print OSC;
#X obj 627 280 r OSC;
#X msg 774 75 update;
#X obj 773 32 ctlin 108;
#X obj 797 113 bng 15 250 50 0 empty empty empty 17 7 0 10 -262144
-1 -1;
#X floatatom 595 63 5 0 0 0 - - -;
#X obj 121 399 safety-limiter-mono~;
#X floatatom 251 488 5 0 0 0 - - -;
#X obj 581 103 sssad.presets_ tvp-global \$0;
#X obj 578 -10 globalvar presetdir /Users/johannes/kod/neu/presets
;
#X obj 86 572 dac~;
#X msg 205 355 drive 0;
#N canvas 240 317 720 532 keyboard-ni 0;
#X obj 80 63 notein 1;
#X floatatom 21 80 5 0 0 0 - - -;
#X obj 262 149 timer;
#X obj 262 173 moses 0;
#X obj 299 202 moses 3000;
#X obj 262 123 t b b;
#X obj 299 223 mavg 2;
#X obj 216 63 stripnote;
#X obj 80 85 stripnote;
#X obj 262 101 sel 72;
#X obj 300 251 / 2;
#X obj 297 331 s OSC;
#X msg 298 275 /delay/ltime \$1;
#X obj 80 111 moses 60;
#X obj 124 144 - 60;
#X msg 202 280 /delay/preset \$1;
#X msg 106 309 /grandel/preset \$1;
#X obj 70 256 - 48;
#X floatatom 193 238 5 0 0 0 - - -;
#X obj 118 182 moses 5;
#X obj 167 212 - 5;
#X obj 203 257 s MODESWITCH;
#X obj 201 212 moses 5;
#X obj 401 46 key;
#X obj 404 149 1to10 49 50 51 52 53 54 55 56 57 48;
#X floatatom 411 73 5 0 0 0 - - -;
#X obj 451 102 r PERFORMANCE;
#X obj 402 120 spigot;
#X obj 423 198 1to10 113 119 101 114 116 121 117 105 111 112;
#X obj 455 278 1to10 122 120 99 118;
#X obj 457 327 s MODESWITCH;
#X obj 456 303 - 1;
#X connect 0 0 1 0;
#X connect 0 0 8 0;
#X connect 0 1 8 1;
#X connect 2 0 3 0;
#X connect 3 1 4 0;
#X connect 4 0 6 0;
#X connect 5 0 2 0;
#X connect 5 1 2 1;
#X connect 6 0 10 0;
#X connect 8 0 9 0;
#X connect 8 0 13 0;
#X connect 9 0 5 0;
#X connect 10 0 12 0;
#X connect 12 0 11 0;
#X connect 13 0 17 0;
#X connect 13 1 14 0;
#X connect 14 0 19 0;
#X connect 15 0 11 0;
#X connect 16 0 11 0;
#X connect 17 0 16 0;
#X connect 19 0 15 0;
#X connect 19 1 20 0;
#X connect 20 0 18 0;
#X connect 20 0 22 0;
#X connect 22 0 21 0;
#X connect 23 0 25 0;
#X connect 23 0 27 0;
#X connect 24 0 16 0;
#X connect 26 0 27 1;
#X connect 27 0 24 0;
#X connect 27 0 28 0;
#X connect 27 0 29 0;
#X connect 28 0 15 0;
#X connect 29 0 31 0;
#X connect 31 0 30 0;
#X restore 512 420 pd keyboard-ni;
#N canvas 420 77 492 370 touchpad 0;
#X obj 69 49 unpackOSC;
#X obj 69 76 pipelist;
#X obj 69 98 route /tuio/2Dobj;
#X obj 70 121 route set;
#X obj 69 168 unpack f f f f f f f f f f;
#X text 100 150 x y z;
#X obj 172 327 s OSC;
#X obj 170 253 * 300;
#X msg 171 278 /delay/ltime \$1;
#X obj 54 211 * 0.99;
#X msg 55 236 /delay/lfb \$1;
#X msg 165 193 1 \$1;
#X obj 165 212 -;
#X obj 68 29 udpreceive 5713;
#X connect 0 0 1 0;
#X connect 0 1 1 1;
#X connect 1 0 2 0;
#X connect 2 0 3 0;
#X connect 3 0 4 0;
#X connect 4 2 9 0;
#X connect 4 3 11 0;
#X connect 7 0 8 0;
#X connect 8 0 6 0;
#X connect 9 0 10 0;
#X connect 10 0 6 0;
#X connect 11 0 12 0;
#X connect 12 0 7 0;
#X connect 13 0 0 0;
#X restore 494 552 pd touchpad;
#X msg 432 110 /onoff \$1;
#N canvas 0 22 450 300 routing 0;
#X obj 139 21 inlet~;
#X obj 142 58 volctl~ 0 10;
#X obj 282 28 r ROUTING;
#X obj 144 93 outlet~;
#X obj 280 49 < 4;
#X connect 0 0 1 0;
#X connect 1 0 3 0;
#X connect 2 0 4 0;
#X connect 4 0 1 1;
#X restore 182 203 pd routing;
#X msg 326 250 /vis 1;
#X obj 330 219 inlet;
#N canvas 0 22 450 300 routing 0;
#X obj 139 21 inlet~;
#X obj 142 58 volctl~ 0 10;
#X obj 282 28 r ROUTING;
#X obj 144 93 outlet~;
#X obj 281 50 == 4;
#X connect 0 0 1 0;
#X connect 1 0 3 0;
#X connect 2 0 4 0;
#X connect 4 0 1 1;
#X restore 104 205 pd routing;
#X obj 84 171 grandelback2.3-mono \$0;
#X obj 99 257 mod-delay-mono~ \$0 2000;
#X obj 82 14 inchannel~ x 2;
#X obj 19 149 bass-eq;
#X obj -6 366 e_tanh~;
#X obj -10 327 *~ 0.4;
#N canvas 40 33 753 510 routing-logic 0;
#X obj 132 302 outlet~;
#X obj 134 16 inlet~;
#X obj 132 273 volctl~ 0 10;
#X obj 269 258 outlet~;
#X obj 269 229 volctl~ 0 10;
#X obj 252 29 ctlin 11;
#X obj 252 53 / 127;
#X obj 253 74 quartic;
#X obj 363 34 ctlin 64;
#X obj 363 60 sel 0;
#X obj 362 90 f;
#X obj 392 89 + 1;
#X obj 430 88 mod 2;
#X obj 163 222 1;
#X obj 314 195 ispigot;
#X obj 270 156 spigot 1;
#X obj 357 119 t f f;
#X obj 357 166 t b b;
#X obj 373 197 t b b;
#X obj 372 217 1;
#X floatatom 375 262 5 0 0 0 - - -;
#X floatatom 225 272 5 0 0 0 - - -;
#X obj 269 126 0;
#X obj 357 145 sel 1 0;
#X obj 570 308 s ROUTINGMODE;
#X msg 467 272 label Dry \, color 12;
#X msg 570 261 label Wet \, color 13;
#X connect 1 0 2 0;
#X connect 1 0 4 0;
#X connect 2 0 0 0;
#X connect 4 0 3 0;
#X connect 5 0 6 0;
#X connect 6 0 7 0;
#X connect 7 0 22 0;
#X connect 8 0 9 0;
#X connect 9 0 10 0;
#X connect 10 0 11 0;
#X connect 10 0 16 0;
#X connect 11 0 12 0;
#X connect 12 0 10 1;
#X connect 13 0 2 1;
#X connect 13 0 21 0;
#X connect 14 0 2 1;
#X connect 14 0 21 0;
#X connect 15 0 4 1;
#X connect 15 0 20 0;
#X connect 16 0 23 0;
#X connect 16 1 14 1;
#X connect 16 1 15 1;
#X connect 17 0 13 0;
#X connect 17 1 22 0;
#X connect 18 0 19 0;
#X connect 18 1 22 0;
#X connect 19 0 4 1;
#X connect 19 0 20 0;
#X connect 22 0 15 0;
#X connect 22 0 14 0;
#X connect 23 0 17 0;
#X connect 23 0 25 0;
#X connect 23 1 18 0;
#X connect 23 1 26 0;
#X connect 25 0 24 0;
#X connect 26 0 24 0;
#X restore 91 72 pd routing-logic;
#X obj 708 448 loadbang;
#X obj 692 508 ggee/shell;
#X obj 769 182 key;
#X obj 769 258 sel 27;
#X obj 771 337 s PERFORMANCE-r;
#X obj 811 289 + 1;
#X obj 770 289 f;
#X obj 846 287 mod 2;
#X obj 828 253 r PERFORMANCE;
#X obj 892 388 switch~;
#X obj 848 142 keyname;
#X obj 848 162 pack f s;
#X msg 845 187 \$2 \$1;
#X obj 771 221 spigot;
#X obj 843 209 route Shift_L;
#X obj 293 89 + 1;
#X text 493 572 tongsengmod localhost 5713;
#X obj 118 527 *~ 0.4;
#X connect 1 0 16 0;
#X connect 1 0 19 0;
#X connect 2 0 8 0;
#X connect 3 0 17 0;
#X connect 7 0 6 0;
#X connect 8 0 30 1;
#X connect 8 1 31 1;
#X connect 8 3 9 0;
#X connect 8 3 32 0;
#X connect 9 0 10 0;
#X connect 10 0 3 1;
#X connect 13 0 19 1;
#X connect 14 0 13 0;
#X connect 17 0 21 0;
#X connect 17 0 54 0;
#X connect 22 0 3 1;
#X connect 25 0 31 1;
#X connect 26 0 31 0;
#X connect 27 0 30 1;
#X connect 27 0 31 1;
#X connect 28 0 27 0;
#X connect 29 0 31 0;
#X connect 30 0 29 0;
#X connect 30 0 3 0;
#X connect 31 0 3 0;
#X connect 32 0 36 0;
#X connect 33 0 35 0;
#X connect 34 0 21 1;
#X connect 35 0 34 0;
#X connect 36 0 33 0;
#X connect 36 1 26 0;
#X connect 36 1 30 0;
#X connect 39 0 50 0;
#X connect 40 0 43 0;
#X connect 42 0 44 0;
#X connect 43 0 42 0;
#X connect 43 0 41 0;
#X connect 44 0 43 1;
#X connect 45 0 42 0;
#X connect 45 0 46 0;
#X connect 47 0 48 0;
#X connect 47 1 48 1;
#X connect 48 0 49 0;
#X connect 49 0 51 0;
#X connect 50 0 40 0;
#X connect 51 0 50 1;
#X connect 54 0 21 1;
#X restore 434 280 pd guts;
#X obj 434 245 bng 30 250 50 1 empty empty gui 0 -14 0 20 -262144 -1
-1;
#X obj 19 -2 cnv 15 400 300 empty ROUTINGMODE Dry 150 134 0 36 -33289
-262144 0;
#X obj 430 17 tgl 45 0 PERFORMANCE PERFORMANCE-r P 15 24 0 24 -262144
-1 -1 1 1;
#X text 429 64 Shift+Esc;
#N canvas 390 325 622 418 switch 0;
#X obj 288 11 key;
#X obj 287 36 sel 32;
#X obj 286 61 f;
#X obj 138 136 outlet;
#X obj 338 130 sel 1;
#X obj 266 136 s ROUTING;
#X obj 391 250 s OSC;
#X msg 397 171 /grandel/onoff \$1;
#X msg 454 195 /delay/onoff \$1;
#X obj 393 119 != 0;
#X obj 427 123 != 2;
#X obj 398 147 &&;
#X obj 479 132 > 1;
#X obj 392 94 t f f f;
#X obj 86 199 sel 1 2 3 4 0;
#X msg 86 220 Gran;
#X msg 101 239 Delay;
#X msg 114 258 Gran|Delay;
#X msg 129 281 Gran=>Delay;
#X msg 156 227 Off;
#X obj 84 321 symbol;
#X msg 84 342 label \$1;
#X obj 88 81 r MODESWITCH;
#X obj 346 59 mod 4;
#X obj 285 93 + 1;
#X floatatom 277 192 5 0 0 0 - - -;
#X connect 0 0 1 0;
#X connect 1 0 2 0;
#X connect 2 0 3 0;
#X connect 2 0 24 0;
#X connect 7 0 6 0;
#X connect 8 0 6 0;
#X connect 9 0 11 0;
#X connect 10 0 11 1;
#X connect 11 0 7 0;
#X connect 12 0 8 0;
#X connect 13 0 9 0;
#X connect 13 1 10 0;
#X connect 13 2 12 0;
#X connect 14 0 15 0;
#X connect 14 1 16 0;
#X connect 14 2 17 0;
#X connect 14 3 18 0;
#X connect 14 4 19 0;
#X connect 15 0 20 0;
#X connect 16 0 20 0;
#X connect 17 0 20 0;
#X connect 18 0 20 0;
#X connect 19 0 20 0;
#X connect 20 0 21 0;
#X connect 21 0 3 0;
#X connect 22 0 2 0;
#X connect 23 0 2 1;
#X connect 24 0 23 0;
#X connect 24 0 5 0;
#X connect 24 0 14 0;
#X connect 24 0 25 0;
#X connect 24 0 13 0;
#X restore 317 223 pd switch;
#X obj 127 240 hradio 45 1 0 4 empty empty Gran=>Delay 0 -15 0 24 -262144
-1 -262144 3;
#X connect 1 0 0 0;
#X connect 5 0 6 0;
