#N canvas 269 228 681 523 10;
#X declare -lib list-abs;
#X declare -lib list-abs;
#X declare -lib list-abs;
#X declare -lib list-abs;
#X declare -lib list-abs;
#X declare -lib list-abs;
#X declare -lib list-abs;
#X declare -lib list-abs;
#X declare -lib list-abs;
#X declare -lib list-abs;
#X declare -lib list-abs;
#X declare -lib list-abs;
#X declare -lib list-abs;
#X declare -lib list-abs;
#X declare -lib list-abs;
#X declare -lib list-abs;
#X obj 123 49 route 0 1 2 3 4 5 6 7 8 9 10 11 12 13 14 15;
#X obj 123 22 inlet;
#X obj 121 93 simple-msg-seq;
#X obj 131 103 simple-msg-seq;
#X obj 141 113 simple-msg-seq;
#X obj 151 123 simple-msg-seq;
#X obj 161 133 simple-msg-seq;
#X obj 171 143 simple-msg-seq;
#X obj 181 153 simple-msg-seq;
#X obj 191 163 simple-msg-seq;
#X obj 201 173 simple-msg-seq;
#X obj 211 183 simple-msg-seq;
#X obj 221 193 simple-msg-seq;
#X obj 231 203 simple-msg-seq;
#X obj 241 213 simple-msg-seq;
#X obj 251 223 simple-msg-seq;
#X obj 261 233 simple-msg-seq;
#X obj 271 243 simple-msg-seq;
#X obj 105 300 outlet;
#X obj 408 119 inlet;
#X connect 0 0 2 0;
#X connect 0 1 3 0;
#X connect 0 2 4 0;
#X connect 0 3 5 0;
#X connect 0 4 6 0;
#X connect 0 5 7 0;
#X connect 0 6 8 0;
#X connect 0 7 9 0;
#X connect 0 8 10 0;
#X connect 0 9 11 0;
#X connect 0 10 12 0;
#X connect 0 11 13 0;
#X connect 0 12 14 0;
#X connect 0 13 15 0;
#X connect 0 14 16 0;
#X connect 0 15 17 0;
#X connect 1 0 0 0;
#X connect 2 0 18 0;
#X connect 3 0 18 0;
#X connect 4 0 18 0;
#X connect 5 0 18 0;
#X connect 6 0 18 0;
#X connect 7 0 18 0;
#X connect 8 0 18 0;
#X connect 9 0 18 0;
#X connect 10 0 18 0;
#X connect 11 0 18 0;
#X connect 12 0 18 0;
#X connect 13 0 18 0;
#X connect 14 0 18 0;
#X connect 15 0 18 0;
#X connect 16 0 18 0;
#X connect 17 0 18 0;
#X connect 19 0 2 1;
#X connect 19 0 3 1;
#X connect 19 0 4 1;
#X connect 19 0 5 1;
#X connect 19 0 6 1;
#X connect 19 0 7 1;
#X connect 19 0 8 1;
#X connect 19 0 9 1;
#X connect 19 0 10 1;
#X connect 19 0 11 1;
#X connect 19 0 12 1;
#X connect 19 0 13 1;
#X connect 19 0 14 1;
#X connect 19 0 15 1;
#X connect 19 0 16 1;
#X connect 19 0 17 1;
