#N canvas 339 202 450 300 10;
#X declare -lib lua;
#X obj 28 153 list trim;
#X obj 27 132 r \$1-SSSAD;
#X obj 20 55 import lua;
#X obj 191 159 inlet;
#X obj 25 217 s OSC;
#X obj 217 19 closebang;
#X obj 249 85 purepd/symbol_argument \$2;
#X msg 217 137 store \$1;
#X obj 249 58 inlet;
#X obj 216 116 symbol;
#X obj 191 208 symbol;
#X obj 191 181 route recall;
#X msg 191 229 recall \$1;
#X obj 276 172 print;
#X obj 105 148 print;
#X obj 194 257 print;
#X obj 25 191 luax container;
#X connect 0 0 14 0;
#X connect 0 0 16 0;
#X connect 1 0 0 0;
#X connect 3 0 11 0;
#X connect 5 0 9 0;
#X connect 6 0 9 1;
#X connect 6 0 10 1;
#X connect 7 0 13 0;
#X connect 7 0 16 0;
#X connect 8 0 6 0;
#X connect 9 0 7 0;
#X connect 10 0 12 0;
#X connect 11 0 10 0;
#X connect 11 1 16 0;
#X connect 12 0 15 0;
#X connect 12 0 16 0;
#X connect 16 0 4 0;
