#N canvas 29 286 736 300 10;
#X declare -lib hcs;
#X declare -lib list-abs -lib mrpeach;
#X declare -lib list-abs -lib mrpeach;
#X obj 89 50 e_tanh~;
#X obj 89 24 inlet~;
#X obj 179 50 e_tanh~;
#X obj 179 24 inlet~;
#X obj 285 9 inlet;
#X obj 281 132 r \$0-/drive;
#X obj 282 153 prepent drive;
#X obj 122 85 r \$0-/onoff;
#N canvas 591 462 286 349 \$0-gui 0;
#X obj 6 -24 cnv 15 270 20 empty empty DIst 1 12 0 14 -261234 -66577
0;
#X obj 236 -18 inlet;
#X obj 240 -18 inlet;
#X obj 41 -1 sssad.presets_ dist \$0;
#X obj 3 69 sssad-slider \$0 /drive 0 500;
#X obj 3 89 sssad-slider \$0 /dry 0 1;
#X obj 3 109 sssad-tgl \$0 /onoff;
#X connect 1 0 3 0;
#X restore 565 166 pd \$0-gui;
#X obj 194 187 outlet~;
#X obj 89 188 outlet~;
#X obj 88 161 volctl~ 0 10;
#X obj 193 161 volctl~ 0 10;
#X obj 146 251 switch~;
#X obj 387 19 sssad-localtoglobal \$0 \$1 /dist;
#N canvas 35 176 450 300 vis 0;
#X msg 167 237 vis \$1;
#X obj 167 205 yambc 2;
#X obj 167 162 route bang float;
#X obj 184 181 == 0;
#X obj 164 257 s pd-\$0-gui;
#X obj 101 118 inlet;
#X connect 0 0 4 0;
#X connect 1 1 0 0;
#X connect 2 0 1 0;
#X connect 2 1 3 0;
#X connect 3 0 1 0;
#X connect 5 0 2 0;
#X restore 510 156 pd vis;
#X obj 444 46 r \$0-GUI;
#X obj 509 109 inlet;
#X obj 511 131 route /vis /preset;
#X obj 146 229 switchdelay 0 10;
#X obj 285 52 dispatch \$0 /drive;
#X obj 285 71 dispatch \$0 /onoff;
#X obj 284 93 dispatch \$0 /dry;
#X obj 286 31 dispatch \$0 /vis;
#X obj 283 112 sendbus-dispatch \$0;
#X connect 0 0 11 0;
#X connect 1 0 0 0;
#X connect 2 0 12 0;
#X connect 3 0 2 0;
#X connect 4 0 23 0;
#X connect 5 0 6 0;
#X connect 6 0 2 1;
#X connect 6 0 0 1;
#X connect 7 0 11 1;
#X connect 7 0 12 1;
#X connect 7 0 19 0;
#X connect 11 0 10 0;
#X connect 12 0 9 0;
#X connect 16 0 20 0;
#X connect 17 0 18 0;
#X connect 18 0 15 0;
#X connect 18 1 8 0;
#X connect 19 0 13 0;
#X connect 20 0 21 0;
#X connect 21 0 22 0;
#X connect 22 0 24 0;
#X connect 23 0 20 0;
