#N canvas 279 318 957 456 10;
#X obj 412 45 jack_transport~;
#X msg 536 16 96;
#X obj 412 270 s TRANSPORT;
#X msg 414 71 measure \$1;
#X msg 434 90 beat \$1;
#X msg 444 110 tick \$1;
#X msg 453 171 bpm \$1;
#X msg 469 192 numerator \$1;
#X msg 378 16 stop;
#X obj 368 -9 sel 0 1;
#X msg 446 22 start;
#X msg 477 213 denominator \$1;
#X obj 34 45 cnv 15 150 40 empty \$0-cnv 1.2.42 21 20 0 14 -33289 -262144
0;
#X obj 37 48 tgl 15 0 empty empty empty 17 7 0 10 -4034 -1 -262144
0 1;
#X msg 234 112 set 1;
#X obj 297 134 delay;
#X obj 246 49 once;
#X obj 37 75 tgl 8 0 empty empty mon 9 3 0 10 -262144 -1 -1 1 1;
#X obj 23 14 init 1;
#X obj 21 166 spigot;
#X obj 21 142 r TRANSPORT;
#X obj 18 228 pack 0 0 0;
#X floatatom 333 187 5 0 0 0 - - -;
#X obj 20 269 s \$0-cnv;
#X obj 122 47 cnv 15 60 15 empty \$0-bpmcnv 120bpm 2 7 0 10 -262144
-1 0;
#X obj 355 129 * 2;
#X msg 284 162 set 0;
#X floatatom 366 159 5 0 0 0 - - -;
#X obj 120 281 s \$0-bpmcnv;
#X obj 142 67 cnv 15 40 15 empty \$0-metercnv 4/4 2 7 0 10 -262144
-1 0;
#X msg 120 250 label \$1;
#X obj 218 237 pack 0 0;
#X obj 219 284 s \$0-metercnv;
#X msg 20 248 label \$3.\$2.\$1;
#X floatatom 184 229 5 0 0 0 - - -;
#X msg 121 224 symbol \$1bpm;
#X obj 601 -15 loadbang;
#X obj 601 6 \$1;
#X obj 603 26 sel 0;
#X msg 219 259 label \$1/\$2;
#X obj 278 231 t b f;
#X obj 584 87 jack_transport;
#X obj 583 112 / 48000;
#X msg 636 246 seconds \$1;
#X msg 540 241 minutes \$1;
#X obj 583 166 div 60;
#X obj 644 164 mod 60;
#X obj 55 72 cnv 10 50 10 empty \$0-timecnv 0:0 1 5 0 9 -33289 -262144
0;
#X obj 22 184 route measure beat tick bpm numerator denominator minutes
seconds;
#X obj 308 247 pack 0 0;
#X obj 368 241 t b f;
#X obj 315 290 s \$0-timecnv;
#X msg 309 269 label \$1:\$2;
#X obj 637 197 change;
#X obj 235 89 t b b b;
#X obj 293 51 t b b;
#X obj 667 49 bng 15 250 50 0 empty empty empty 17 7 0 10 -262144 -1
-1;
#X obj 584 58 metro 10;
#X obj 549 218 f;
#X obj 590 208 t b f;
#X obj 527 167 f;
#X obj 492 149 f;
#X obj 454 149 f;
#X obj 505 107 t b b b;
#X obj 355 106 bpm2ms;
#X obj 455 295 v TRANSPORT-BPM;
#X obj 475 315 v TRANSPORT-NUMERATOR;
#X obj 485 335 v TRANSPORT-DENOMINATOR;
#X obj 716 50 v TRANSPORT-TICK;
#X obj 125 331 ms;
#X floatatom 132 350 10 0 0 0 - - -;
#X connect 0 0 3 0;
#X connect 0 0 22 0;
#X connect 0 0 69 0;
#X connect 0 1 4 0;
#X connect 0 1 55 0;
#X connect 0 1 63 0;
#X connect 0 2 5 0;
#X connect 0 3 62 1;
#X connect 0 3 64 0;
#X connect 0 4 61 1;
#X connect 0 5 60 1;
#X connect 1 0 0 1;
#X connect 1 0 68 0;
#X connect 3 0 2 0;
#X connect 4 0 2 0;
#X connect 5 0 2 0;
#X connect 6 0 2 0;
#X connect 7 0 2 0;
#X connect 8 0 0 0;
#X connect 8 0 2 0;
#X connect 9 0 8 0;
#X connect 9 1 10 0;
#X connect 10 0 0 0;
#X connect 11 0 2 0;
#X connect 13 0 9 0;
#X connect 14 0 13 0;
#X connect 15 0 16 1;
#X connect 15 0 26 0;
#X connect 16 0 54 0;
#X connect 17 0 19 1;
#X connect 18 0 17 0;
#X connect 19 0 48 0;
#X connect 20 0 19 0;
#X connect 21 0 33 0;
#X connect 25 0 15 1;
#X connect 25 0 27 0;
#X connect 26 0 13 0;
#X connect 30 0 28 0;
#X connect 31 0 39 0;
#X connect 33 0 23 0;
#X connect 35 0 30 0;
#X connect 36 0 37 0;
#X connect 37 0 38 0;
#X connect 37 0 68 0;
#X connect 38 0 1 0;
#X connect 38 1 0 1;
#X connect 39 0 32 0;
#X connect 40 0 31 0;
#X connect 40 1 31 1;
#X connect 41 0 42 0;
#X connect 42 0 45 0;
#X connect 42 0 46 0;
#X connect 43 0 2 0;
#X connect 44 0 2 0;
#X connect 45 0 58 1;
#X connect 46 0 53 0;
#X connect 48 0 21 2;
#X connect 48 1 21 1;
#X connect 48 2 21 0;
#X connect 48 3 34 0;
#X connect 48 3 35 0;
#X connect 48 4 31 0;
#X connect 48 5 40 0;
#X connect 48 6 49 0;
#X connect 48 7 50 0;
#X connect 49 0 52 0;
#X connect 50 0 49 0;
#X connect 50 1 49 1;
#X connect 52 0 51 0;
#X connect 53 0 59 0;
#X connect 54 0 14 0;
#X connect 54 2 57 0;
#X connect 55 0 16 0;
#X connect 55 1 15 0;
#X connect 56 0 57 0;
#X connect 57 0 41 0;
#X connect 58 0 44 0;
#X connect 59 0 58 0;
#X connect 59 1 43 0;
#X connect 60 0 11 0;
#X connect 60 0 67 0;
#X connect 61 0 7 0;
#X connect 61 0 66 0;
#X connect 62 0 6 0;
#X connect 62 0 65 0;
#X connect 63 0 62 0;
#X connect 63 1 61 0;
#X connect 63 2 60 0;
#X connect 64 0 25 0;
#X connect 69 0 70 0;
#X coords 0 -1 1 1 152 42 1 33 44;
