#N canvas 236 401 974 428 10;
#X obj 225 -6 r TRANSPORT;
#X obj 41 42 inlet;
#X obj 225 40 spigot;
#X obj 195 371 outlet;
#X obj 441 46 inlet;
#X text 484 46 Divisions;
#X obj 42 64 route bang float;
#X obj 604 158 table \$0-hits 100;
#X obj 268 283 s \$0-hits;
#X msg 268 262 resize \$1;
#X obj 357 100 * 96;
#X obj 265 94 - 1;
#X obj 265 115 * 96;
#X obj 192 177 +;
#X obj 192 147 - 1;
#X obj 225 55 route tick beat bpm numerator;
#X obj 192 227 tabread \$0-hits;
#X obj 193 263 sel 1;
#X obj 418 155 /;
#X obj 416 134 f;
#X obj 359 234 mod;
#X obj 409 100 t b b f;
#X obj 359 160 countup;
#X obj 359 210 + 0;
#X obj 359 185 t f f;
#X obj 356 258 == 0;
#X obj 356 279 tabwrite \$0-hits;
#X obj 413 184 f;
#X msg 75 112 1;
#X obj 520 229 + 0.5;
#X obj 463 75 once;
#X obj 353 80 t b f;
#X obj 463 94 f \$1;
#X obj 549 80 f \$2;
#X obj 464 114 max 1;
#X obj 556 26 inlet;
#X text 598 66 Offset;
#X obj 521 174 *;
#X obj 410 208 + 0.5;
#X obj 519 205 t b f;
#X obj 536 141 /;
#X obj 524 110 t b f;
#X obj 239 309 outlet;
#X obj 226 134 pack f f;
#X obj 231 275 l;
#X obj 195 290 t b b;
#X obj 197 98 t f f;
#X msg 239 223 \$2 \$1;
#X text 509 251 A kind of metro synced to transport. Divides the measure
in \$1 parts with an offset of \$2 (which should be 0-1 \, a fraction
of \$1). That is \, to divide a measure in 4 beats with an offset of
an eight-note \, the args should be 4 0.5.;
#X text 241 369 Bang;
#X text 282 311 (beat \, tick);
#X obj 757 167 equalpan~;
#X text 513 371 (c) Johannes Burström 2009 LICENSE GPL v3.;
#X obj 156 96 f;
#X obj 170 21 route tick;
#X obj 192 203 change;
#X connect 0 0 2 0;
#X connect 0 0 54 0;
#X connect 1 0 6 0;
#X connect 2 0 15 0;
#X connect 4 0 21 0;
#X connect 6 0 28 0;
#X connect 6 0 53 0;
#X connect 6 1 2 1;
#X connect 9 0 8 0;
#X connect 10 0 19 1;
#X connect 10 0 22 1;
#X connect 10 0 9 0;
#X connect 10 0 37 1;
#X connect 11 0 12 0;
#X connect 12 0 13 1;
#X connect 13 0 55 0;
#X connect 14 0 13 0;
#X connect 15 0 46 0;
#X connect 15 1 11 0;
#X connect 15 1 43 1;
#X connect 15 3 31 0;
#X connect 16 0 17 0;
#X connect 17 0 45 0;
#X connect 18 0 27 0;
#X connect 19 0 18 0;
#X connect 20 0 25 0;
#X connect 21 0 22 0;
#X connect 21 1 19 0;
#X connect 21 2 18 1;
#X connect 21 2 41 0;
#X connect 22 0 24 0;
#X connect 23 0 20 0;
#X connect 24 0 23 0;
#X connect 24 1 26 1;
#X connect 25 0 26 0;
#X connect 27 0 38 0;
#X connect 28 0 2 1;
#X connect 29 0 23 1;
#X connect 30 0 32 0;
#X connect 30 0 33 0;
#X connect 31 0 30 0;
#X connect 31 1 10 0;
#X connect 32 0 34 0;
#X connect 33 0 40 0;
#X connect 34 0 21 0;
#X connect 35 0 33 0;
#X connect 37 0 39 0;
#X connect 38 0 20 1;
#X connect 39 0 22 0;
#X connect 39 1 29 0;
#X connect 40 0 37 0;
#X connect 41 0 33 0;
#X connect 41 1 40 1;
#X connect 43 0 47 0;
#X connect 44 0 42 0;
#X connect 45 0 3 0;
#X connect 45 1 44 0;
#X connect 46 0 14 0;
#X connect 46 1 43 0;
#X connect 47 0 44 1;
#X connect 53 0 46 0;
#X connect 54 0 53 1;
#X connect 55 0 16 0;
