#N canvas 56 22 394 300 10;
#X obj 66 31 r TRANSPORT;
#X obj 66 55 route measure beat tick;
#X obj 114 82 == \$2;
#X obj 68 83 == \$1;
#X obj 111 119 &&;
#X obj 67 139 &&;
#X obj 68 176 sel 1;
#X obj 70 204 outlet;
#X obj 215 20 \$2;
#X obj 215 39 sel 0;
#X obj 215 58 1;
#X obj 255 39 sel 0;
#X obj 255 58 1;
#X obj 255 20 \$3;
#X obj 214 -1 loadbang;
#X obj 289 18 bng 15 250 50 0 empty empty empty 17 7 0 10 -262144 -1
-1;
#X obj 155 93 == 1;
#X obj 149 119 t b f;
#X obj 109 149 t b f;
#X connect 0 0 1 0;
#X connect 1 0 3 0;
#X connect 1 1 2 0;
#X connect 1 2 16 0;
#X connect 2 0 4 0;
#X connect 3 0 5 0;
#X connect 4 0 18 0;
#X connect 5 0 6 0;
#X connect 6 0 7 0;
#X connect 8 0 9 0;
#X connect 9 0 10 0;
#X connect 10 0 2 1;
#X connect 11 0 12 0;
#X connect 12 0 16 1;
#X connect 13 0 11 0;
#X connect 14 0 8 0;
#X connect 14 0 13 0;
#X connect 15 0 13 0;
#X connect 15 0 8 0;
#X connect 16 0 17 0;
#X connect 17 0 4 0;
#X connect 17 1 4 1;
#X connect 18 0 5 0;
#X connect 18 1 5 1;
