#N canvas 56 22 394 300 10;
#X obj 66 31 r TRANSPORT;
#X obj 114 82 == \$2;
#X obj 68 83 == \$1;
#X obj 67 139 &&;
#X obj 68 176 sel 1;
#X obj 70 204 outlet;
#X obj 109 149 t b f;
#X obj 66 54 route minutes seconds;
#X obj 226 29 inlet;
#X obj 246 59 inlet;
#X connect 0 0 7 0;
#X connect 1 0 6 0;
#X connect 2 0 3 0;
#X connect 3 0 4 0;
#X connect 4 0 5 0;
#X connect 6 0 3 0;
#X connect 6 1 3 1;
#X connect 7 0 2 0;
#X connect 7 1 1 0;
#X connect 8 0 2 1;
#X connect 9 0 1 1;
