#N canvas 768 318 233 65 10;
#X declare -lib list-abs -lib mrpeach;
#X declare -path grandel -path mctl;
#X declare -lib list-abs;
#X declare -lib list-abs;
#X declare -lib list-abs;
#X declare -lib list-abs;
#X declare -lib list-abs;
#X declare -lib list-abs;
#X declare -lib list-abs;
#X declare -lib list-abs;
#X declare -lib list-abs;
#X declare -lib list-abs;
#X declare -lib list-abs;
#X declare -lib list-abs;
#X declare -lib list-abs;
#X declare -lib list-abs;
#X declare -lib list-abs;
#X declare -lib list-abs;
#X declare -lib list-abs;
#X declare -lib list-abs;
#X declare -lib list-abs;
#X declare -lib list-abs;
#X declare -lib list-abs;
#X declare -lib list-abs;
#X declare -lib list-abs;
#X declare -lib list-abs;
#X declare -lib list-abs;
#X declare -lib list-abs;
#X declare -lib list-abs;
#X declare -lib list-abs;
#X declare -lib list-abs;
#X declare -lib list-abs;
#X declare -lib list-abs;
#X declare -lib list-abs;
#X declare -lib list-abs;
#X declare -lib list-abs;
#X declare -lib list-abs -lib mrpeach;
#X declare -lib list-abs -lib mrpeach;
#X declare -lib hcs;
#X declare -lib list-abs -lib mrpeach;
#X declare -lib list-abs -lib mrpeach;
#X declare -lib iemlib;
#X declare -lib list-abs -lib mrpeach;
#X declare -lib list-abs -lib mrpeach;
#X declare -lib hcs;
#X declare -lib hcs;
#X obj 85 81 inchannel~ 1;
#X obj 579 13 declare -path grandel -path mctl;
#N canvas 0 19 745 714 midimapping 0;
#X obj 63 37 mctl-ctlin \$0-MIDI;
#X obj 63 59 pack f f;
#X floatatom 292 63 5 0 0 0 - - -;
#X obj 62 13 midi.singlestation \$0-MIDI;
#X obj 63 95 mctl-bridge 1 /grandel/density 0 1 quartic 2xsqrt;
#X obj 63 115 mctl-bridge 2 /grandel/sizedev 0 1;
#X obj 60 135 mctl-bridge 3 /grandel/speed 0 1 quartic 2xsqrt;
#X obj 62 157 mctl-bridge 4 /grandel/speeddev 0 1;
#X obj 61 176 mctl-bridge 5 /grandel/transp -12 12;
#X obj 61 198 mctl-bridge 6 /grandel/transpdev 0 12;
#X obj 62 219 mctl-bridge 7 /grandel/delay 0 5000;
#X obj 62 240 mctl-bridge 8 /grandel/delaydev 0 1;
#X text 74 306 DELAY;
#X obj 62 338 mctl-bridge 97 /delay/ltime 0 2000;
#X obj 62 358 mctl-bridge 98 /delay/lfb 0 1;
#X obj 61 378 mctl-bridge 99 /delay/gapper-prob -0.1 1;
#X obj 62 399 mctl-bridge 100 /delay/gapper-size 0 1 quartic 2xsqrt
;
#X obj 62 418 mctl-bridge 101 /delay/lfodepth 0 1;
#X obj 62 438 mctl-bridge 102 /delay/lfofreq 0 10;
#X obj 62 479 mctl-bridge 104 /delay/vol 0 1 quartic 2xsqrt;
#X obj 67 533 mctl-bridge 81 /viet/sawmix 0 1 quartic 2xsqrt;
#X obj 67 553 mctl-bridge 82 /viet/squaremix 0 1 quartic 2xsqrt;
#X obj 68 573 mctl-bridge 83 /viet/trianglemix 0 1 quartic 2xsqrt;
#X obj 68 595 mctl-bridge 84 /viet/lfospeed 0 2;
#X obj 67 613 mctl-bridge 89 /viet/sawpitch -24 24;
#X obj 66 633 mctl-bridge 90 /viet/squarepitch -24 24;
#X obj 67 653 mctl-bridge 91 /viet/trianglepitch -24 24;
#X obj 67 673 mctl-bridge 92 /viet/lfodepth 0 1;
#X text 72 515 VIET;
#X obj 67 714 mctl-bridge 105 /input/adc/1/onoff 0 1;
#X obj 62 831 mctl-bridge 86 /sampleplayer/sample 0 127 roundint;
#X obj 62 851 mctl-bridge 87 /sampleplayer/offset 0 1;
#X obj 62 871 mctl-bridge 88 /sampleplayer/pitch -4 4;
#X obj 61 893 mctl-bridge 94 /sampleplayer/hip 0 1;
#X obj 60 917 mctl-bridge 95 /sampleplayer/lop 0 1;
#X obj 60 937 mctl-bridge 96 /sampleplayer/vol 0 1;
#X obj 359 1007 mctl-ctlout \$0-MIDI;
#X obj 485 871 messagelink \$0-SSSAD OSC;
#X obj 471 298 ctlin 87;
#X obj 471 320 sel 127 0;
#X obj 500 342 126;
#X obj 467 435 ctlout 87;
#X obj 472 342 1;
#X obj 120 788 mctl-bridge 85 /dist/drive 0 2;
#X obj 62 458 mctl-bridge 103 /delay/lfotype 1 5 roundint;
#N canvas 0 19 766 714 grandel-window 0;
#X obj 23 61 mctl-exclusive \$0-MIDI 65-72;
#X obj 24 82 mctl-group \$0-MIDI 65-72;
#X obj 25 105 route 127;
#X obj 25 126 - 65;
#X obj 29 159 moses 3;
#X obj 66 188 + 2;
#X msg 28 211 /grandel/window \$1;
#X obj 28 272 s OSC;
#X obj 272 114 r \$0-SSSAD;
#X obj 275 140 route list;
#X obj 273 164 route /grandel/window;
#X obj 275 254 midi.ctlout \$0-MIDI;
#X floatatom 301 203 5 0 0 0 - - -;
#X obj 351 203 FIXME;
#X obj 28 249 list trim;
#X connect 1 0 2 0;
#X connect 2 0 3 0;
#X connect 3 0 4 0;
#X connect 4 0 6 0;
#X connect 4 1 5 0;
#X connect 5 0 6 0;
#X connect 6 0 14 0;
#X connect 8 0 9 0;
#X connect 9 0 10 0;
#X connect 10 0 12 0;
#X connect 14 0 7 0;
#X restore 447 85 pd grandel-window;
#X obj 274 999 route list;
#X obj 478 912 list trim;
#X obj 446 197 route 127;
#X obj 446 222 - 73;
#X obj 445 246 outlet;
#X obj 488 846 route list;
#X obj 445 175 mctl-group \$0-MIDI 73-80;
#X obj 443 142 mctl-exclusive \$0-MIDI 73-80;
#X obj 60 286 mctl-bridge 10 /grandel/voldev 0 1;
#X obj 62 259 mctl-bridge 9 /grandel/vol 0 1 quartic 2xsqrt;
#X connect 0 0 1 0;
#X connect 0 1 1 1;
#X connect 0 1 2 0;
#X connect 1 0 4 0;
#X connect 4 0 5 0;
#X connect 4 1 5 1;
#X connect 5 0 6 0;
#X connect 5 1 6 1;
#X connect 6 0 7 0;
#X connect 6 1 7 1;
#X connect 7 0 8 0;
#X connect 7 1 8 1;
#X connect 8 0 9 0;
#X connect 8 1 9 1;
#X connect 9 0 10 0;
#X connect 9 1 10 1;
#X connect 10 0 11 0;
#X connect 10 1 11 1;
#X connect 11 0 55 0;
#X connect 11 1 55 1;
#X connect 13 0 14 0;
#X connect 13 1 14 1;
#X connect 14 0 15 0;
#X connect 14 1 15 1;
#X connect 15 0 16 0;
#X connect 15 1 16 1;
#X connect 16 0 17 0;
#X connect 16 1 17 1;
#X connect 17 0 18 0;
#X connect 17 1 18 1;
#X connect 18 0 44 0;
#X connect 18 1 44 1;
#X connect 19 0 20 0;
#X connect 19 1 20 1;
#X connect 20 0 21 0;
#X connect 20 1 21 1;
#X connect 21 0 22 0;
#X connect 21 1 22 1;
#X connect 22 0 23 0;
#X connect 22 1 23 1;
#X connect 23 0 24 0;
#X connect 23 1 24 1;
#X connect 24 0 25 0;
#X connect 24 1 25 1;
#X connect 25 0 26 0;
#X connect 25 1 26 1;
#X connect 26 0 27 0;
#X connect 26 1 27 1;
#X connect 27 0 29 0;
#X connect 27 1 29 1;
#X connect 29 0 43 0;
#X connect 29 1 43 1;
#X connect 30 0 31 0;
#X connect 30 1 31 1;
#X connect 31 0 32 0;
#X connect 31 1 32 1;
#X connect 32 0 33 0;
#X connect 32 1 33 1;
#X connect 33 0 34 0;
#X connect 33 1 34 1;
#X connect 34 0 35 0;
#X connect 34 1 35 1;
#X connect 35 0 51 0;
#X connect 35 1 46 0;
#X connect 37 0 47 0;
#X connect 38 0 39 0;
#X connect 39 0 42 0;
#X connect 39 1 40 0;
#X connect 40 0 41 0;
#X connect 42 0 41 0;
#X connect 43 0 30 0;
#X connect 43 1 30 1;
#X connect 44 0 19 0;
#X connect 44 1 19 1;
#X connect 46 0 36 0;
#X connect 47 0 4 1;
#X connect 48 0 49 0;
#X connect 49 0 50 0;
#X connect 51 1 37 0;
#X connect 52 0 48 0;
#X connect 54 0 13 0;
#X connect 54 1 13 1;
#X connect 55 0 54 0;
#X connect 55 1 54 1;
#X restore 579 34 pd midimapping;
#X obj 195 111 r OSC;
#X obj 85 333 e_tanh~;
#X obj 313 150 viet-synth-mono \$0;
#X obj 578 -10 globalvar presetdir /home/johannes/pd/neu/presets;
#X obj 84 171 grandelback2.3-mono \$0;
#X obj 518 195 r \$0-SSSAD;
#X obj 518 243 print globalsssad;
#X msg 325 221 /preset 0;
#X obj 460 294 s \$0-SSSAD_ADMIN;
#X msg 458 272 save;
#X obj 195 132 routeOSC /grandel /delay /viet;
#X obj 172 412 sampleplayer~;
#X msg 170 386 /sample 0;
#X floatatom 244 386 5 0 0 0 - - -;
#X floatatom 380 382 5 0 0 0 - - -;
#X msg 304 417 /lop 0.2;
#X msg 284 394 /vol \$1 \, /pitch -4;
#X obj 179 355 routeOSC /sampleplayer;
#X obj 128 301 route /dist/drive;
#X msg 142 324 drive \$1;
#X obj 167 216 mod-delay-mono~ \$0 2000;
#X msg 323 294 /onoff 1;
#X obj 625 308 print OSC;
#X obj 627 280 r OSC;
#X msg 774 75 update;
#X obj 773 32 ctlin 108;
#X obj 797 113 bng 15 250 50 0 empty empty empty 17 7 0 10 -262144
-1 -1;
#X floatatom 595 63 5 0 0 0 - - -;
#X obj 85 480 safety-limiter-mono~;
#X obj 86 572 dac~ 1;
#X obj 220 516 ctlin 107;
#X floatatom 329 566 5 0 0 0 - - -;
#X obj 220 542 / 127;
#X obj 87 530 volctl~ 0 10;
#X obj 581 103 sssad.presets_ tvp-global \$0;
#X connect 0 0 7 0;
#X connect 0 0 23 0;
#X connect 2 0 30 0;
#X connect 2 0 37 0;
#X connect 3 0 13 0;
#X connect 4 0 31 0;
#X connect 5 0 7 0;
#X connect 5 0 23 0;
#X connect 7 0 4 0;
#X connect 8 0 9 0;
#X connect 10 0 7 1;
#X connect 10 0 5 0;
#X connect 10 0 23 1;
#X connect 12 0 11 0;
#X connect 13 0 7 1;
#X connect 13 1 23 1;
#X connect 13 2 5 0;
#X connect 13 3 0 0;
#X connect 13 3 20 0;
#X connect 14 0 7 0;
#X connect 14 0 23 0;
#X connect 14 0 4 0;
#X connect 15 0 14 0;
#X connect 17 0 19 0;
#X connect 18 0 14 0;
#X connect 19 0 14 0;
#X connect 20 0 14 0;
#X connect 20 1 21 0;
#X connect 21 0 22 0;
#X connect 22 0 4 1;
#X connect 23 0 4 0;
#X connect 24 0 23 1;
#X connect 26 0 25 0;
#X connect 27 0 37 1;
#X connect 28 0 27 0;
#X connect 31 0 36 0;
#X connect 33 0 34 0;
#X connect 33 0 35 0;
#X connect 35 0 36 1;
#X connect 36 0 32 0;
