#N canvas 0 19 766 693 10;
#X declare -lib list-abs -lib mrpeach;
#X declare -lib list-abs -lib mrpeach;
#X obj 94 6 r MSG;
#X obj 95 120 max 0;
#X obj 95 98 - 50;
#X obj 96 445 *~;
#X obj 93 143 / 60;
#X msg 93 210 \$1 10;
#X obj 93 259 line~;
#X obj 148 528 + 400;
#X obj 94 167 spigot;
#X obj 94 186 t f f;
#X msg 177 94 1;
#X obj 145 502 * 10000;
#X obj 95 75 route env pitch onset;
#X obj 93 53 route adc1 touchpad-x touchpad-y;
#X obj 161 188 + 1;
#X obj 161 209 osc~ 20;
#X obj 161 167 * 7;
#X obj 580 43 inlet;
#X obj 160 390 volctl~ 0 10;
#X obj 241 390 volctl~ 0 10;
#X obj 347 390 volctl~ 0 10;
#X obj 204 131 s \$0-pitch;
#N canvas 0 19 817 714 pitch 0;
#X obj 136 -41 mtof;
#X obj 137 2 line~;
#X obj 139 33 +~;
#X obj 203 -9 *~;
#X obj 199 44 volctl~ 0 10;
#X obj 234 25 * 0.05;
#X obj 136 -108 r \$0-pitch;
#X obj 238 -31 inlet~;
#X obj 139 179 outlet~;
#X obj 136 -75 +;
#X obj 204 -94 r \$0-/sawpitch;
#X obj 234 6 r \$0-/lfodepth;
#X msg 139 -20 \$1 3;
#X obj 182 -74 t b f;
#X connect 0 0 12 0;
#X connect 1 0 2 0;
#X connect 1 0 3 0;
#X connect 2 0 8 0;
#X connect 3 0 4 0;
#X connect 4 0 2 1;
#X connect 5 0 4 1;
#X connect 6 0 9 0;
#X connect 7 0 3 1;
#X connect 9 0 0 0;
#X connect 10 0 13 0;
#X connect 11 0 5 0;
#X connect 12 0 1 0;
#X connect 13 0 9 0;
#X connect 13 1 9 1;
#X restore 162 258 pd pitch;
#N canvas 30 154 450 300 pitch 0;
#X obj 136 -41 mtof;
#X obj 136 -19 \$1 10;
#X obj 137 2 line~;
#X obj 139 33 +~;
#X obj 203 -9 *~;
#X obj 199 44 volctl~ 0 10;
#X obj 234 25 * 0.05;
#X obj 136 -108 r \$0-pitch;
#X obj 238 -31 inlet~;
#X obj 140 74 outlet~;
#X obj 136 -75 +;
#X obj 204 -94 r \$0-/squarepitch;
#X obj 234 6 r \$0-/lfodepth;
#X obj 206 -73 t b f;
#X connect 0 0 1 0;
#X connect 1 0 2 0;
#X connect 2 0 3 0;
#X connect 2 0 4 0;
#X connect 3 0 9 0;
#X connect 4 0 5 0;
#X connect 5 0 3 1;
#X connect 6 0 5 1;
#X connect 7 0 10 0;
#X connect 8 0 4 1;
#X connect 10 0 0 0;
#X connect 11 0 13 0;
#X connect 12 0 6 0;
#X connect 13 0 10 0;
#X connect 13 1 10 1;
#X restore 244 259 pd pitch;
#N canvas 25 132 450 300 pitch 0;
#X obj 136 -41 mtof;
#X obj 136 -19 \$1 10;
#X obj 137 2 line~;
#X obj 139 33 +~;
#X obj 203 -9 *~;
#X obj 199 44 volctl~ 0 10;
#X obj 234 25 * 0.05;
#X obj 136 -108 r \$0-pitch;
#X obj 238 -31 inlet~;
#X obj 140 74 outlet~;
#X obj 136 -75 +;
#X obj 234 6 r \$0-/lfodepth;
#X obj 204 -94 r \$0-/trianglepitch;
#X obj 205 -72 t b f;
#X connect 0 0 1 0;
#X connect 1 0 2 0;
#X connect 2 0 3 0;
#X connect 2 0 4 0;
#X connect 3 0 9 0;
#X connect 4 0 5 0;
#X connect 5 0 3 1;
#X connect 6 0 5 1;
#X connect 7 0 10 0;
#X connect 8 0 4 1;
#X connect 10 0 0 0;
#X connect 11 0 6 0;
#X connect 12 0 13 0;
#X connect 13 0 10 0;
#X connect 13 1 10 1;
#X restore 346 260 pd pitch;
#X obj 101 587 outlet~;
#X obj 93 30 spigot;
#X obj 140 29 sel 1;
#X obj 141 9 r \$0-/onoff;
#X obj 161 146 r \$0-/lfospeed;
#X obj 195 345 r \$0-/sawmix;
#X obj 276 345 r \$0-/squaremix;
#X obj 384 344 r \$0-/trianglemix;
#X obj 582 253 sendbus-dispatch \$0;
#X obj 159 110 moses 20;
#X floatatom 352 69 5 0 0 0 - - -;
#X obj 161 230 +~ 0;
#X obj 562 324 route /amp /pitch;
#X obj 161 285 blosc/blsaw~;
#X obj 243 284 blosc/blsquare~;
#X obj 346 285 blosc/bltriangle~;
#X obj 580 64 dispatch \$0 /sawmix;
#X obj 580 84 dispatch \$0 /sawpitch;
#X obj 580 104 dispatch \$0 /squarepitch;
#X obj 580 124 dispatch \$0 /squaremix;
#X obj 580 145 dispatch \$0 /trianglepitch;
#X obj 580 164 dispatch \$0 /trianglemix;
#X obj 581 184 dispatch \$0 /lfospeed;
#X obj 580 204 dispatch \$0 /lfodepth;
#X obj 582 225 dispatch \$0 /onoff;
#X obj 100 553 iemlib/lp4_cheb~ 1000 100;
#X obj 635 17 sssad-localtoglobal \$0 \$1 /viet;
#X connect 0 0 26 0;
#X connect 1 0 4 0;
#X connect 2 0 1 0;
#X connect 3 0 50 0;
#X connect 4 0 8 0;
#X connect 5 0 6 0;
#X connect 6 0 3 0;
#X connect 8 0 9 0;
#X connect 9 0 5 0;
#X connect 9 1 8 1;
#X connect 10 0 8 1;
#X connect 11 0 7 0;
#X connect 12 0 2 0;
#X connect 12 1 34 0;
#X connect 12 1 35 0;
#X connect 12 2 10 0;
#X connect 13 0 12 0;
#X connect 14 0 15 0;
#X connect 15 0 36 0;
#X connect 16 0 14 0;
#X connect 17 0 41 0;
#X connect 18 0 3 1;
#X connect 19 0 3 1;
#X connect 20 0 3 1;
#X connect 22 0 38 0;
#X connect 23 0 39 0;
#X connect 24 0 40 0;
#X connect 26 0 13 0;
#X connect 27 1 5 0;
#X connect 28 0 26 1;
#X connect 28 0 27 0;
#X connect 29 0 16 0;
#X connect 30 0 18 1;
#X connect 31 0 19 1;
#X connect 32 0 20 1;
#X connect 34 1 21 0;
#X connect 36 0 22 0;
#X connect 36 0 23 0;
#X connect 36 0 24 0;
#X connect 37 0 5 0;
#X connect 37 1 21 0;
#X connect 38 0 18 0;
#X connect 39 0 19 0;
#X connect 40 0 20 0;
#X connect 41 0 42 0;
#X connect 42 0 43 0;
#X connect 43 0 44 0;
#X connect 44 0 45 0;
#X connect 45 0 46 0;
#X connect 46 0 47 0;
#X connect 47 0 48 0;
#X connect 48 0 49 0;
#X connect 49 0 33 0;
#X connect 49 0 37 0;
#X connect 50 0 25 0;
