#N canvas 364 66 1076 818 10;
#X declare -lib list-abs;
#X declare -lib aubio;
#X declare -lib aubio;
#X declare -lib aubio;
#X declare -lib list-abs;
#X declare -lib hcs -lib list-abs;
#X declare -lib list-abs;
#X obj 98 39 globalvar sampledir /media/maxi/samples/neu;
#X obj 98 122 textfile;
#X obj 98 164 list split 1;
#X msg 98 185 bank \$1;
#X obj 133 205 t a a;
#X obj 140 232 prepent add;
#X msg 99 102 read \$1/index.txt \, rewind \, bang;
#X msg 16 122 clear;
#X obj 99 280 bank;
#X msg 454 164 loadfile \$1;
#X obj 96 58 t a b;
#X obj 97 82 list;
#X obj -40 240 list-extend;
#X obj -40 300 outlet;
#X obj -40 19 inlet;
#X obj -42 271 list-unique;
#X obj 158 278 r \$0-bank-to;
#X obj 99 323 s \$0-bank-from;
#X obj 97 142 t a a;
#X obj 138 142 list;
#X obj 285 186 list-extend;
#X obj 269 215 list;
#X obj 272 237 list-unique;
#X obj 48 166 t b a;
#X obj 589 233 bng 15 250 50 0 empty empty empty 17 7 0 10 -262144
-1 -1;
#N canvas 418 128 727 619 WAVBANK-functions 0;
#X obj 164 -15 globalreceive WAVBANK;
#X obj 223 29 list split 1;
#X obj 258 78 route random;
#X obj 257 218 s \$0-bank-to;
#X obj 255 241 r \$0-bank-from;
#X msg 257 193 bank \$1 \, getfiles;
#X obj 245 395 list-nth;
#X obj 284 373 rtc/urne;
#X obj 252 322 t a b a;
#X obj 254 292 route bang;
#X obj 208 479 globalsend WAVBANK;
#X obj 166 7 route file;
#X obj 210 424 list append;
#X obj 208 448 prepent file;
#X obj 254 267 route elements;
#X obj 257 54 list trim;
#X obj 329 350 list length;
#X obj 258 98 route float;
#X obj 53 72 inlet;
#X obj 257 169 list-idx;
#X obj 257 147 list;
#X obj 258 120 t b f;
#X connect 0 0 11 0;
#X connect 1 0 12 0;
#X connect 1 1 15 0;
#X connect 2 0 17 0;
#X connect 4 0 14 0;
#X connect 5 0 3 0;
#X connect 6 0 12 1;
#X connect 7 0 6 1;
#X connect 8 0 6 0;
#X connect 8 1 7 0;
#X connect 8 2 16 0;
#X connect 9 1 8 0;
#X connect 11 1 1 0;
#X connect 12 0 13 0;
#X connect 13 0 10 0;
#X connect 14 0 9 0;
#X connect 15 0 2 0;
#X connect 16 0 7 1;
#X connect 17 0 21 0;
#X connect 18 0 20 1;
#X connect 19 0 5 0;
#X connect 20 0 19 0;
#X connect 21 0 20 0;
#X connect 21 1 19 1;
#X restore 19 359 pd WAVBANK-functions;
#X obj 456 189 wavpreload-station 0 0 wavpreload-plugin-bonk wavpreload-plugin-pitchenv
;
#X obj 272 284 list-dripslow;
#X obj 271 259 t b a;
#X obj 710 238 t b b;
#X obj 709 331 print load;
#X obj 348 320 outlet;
#X obj 98 9 inlet init;
#X obj 265 320 print;
#X obj 57 12 bng 15 250 50 0 empty empty empty 17 7 0 10 -262144 -1
-1;
#N canvas 650 31 727 619 WAVBANK-functions2 0;
#X obj 164 -15 globalreceive WAVBANK;
#X obj 223 29 list split 1;
#X obj 353 262 s \$0-bank-to;
#X obj 351 285 r \$0-bank-from;
#X msg 353 237 bank \$1 \, getfiles;
#X obj 323 511 list-nth;
#X obj 330 438 t a b a;
#X obj 350 336 route bang;
#X obj 173 512 globalsend WAVBANK;
#X obj 166 7 route file;
#X obj 173 481 prepent file;
#X obj 350 311 route elements;
#X obj 352 60 list trim;
#X obj 406 427 list length;
#X obj 354 108 route float;
#X obj 53 72 inlet;
#X obj 353 213 list-idx;
#X obj 353 191 list;
#X obj 354 164 t b f;
#X obj 353 84 route random bank;
#X obj 217 258 t b a;
#X obj 174 405 list prepend;
#X obj 362 489 rtc/urne;
#X obj 408 467 f;
#X obj 462 477 b;
#X obj 406 446 change;
#X text 396 388 FIXME: Here could be a nice algorithm for which samples
gets chosen;
#X msg 281 6 999 random;
#X obj 354 134 sel -1;
#X obj 423 135 f;
#X obj 557 290 b;
#X obj 413 365 list;
#X connect 0 0 9 0;
#X connect 1 0 20 0;
#X connect 1 1 12 0;
#X connect 3 0 11 0;
#X connect 4 0 2 0;
#X connect 5 0 21 0;
#X connect 6 0 5 0;
#X connect 6 1 22 0;
#X connect 6 2 13 0;
#X connect 7 1 31 1;
#X connect 7 1 6 0;
#X connect 9 1 1 0;
#X connect 10 0 8 0;
#X connect 11 0 7 0;
#X connect 12 0 19 0;
#X connect 13 0 25 0;
#X connect 14 0 28 0;
#X connect 15 0 17 1;
#X connect 16 0 4 0;
#X connect 17 0 16 0;
#X connect 18 0 17 0;
#X connect 18 1 16 1;
#X connect 19 0 14 0;
#X connect 20 0 21 1;
#X connect 21 0 10 0;
#X connect 22 0 5 1;
#X connect 22 1 24 0;
#X connect 23 0 22 1;
#X connect 24 0 23 0;
#X connect 25 0 23 0;
#X connect 27 0 1 0;
#X connect 28 0 30 0;
#X connect 28 1 18 0;
#X connect 28 1 29 0;
#X connect 29 0 28 1;
#X connect 30 0 31 0;
#X connect 31 0 6 0;
#X restore 159 479 pd WAVBANK-functions2;
#X connect 0 0 10 0;
#X connect 1 0 18 0;
#X connect 1 1 21 0;
#X connect 2 0 23 0;
#X connect 2 1 4 0;
#X connect 3 0 8 0;
#X connect 4 0 5 0;
#X connect 4 1 20 0;
#X connect 5 0 8 0;
#X connect 6 0 1 0;
#X connect 7 0 1 0;
#X connect 7 0 8 0;
#X connect 8 0 17 0;
#X connect 9 0 26 0;
#X connect 10 0 11 0;
#X connect 10 1 7 0;
#X connect 11 0 6 0;
#X connect 12 0 15 0;
#X connect 14 0 12 0;
#X connect 15 0 13 0;
#X connect 15 0 25 0;
#X connect 16 0 8 0;
#X connect 18 0 2 0;
#X connect 18 1 19 0;
#X connect 19 0 3 0;
#X connect 20 0 21 1;
#X connect 21 0 22 0;
#X connect 22 0 28 0;
#X connect 23 0 1 0;
#X connect 23 1 12 0;
#X connect 26 1 24 0;
#X connect 26 1 29 0;
#X connect 27 0 9 0;
#X connect 27 0 33 0;
#X connect 27 1 31 0;
#X connect 28 0 27 0;
#X connect 28 1 27 1;
#X connect 29 0 27 0;
#X connect 29 1 30 0;
#X connect 32 0 0 0;
#X connect 34 0 0 0;
