#N canvas 666 233 745 581 10;
#X declare -lib list-abs;
#X declare -lib list-abs;
#X declare -lib creb;
#X declare -lib tabreadc;
#X declare -lib tabreadc;
#X declare -lib tabreadc;
#X declare -lib tabreadc;
#X declare -lib tabreadc;
#X declare -lib tabreadc;
#X declare -lib tabreadc;
#X declare -lib tabreadc;
#X declare -lib tabreadc;
#X declare -lib tabreadc;
#X declare -lib tabreadc;
#X declare -lib tabreadc;
#X declare -lib tabreadc;
#X declare -lib tabreadc;
#X declare -lib tabreadc;
#X declare -lib tabreadc;
#X declare -lib hcs;
#X declare -lib list-abs -lib mrpeach;
#X declare -lib list-abs -lib mrpeach;
#X obj -76 68 globalvar presetdir /home/johannes/pd/presets;
#X obj 91 87 inlet;
#X obj -31 401 outlet~;
#X obj -1 421 outlet~;
#X obj 19 441 outlet~;
#X obj 186 378 s \$0-SSSAD;
#X obj 186 322 loadbang;
#X obj -33 236 undispatch \$0 /window;
#X obj -33 217 dispatch \$0 /window;
#N canvas 281 411 450 300 samplebank 0;
#X obj 237 271 outlet;
#N canvas 30 154 450 300 random 0;
#X obj 40 142 globalsend WAVBANK;
#X obj 40 121 prepent \$0;
#X obj 38 169 globalreceive WAVBANK;
#X obj 40 192 route file;
#X obj 41 78 list;
#X msg 41 101 random \$1;
#X obj 40 51 inlet;
#X obj 110 60 r \$0-samplebank;
#X obj 37 260 outlet;
#X obj 38 213 route \$0;
#X obj 37 236 prepent /sample;
#X connect 1 0 0 0;
#X connect 2 0 3 0;
#X connect 3 0 9 0;
#X connect 4 0 5 0;
#X connect 5 0 1 0;
#X connect 6 0 4 0;
#X connect 7 0 4 1;
#X connect 9 0 10 0;
#X connect 10 0 8 0;
#X restore 183 94 pd random;
#X obj 58 96 s \$0-samplebank;
#X obj 60 -6 r \$0-SSSAD;
#X obj 60 16 route list symbol;
#X msg 103 38 \$1;
#X obj 58 70 route /bank /random;
#X connect 1 0 0 0;
#X connect 3 0 4 0;
#X connect 4 0 6 0;
#X connect 4 1 5 0;
#X connect 5 0 6 0;
#X connect 6 0 2 0;
#X connect 6 1 1 0;
#X restore -33 141 pd samplebank;
#X obj -33 332 graintrain-onsetalign \$0;
#X obj -32 355 graintrain-temposync \$0;
#X obj -32 378 bufgrainr~ \$0;
#N canvas 265 219 286 349 \$0-gui 0;
#X obj 6 -24 cnv 15 270 20 empty empty Graintrainr~- 1 12 0 14 -261234
-66577 0;
#X obj 42 -1 sssad.presets_ graintrainr~ \$0;
#X obj 236 -18 inlet;
#X obj 240 -18 inlet;
#X obj 126 294 hradio 15 1 0 10 \$0-window \$0-window empty 0 -8 0
10 -262144 -1 -1 0;
#X text 73 291 Window;
#X obj 4 272 hradio 15 1 0 17 \$0-temposync \$0-temposync empty 0 -8
0 10 -262144 -1 -1 0;
#X floatatom 260 271 5 0 0 0 - - -;
#X obj 3 69 sssad-slider \$0 /speed 0 1 log;
#X obj 142 69 sssad-slider \$0 /speeddev 0 1;
#X obj 142 89 sssad-slider \$0 /density 0 1 log;
#X obj 3 89 sssad-slider \$0 /lengthdev 0 1;
#X obj 3 109 sssad-slider \$0 /pitchdev 0 1;
#X obj 142 129 sssad-slider \$0 /pan -45 45;
#X obj 3 129 sssad-slider \$0 /pandev 0 1;
#X obj 142 149 sssad-slider \$0 /vol 0 1;
#X obj 3 149 sssad-slider \$0 /voldev 0 1;
#X obj 142 169 sssad-slider \$0 /fxsend 0 1;
#X obj 3 169 sssad-slider \$0 /fxsendprob 0 1;
#X obj 142 189 sssad-slider \$0 /bpfq 0 20000;
#X obj 3 189 sssad-slider \$0 /bpfqdev 0 1;
#X obj 142 209 sssad-slider \$0 /bpbw 0 20000;
#X obj 3 209 sssad-slider \$0 /bpbwdev 0 1;
#X obj 142 249 sssad-slider \$0 /maxgrainsize 0 5000;
#X obj 142 109 sssad-slider \$0 /pitch -4 4;
#X obj 142 229 sssad-tgl \$0 /bponoff;
#X obj 3 229 sssad-tgl \$0 /onoff;
#X obj 3 249 sssad-tgl \$0 /onsetalign;
#X connect 2 0 1 0;
#X connect 3 0 1 1;
#X connect 6 0 7 0;
#X restore 485 117 pd \$0-gui;
#X obj -33 310 graintrain \$0;
#X obj -33 170 dispatch \$0 /temposync;
#X obj -33 189 undispatch \$0 /temposync;
#X msg -38 116 help;
#X msg -127 109 /speed 1;
#X obj -33 256 sendbus-dispatch \$0;
#X msg 186 343 /bpbwrange 0 5000 \, /pitchrange -4 4 \, /bpfqrange
0 20000 \, /temposync 0;
#X obj -33 284 dispatch \$0 /vis;
#N canvas 687 562 450 300 vis 0;
#X obj 323 245 s pd-\$0-gui;
#X msg 323 220 vis \$1;
#X obj 323 188 yambc 2;
#X obj 323 145 route bang float;
#X obj 368 170 == 0;
#X obj 322 72 r \$0-/vis;
#X connect 1 0 0 0;
#X connect 2 1 1 0;
#X connect 3 0 2 0;
#X connect 3 1 4 0;
#X connect 4 0 2 0;
#X connect 5 0 3 0;
#X restore 486 96 pd vis;
#X obj 277 40 sssad-localtoglobal \$0 \$2 /gtr/\$1;
#X connect 1 0 15 0;
#X connect 6 0 20 0;
#X connect 7 0 19 0;
#X connect 8 0 7 0;
#X connect 9 0 15 0;
#X connect 10 0 11 0;
#X connect 11 0 12 0;
#X connect 12 0 2 0;
#X connect 12 1 3 0;
#X connect 12 2 4 0;
#X connect 14 0 10 0;
#X connect 15 0 16 0;
#X connect 16 0 8 0;
#X connect 19 0 21 0;
#X connect 20 0 5 0;
#X connect 21 0 14 0;
