#N canvas 0 0 450 300 10;
#X obj 145 11 inlet;
#X obj 145 37 random;
#X obj 220 11 inlet;
#X obj 270 36 init \$1;
#X obj 146 57 / 1000;
#X obj 216 37 * 1000;
#X obj 145 83 outlet;
#X text 87 232 non-integer random yadayada;
#X connect 0 0 1 0;
#X connect 1 0 4 0;
#X connect 2 0 5 0;
#X connect 3 0 5 0;
#X connect 4 0 6 0;
#X connect 5 0 1 1;
