#N canvas 164 22 766 746 10;
#N canvas 176 27 702 636 compute 0;
#X obj 86 353 +~;
#X obj 86 427 vd~ \$1-k;
#X obj 88 105 change;
#X text 282 486 aus abstraction winfader;
#N canvas 0 0 450 300 stuff 0;
#X obj 163 16 inlet~;
#X obj 163 241 outlet~;
#X connect 0 0 1 0;
#X restore 87 457 pd stuff;
#X obj 619 121 1;
#X obj 153 491 tabread~ \$1-window;
#X obj 618 201 switch~ 64;
#X obj 91 639 outlet~;
#X obj 141 639 outlet~;
#X obj 458 32 inlet switch;
#X obj 433 463 OSCroute /vol /voldev /pan /pandev;
#X obj 89 587 *~;
#X obj 111 572 +~ 1;
#X obj 110 553 *~ -1;
#X obj 141 592 *~;
#X obj 88 82 OSCroute /transp /transpdev;
#X obj 257 200 OSCroute /size /sizedev;
#X obj 383 235 OSCroute /delay /delaydev;
#X obj 433 488 / 100;
#X obj 433 512 01toquartic;
#X obj 525 500 / 100;
#X obj 89 47 r \$1-OSC;
#X obj 553 336 0;
#X obj 379 104 inlet~ isactive;
#X text 182 421 tabsize * 2;
#X obj 399 535 paramrandom~;
#X obj 87 485 *~;
#X obj 554 114 t b b;
#X obj 555 143 s \$0-set;
#X obj 328 251 r \$0-set;
#X obj 554 93 sel 1 0;
#X obj 554 356 s \$0-phasereset;
#X obj 86 334 *~;
#X obj 87 195 ms2hz~;
#X obj 86 314 *~;
#N canvas 0 0 467 525 semitones2hz 0;
#X obj 116 189 outlet;
#X obj 118 112 exp;
#X obj 118 135 - 1;
#X obj 118 86 * 0.05776;
#X obj 118 161 * -1;
#X text 226 213 stolen from G09.pitchshift;
#X obj 118 59 inlet semitones;
#X connect 1 0 2 0;
#X connect 2 0 4 0;
#X connect 3 0 1 0;
#X connect 4 0 0 0;
#X connect 6 0 3 0;
#X restore 89 144 pd semitones2hz;
#X obj 552 307 delay;
#X obj 424 338 threshold~ 1 0 0.1 0;
#X obj 87 217 *~ 0.5;
#X obj 85 278 *~ 2;
#X obj 158 391 <~ 1;
#X obj 87 509 *~;
#X obj 88 241 phasor~;
#X obj 88 538 *~;
#X obj 228 598 outlet~;
#X obj 151 521 *~;
#X floatatom 482 275 5 0 0 0 - - -;
#X obj 191 326 max~;
#X obj 195 283 *~;
#X obj 129 263 <~ 0;
#X obj 158 267 *~;
#X obj 128 282 *~ -1;
#X obj 154 449 *~ 511;
#X obj 220 169 OSCroute /transpdevq;
#N canvas 357 257 523 397 parmaskinka 0;
#X obj 575 139 s \$0-set;
#X obj 105 148 sig~;
#X obj 107 46 inlet param;
#X obj 197 -3 inlet deviation;
#X obj 107 215 outlet~;
#X obj 107 79 t f b f;
#X obj 7 32 inlet change;
#X obj 105 117 f;
#X obj 106 181 +~;
#X obj 299 23 inlet quantize;
#N canvas 0 0 450 300 random 0;
#X obj 132 54 random 1e+06;
#N canvas 0 0 467 525 semitones2hz 0;
#X obj 116 189 outlet;
#X obj 118 112 exp;
#X obj 118 135 - 1;
#X obj 118 86 * 0.05776;
#X obj 118 161 * -1;
#X text 226 213 stolen from G09.pitchshift;
#X obj 118 59 inlet semitones;
#X connect 1 0 2 0;
#X connect 2 0 4 0;
#X connect 3 0 1 0;
#X connect 4 0 0 0;
#X connect 6 0 3 0;
#X restore 161 240 pd semitones2hz;
#X obj 132 2 inlet;
#X obj 133 75 * 1e-06;
#X obj 149 101 *;
#X obj 130 28 t b;
#X obj 185 12 inlet;
#X obj 133 184 int;
#X obj 176 102 * 2;
#X obj 153 141 -;
#X obj 164 265 outlet;
#X obj 227 137 inlet;
#X obj 225 158 sel 0;
#X msg 284 205;
#X obj 225 185 1e+06;
#X floatatom 41 220 5 0 0 0 - - -;
#X obj 61 31 bng 15 250 50 0 empty empty empty 0 -6 0 8 -262144 -1
-1;
#X floatatom 202 80 5 0 0 0 - - -;
#X floatatom 88 205 5 0 0 0 - - -;
#X floatatom 75 158 5 0 0 0 - - -;
#X obj 133 165 * 1e+06;
#X obj 134 203 / 1e+06;
#X msg 227 110 2;
#X connect 0 0 3 0;
#X connect 1 0 10 0;
#X connect 2 0 5 0;
#X connect 3 0 20 0;
#X connect 4 0 9 0;
#X connect 5 0 0 0;
#X connect 6 0 8 0;
#X connect 6 0 9 1;
#X connect 7 0 18 0;
#X connect 7 0 21 0;
#X connect 8 0 4 1;
#X connect 9 0 15 0;
#X connect 9 0 1 0;
#X connect 11 0 12 0;
#X connect 12 0 14 0;
#X connect 12 1 20 1;
#X connect 12 1 21 1;
#X connect 14 0 20 1;
#X connect 14 0 21 1;
#X connect 16 0 5 0;
#X connect 17 0 8 0;
#X connect 17 0 9 1;
#X connect 20 0 7 0;
#X connect 20 0 19 0;
#X connect 21 0 4 0;
#X connect 22 0 12 0;
#X restore 192 60 pd random;
#X floatatom 301 57 5 0 0 0 - - -;
#X connect 1 0 8 0;
#X connect 2 0 5 0;
#X connect 3 0 10 1;
#X connect 5 0 7 1;
#X connect 6 0 7 0;
#X connect 6 0 10 0;
#X connect 7 0 1 0;
#X connect 8 0 4 0;
#X connect 9 0 10 2;
#X connect 9 0 11 0;
#X connect 10 0 8 1;
#X restore 105 176 pd parmaskinka;
#X obj 524 534 paramrandom~;
#X obj 398 277 paramrandom~;
#X obj 235 224 paramrandom~;
#X connect 0 0 1 0;
#X connect 1 0 4 0;
#X connect 2 0 36 0;
#X connect 4 0 27 0;
#X connect 4 0 46 0;
#X connect 5 0 7 0;
#X connect 6 0 42 1;
#X connect 6 0 46 1;
#X connect 10 0 31 0;
#X connect 11 0 19 0;
#X connect 11 1 26 2;
#X connect 11 2 21 0;
#X connect 11 3 56 2;
#X connect 12 0 8 0;
#X connect 13 0 12 1;
#X connect 14 0 13 0;
#X connect 15 0 9 0;
#X connect 16 0 2 0;
#X connect 16 1 55 2;
#X connect 16 2 17 0;
#X connect 16 2 54 0;
#X connect 17 0 58 1;
#X connect 17 1 58 2;
#X connect 17 2 18 0;
#X connect 18 0 57 1;
#X connect 18 1 57 2;
#X connect 18 2 11 0;
#X connect 19 0 20 0;
#X connect 20 0 26 1;
#X connect 21 0 56 1;
#X connect 22 0 16 0;
#X connect 23 0 7 0;
#X connect 23 0 32 0;
#X connect 23 0 43 1;
#X connect 24 0 56 3;
#X connect 24 0 26 3;
#X connect 24 0 57 3;
#X connect 24 0 58 3;
#X connect 26 0 27 1;
#X connect 27 0 42 0;
#X connect 28 0 5 0;
#X connect 28 1 29 0;
#X connect 30 0 26 0;
#X connect 30 0 55 0;
#X connect 30 0 56 0;
#X connect 30 0 57 0;
#X connect 30 0 58 0;
#X connect 31 0 28 0;
#X connect 33 0 0 0;
#X connect 34 0 39 0;
#X connect 35 0 33 0;
#X connect 36 0 55 1;
#X connect 37 0 23 0;
#X connect 38 0 37 0;
#X connect 39 0 43 0;
#X connect 40 0 38 0;
#X connect 40 0 41 0;
#X connect 40 0 35 0;
#X connect 40 0 53 0;
#X connect 41 0 44 1;
#X connect 42 0 44 0;
#X connect 43 0 40 0;
#X connect 44 0 12 0;
#X connect 44 0 15 0;
#X connect 46 0 45 0;
#X connect 48 0 0 1;
#X connect 49 0 48 0;
#X connect 50 0 52 0;
#X connect 51 0 49 0;
#X connect 52 0 51 0;
#X connect 53 0 6 0;
#X connect 54 0 55 3;
#X connect 55 0 35 1;
#X connect 55 0 50 0;
#X connect 55 0 51 1;
#X connect 56 0 15 1;
#X connect 56 0 14 0;
#X connect 57 0 48 1;
#X connect 58 0 33 1;
#X connect 58 0 34 0;
#X connect 58 0 49 1;
#X restore 245 172 pd compute;
#X obj 242 232 throw~ \$1-L;
#X obj 307 257 throw~ \$1-R;
#X obj 299 87 snapshot~;
#X obj 380 71 bang~;
#X obj 300 105 change;
#X obj 298 25 r~ \$1-trig;
#X obj 300 126 == \$2;
#X obj 316 165 change;
#X obj 264 62 ==~ \$2;
#X obj 265 86 *~ -1;
#X connect 0 0 1 0;
#X connect 0 1 2 0;
#X connect 3 0 5 0;
#X connect 4 0 3 0;
#X connect 5 0 7 0;
#X connect 6 0 3 0;
#X connect 6 0 9 0;
#X connect 7 0 8 0;
#X connect 8 0 0 1;
#X connect 9 0 10 0;
#X connect 10 0 0 0;
