#N canvas 164 22 766 746 10;
#N canvas 315 33 702 636 compute 0;
#X obj 86 314 +~;
#N canvas 0 0 467 525 semitones2hz 0;
#X obj 116 189 outlet;
#X obj 118 112 exp;
#X obj 118 135 - 1;
#X obj 118 86 * 0.05776;
#X obj 118 161 * -1;
#X text 226 213 stolen from G09.pitchshift;
#X obj 118 59 inlet semitones;
#X connect 1 0 2 0;
#X connect 2 0 4 0;
#X connect 3 0 1 0;
#X connect 4 0 0 0;
#X connect 6 0 3 0;
#X restore 88 145 pd semitones2hz;
#X obj 86 367 vd~ \$1-k;
#X obj 88 122 change;
#X text 282 486 aus abstraction winfader;
#N canvas 0 0 450 300 stuff 0;
#X obj 163 16 inlet~;
#X obj 163 241 outlet~;
#X connect 0 0 1 0;
#X restore 87 397 pd stuff;
#X obj 619 121 1;
#X obj 152 476 tabread~ \$1-window;
#X obj 618 201 switch~ 64;
#X obj 90 624 outlet~;
#X obj 140 624 outlet~;
#X obj 458 32 inlet switch;
#X obj 433 463 OSCroute /vol /voldev /pan /pandev;
#X obj 88 572 *~;
#X obj 110 557 +~ 1;
#X obj 109 538 *~ -1;
#X obj 140 577 *~;
#X obj 88 82 OSCroute /transp /transpdev;
#X obj 257 200 OSCroute /size /sizedev;
#X obj 153 430 +~;
#X obj 383 235 OSCroute /delay /delaydev;
#X obj 270 451 +~ 0;
#X obj 433 488 / 100;
#X obj 433 512 01toquartic;
#X obj 525 500 / 100;
#X obj 89 47 r \$1-OSC;
#X obj 207 354 phasor~;
#X obj 233 383 samphold~;
#X obj 206 386 -~;
#X obj 240 317 +~ 0.01;
#X obj 206 332 /~;
#X obj 553 336 0;
#X obj 372 52 inlet~ isactive;
#X obj 271 45 inlet~ phase;
#X obj 153 402 *~ 1022;
#X obj 207 296 sig~ 500;
#X text 297 387 click-avoider;
#X text 185 417 tabsize * 2;
#X obj 247 231 paramrandom~;
#X obj 399 535 paramrandom~;
#X obj 524 534 paramrandom~;
#X obj 384 282 paramrandom~;
#X obj 86 496 *~;
#X obj 554 114 t b b;
#X obj 555 143 s \$0-set;
#X obj 328 251 r \$0-set;
#N canvas 209 47 450 300 parm 0;
#X obj 575 139 s \$0-set;
#X obj 105 148 sig~;
#X obj 191 132 samphold~;
#X obj 190 99 noise~;
#X obj 192 166 *~;
#X obj 106 181 +~;
#X obj 296 54 inlet~ trig;
#X obj 107 46 inlet param;
#X obj 197 -3 inlet deviation;
#X obj 107 215 outlet~;
#X obj 107 79 t f b f;
#X obj 200 26 / 100;
#X obj 7 32 inlet change;
#X obj 105 117 f;
#X obj 218 158 f;
#X obj 197 76 * 36;
#X obj 199 53 01toquartic;
#X connect 1 0 5 0;
#X connect 2 0 4 0;
#X connect 3 0 2 0;
#X connect 4 0 5 1;
#X connect 5 0 9 0;
#X connect 6 0 2 1;
#X connect 7 0 10 0;
#X connect 8 0 11 0;
#X connect 10 0 13 1;
#X connect 11 0 16 0;
#X connect 12 0 14 0;
#X connect 12 0 13 0;
#X connect 13 0 1 0;
#X connect 14 0 4 1;
#X connect 15 0 14 1;
#X connect 16 0 15 0;
#X restore 88 176 pd parm;
#X obj 554 93 sel 1 0;
#X obj 274 140 +~;
#X msg 312 354 0;
#X obj 554 356 s \$0-phasereset;
#X obj 88 241 phasor+~;
#X obj 312 597 outlet~;
#X obj 86 288 *~;
#X obj 114 198 *~ 0.001;
#X obj 88 216 /~;
#X obj 159 222 _j/undenormal~;
#X obj 87 523 *~;
#X obj 400 311 threshold~ 0.58 0 0.1 0;
#X obj 25 269 snapshot~;
#X floatatom 19 200 5 0 0 0 - - -;
#X obj 27 292 print;
#X obj 23 245 speedlim 4;
#X obj 20 221 bang~;
#X connect 0 0 2 0;
#X connect 1 0 46 1;
#X connect 2 0 5 0;
#X connect 3 0 1 0;
#X connect 5 0 42 0;
#X connect 6 0 8 0;
#X connect 7 0 57 1;
#X connect 11 0 47 0;
#X connect 12 0 22 0;
#X connect 12 1 39 2;
#X connect 12 2 24 0;
#X connect 12 3 40 2;
#X connect 13 0 9 0;
#X connect 14 0 13 1;
#X connect 15 0 14 0;
#X connect 16 0 10 0;
#X connect 17 0 3 0;
#X connect 17 1 46 2;
#X connect 17 2 18 0;
#X connect 18 0 38 1;
#X connect 18 1 38 2;
#X connect 18 2 20 0;
#X connect 19 0 7 0;
#X connect 20 0 41 1;
#X connect 20 1 41 2;
#X connect 20 2 12 0;
#X connect 21 0 39 3;
#X connect 21 0 40 3;
#X connect 22 0 23 0;
#X connect 23 0 39 1;
#X connect 24 0 40 1;
#X connect 25 0 17 0;
#X connect 26 0 27 0;
#X connect 26 0 28 0;
#X connect 26 0 58 0;
#X connect 27 0 28 1;
#X connect 28 0 34 0;
#X connect 29 0 30 1;
#X connect 30 0 26 0;
#X connect 31 0 8 0;
#X connect 31 0 50 0;
#X connect 32 0 48 1;
#X connect 33 0 51 1;
#X connect 34 0 19 0;
#X connect 35 0 30 0;
#X connect 38 0 29 0;
#X connect 38 0 53 1;
#X connect 38 0 54 0;
#X connect 39 0 42 1;
#X connect 40 0 16 1;
#X connect 40 0 15 0;
#X connect 41 0 0 1;
#X connect 42 0 57 0;
#X connect 43 0 6 0;
#X connect 43 1 44 0;
#X connect 45 0 41 0;
#X connect 45 0 38 0;
#X connect 45 0 39 0;
#X connect 45 0 40 0;
#X connect 45 0 46 0;
#X connect 45 0 49 0;
#X connect 46 0 55 0;
#X connect 47 0 43 0;
#X connect 48 0 21 0;
#X connect 48 0 27 1;
#X connect 48 0 38 3;
#X connect 48 0 41 3;
#X connect 48 0 46 3;
#X connect 49 0 26 1;
#X connect 51 0 52 0;
#X connect 51 0 53 0;
#X connect 51 0 59 0;
#X connect 53 0 0 0;
#X connect 54 0 55 1;
#X connect 55 0 51 0;
#X connect 56 0 54 0;
#X connect 57 0 13 0;
#X connect 57 0 16 0;
#X connect 58 0 31 0;
#X connect 62 0 59 0;
#X connect 63 0 62 0;
#X restore 245 172 pd compute;
#X obj 242 232 throw~ \$1-L;
#X obj 307 257 throw~ \$1-R;
#X obj 299 87 snapshot~;
#X obj 380 71 bang~;
#X obj 300 105 change;
#X obj 298 25 r~ \$1-trig;
#X obj 300 126 == \$2;
#X obj 316 165 change;
#X obj 264 62 ==~ \$2;
#X obj 265 86 *~ -1;
#X obj 165 81 inlet~ phase;
#X obj 403 260 outlet~;
#X obj 421 218 samphold~;
#X obj 422 192 z~ 1;
#X obj 183 125 samphold~;
#X connect 0 0 1 0;
#X connect 0 1 2 0;
#X connect 0 2 13 1;
#X connect 0 2 14 0;
#X connect 3 0 5 0;
#X connect 4 0 3 0;
#X connect 5 0 7 0;
#X connect 6 0 3 0;
#X connect 6 0 9 0;
#X connect 7 0 8 0;
#X connect 8 0 0 2;
#X connect 9 0 10 0;
#X connect 10 0 0 1;
#X connect 10 0 15 1;
#X connect 11 0 15 0;
#X connect 13 0 12 0;
#X connect 14 0 13 0;
#X connect 15 0 0 0;
