#N canvas 489 119 841 743 10;
#N canvas 105 44 896 762 compute 0;
#X obj 92 13 change;
#X obj 86 671 outlet~;
#X obj 139 671 outlet~;
#X obj 87 375 +~;
#X obj 87 401 vd~ \$1-k;
#X obj 697 442 1;
#X obj 635 481 switch~ 64;
#X obj 87 619 *~;
#X obj 141 567 *~;
#X obj 635 409 0;
#X obj 87 485 *~;
#X obj 86 343 *~;
#N canvas 10 66 467 525 semitones2hz 0;
#X obj 116 189 outlet;
#X obj 118 112 exp;
#X obj 118 135 - 1;
#X obj 118 86 * 0.05776;
#X obj 118 161 * -1;
#X text 226 213 stolen from G09.pitchshift;
#X obj 118 59 inlet semitones;
#X connect 1 0 2 0;
#X connect 2 0 4 0;
#X connect 3 0 1 0;
#X connect 4 0 0 0;
#X connect 6 0 3 0;
#X restore 92 33 pd semitones2hz;
#N canvas 75 146 764 716 parmaskinka 0;
#X obj 107 46 inlet param;
#X obj 107 79 t f b f;
#X obj 105 117 f;
#N canvas 20 110 589 695 random 0;
#X obj 132 54 random 1e+06;
#N canvas 5 44 467 525 semitones2hz 0;
#X obj 116 189 outlet;
#X obj 118 112 exp;
#X obj 118 135 - 1;
#X obj 118 86 * 0.05776;
#X obj 118 161 * -1;
#X text 226 213 stolen from G09.pitchshift;
#X obj 118 59 inlet semitones;
#X connect 1 0 2 0;
#X connect 2 0 4 0;
#X connect 3 0 1 0;
#X connect 4 0 0 0;
#X connect 6 0 3 0;
#X restore 183 341 pd semitones2hz;
#X obj 132 2 inlet;
#X obj 133 75 * 1e-06;
#X obj 179 273 *;
#X obj 214 20 inlet;
#X obj 133 184 int;
#X obj 186 366 outlet;
#X obj 237 110 inlet;
#X obj 235 131 sel 0;
#X obj 232 192 1e+06;
#X obj 133 131 * 1e+06;
#X obj 134 203 / 1e+06;
#X obj 130 28 t b b;
#X obj 316 208 random 2;
#X obj 316 229 sel 0;
#X obj 316 250 -1;
#X obj 179 298 *;
#X floatatom 315 158 5 0 0 0 - - -;
#X obj 133 157 + 0.5;
#X connect 0 0 3 0;
#X connect 1 0 7 0;
#X connect 2 0 13 0;
#X connect 3 0 11 0;
#X connect 4 0 17 0;
#X connect 5 0 4 1;
#X connect 6 0 12 0;
#X connect 8 0 9 0;
#X connect 9 0 10 0;
#X connect 9 1 11 1;
#X connect 9 1 12 1;
#X connect 10 0 11 1;
#X connect 10 0 12 1;
#X connect 11 0 19 0;
#X connect 12 0 4 0;
#X connect 13 0 0 0;
#X connect 13 1 14 0;
#X connect 14 0 15 0;
#X connect 15 0 16 0;
#X connect 15 1 17 1;
#X connect 16 0 17 1;
#X connect 17 0 1 0;
#X connect 19 0 6 0;
#X restore 192 60 pd random;
#X obj 37 31 t f b b;
#X obj 106 181 +;
#X obj 299 23 r \$1-/transpdevq;
#X obj 74 280 s \$0-pitch;
#X obj 31 6 r \$0-trig;
#X obj 217 0 r \$1-/transpdev;
#X connect 0 0 1 0;
#X connect 1 0 2 1;
#X connect 2 0 5 0;
#X connect 3 0 5 1;
#X connect 4 1 2 0;
#X connect 4 2 3 0;
#X connect 5 0 7 0;
#X connect 6 0 3 2;
#X connect 8 0 4 0;
#X connect 9 0 3 1;
#X restore 208 131 pd parmaskinka;
#X msg 664 362 stop;
#X obj 190 73 t b f;
#X text 45 374 delay;
#X text 42 313 pitch;
#X obj 176 234 f;
#N canvas 25 173 487 689 pitc 0;
#X obj 88 112 *;
#X obj 198 15 inlet;
#X obj 87 231 outlet;
#X obj 270 38 inlet;
#X obj 199 60 t f f f;
#X obj 210 109 *;
#X obj 255 246 spigot 1;
#X obj 87 194 spigot;
#X obj 306 220 == 0;
#X obj 289 187 t f f;
#X obj 87 144 pack f f f;
#X msg 87 169 \$3 0 \, \$1 \$2 0;
#X msg 195 172 \$1 0;
#X obj 88 78 f;
#X obj 200 35 t b f;
#X obj 335 38 r \$1-/gliss;
#X obj 91 30 r \$0-pitch;
#X connect 0 0 10 0;
#X connect 1 0 14 0;
#X connect 3 0 5 1;
#X connect 4 0 0 1;
#X connect 4 1 10 1;
#X connect 4 2 5 0;
#X connect 5 0 10 2;
#X connect 6 0 2 0;
#X connect 7 0 2 0;
#X connect 8 0 6 1;
#X connect 9 0 7 1;
#X connect 9 1 8 0;
#X connect 10 0 11 0;
#X connect 10 0 12 0;
#X connect 11 0 7 0;
#X connect 12 0 6 0;
#X connect 13 0 0 0;
#X connect 14 0 13 0;
#X connect 14 1 4 0;
#X connect 15 0 9 0;
#X connect 16 0 13 0;
#X restore 140 279 pd pitc;
#X obj 87 509 *~;
#X obj 155 397 *~ 512;
#X obj 155 420 +~ 1;
#X obj 155 445 tabread4~ \$1-window;
#X obj 244 535 t f f;
#X obj 271 556 * -1;
#X obj 272 575 + 1;
#X obj 139 298 vline~;
#X obj 635 386 delay 55;
#X obj 86 259 vline~;
#X msg 86 229 0 \, 1 \$1;
#X obj 86 182 t f f f f b;
#X obj 634 364 + 4;
#X obj 190 98 * 1;
#X obj 300 666 outlet~;
#X obj 300 645 *~;
#X obj 666 340 r \$0-trig;
#X obj 697 419 r \$0-trig;
#N canvas 25 132 450 300 pan 0;
#X obj 45 31 deviation 0 0 0 1;
#X obj 54 131 outlet;
#X obj 24 -8 r \$0-trig;
#X obj 109 10 r \$1-/pandev;
#X obj 46 10 r \$1-/pan;
#X obj 48 69 f;
#X connect 0 0 5 1;
#X connect 2 0 5 0;
#X connect 3 0 0 1;
#X connect 4 0 0 0;
#X connect 5 0 1 0;
#X restore 244 513 pd pan;
#N canvas 25 132 450 300 send 0;
#X obj 75 63 deviation 0 0 0 1;
#X obj 59 130 outlet;
#X obj 26 15 r \$0-trig;
#X obj 75 37 r \$1-/send;
#X obj 139 36 r \$1-/senddev;
#X obj 59 107 f;
#X connect 0 0 5 1;
#X connect 2 0 5 0;
#X connect 3 0 0 0;
#X connect 4 0 0 1;
#X connect 5 0 1 0;
#X restore 315 619 pd send;
#N canvas 30 154 450 300 vol 0;
#X obj 45 31 deviation 0 0 0 1;
#X obj 46 90 outlet;
#X obj 10 -14 r \$0-trig;
#X obj 109 10 r \$1-/voldev;
#X obj 46 10 r \$1-/vol;
#X obj 8 11 f;
#X connect 0 0 5 1;
#X connect 2 0 5 0;
#X connect 3 0 0 1;
#X connect 4 0 0 0;
#X connect 5 0 1 0;
#X restore 102 458 pd vol;
#N canvas 70 330 450 300 size 0;
#X obj 7 -27 r \$0-trig;
#X obj 44 12 * 5000;
#X obj 44 -9 r \$1-/size;
#X obj 109 10 r \$1-/sizedev;
#X obj 44 44 deviation 0 0 5 800;
#X obj 43 118 outlet;
#X obj 24 82 f;
#X connect 0 0 6 0;
#X connect 1 0 4 0;
#X connect 2 0 1 0;
#X connect 3 0 4 1;
#X connect 4 0 6 1;
#X connect 6 0 5 0;
#X restore 86 158 pd size;
#X obj 238 357 max;
#X obj 236 274 < 0;
#X obj 236 254 t f f;
#X obj 237 293 * -1;
#X obj 237 315 *;
#X obj 237 336 *;
#N canvas 40 198 450 300 delay 0;
#X obj 43 118 outlet;
#X obj 5 30 r \$0-trig;
#X obj 44 -9 r \$1-/delay;
#X obj 109 10 r \$1-/delaydev;
#X obj 46 44 deviation 0 0 0 5000;
#X obj 44 12 * 5000;
#X obj 11 74 f;
#X connect 1 0 6 0;
#X connect 2 0 5 0;
#X connect 3 0 4 1;
#X connect 4 0 6 1;
#X connect 5 0 4 0;
#X connect 6 0 0 0;
#X restore 266 325 pd delay;
#X obj 236 234 r \$0-pitch;
#X obj 190 51 r \$1-/globalpitch;
#X obj 92 -10 r \$1-/transp;
#X text 354 663 Per-grain random-amp send;
#X connect 0 0 12 0;
#X connect 3 0 4 0;
#X connect 4 0 10 0;
#X connect 5 0 6 0;
#X connect 7 0 1 0;
#X connect 7 0 35 0;
#X connect 8 0 2 0;
#X connect 9 0 6 0;
#X connect 10 0 20 0;
#X connect 11 0 3 0;
#X connect 12 0 33 0;
#X connect 14 0 28 0;
#X connect 15 0 33 0;
#X connect 15 1 33 1;
#X connect 18 0 19 1;
#X connect 19 0 27 0;
#X connect 20 0 7 0;
#X connect 20 0 8 0;
#X connect 21 0 22 0;
#X connect 22 0 23 0;
#X connect 23 0 20 1;
#X connect 24 0 8 1;
#X connect 24 1 25 0;
#X connect 25 0 26 0;
#X connect 26 0 7 1;
#X connect 27 0 11 1;
#X connect 28 0 9 0;
#X connect 29 0 11 0;
#X connect 29 0 21 0;
#X connect 30 0 29 0;
#X connect 31 0 30 0;
#X connect 31 1 47 1;
#X connect 31 2 19 0;
#X connect 31 3 32 0;
#X connect 31 4 18 0;
#X connect 32 0 28 0;
#X connect 33 0 13 0;
#X connect 33 0 18 1;
#X connect 35 0 34 0;
#X connect 36 0 14 0;
#X connect 37 0 5 0;
#X connect 38 0 24 0;
#X connect 39 0 35 1;
#X connect 40 0 10 1;
#X connect 41 0 31 0;
#X connect 42 0 3 1;
#X connect 43 0 45 0;
#X connect 44 0 43 0;
#X connect 44 1 46 1;
#X connect 45 0 46 0;
#X connect 46 0 47 0;
#X connect 47 0 42 0;
#X connect 48 0 42 1;
#X connect 49 0 44 0;
#X connect 50 0 15 0;
#X connect 51 0 0 0;
#X restore 245 172 pd compute;
#X obj 87 112 r \$1-trig;
#X obj 245 237 outlet~;
#X obj 274 214 outlet~;
#X obj 303 194 outlet~;
#X obj 86 136 sel \$2;
#X obj 87 159 s \$0-trig;
#X connect 0 0 2 0;
#X connect 0 1 3 0;
#X connect 0 2 4 0;
#X connect 1 0 5 0;
#X connect 5 0 6 0;
