#N canvas 85 7 931 693 10;
#N canvas 442 113 554 506 grains 0;
#N canvas 0 0 659 417 switch 0;
#X obj 49 17 gdcell2.1 \$0 1 3000;
#X obj 59 37 gdcell2.1 \$0 2 3000;
#X obj 69 57 gdcell2.1 \$0 3 3000;
#X obj 79 77 gdcell2.1 \$0 4 3000;
#X obj 89 97 gdcell2.1 \$0 5 3000;
#X obj 99 117 gdcell2.1 \$0 6 3000;
#X obj 111 137 gdcell2.1 \$0 7 3000;
#X obj 119 157 gdcell2.1 \$0 8 3000;
#X obj 60 196 gdcell2.1 \$0 9 3000;
#X obj 70 216 gdcell2.1 \$0 10 3000;
#X obj 80 236 gdcell2.1 \$0 11 3000;
#X obj 90 256 gdcell2.1 \$0 12 3000;
#X obj 100 276 gdcell2.1 \$0 13 3000;
#X obj 110 296 gdcell2.1 \$0 14 3000;
#X obj 122 316 gdcell2.1 \$0 15 3000;
#X obj 130 336 gdcell2.1 \$0 16 3000;
#X obj 249 17 gdcell2.1 \$0 17 3000;
#X obj 260 38 gdcell2.1 \$0 18 3000;
#X obj 269 57 gdcell2.1 \$0 19 3000;
#X obj 279 77 gdcell2.1 \$0 20 3000;
#X obj 289 97 gdcell2.1 \$0 21 3000;
#X obj 299 117 gdcell2.1 \$0 22 3000;
#X obj 311 137 gdcell2.1 \$0 23 3000;
#X obj 319 157 gdcell2.1 \$0 24 3000;
#X obj 260 196 gdcell2.1 \$0 25 3000;
#X obj 270 216 gdcell2.1 \$0 26 3000;
#X obj 280 236 gdcell2.1 \$0 27 3000;
#X obj 290 256 gdcell2.1 \$0 28 3000;
#X obj 300 276 gdcell2.1 \$0 29 3000;
#X obj 310 296 gdcell2.1 \$0 30 3000;
#X obj 322 316 gdcell2.1 \$0 31 3000;
#X restore 224 87 pd switch;
#X obj 105 142 gdcell2.1 \$0 0 3000;
#X restore 761 224 pd grains;
#X obj 644 530 catch~ \$0-L;
#X obj 728 535 catch~ \$0-R;
#X obj 598 99 == 0;
#X obj 502 98 volctl~ 0 10;
#X obj 530 186 volctl~ 0 10;
#X text 28 7 TODO: randomize parameters (gaussian) \, density function
\, bpfilter (or similar) \, feedback.;
#X text 63 46 BUGS: CPU hogging. denormals?;
#X obj 548 74 init 1;
#X obj 416 307 OSCroute /onoff;
#X obj 608 442 switchdelay 20;
#X obj 727 569 volctl~ 0 20;
#X obj 644 560 volctl~ 0 20;
#X obj 643 468 switch~;
#X obj 501 22 inlet~;
#X obj 645 584 outlet~;
#X obj 730 590 outlet~;
#X obj 565 609 _j/undenormal~;
#X obj 712 104 singleton win512 windowing 512;
#X obj 640 194 t f f;
#X obj 640 217 sel 0;
#X obj 809 301 / 100;
#X obj 820 352 01toquartic;
#X obj 640 243 0;
#X obj 767 19 table \$0-trigr 64;
#N canvas 0 0 450 300 generate 0;
#X obj 124 21 loadbang;
#X obj 124 91 0;
#X obj 154 91 + 1;
#X msg 124 44 64;
#X obj 124 68 until;
#X obj 109 196 tabwrite \$0-trigr;
#X obj 123 135 t f f;
#X connect 0 0 3 0;
#X connect 1 0 2 0;
#X connect 1 0 6 0;
#X connect 2 0 1 1;
#X connect 3 0 4 0;
#X connect 4 0 1 0;
#X connect 6 0 5 0;
#X connect 6 1 5 1;
#X restore 767 37 pd generate;
#X obj 76 583 phasor~;
#X obj 76 447 ms2hz;
#X obj 75 467 sig~;
#X obj 210 495 noise~;
#X obj 154 491 *~;
#X obj 76 511 /~ 32;
#X obj 338 478 s \$0-OSC;
#X obj 77 629 tabread~ \$0-trigr;
#X obj 76 602 *~ 32;
#X obj 71 669 s~ \$0-trig;
#X obj 75 423 t f b f;
#X obj 75 398 max 0.1;
#X obj 190 447 prepent /size;
#X obj 191 422 *;
#X obj 216 417 / 100;
#X obj 75 366 OSCroute /speed /speeddev /size /delay;
#X obj 268 390 * 10;
#X obj 76 490 *~;
#X obj 76 534 min~ 17.82;
#X obj 82 560 samphold~;
#X obj 175 560 r~ \$0-eryui;
#X obj 188 620 s~ \$0-eryui;
#X obj 142 602 wrap~;
#X obj 191 394 t b f f;
#X obj 538 255 hip~ 5;
#X obj 680 199 == 0;
#X obj 581 222 spigot 1;
#N canvas 429 0 450 300 delay 0;
#X obj 98 19 inlet;
#X obj 261 9 inlet;
#X obj 97 51 f;
#X obj 262 30 / 50;
#X obj 264 61 - 1;
#X obj 120 172 t b f f;
#X obj 102 244 delay;
#X obj 60 209 speedlim 20;
#X obj 121 119 +;
#X obj 167 295 outlet;
#X obj 165 102 * 0;
#X obj 137 50 random 100;
#X obj 97 80 t f b f;
#X obj 119 146 mod 5000;
#X connect 0 0 2 0;
#X connect 1 0 3 0;
#X connect 2 0 12 0;
#X connect 3 0 4 0;
#X connect 4 0 10 1;
#X connect 5 0 7 0;
#X connect 5 1 6 1;
#X connect 5 2 9 0;
#X connect 6 0 2 0;
#X connect 7 0 6 0;
#X connect 8 0 13 0;
#X connect 10 0 8 1;
#X connect 11 0 10 0;
#X connect 12 0 8 0;
#X connect 12 1 11 0;
#X connect 12 2 11 1;
#X connect 13 0 5 0;
#X restore 359 402 pd delay;
#X obj 343 373 OSCroute /delaydev;
#X obj 123 513 pow~;
#X obj 121 476 sig~ 2;
#X obj 148 425 / 100;
#X msg 189 532 reset;
#X obj 232 530 sel 1;
#X obj 417 216 r OSC;
#X obj 273 426 prepent /delay;
#X obj 550 648 delwrite~ \$0-k 10000;
#X obj 529 165 mydelread~ \$0-k 5000;
#X obj 401 268 OSCroute /grandel;
#X obj 576 296 winfader-single \$0;
#X obj 576 276 OSCroute /window /freeze /feedbk;
#X connect 1 0 12 0;
#X connect 2 0 11 0;
#X connect 3 0 4 1;
#X connect 4 0 62 0;
#X connect 5 0 50 0;
#X connect 8 0 4 1;
#X connect 9 0 10 0;
#X connect 9 0 11 1;
#X connect 9 0 12 1;
#X connect 9 0 59 0;
#X connect 9 1 66 0;
#X connect 10 0 13 0;
#X connect 11 0 16 0;
#X connect 12 0 15 0;
#X connect 14 0 4 0;
#X connect 17 0 62 0;
#X connect 19 0 20 0;
#X connect 19 1 5 1;
#X connect 19 1 51 0;
#X connect 20 0 23 0;
#X connect 21 0 22 0;
#X connect 22 0 23 0;
#X connect 23 0 52 0;
#X connect 26 0 34 0;
#X connect 27 0 28 0;
#X connect 28 0 43 0;
#X connect 29 0 30 0;
#X connect 30 0 55 0;
#X connect 31 0 44 0;
#X connect 33 0 35 0;
#X connect 34 0 33 0;
#X connect 34 0 48 0;
#X connect 36 0 27 0;
#X connect 36 2 39 0;
#X connect 37 0 36 0;
#X connect 38 0 32 0;
#X connect 39 0 38 0;
#X connect 40 0 39 1;
#X connect 41 0 37 0;
#X connect 41 1 57 0;
#X connect 41 2 49 0;
#X connect 41 3 42 0;
#X connect 41 4 32 0;
#X connect 41 4 54 0;
#X connect 42 0 53 0;
#X connect 42 0 61 0;
#X connect 43 0 31 0;
#X connect 44 0 45 0;
#X connect 45 0 26 0;
#X connect 46 0 45 1;
#X connect 48 0 47 0;
#X connect 49 0 39 0;
#X connect 49 1 40 0;
#X connect 50 0 62 0;
#X connect 51 0 52 1;
#X connect 52 0 5 1;
#X connect 53 0 63 0;
#X connect 54 0 53 1;
#X connect 55 0 43 1;
#X connect 56 0 55 1;
#X connect 57 0 30 1;
#X connect 58 0 45 0;
#X connect 59 0 58 0;
#X connect 60 0 64 0;
#X connect 61 0 32 0;
#X connect 63 0 5 0;
#X connect 64 0 9 0;
#X connect 64 0 41 0;
#X connect 66 0 65 0;
#X connect 66 1 19 0;
#X connect 66 1 3 0;
#X connect 66 2 21 0;
