#N canvas 187 79 1147 732 10;
#X declare -lib hcs;
#X declare -lib list-abs -lib mrpeach;
#X declare -lib list-abs -lib mrpeach;
#N canvas 495 173 691 689 grains 0;
#N canvas 257 48 1178 762 switch 0;
#X obj 27 369 outlet~;
#X obj 581 213 outlet~;
#X obj 762 448 outlet~;
#X obj 49 17 gdcell2.3 \$0 1 3000;
#X obj 59 37 gdcell2.3 \$0 2 3000;
#X obj 69 57 gdcell2.3 \$0 3 3000;
#X obj 79 77 gdcell2.3 \$0 4 3000;
#X obj 89 97 gdcell2.3 \$0 5 3000;
#X obj 99 117 gdcell2.3 \$0 6 3000;
#X obj 111 137 gdcell2.3 \$0 7 3000;
#X obj 119 157 gdcell2.3 \$0 8 3000;
#X obj 60 196 gdcell2.3 \$0 9 3000;
#X obj 70 216 gdcell2.3 \$0 10 3000;
#X obj 80 236 gdcell2.3 \$0 11 3000;
#X obj 90 256 gdcell2.3 \$0 12 3000;
#X obj 100 276 gdcell2.3 \$0 13 3000;
#X obj 110 296 gdcell2.3 \$0 14 3000;
#X obj 122 316 gdcell2.3 \$0 15 3000;
#X obj 130 336 gdcell2.3 \$0 16 3000;
#X obj 249 17 gdcell2.3 \$0 17 3000;
#X obj 260 38 gdcell2.3 \$0 18 3000;
#X obj 269 57 gdcell2.3 \$0 19 3000;
#X obj 279 77 gdcell2.3 \$0 20 3000;
#X obj 289 97 gdcell2.3 \$0 21 3000;
#X obj 299 117 gdcell2.3 \$0 22 3000;
#X obj 311 137 gdcell2.3 \$0 23 3000;
#X obj 319 157 gdcell2.3 \$0 24 3000;
#X obj 260 196 gdcell2.3 \$0 25 3000;
#X obj 270 216 gdcell2.3 \$0 26 3000;
#X obj 280 236 gdcell2.3 \$0 27 3000;
#X obj 290 256 gdcell2.3 \$0 28 3000;
#X obj 300 276 gdcell2.3 \$0 29 3000;
#X obj 310 296 gdcell2.3 \$0 30 3000;
#X obj 322 316 gdcell2.3 \$0 31 3000;
#X connect 3 0 0 0;
#X connect 3 1 1 0;
#X connect 3 2 2 0;
#X connect 3 2 2 0;
#X connect 4 0 0 0;
#X connect 4 1 1 0;
#X connect 4 2 2 0;
#X connect 5 0 0 0;
#X connect 5 1 1 0;
#X connect 5 2 2 0;
#X connect 6 0 0 0;
#X connect 6 1 1 0;
#X connect 6 2 2 0;
#X connect 7 0 0 0;
#X connect 7 1 1 0;
#X connect 7 2 2 0;
#X connect 8 0 0 0;
#X connect 8 1 1 0;
#X connect 8 2 2 0;
#X connect 9 0 0 0;
#X connect 9 1 1 0;
#X connect 9 2 2 0;
#X connect 10 0 0 0;
#X connect 10 1 1 0;
#X connect 10 2 2 0;
#X connect 11 0 0 0;
#X connect 11 1 1 0;
#X connect 11 2 2 0;
#X connect 12 0 0 0;
#X connect 12 1 1 0;
#X connect 12 2 2 0;
#X connect 13 0 0 0;
#X connect 13 1 1 0;
#X connect 13 2 2 0;
#X connect 14 0 0 0;
#X connect 14 1 1 0;
#X connect 14 2 2 0;
#X connect 15 0 0 0;
#X connect 15 1 1 0;
#X connect 15 2 2 0;
#X connect 16 0 0 0;
#X connect 16 1 1 0;
#X connect 16 2 2 0;
#X connect 17 0 0 0;
#X connect 17 1 1 0;
#X connect 17 2 2 0;
#X connect 18 0 0 0;
#X connect 18 1 1 0;
#X connect 18 2 2 0;
#X connect 19 0 0 0;
#X connect 19 1 1 0;
#X connect 19 2 2 0;
#X connect 20 0 0 0;
#X connect 20 1 1 0;
#X connect 20 2 2 0;
#X connect 21 0 0 0;
#X connect 21 1 1 0;
#X connect 21 2 2 0;
#X connect 22 0 0 0;
#X connect 22 1 1 0;
#X connect 22 2 2 0;
#X connect 23 0 0 0;
#X connect 23 1 1 0;
#X connect 23 2 2 0;
#X connect 24 0 0 0;
#X connect 24 1 1 0;
#X connect 24 2 2 0;
#X connect 25 0 0 0;
#X connect 25 1 1 0;
#X connect 25 2 2 0;
#X connect 26 0 0 0;
#X connect 26 1 1 0;
#X connect 26 2 2 0;
#X connect 27 0 0 0;
#X connect 27 1 1 0;
#X connect 27 2 2 0;
#X connect 28 0 0 0;
#X connect 28 1 1 0;
#X connect 28 2 2 0;
#X connect 29 0 0 0;
#X connect 29 1 1 0;
#X connect 29 2 2 0;
#X connect 30 0 0 0;
#X connect 30 1 1 0;
#X connect 30 2 2 0;
#X connect 31 0 0 0;
#X connect 31 1 1 0;
#X connect 31 2 2 0;
#X connect 32 0 0 0;
#X connect 32 1 1 0;
#X connect 32 2 2 0;
#X connect 33 0 0 0;
#X connect 33 1 1 0;
#X connect 33 2 2 0;
#X restore 224 87 pd switch;
#X obj 233 199 outlet~;
#X obj 173 209 outlet~;
#X obj 105 142 gdcell2.3 \$0 0 3000;
#X obj 333 201 outlet~;
#X connect 0 0 2 0;
#X connect 0 1 1 0;
#X connect 0 2 4 0;
#X connect 3 0 2 0;
#X connect 3 1 1 0;
#X connect 3 2 4 0;
#X restore 311 591 pd grains;
#X obj 153 165 volctl~ 0 10;
#X obj 181 253 volctl~ 0 10;
#X text 28 7 TODO: randomize parameters (gaussian) \, density function
\, bpfilter (or similar) \, feedback.;
#X text 63 46 BUGS: CPU hogging. denormals?;
#X obj 199 141 init 1;
#X obj 378 636 volctl~ 0 20;
#X obj 295 627 volctl~ 0 20;
#X obj 152 89 inlet~;
#X obj 296 651 outlet~;
#X obj 381 657 outlet~;
#X obj 291 261 t f f;
#X obj 291 284 sel 0;
#X obj 291 310 0;
#X obj 418 86 table \$0-trigr 64;
#N canvas 0 15 610 716 generate 0;
#X obj 124 21 loadbang;
#X obj 124 91 0;
#X obj 154 91 + 1;
#X msg 124 44 64;
#X obj 124 68 until;
#X obj 109 196 tabwrite \$0-trigr;
#X obj 123 135 t f f;
#X connect 0 0 3 0;
#X connect 1 0 2 0;
#X connect 1 0 6 0;
#X connect 2 0 1 1;
#X connect 3 0 4 0;
#X connect 4 0 1 0;
#X connect 6 0 5 0;
#X connect 6 1 5 1;
#X restore 418 104 pd generate;
#X obj 189 322 hip~ 5;
#X obj 331 266 == 0;
#X obj 232 289 spigot 1;
#X obj 153 414 delwrite~ \$0-k 10000;
#X obj 98 515 switch~ 64 1 1;
#X obj 226 386 winfader-single2 \$0-window;
#X floatatom 277 191 5 0 0 0 - - -;
#X obj 249 166 == 0;
#X obj 180 232 mydelread~ \$0-k 10000;
#X obj 465 637 volctl~ 0 20;
#X obj 466 661 outlet~;
#X obj 399 386 mywindowing2 512;
#X obj 456 312 quartic;
#X obj 456 291 r \$0-/feedbk;
#X obj 315 129 r \$0-/freeze;
#X obj 228 342 r \$0-/window;
#X obj 99 473 r \$0-/onoff;
#X obj 360 560 r \$0-/onoff;
#N canvas 235 76 464 582 speed+size 0;
#X obj 168 97 *;
#X obj 168 73 t b f f;
#X obj 99 347 sel 1;
#X obj 120 51 noise;
#X obj 120 112 pow;
#X obj 120 71 *;
#X obj 79 83 *;
#X obj 46 37 t f f f;
#X msg 120 92 2 \$1;
#X obj 81 116 max 2;
#X obj 54 385 0;
#X obj 68 411 + 1;
#X obj 71 431 % 32;
#X obj 54 457 s \$0-trig;
#X msg 88 369 0;
#X msg 84 239 stop;
#X obj 36 209 route 1 0;
#N canvas 10 66 691 689 master_tempo 0;
#X obj 150 17 r MASTER_TEMPO;
#X obj 110 67 spigot;
#X obj 482 100 spigot 1;
#X obj 405 70 == 0;
#X obj 487 61 f;
#X obj 370 116 sel 0;
#X obj 255 72 t f f f f;
#X obj 314 266 outlet;
#X obj 158 95 0;
#X obj 241 106 sel 0;
#X obj 196 161 / 1;
#X obj 486 14 inlet other_tempo;
#X obj 127 251 outlet;
#X obj 111 97 t b b;
#X obj 206 137 t b f;
#X obj 124 39 t f f;
#X obj 242 210 spigot;
#X obj 283 39 r \$0-/master_tempo;
#X connect 0 0 15 0;
#X connect 1 0 13 0;
#X connect 2 0 7 0;
#X connect 3 0 2 1;
#X connect 4 0 2 0;
#X connect 5 0 4 0;
#X connect 6 0 1 1;
#X connect 6 0 16 1;
#X connect 6 1 9 0;
#X connect 6 2 5 0;
#X connect 6 3 3 0;
#X connect 8 0 1 1;
#X connect 9 1 14 0;
#X connect 10 0 16 0;
#X connect 11 0 4 0;
#X connect 13 0 12 0;
#X connect 13 1 8 0;
#X connect 14 0 10 0;
#X connect 14 1 10 1;
#X connect 15 0 1 0;
#X connect 15 1 10 0;
#X connect 16 0 7 0;
#X connect 17 0 6 0;
#X restore 41 264 pd master_tempo;
#X obj 125 202 f;
#X msg 53 298 1;
#X obj 54 328 metro;
#X obj 54 349 t b b;
#N canvas 5 44 764 716 square 0;
#X obj 123 25 inlet;
#X obj 123 144 * 1000;
#X obj 124 173 outlet;
#X obj 124 97 t f f;
#X obj 124 120 *;
#X obj 125 71 + 0.01;
#X obj 124 46 * 0.98;
#X connect 0 0 6 0;
#X connect 1 0 2 0;
#X connect 3 0 4 0;
#X connect 3 1 4 1;
#X connect 4 0 1 0;
#X connect 5 0 3 0;
#X connect 6 0 5 0;
#X restore 45 13 pd square;
#X obj 45 -9 r \$0-/speed;
#X obj 101 9 r \$0-/speeddev;
#X obj 168 48 r \$0-/density;
#X obj 167 126 s \$0-/size;
#X obj 39 185 r \$0-/onoff;
#X obj 102 324 r \$0-/onoff;
#X floatatom 196 356 5 0 0 0 - - -;
#X connect 0 0 26 0;
#X connect 1 0 0 0;
#X connect 1 1 0 1;
#X connect 2 0 14 0;
#X connect 3 0 5 0;
#X connect 4 0 6 0;
#X connect 5 0 8 0;
#X connect 6 0 9 0;
#X connect 7 0 18 0;
#X connect 7 1 6 1;
#X connect 7 2 0 0;
#X connect 8 0 4 0;
#X connect 9 0 18 0;
#X connect 10 0 11 0;
#X connect 10 0 13 0;
#X connect 11 0 12 0;
#X connect 12 0 10 1;
#X connect 14 0 10 1;
#X connect 15 0 20 0;
#X connect 16 0 19 0;
#X connect 16 1 15 0;
#X connect 17 0 19 0;
#X connect 17 1 20 1;
#X connect 17 1 29 0;
#X connect 18 0 17 0;
#X connect 19 0 20 0;
#X connect 20 0 21 0;
#X connect 21 0 10 0;
#X connect 21 1 3 0;
#X connect 22 0 7 0;
#X connect 23 0 22 0;
#X connect 24 0 5 1;
#X connect 25 0 1 0;
#X connect 27 0 16 0;
#X connect 28 0 2 0;
#X restore 28 269 pd speed+size;
#X obj 685 97 inlet;
#X obj 684 180 dispatch \$0 /transp;
#X obj 684 200 dispatch \$0 /sizedev;
#X obj 684 220 dispatch \$0 /senddev;
#X obj 684 240 dispatch \$0 /send;
#X obj 684 260 dispatch \$0 /pandev;
#X obj 684 280 dispatch \$0 /pan;
#X obj 684 300 dispatch \$0 /feedbk;
#X obj 684 320 dispatch \$0 /freeze;
#X obj 684 340 dispatch \$0 /window;
#X obj 684 360 dispatch \$0 /master_tempo;
#X obj 684 380 dispatch \$0 /onoff;
#X obj 684 400 dispatch \$0 /transpdevq;
#X obj 684 420 dispatch \$0 /gliss;
#X obj 684 440 dispatch \$0 /delaydev;
#X obj 684 460 dispatch \$0 /delay;
#X obj 684 480 dispatch \$0 /density;
#X obj 684 500 dispatch \$0 /speeddev;
#X obj 684 520 dispatch \$0 /speed;
#N canvas 294 463 291 327 \$0-gui 0;
#X obj 6 -24 cnv 15 270 20 empty empty Grandel~ 1 12 0 14 -261234 -66577
0;
#X obj 236 -18 inlet;
#X obj 240 -18 inlet;
#X obj 126 274 hradio 15 1 0 10 \$0-window \$0-window empty 0 -8 0
10 -262144 -1 -1 0;
#X text 73 271 Window;
#X obj 4 252 hradio 15 1 0 17 \$0-/transpdevq empty empty 0 -8 0 10
-262144 -1 -1 0;
#X floatatom 260 271 5 0 0 0 - - -;
#X obj 42 -1 sssad.presets_ grandel~ \$0;
#X obj 142 69 sssad-slider \$0 /speeddev 0 1;
#X obj 142 89 sssad-slider \$0 /density 0 1 log;
#X obj 3 89 sssad-slider \$0 /sizedev 0 1;
#X obj 3 109 sssad-slider \$0 /transpdev 0 24;
#X obj 142 129 sssad-slider \$0 /pan 0 1;
#X obj 3 129 sssad-slider \$0 /pandev 0 1;
#X obj 142 149 sssad-slider \$0 /vol 0 1;
#X obj 3 149 sssad-slider \$0 /voldev 0 1;
#X obj 142 169 sssad-slider \$0 /send 0 1;
#X obj 3 169 sssad-slider \$0 /senddev 0 1;
#X obj 142 189 sssad-slider \$0 /delay 0 1 log;
#X obj 3 189 sssad-slider \$0 /delaydev 0 1;
#X obj 142 109 sssad-slider \$0 /transp -12 12;
#X obj 2 68 sssad-slider \$0 /speed 0 1;
#X obj 142 209 sssad-tgl \$0 /freeze;
#X obj 3 209 sssad-tgl \$0 /onoff;
#X obj 3 229 sssad-tgl \$0 /gliss;
#X connect 1 0 7 0;
#X connect 5 0 6 0;
#X restore 922 648 pd \$0-gui;
#N canvas 30 154 450 300 vis 0;
#X msg 167 237 vis \$1;
#X obj 167 205 yambc 2;
#X obj 167 162 route bang float;
#X obj 184 181 == 0;
#X obj 164 257 s pd-\$0-gui;
#X obj 168 134 inlet;
#X connect 0 0 4 0;
#X connect 1 1 0 0;
#X connect 2 0 1 0;
#X connect 2 1 3 0;
#X connect 3 0 1 0;
#X connect 5 0 2 0;
#X restore 923 627 pd vis;
#X msg 739 79 vis 1;
#X msg 858 302 Feedback (doesn't work so well right now);
#X msg 858 122 Volume deviation (0-1) \, 0;
#X msg 858 162 Transposition deviation (semitones) \, 0;
#X msg 858 182 Transposition (semitones) \, 0;
#X msg 858 222 Grain send deviation (0-1) \, 0;
#X msg 858 242 Grain send fx (0-1) \, 0;
#X msg 858 262 Pan deviation (0-1) \, 0;
#X msg 858 322 Freeze current delay line (0/1) \, 0;
#X msg 858 362 Follow master tempo (not implemented) \, 0;
#X msg 858 402 Transposition quantization (fractions of deviation)
\, 0;
#X msg 859 422 Make transp dev appear as glissandi (0/1) \, 0;
#X msg 858 502 Speed deviation (0-1) \, 0;
#X msg 858 482 Density (0-1 \, as fraction of speed) \, 1;
#X msg 858 462 Delay (0-1 \, representing fraction of 5000 ms) \, 500
;
#X msg 858 442 Delay deviation (0-1) \, 0.1;
#X msg 858 382 Switch \, 0;
#X msg 858 342 Grain window (int \, 0-9) \, 6;
#X msg 858 282 Pan (0-1) \, 0.5;
#X msg 858 202 Grain size deviation (0-1) \, 0;
#X msg 859 142 Volume (0-1) \, 0.9;
#X msg 788 78 init;
#X obj 685 120 dispatch \$0 /voldev;
#X obj 684 140 dispatch \$0 /vol;
#X obj 684 160 dispatch \$0 /transpdev;
#X msg 858 522 Speed (0-1) \, 0.1;
#X msg 184 467 1;
#X obj 684 562 ../sendbus-dispatch \$0;
#X text 827 561 HACK;
#X obj 867 40 sssad-localtoglobal \$0 \$1 /grandel;
#X obj 928 567 inlet;
#X obj 928 589 route /preset /vis;
#X text 969 568 Meta inlet;
#X obj 225 363 int;
#X obj 99 494 switchdelay 10020;
#X connect 0 0 7 0;
#X connect 0 1 6 0;
#X connect 0 2 25 0;
#X connect 1 0 19 0;
#X connect 2 0 16 0;
#X connect 5 0 1 1;
#X connect 6 0 10 0;
#X connect 7 0 9 0;
#X connect 8 0 1 0;
#X connect 11 0 12 0;
#X connect 11 1 2 1;
#X connect 11 1 17 0;
#X connect 12 0 13 0;
#X connect 13 0 18 0;
#X connect 16 0 19 0;
#X connect 17 0 18 1;
#X connect 18 0 2 1;
#X connect 23 0 1 1;
#X connect 23 0 22 0;
#X connect 24 0 2 0;
#X connect 25 0 26 0;
#X connect 28 0 13 0;
#X connect 29 0 28 0;
#X connect 30 0 23 0;
#X connect 30 0 11 0;
#X connect 31 0 89 0;
#X connect 32 0 90 0;
#X connect 33 0 7 1;
#X connect 33 0 6 1;
#X connect 33 0 25 1;
#X connect 35 0 78 0;
#X connect 36 0 37 0;
#X connect 36 1 60 0;
#X connect 37 0 38 0;
#X connect 37 1 75 0;
#X connect 38 0 39 0;
#X connect 38 1 61 0;
#X connect 39 0 40 0;
#X connect 39 1 62 0;
#X connect 40 0 41 0;
#X connect 40 1 63 0;
#X connect 41 0 42 0;
#X connect 41 1 74 0;
#X connect 42 0 43 0;
#X connect 42 1 57 0;
#X connect 43 0 44 0;
#X connect 43 1 64 0;
#X connect 44 0 45 0;
#X connect 44 1 73 0;
#X connect 45 0 46 0;
#X connect 45 1 65 0;
#X connect 46 0 47 0;
#X connect 46 1 72 0;
#X connect 47 0 48 0;
#X connect 47 1 66 0;
#X connect 48 0 49 0;
#X connect 48 1 67 0;
#X connect 49 0 50 0;
#X connect 49 1 71 0;
#X connect 50 0 51 0;
#X connect 50 1 70 0;
#X connect 51 0 52 0;
#X connect 51 1 69 0;
#X connect 52 0 53 0;
#X connect 52 1 68 0;
#X connect 53 0 83 0;
#X connect 53 1 81 0;
#X connect 56 0 78 0;
#X connect 57 0 42 1;
#X connect 58 0 78 1;
#X connect 59 0 80 1;
#X connect 60 0 36 1;
#X connect 61 0 38 1;
#X connect 62 0 39 1;
#X connect 63 0 40 1;
#X connect 64 0 43 1;
#X connect 65 0 45 1;
#X connect 66 0 47 1;
#X connect 67 0 48 1;
#X connect 68 0 52 1;
#X connect 69 0 51 1;
#X connect 70 0 50 1;
#X connect 71 0 49 1;
#X connect 72 0 46 1;
#X connect 73 0 44 1;
#X connect 74 0 41 1;
#X connect 75 0 37 1;
#X connect 76 0 79 1;
#X connect 77 0 78 0;
#X connect 78 0 79 0;
#X connect 78 1 58 0;
#X connect 79 0 80 0;
#X connect 79 1 76 0;
#X connect 80 0 36 0;
#X connect 80 1 59 0;
#X connect 81 0 53 1;
#X connect 82 0 90 0;
#X connect 86 0 87 0;
#X connect 87 0 54 0;
#X connect 87 1 55 0;
#X connect 89 0 21 0;
#X connect 90 0 20 0;
