#N canvas 44 67 931 693 10;
#X obj 573 297 winfader \$0;
#X obj 282 169 s \$0-gdcell;
#X obj 282 147 list trim;
#N canvas 306 27 554 506 grains 1;
#X obj 49 17 gdcell \$0 1 3000;
#N canvas 0 0 659 417 switch 0;
#X obj 59 37 gdcell \$0 2 3000;
#X obj 69 57 gdcell \$0 3 3000;
#X obj 79 77 gdcell \$0 4 3000;
#X obj 89 97 gdcell \$0 5 3000;
#X obj 99 117 gdcell \$0 6 3000;
#X obj 111 137 gdcell \$0 7 3000;
#X obj 119 157 gdcell \$0 8 3000;
#X obj 60 196 gdcell \$0 9 3000;
#X obj 70 216 gdcell \$0 10 3000;
#X obj 80 236 gdcell \$0 11 3000;
#X obj 90 256 gdcell \$0 12 3000;
#X obj 100 276 gdcell \$0 13 3000;
#X obj 110 296 gdcell \$0 14 3000;
#X obj 122 316 gdcell \$0 15 3000;
#X obj 130 336 gdcell \$0 16 3000;
#X obj 249 17 gdcell \$0 17 3000;
#X obj 260 38 gdcell \$0 18 3000;
#X obj 269 57 gdcell \$0 19 3000;
#X obj 279 77 gdcell \$0 20 3000;
#X obj 289 97 gdcell \$0 21 3000;
#X obj 299 117 gdcell \$0 22 3000;
#X obj 311 137 gdcell \$0 23 3000;
#X obj 319 157 gdcell \$0 24 3000;
#X obj 260 196 gdcell \$0 25 3000;
#X obj 270 216 gdcell \$0 26 3000;
#X obj 280 236 gdcell \$0 27 3000;
#X obj 290 256 gdcell \$0 28 3000;
#X obj 300 276 gdcell \$0 29 3000;
#X obj 310 296 gdcell \$0 30 3000;
#X obj 322 316 gdcell \$0 31 3000;
#X obj 330 336 gdcell \$0 32 3000;
#X restore 224 87 pd switch;
#X restore 761 224 pd grains;
#X obj 644 530 catch~ \$0-L;
#X obj 728 535 catch~ \$0-R;
#X msg 283 105 pan 0.5;
#X msg 177 71 1 1;
#X msg 190 167 symbol trig;
#X obj 162 125 stripnote;
#X obj 158 193 pack f s 1;
#X obj 283 127 list prepend global;
#X obj 598 99 == 0;
#X obj 502 98 volctl~ 0 10;
#X obj 530 186 volctl~ 0 10;
#X text 28 7 TODO: randomize parameters (gaussian) \, density function
\, bpfilter (or similar) \, feedback.;
#X text 63 46 BUGS: CPU hogging. denormals?;
#X obj 548 74 init 1;
#X obj 58 433 s \$0-speed;
#X obj 161 216 t l l;
#X msg 205 215 \$1;
#X obj 312 303 list trim;
#X obj 58 233 t b b b;
#X obj 311 194 list;
#N canvas 420 109 450 300 setsize 0;
#X msg 33 151 size \$1;
#X obj 69 128 r \$0-speed;
#X obj 34 109 / 100;
#X obj 34 130 *;
#X obj -11 17 inlet;
#X obj 31 173 s \$0-pretrigsize;
#X obj 130 23 inlet;
#X obj 172 24 inlet;
#X obj 215 30 inlet;
#X obj 34 66 mrrandom 5 800;
#X connect 0 0 5 0;
#X connect 1 0 3 1;
#X connect 2 0 3 0;
#X connect 3 0 0 0;
#X connect 4 0 9 0;
#X connect 6 0 9 1;
#X connect 7 0 9 2;
#X connect 8 0 9 3;
#X connect 9 0 2 0;
#X coords 0 0 1 1 85 60 0;
#X restore 295 576 pd setsize;
#N canvas 312 147 450 300 settransp 0;
#X obj 12 6 inlet;
#X msg 56 140 transpose \$1;
#X obj 54 162 s \$0-pretrigtransp;
#X obj 130 23 inlet;
#X obj 172 24 inlet;
#X obj 215 30 inlet;
#X obj 57 55 mrrandom -36 36;
#X connect 0 0 6 0;
#X connect 1 0 2 0;
#X connect 3 0 6 1;
#X connect 4 0 6 2;
#X connect 5 0 6 3;
#X connect 6 0 1 0;
#X restore 285 522 pd settransp;
#X obj 311 215 list;
#X obj 343 214 r \$0-pretrigsize;
#X obj 343 194 r \$0-pretrigtransp;
#N canvas 64 178 450 300 setdelay 0;
#X obj 19 17 inlet;
#X msg 63 151 delay \$1;
#X obj 61 173 s \$0-pretrigdelay;
#X obj 139 2 inlet;
#X obj 181 3 inlet;
#X obj 224 9 inlet;
#X obj 63 90 mrrandom 0 5000;
#X obj 80 14 * 10;
#X obj 131 34 * 10;
#X obj 67 61 anytoquartic 0 5000;
#X connect 0 0 6 0;
#X connect 1 0 2 0;
#X connect 3 0 7 0;
#X connect 4 0 8 0;
#X connect 5 0 6 3;
#X connect 6 0 1 0;
#X connect 7 0 9 0;
#X connect 8 0 6 2;
#X connect 9 0 6 1;
#X restore 287 473 pd setdelay;
#X obj 311 235 list;
#X obj 343 234 r \$0-pretrigdelay;
#X obj 98 187 r \$0-speed;
#N canvas 0 0 587 345 setpan 0;
#X obj 199 17 inlet;
#X obj 244 66 mrrandom 0 100;
#X obj 245 127 / 100;
#X msg 243 151 pan \$1;
#X obj 241 173 s \$0-pretrigpan;
#X obj 297 -7 inlet;
#X obj 339 -6 inlet;
#X obj 382 0 inlet;
#X connect 0 0 1 0;
#X connect 1 0 2 0;
#X connect 2 0 3 0;
#X connect 3 0 4 0;
#X connect 5 0 1 1;
#X connect 6 0 1 2;
#X connect 7 0 1 3;
#X restore 211 403 pd setpan;
#X obj 311 255 list;
#X obj 342 254 r \$0-pretrigpan;
#X obj 178 94 poly 32 1;
#N canvas 0 0 727 328 setvol 0;
#X obj 199 17 inlet;
#X obj 244 66 mrrandom 0 100;
#X obj 245 127 / 100;
#X msg 243 151 vol \$1;
#X obj 241 173 s \$0-pretrigvol;
#X obj 310 -7 inlet;
#X obj 352 -6 inlet;
#X obj 395 0 inlet;
#X connect 0 0 1 0;
#X connect 1 0 2 0;
#X connect 2 0 3 0;
#X connect 3 0 4 0;
#X connect 5 0 1 1;
#X connect 6 0 1 2;
#X connect 7 0 1 3;
#X restore 288 428 pd setvol;
#X obj 312 272 list;
#X obj 342 272 r \$0-pretrigvol;
#X obj 573 320 list prepend /grandel/ui/window;
#X obj 573 368 s UI;
#X obj 573 343 list trim;
#X obj 297 406 OSCroute /vol /voldev /voldevfb;
#X obj 299 449 OSCroute /delay /delaydev /delaydevfb;
#X obj 298 495 OSCroute /transp /transpdev /transpdevfb;
#X obj 298 545 OSCroute /size /sizedev /sizedevfb;
#X obj 75 366 OSCroute /speed /speeddev /speeddevfb /pan /pandev /pandevfb
;
#X obj 446 345 OSCroute /onoff;
#X obj 608 442 switchdelay 20;
#X obj 727 569 volctl~ 0 20;
#X obj 644 560 volctl~ 0 20;
#X obj 643 468 switch~;
#X obj 466 247 r OSC;
#X obj 447 280 OSCroute /grandel;
#X obj 550 648 delwrite~ \$0-k 5000;
#X obj 529 165 delread~ \$0-k 5000;
#X obj 501 22 inlet~;
#X obj 645 584 outlet~;
#X obj 730 590 outlet~;
#X obj 431 306 OSCroute /global \$1;
#X obj 565 609 _j/undenormal~;
#X obj 712 104 singleton win512 windowing 512;
#X obj 640 194 t f f;
#X obj 640 214 sel 0;
#X obj 576 276 OSCroute /window1 /window2 /winmix /freeze /feedbk;
#X obj 809 301 / 100;
#X obj 809 326 01toquartic;
#X obj 640 237 0;
#X obj 585 232 spigot;
#X obj 58 410 mrrandom 1 5000;
#X obj 75 390 anytoquartic 1 5000;
#X obj 58 210 metro 200;
#X connect 0 0 40 0;
#X connect 2 0 1 0;
#X connect 4 0 51 0;
#X connect 5 0 50 0;
#X connect 6 0 11 0;
#X connect 7 0 36 0;
#X connect 8 0 10 1;
#X connect 9 0 10 0;
#X connect 10 0 19 0;
#X connect 11 0 2 0;
#X connect 12 0 13 1;
#X connect 13 0 55 0;
#X connect 14 0 55 0;
#X connect 17 0 13 1;
#X connect 19 0 1 0;
#X connect 19 1 20 0;
#X connect 20 0 23 0;
#X connect 20 0 26 0;
#X connect 20 0 30 0;
#X connect 20 0 34 0;
#X connect 20 0 38 0;
#X connect 21 0 1 0;
#X connect 22 0 70 0;
#X connect 22 1 7 0;
#X connect 22 2 24 0;
#X connect 22 2 25 0;
#X connect 22 2 29 0;
#X connect 22 2 33 0;
#X connect 22 2 37 0;
#X connect 23 0 21 0;
#X connect 26 0 21 0;
#X connect 27 0 26 1;
#X connect 28 0 23 1;
#X connect 30 0 21 0;
#X connect 31 0 30 1;
#X connect 32 0 72 1;
#X connect 34 0 21 0;
#X connect 35 0 34 1;
#X connect 36 0 9 0;
#X connect 36 1 8 0;
#X connect 36 2 9 1;
#X connect 38 0 21 0;
#X connect 39 0 38 1;
#X connect 40 0 42 0;
#X connect 42 0 41 0;
#X connect 43 0 37 1;
#X connect 43 1 37 2;
#X connect 43 2 37 3;
#X connect 43 3 44 0;
#X connect 44 0 29 1;
#X connect 44 1 29 2;
#X connect 44 2 29 3;
#X connect 44 3 45 0;
#X connect 45 0 25 1;
#X connect 45 1 25 2;
#X connect 45 2 25 3;
#X connect 45 3 46 0;
#X connect 46 0 24 1;
#X connect 46 1 24 2;
#X connect 46 2 24 3;
#X connect 47 0 71 0;
#X connect 47 1 70 2;
#X connect 47 2 70 3;
#X connect 47 3 33 1;
#X connect 47 4 33 2;
#X connect 47 5 33 3;
#X connect 47 6 43 0;
#X connect 48 0 49 0;
#X connect 48 0 50 1;
#X connect 48 0 51 1;
#X connect 48 0 72 0;
#X connect 48 1 65 0;
#X connect 49 0 52 0;
#X connect 50 0 59 0;
#X connect 51 0 58 0;
#X connect 53 0 54 0;
#X connect 54 0 60 0;
#X connect 56 0 14 0;
#X connect 57 0 13 0;
#X connect 60 0 48 0;
#X connect 60 0 47 0;
#X connect 60 1 48 0;
#X connect 60 1 47 0;
#X connect 61 0 55 0;
#X connect 63 0 64 0;
#X connect 63 1 14 1;
#X connect 63 1 69 1;
#X connect 64 0 68 0;
#X connect 65 0 0 0;
#X connect 65 1 0 1;
#X connect 65 2 0 2;
#X connect 65 3 12 0;
#X connect 65 3 63 0;
#X connect 65 4 66 0;
#X connect 66 0 67 0;
#X connect 67 0 68 0;
#X connect 68 0 69 0;
#X connect 69 0 14 1;
#X connect 70 0 18 0;
#X connect 71 0 70 1;
#X connect 72 0 22 0;
