#N canvas 13 8 982 569 10;
#X obj 502 212 delwrite~ \$0-k 3000;
#X floatatom 443 71 5 0 0 0 - - -;
#X obj 456 59 bng 15 250 50 0 empty empty empty 0 -6 0 8 -262144 -1
-1;
#X obj 378 71 *~;
#X obj 409 74 tgl 15 0 empty empty empty 0 -6 0 8 -24198 -1 -1 0 1
;
#X obj 761 517 windowing 512;
#X obj 849 308 winfader \$0;
#X obj 282 259 s \$0-gdcell;
#X obj 282 237 list trim;
#X obj 746 226 dac~;
#N canvas 306 27 554 506 grains 0;
#X obj 49 17 gdcell \$0 1 3000;
#X obj 59 37 gdcell \$0 2 3000;
#X obj 69 57 gdcell \$0 3 3000;
#X obj 79 77 gdcell \$0 4 3000;
#X obj 89 97 gdcell \$0 5 3000;
#X obj 99 117 gdcell \$0 6 3000;
#X obj 111 137 gdcell \$0 7 3000;
#X obj 119 157 gdcell \$0 8 3000;
#X obj 60 196 gdcell \$0 9 3000;
#X obj 70 216 gdcell \$0 10 3000;
#X obj 80 236 gdcell \$0 11 3000;
#X obj 90 256 gdcell \$0 12 3000;
#X obj 100 276 gdcell \$0 13 3000;
#X obj 110 296 gdcell \$0 14 3000;
#X obj 122 316 gdcell \$0 15 3000;
#X obj 130 336 gdcell \$0 16 3000;
#X obj 249 17 gdcell \$0 17 3000;
#X obj 260 38 gdcell \$0 18 3000;
#X obj 269 57 gdcell \$0 19 3000;
#X obj 279 77 gdcell \$0 20 3000;
#X obj 289 97 gdcell \$0 21 3000;
#X obj 299 117 gdcell \$0 22 3000;
#X obj 311 137 gdcell \$0 23 3000;
#X obj 319 157 gdcell \$0 24 3000;
#X obj 260 196 gdcell \$0 25 3000;
#X obj 270 216 gdcell \$0 26 3000;
#X obj 280 236 gdcell \$0 27 3000;
#X obj 290 256 gdcell \$0 28 3000;
#X obj 300 276 gdcell \$0 29 3000;
#X obj 310 296 gdcell \$0 30 3000;
#X obj 322 316 gdcell \$0 31 3000;
#X obj 330 336 gdcell \$0 32 3000;
#X restore 761 314 pd grains;
#X obj 662 115 catch~ \$0-L;
#X obj 752 115 catch~ \$0-R;
#X msg 283 195 pan 0.5;
#X msg 177 161 1 1;
#X msg 190 257 symbol trig;
#X obj 162 215 stripnote;
#X obj 158 283 pack f s 1;
#X obj 283 217 list prepend global;
#X obj 715 15 table samplebuf;
#X obj 371 -5 tabplay~ samplebuf;
#X msg 427 19 bang;
#X obj 598 189 == 0;
#X obj 502 188 volctl~ 0 10;
#X obj 652 227 tgl 15 0 empty empty freeze 0 -6 0 8 -262144 -1 -1 0
1;
#X obj 530 276 volctl~ 0 10;
#X obj 529 255 delread~ \$0-k 3000;
#X text 418 453 TODO: randomize parameters (gaussian) \, density function
\, bpfilter (or similar) \, feedback.;
#X text 486 494 BUGS: CPU hogging. denormals?;
#X obj 548 164 init 1;
#X obj 87 300 metro 200;
#X obj 89 83 bng 15 250 50 0 empty empty empty 0 -6 0 8 -24198 -1 -1
;
#X floatatom 105 436 5 0 0 0 - - -;
#X floatatom 122 453 5 0 0 0 - - -;
#X floatatom 139 469 5 0 0 0 - - -;
#X obj 88 485 mrrandom 5 2000;
#X obj 88 508 s \$0-speed;
#X obj 161 306 t l l;
#X msg 205 305 \$1;
#X obj 360 426 list trim;
#X obj 88 323 t b b b;
#X obj 360 321 list;
#N canvas 420 109 450 300 setsize 1;
#X msg 33 151 size \$1;
#X obj 34 66 mrrandom 5 500;
#X floatatom 72 14 5 0 0 0 - - -;
#X floatatom 72 27 5 0 0 0 - - -;
#X floatatom 73 40 5 0 0 0 - - -;
#X floatatom 146 90 5 0 0 0 - - -;
#X obj 69 128 r \$0-speed;
#X obj 34 109 / 100;
#X obj 34 130 *;
#X obj -11 17 inlet;
#X obj 31 173 s \$0-pretrigsize;
#X floatatom -36 219 5 0 0 0 - - -;
#X obj -59 49 init 600;
#X connect 0 0 10 0;
#X connect 1 0 7 0;
#X connect 2 0 1 1;
#X connect 3 0 1 2;
#X connect 4 0 1 3;
#X connect 6 0 8 1;
#X connect 7 0 8 0;
#X connect 8 0 0 0;
#X connect 8 0 11 0;
#X connect 9 0 1 0;
#X connect 12 0 2 0;
#X coords 0 0 1 1 85 60 0;
#X restore 142 347 pd setsize;
#N canvas 312 147 450 300 settransp 1;
#X floatatom 79 12 5 0 0 0 - - -;
#X floatatom 94 38 5 0 0 0 - - -;
#X floatatom 118 78 5 0 0 0 - - -;
#X floatatom 169 79 5 0 0 0 - - -;
#X obj 12 6 inlet;
#X msg 56 140 transpose \$1;
#X obj 57 55 mrrandom -36 36;
#X obj 54 162 s \$0-pretrigtransp;
#X connect 0 0 6 1;
#X connect 1 0 6 2;
#X connect 2 0 6 3;
#X connect 4 0 6 0;
#X connect 5 0 7 0;
#X connect 6 0 5 0;
#X restore 142 366 pd settransp;
#X obj 360 342 list;
#X obj 392 341 r \$0-pretrigsize;
#X obj 392 321 r \$0-pretrigtransp;
#N canvas 64 178 450 300 setdelay 1;
#X floatatom 86 23 5 0 0 0 - - -;
#X floatatom 101 49 5 0 0 0 - - -;
#X floatatom 125 89 5 0 0 0 - - -;
#X floatatom 176 90 5 0 0 0 - - -;
#X obj 19 17 inlet;
#X obj 64 66 mrrandom 0 3000;
#X msg 63 151 delay \$1;
#X obj 61 173 s \$0-pretrigdelay;
#X obj 180 29 init 1000;
#X obj 182 50 init 2000;
#X connect 0 0 5 1;
#X connect 1 0 5 2;
#X connect 2 0 5 3;
#X connect 4 0 5 0;
#X connect 5 0 6 0;
#X connect 6 0 7 0;
#X connect 8 0 0 0;
#X connect 9 0 1 0;
#X restore 167 384 pd setdelay;
#X obj 360 362 list;
#X obj 392 361 r \$0-pretrigdelay;
#X obj 118 276 r \$0-speed;
#N canvas 0 0 450 300 setpan 0;
#X floatatom 266 23 5 0 0 0 - - -;
#X floatatom 281 49 5 0 0 0 - - -;
#X floatatom 305 89 5 0 0 0 - - -;
#X floatatom 356 90 5 0 0 0 - - -;
#X obj 199 17 inlet;
#X obj 244 66 mrrandom 0 100;
#X obj 245 127 / 100;
#X msg 243 151 pan \$1;
#X obj 241 173 s \$0-pretrigpan;
#X obj 339 17 init 50;
#X obj 340 39 * 2;
#X connect 0 0 5 1;
#X connect 1 0 5 2;
#X connect 2 0 5 3;
#X connect 4 0 5 0;
#X connect 5 0 6 0;
#X connect 6 0 7 0;
#X connect 7 0 8 0;
#X connect 9 0 5 1;
#X connect 9 0 10 0;
#X connect 10 0 1 0;
#X restore 163 405 pd setpan;
#X obj 360 382 list;
#X obj 391 381 r \$0-pretrigpan;
#X floatatom 186 513 5 0 0 0 - - -;
#X obj 340 36 adc~;
#X obj 788 211 volctl~;
#X obj 724 202 volctl~;
#X obj 818 241 / 100;
#X obj 172 436 init 25;
#X obj 872 151 cnv 15 100 60 empty empty empty 20 12 0 14 -24198 -66577
0;
#X floatatom 882 180 5 0 0 0 - - -;
#X floatatom 254 113 5 0 0 0 - - -;
#X obj 178 184 poly 32 1;
#N canvas 0 0 450 300 setvol 0;
#X floatatom 266 23 5 0 0 0 - - -;
#X floatatom 281 49 5 0 0 0 - - -;
#X floatatom 305 89 5 0 0 0 - - -;
#X floatatom 356 90 5 0 0 0 - - -;
#X obj 199 17 inlet;
#X obj 244 66 mrrandom 0 100;
#X obj 245 127 / 100;
#X obj 339 17 init 50;
#X obj 340 39 * 2;
#X msg 243 151 vol \$1;
#X obj 241 173 s \$0-pretrigvol;
#X connect 0 0 5 1;
#X connect 1 0 5 2;
#X connect 2 0 5 3;
#X connect 4 0 5 0;
#X connect 5 0 6 0;
#X connect 6 0 9 0;
#X connect 7 0 5 1;
#X connect 7 0 8 0;
#X connect 8 0 1 0;
#X connect 9 0 10 0;
#X restore 233 425 pd setvol;
#X obj 360 400 list;
#X obj 391 399 r \$0-pretrigvol;
#X connect 3 0 23 0;
#X connect 4 0 3 1;
#X connect 8 0 7 0;
#X connect 11 0 57 0;
#X connect 12 0 56 0;
#X connect 13 0 18 0;
#X connect 14 0 63 0;
#X connect 15 0 17 1;
#X connect 16 0 17 0;
#X connect 17 0 37 0;
#X connect 18 0 8 0;
#X connect 20 1 21 0;
#X connect 21 0 20 0;
#X connect 22 0 23 1;
#X connect 23 0 0 0;
#X connect 24 0 22 0;
#X connect 24 0 25 1;
#X connect 25 0 0 0;
#X connect 26 0 25 0;
#X connect 29 0 23 1;
#X connect 30 0 40 0;
#X connect 31 0 30 0;
#X connect 32 0 35 1;
#X connect 33 0 35 2;
#X connect 34 0 35 3;
#X connect 35 0 36 0;
#X connect 35 0 54 0;
#X connect 37 0 7 0;
#X connect 37 1 38 0;
#X connect 38 0 41 0;
#X connect 38 0 44 0;
#X connect 38 0 48 0;
#X connect 38 0 52 0;
#X connect 39 0 7 0;
#X connect 40 0 35 0;
#X connect 40 1 14 0;
#X connect 40 2 42 0;
#X connect 40 2 43 0;
#X connect 40 2 47 0;
#X connect 40 2 51 0;
#X connect 40 2 64 0;
#X connect 41 0 39 0;
#X connect 44 0 39 0;
#X connect 45 0 44 1;
#X connect 46 0 41 1;
#X connect 48 0 39 0;
#X connect 49 0 48 1;
#X connect 50 0 30 1;
#X connect 52 0 39 0;
#X connect 53 0 52 1;
#X connect 55 0 3 0;
#X connect 55 1 3 0;
#X connect 56 0 9 1;
#X connect 57 0 9 0;
#X connect 58 0 56 1;
#X connect 58 0 57 1;
#X connect 59 0 32 0;
#X connect 61 0 58 0;
#X connect 63 0 16 0;
#X connect 63 0 62 0;
#X connect 63 1 15 0;
#X connect 63 2 16 1;
#X connect 65 0 39 0;
#X connect 66 0 65 1;
