#N canvas 0 0 1100 837 10;
#X obj 101 101 cnv 15 192 447 empty empty empty 20 12 0 14 -233017
-66577 0;
#X obj 395 285 hradio 10 1 0 10 empty empty empty 0 -6 0 8 -262144
-1 -1 0;
#X symbolatom 178 126 15 0 0 0 - - -;
#X obj 424 312 nbx 4 12 0 100 0 0 empty empty mx -13 7 0 8 -233017
-1 -258699 0 256;
#X obj 581 241 r UI;
#X obj 582 268 route /grandel/ui/window;
#X obj 582 288 symbol;
#X obj 372 461 s OSC;
#X obj 372 377 r \$0-RRADICAL-CB;
#X obj 103 126 tgl 13 0 empty empty empty 0 -6 0 8 -44926 -1 -1 0 1
;
#X msg 312 311 /window1 3;
#X obj 372 401 OSCprepend \$1;
#X obj 371 442 OSCprepend /grandel;
#X obj 126 127 nbx 4 12 0 100 0 0 empty empty fbk 2 -5 0 8 -233017
-1 -258699 0 256;
#X obj 137 36 fcommun /feedbk \$0 0;
#X obj 526 455 ../a4backend \$1 \$0 /speeddev /speed /sizedev /size
/transpdev /transp /delaydev /delay /pan /pandev /foo /window1;
#X symbolatom 468 235 10 0 0 0 - - -;
#X floatatom 455 213 5 0 0 0 - - -;
#X obj 698 386 route 0 1;
#X msg 698 427 9 /pan \, 10 /pandev;
#X msg 728 407 10 /vol \, 9 /voldev;
#X obj 430 425 f;
#X obj 698 337 keynametgl Shift_L;
#X obj 698 365 t b f;
#X obj 101 102 cnv 10 172 10 empty \$0-c \$1 66 5 1 8 -258699 -262144
0;
#N canvas 0 0 450 300 color 0;
#X obj 136 126 s \$0-c;
#X msg 133 57 color 13 0;
#X msg 160 82 color 4 12;
#X obj 134 30 sel 1 0;
#X obj 134 2 inlet;
#X connect 1 0 0 0;
#X connect 2 0 0 0;
#X connect 3 0 1 0;
#X connect 3 1 2 0;
#X connect 4 0 3 0;
#X restore 306 475 pd color;
#X obj 497 357 hotkey/hktgl \$1-grandel-act 1;
#X obj 172 114 hradio 10 1 0 10 empty empty empty 0 -6 0 8 -262144
-1 -1 6;
#X obj 103 103 tgl 15 0 empty empty empty 0 -6 0 8 -24198 -1 -262144
1 1;
#X obj 445 335 inlet activate;
#X obj 123 166 hsl 128 15 0 100 0 0 empty empty /speeddev -2 8 1 8
-233017 -1 -1 10600 1;
#X obj 329 107 hook /window1 \$0 0 9;
#X obj 331 132 hook /winmix \$0 0;
#X obj 319 251 hook /window2 \$0 0;
#X obj 123 207 hsl 128 15 0 100 0 0 empty empty /sizedev -2 8 1 8 -233017
-1 -1 6700 1;
#X obj 125 247 hsl 128 15 0 12 0 0 empty empty /transpdev -2 8 1 8
-233017 -1 -1 0 1;
#X obj 125 297 hsl 128 15 0 100 0 0 empty empty /delaydev -2 8 1 8
-233017 -1 -1 11000 0;
#X obj 125 337 hsl 128 15 0 100 0 0 empty empty /pandev -2 8 1 8 -233017
-1 -1 1470 1;
#X obj 125 377 hsl 128 15 0 100 0 0 empty empty /voldev -2 8 1 8 -233017
-1 -1 100 1;
#X obj 123 146 hsl 128 15 1.5 1000 0 0 empty empty /speed -2 8 1 8
-233017 -1 -1 1400 1;
#X obj 123 187 hsl 128 15 5 800 0 0 empty empty /size -2 8 1 8 -233017
-1 -1 12113 1;
#X obj 125 227 hsl 128 15 -12 12 0 0 empty empty /transp -2 8 1 8 -233017
-1 -1 6350 1;
#X obj 125 277 hsl 128 15 0 500 0 0 empty empty /delay -2 8 1 8 -233017
-1 -1 10600 0;
#X obj 125 317 hsl 128 15 0 100 0 0 empty empty /pan -2 8 1 8 -233017
-1 -1 6350 1;
#X obj 125 357 hsl 128 15 0 100 0 0 empty empty /vol -2 8 1 8 -233017
-1 -1 12700 1;
#X obj 256 207 nbx 4 12 0 6e+06 0 0 empty empty p_int 2 -5 0 8 -233017
-1 -258699 10000 256;
#X obj 565 516 inlet commands;
#X obj 105 525 substatename2 \$1-grandel \$0;
#X obj 130 587 originator \$1-grandel \$0;
#X obj 310 514 s \$0-hooks;
#X obj 310 494 prepent interpolation;
#X obj 248 393 nbx 4 12 -1e+07 1e+07 0 0 empty empty empty 2 -5 0 10
-233017 -1 -258699 763.255 256;
#X floatatom 273 256 5 0 0 0 - - -;
#X msg 318 204 /onoff \$1;
#X obj 120 417 nbx 4 12 -1e+07 1e+07 0 0 empty empty ak-surprise 2
-5 1 8 -233017 -1 -258699 100 256;
#X obj 160 417 nbx 4 12 -1e+07 1e+07 0 0 empty empty empty 2 -5 1 8
-233017 -1 -258699 347 256;
#X obj 119 457 nbx 4 12 -1e+07 1e+07 0 0 empty empty ak-stamina 2 -5
1 8 -233017 -1 -258699 171 256;
#X obj 159 457 nbx 4 12 -1e+07 1e+07 0 0 empty empty empty 2 -5 1 8
-233017 -1 -258699 800 256;
#X obj 119 498 nbx 4 12 -1e+07 1e+07 0 0 empty empty ak-volume 2 -5
1 8 -233017 -1 -258699 8 256;
#X obj 159 498 nbx 4 12 -1e+07 1e+07 0 0 empty empty empty 2 -5 1 8
-233017 -1 -258699 139 256;
#X symbolatom 199 407 10 0 0 0 - - -;
#X symbolatom 200 447 10 0 0 0 - - -;
#X symbolatom 197 488 10 0 0 0 - - -;
#X obj 290 539 route preset interpolation OSC armyknife;
#N canvas 94 205 876 563 armyknife 0;
#X obj 455 -7 r \$0-RRADICAL-CB;
#X obj 126 55 OSCroute /aksurprise-from /aksurprise-to /aksurprise-dest
;
#X obj 365 104 OSCroute /akstamina-from /akstamina-to /akstamina-dest
;
#X obj 306 158 OSCroute /akvolume-from /akvolume-to /akvolume-dest
;
#X obj 49 -17 inlet;
#X obj 49 5 route surprise stamina volume;
#X obj 49 188 prepent;
#X obj 106 208 prepent;
#X obj 161 238 prepent;
#X obj 49 294 s \$0-in;
#X obj 49 90 scale 0 100 0 0;
#X obj 106 139 scale 0 100 0 0;
#X obj 171 203 scale 0 100 0 0;
#X obj 50 56 speedlim 10;
#X obj 177 165 speedlim 10;
#X obj 106 117 speedlim 10;
#X obj 126 35 OSCroute /aksurprise-ffrom /aksurprise-fto;
#X obj 365 84 OSCroute /akstamina-ffrom /akstamina-fto;
#X obj 306 138 OSCroute /akvolume-ffrom /akvolume-fto;
#X connect 0 0 1 0;
#X connect 0 0 2 0;
#X connect 0 0 3 0;
#X connect 1 0 10 3;
#X connect 1 1 10 4;
#X connect 1 2 6 1;
#X connect 1 3 16 0;
#X connect 2 0 11 3;
#X connect 2 1 11 4;
#X connect 2 2 7 1;
#X connect 2 3 17 0;
#X connect 3 0 12 3;
#X connect 3 1 12 4;
#X connect 3 2 8 1;
#X connect 3 3 18 0;
#X connect 4 0 5 0;
#X connect 5 0 13 0;
#X connect 5 1 15 0;
#X connect 5 2 14 0;
#X connect 6 0 9 0;
#X connect 7 0 9 0;
#X connect 8 0 9 0;
#X connect 10 0 6 0;
#X connect 11 0 7 0;
#X connect 12 0 8 0;
#X connect 13 0 10 0;
#X connect 14 0 12 0;
#X connect 15 0 11 0;
#X connect 16 0 10 1;
#X connect 16 1 10 2;
#X connect 17 0 11 1;
#X connect 17 1 11 2;
#X connect 18 0 12 1;
#X connect 18 1 12 2;
#X restore 465 569 pd armyknife;
#X obj 351 610 scommun /aksurprise-dest \$0;
#X obj 351 630 scommun /akstamina-dest \$0;
#X obj 351 650 scommun /akvolume-dest \$0;
#X obj 121 395 nbx 4 12 -1e+07 1e+07 0 0 empty empty empty 2 -5 1 8
-233017 -1 -258699 0 256;
#X obj 161 395 nbx 4 12 -1e+07 1e+07 0 0 empty empty empty 2 -5 1 8
-233017 -1 -258699 100 256;
#X obj 120 436 nbx 4 12 -1e+07 1e+07 0 0 empty empty empty 2 -5 1 8
-233017 -1 -258699 0 256;
#X obj 160 436 nbx 4 12 -1e+07 1e+07 0 0 empty empty empty 2 -5 1 8
-233017 -1 -258699 21 256;
#X obj 118 477 nbx 4 12 -1e+07 1e+07 0 0 empty empty empty 2 -5 1 8
-233017 -1 -258699 0 256;
#X obj 158 477 nbx 4 12 -1e+07 1e+07 0 0 empty empty empty 2 -5 1 8
-233017 -1 -258699 11 256;
#X obj 291 558 list;
#X msg 272 170 set \$1;
#X obj -12 71 hook /freeze \$0 0 1 0;
#X obj -104 187 hook-int /size \$0 5 800 300 1;
#X obj 397 298 hradio 10 1 0 13 empty empty empty 0 -6 0 8 -262144
-1 -1 0;
#X obj -106 247 hook-int /transp \$0 -12 12 0 1;
#X obj -121 655 hook-int /aksurprise-fto \$0 0 100 100;
#X obj -106 733 hook-int /akvolume-fto \$0 0 100 100;
#X obj -107 129 hook-int /speed \$0 1.5 1000 25 1;
#X obj -117 443 hook-int /vol \$0 0 100 0 1;
#X obj -116 467 hook-int /voldev \$0 0 100 0 1;
#X obj -122 422 hook-int /pandev \$0 0 100 10 1;
#X obj -116 380 hook-int /pan \$0 0 100 50 1;
#X obj -141 339 hook-int /delaydev \$0 0 100 40 1;
#X obj -106 307 hook-int /delay \$0 0 500 300 1;
#X obj -110 270 hook-int /transpdev \$0 0 12 0 1;
#X obj -100 211 hook-int /sizedev \$0 0 100 0 1;
#X obj -106 156 hook-int /speeddev \$0 0 100 0 1;
#X obj -121 672 hook-int /akstamina-ffrom \$0 0 100 0;
#X obj -121 692 hook-int /akstamina-fto \$0 0 100 100;
#X obj -107 709 hook-int /akvolume-ffrom \$0 0 100 0;
#X obj -118 634 hook-int /aksurprise-ffrom \$0 0 100 0;
#X obj -124 491 hook-int /aksurprise-from \$0 0 800 0;
#X obj -124 511 hook-int /aksurprise-to \$0 0 800 0;
#X obj -124 531 hook-int /akstamina-from \$0 0 800 0;
#X obj -124 551 hook-int /akstamina-to \$0 0 800 0;
#X obj -124 571 hook-int /akvolume-from \$0 0 800 0;
#X obj -124 591 hook-int /akvolume-to \$0 0 800 0;
#X obj -120 290 hook-int /transpdevq \$0 0 12 0 1;
#X obj 409 564 s \$0-in;
#X connect 1 0 33 0;
#X connect 3 0 32 0;
#X connect 4 0 5 0;
#X connect 5 0 6 0;
#X connect 6 0 2 0;
#X connect 8 0 11 0;
#X connect 9 0 76 0;
#X connect 10 0 11 0;
#X connect 11 0 12 0;
#X connect 12 0 7 0;
#X connect 13 0 14 0;
#X connect 14 0 13 0;
#X connect 18 0 19 0;
#X connect 18 1 20 0;
#X connect 19 0 15 1;
#X connect 20 0 15 1;
#X connect 21 0 15 0;
#X connect 21 0 25 0;
#X connect 23 0 21 0;
#X connect 23 1 18 0;
#X connect 26 0 21 0;
#X connect 27 0 31 0;
#X connect 28 0 53 0;
#X connect 29 0 21 0;
#X connect 29 0 28 0;
#X connect 30 0 51 0;
#X connect 30 0 91 0;
#X connect 31 0 17 0;
#X connect 31 0 27 0;
#X connect 32 0 3 0;
#X connect 33 0 1 0;
#X connect 34 0 51 0;
#X connect 34 0 90 0;
#X connect 35 0 51 0;
#X connect 35 0 89 0;
#X connect 36 0 51 0;
#X connect 36 0 87 0;
#X connect 37 0 51 0;
#X connect 37 0 85 0;
#X connect 38 0 51 0;
#X connect 38 0 84 0;
#X connect 39 0 51 0;
#X connect 39 0 82 0;
#X connect 40 0 51 0;
#X connect 40 0 77 0;
#X connect 41 0 51 0;
#X connect 41 0 79 0;
#X connect 42 0 51 0;
#X connect 42 0 88 0;
#X connect 43 0 51 0;
#X connect 43 0 86 0;
#X connect 44 0 51 0;
#X connect 44 0 83 0;
#X connect 45 0 50 0;
#X connect 46 0 63 0;
#X connect 47 0 48 0;
#X connect 50 0 49 0;
#X connect 53 0 11 0;
#X connect 54 0 96 0;
#X connect 55 0 97 0;
#X connect 56 0 98 0;
#X connect 57 0 99 0;
#X connect 58 0 100 0;
#X connect 59 0 101 0;
#X connect 60 0 65 0;
#X connect 61 0 66 0;
#X connect 62 0 67 0;
#X connect 63 0 74 0;
#X connect 63 1 50 0;
#X connect 63 1 75 0;
#X connect 63 2 103 0;
#X connect 63 3 64 0;
#X connect 65 0 60 0;
#X connect 66 0 61 0;
#X connect 67 0 62 0;
#X connect 68 0 95 0;
#X connect 69 0 80 0;
#X connect 70 0 92 0;
#X connect 71 0 93 0;
#X connect 72 0 94 0;
#X connect 73 0 81 0;
#X connect 74 0 47 0;
#X connect 75 0 45 0;
#X connect 76 0 9 0;
#X connect 77 0 40 0;
#X connect 77 1 40 0;
#X connect 78 0 102 0;
#X connect 79 0 41 0;
#X connect 79 1 41 0;
#X connect 80 0 69 0;
#X connect 81 0 73 0;
#X connect 82 0 39 0;
#X connect 82 1 39 0;
#X connect 83 0 44 0;
#X connect 83 1 44 0;
#X connect 84 0 38 0;
#X connect 84 1 38 0;
#X connect 85 0 37 0;
#X connect 85 1 37 0;
#X connect 86 0 43 0;
#X connect 86 1 43 0;
#X connect 87 0 36 0;
#X connect 87 1 36 0;
#X connect 88 0 42 0;
#X connect 88 1 42 0;
#X connect 89 0 35 0;
#X connect 89 1 35 0;
#X connect 90 0 34 0;
#X connect 90 1 34 0;
#X connect 91 0 30 0;
#X connect 91 1 30 0;
#X connect 92 0 70 0;
#X connect 93 0 71 0;
#X connect 94 0 72 0;
#X connect 95 0 68 0;
#X connect 96 0 54 0;
#X connect 97 0 55 0;
#X connect 98 0 56 0;
#X connect 99 0 57 0;
#X connect 100 0 58 0;
#X connect 101 0 59 0;
#X connect 102 0 78 0;
#X coords 0 -1 1 1 194 449 1 100 100;
