#N canvas 183 106 698 557 10;
#X obj 101 101 cnv 15 198 153 empty empty empty 20 12 0 14 -233017
-66577 0;
#X obj 133 102 nbx 4 12 0 5000 0 0 empty empty speed -29 7 0 8 -233017
-1 -258699 36 256;
#X obj 195 102 nbx 4 12 0 2500 0 0 empty empty >dev -22 7 0 8 -233017
-1 -258699 25 256;
#X obj 255 102 nbx 4 12 0 100 0 0 empty empty >fb -18 7 0 8 -233017
-1 -258699 0 256;
#X obj 133 118 nbx 4 12 5 800 0 0 empty empty size -22 7 0 8 -233017
-1 -258699 111 256;
#X obj 195 118 nbx 4 12 0 100 0 0 empty empty >dev -22 7 0 8 -233017
-1 -258699 0 256;
#X obj 255 118 nbx 4 12 0 100 0 0 empty empty >fb -18 7 0 8 -233017
-1 -258699 0 256;
#X obj 133 134 nbx 4 12 -36 36 0 0 empty empty transp -29 7 0 8 -233017
-1 -258699 -36 256;
#X obj 195 134 nbx 4 12 -36 36 0 0 empty empty >dev -22 7 0 8 -233017
-1 -258699 36 256;
#X obj 255 134 nbx 4 12 0 100 0 0 empty empty >fb -18 7 0 8 -233017
-1 -258699 0 256;
#X obj 133 150 nbx 4 12 0 500 0 0 empty empty delay -29 7 0 8 -233017
-1 -258699 149 256;
#X obj 195 150 nbx 4 12 0 250 0 0 empty empty >dev -22 7 0 8 -233017
-1 -258699 160 256;
#X obj 255 150 nbx 4 12 0 100 0 0 empty empty >fb -18 7 0 8 -233017
-1 -258699 0 256;
#X obj 133 166 nbx 4 12 0 100 0 0 empty empty pan -18 7 0 8 -233017
-1 -258699 50 256;
#X obj 195 166 nbx 4 12 0 100 0 0 empty empty >dev -22 7 0 8 -233017
-1 -258699 86 256;
#X obj 255 166 nbx 4 12 0 100 0 0 empty empty >fb -18 7 0 8 -233017
-1 -258699 0 256;
#X obj 303 131 fcommun /transp \$0 0;
#X obj 447 93 fcommun /speeddev \$0 0;
#X obj 434 115 fcommun /sizedev \$0 0;
#X obj 434 131 fcommun /transpdev \$0 0;
#X obj 589 115 fcommun /sizedevfb \$0 0;
#X obj 589 131 fcommun /transpdevfb \$0 0;
#X obj 590 148 fcommun /delaydevfb \$0 0;
#X obj 589 163 fcommun /pandevfb \$0 0;
#X obj 590 99 fcommun /speeddevfb \$0 0;
#X obj 196 201 hradio 10 1 0 10 empty empty empty 0 -6 0 8 -262144
-1 -1 9;
#X obj 395 285 hradio 10 1 0 10 empty empty empty 0 -6 0 8 -262144
-1 -1 0;
#X symbolatom 196 215 15 0 0 0 - - -;
#X obj 424 312 nbx 4 12 0 100 0 0 empty empty mx -13 7 0 8 -233017
-1 -258699 0 256;
#X obj 319 202 fcommun /window1 \$0 0;
#X obj 319 252 fcommun /window2 \$0 0;
#X obj 133 183 nbx 4 12 0 100 0 0 empty empty vol -18 7 0 8 -233017
-1 -258699 90 256;
#X obj 195 183 nbx 4 12 0 100 0 0 empty empty >dev -22 7 0 8 -233017
-1 -258699 0 256;
#X obj 255 183 nbx 4 12 0 100 0 0 empty empty >fb -18 7 0 8 -233017
-1 -258699 0 256;
#X obj 303 180 fcommun /vol \$0 0;
#X obj 435 180 fcommun /voldev \$0 0;
#X obj 589 180 fcommun /voldevfb \$0 0;
#X obj 307 93 fcommun /speed \$0 25;
#X obj 303 115 fcommun /size \$0 300;
#X obj 303 163 fcommun /pan \$0 50;
#X obj 434 163 fcommun /pandev \$0 10;
#X obj 581 241 r UI;
#X obj 582 268 route /grandel/ui/window;
#X obj 582 288 symbol;
#X obj 113 232 substatename2 grandel \$0;
#X obj 113 280 originator /grandel \$0;
#X obj 156 401 s OSC;
#X obj 156 317 r \$0-RRADICAL-CB;
#X obj 103 198 tgl 15 0 empty empty empty 0 -6 0 8 -24198 -1 -1 0 1
;
#X msg 95 336 /onoff \$1;
#X obj 103 216 tgl 13 0 empty empty empty 0 -6 0 8 -44926 -1 -1 0 1
;
#X msg 95 356 /freeze \$1;
#X msg 312 311 /window1 3;
#X obj 290 358 rugartabs;
#X obj 303 147 fcommun /delay \$0 300;
#X obj 434 147 fcommun /delaydev \$0 150;
#X obj 156 341 OSCprepend \$1;
#X obj 155 382 OSCprepend /grandel;
#X obj 145 208 nbx 4 12 0 100 0 0 empty empty fbk -18 7 0 8 -233017
-1 -258699 0 256;
#X obj 321 227 fcommun /winmix \$0 0;
#X obj 267 277 fcommun /feedbk \$0 0;
#X obj 17 427 hotkey/hktgl grandel-onoff;
#X connect 1 0 37 0;
#X connect 2 0 17 0;
#X connect 3 0 24 0;
#X connect 4 0 38 0;
#X connect 5 0 18 0;
#X connect 6 0 20 0;
#X connect 7 0 16 0;
#X connect 8 0 19 0;
#X connect 9 0 21 0;
#X connect 10 0 54 0;
#X connect 11 0 55 0;
#X connect 12 0 22 0;
#X connect 13 0 39 0;
#X connect 14 0 40 0;
#X connect 15 0 23 0;
#X connect 16 0 7 0;
#X connect 17 0 2 0;
#X connect 18 0 5 0;
#X connect 19 0 8 0;
#X connect 20 0 6 0;
#X connect 21 0 9 0;
#X connect 22 0 12 0;
#X connect 23 0 15 0;
#X connect 24 0 3 0;
#X connect 25 0 29 0;
#X connect 26 0 30 0;
#X connect 28 0 59 0;
#X connect 29 0 25 0;
#X connect 30 0 26 0;
#X connect 31 0 34 0;
#X connect 32 0 35 0;
#X connect 33 0 36 0;
#X connect 34 0 31 0;
#X connect 35 0 32 0;
#X connect 36 0 33 0;
#X connect 37 0 1 0;
#X connect 38 0 4 0;
#X connect 39 0 13 0;
#X connect 40 0 14 0;
#X connect 41 0 42 0;
#X connect 42 0 43 0;
#X connect 43 0 27 0;
#X connect 44 0 45 0;
#X connect 47 0 56 0;
#X connect 48 0 49 0;
#X connect 48 0 61 0;
#X connect 49 0 56 0;
#X connect 50 0 51 0;
#X connect 51 0 56 0;
#X connect 52 0 56 0;
#X connect 54 0 10 0;
#X connect 55 0 11 0;
#X connect 56 0 57 0;
#X connect 57 0 46 0;
#X connect 58 0 60 0;
#X connect 59 0 28 0;
#X connect 60 0 58 0;
#X connect 61 0 48 0;
#X coords 0 -1 1 1 200 155 1 100 100;
