#N canvas 0 0 450 300 10;
#N canvas 0 0 531 384 rand 0;
#X obj 146 33 inlet;
#X obj 142 329 outlet;
#X obj 285 34 inlet;
#X obj 206 33 inlet;
#X obj 147 80 f;
#X obj 147 111 +;
#X obj 147 55 t b b;
#X obj 300 102 / 2;
#X obj 241 123 -;
#X obj 282 69 t f f;
#X obj 242 97 frandom;
#X connect 0 0 6 0;
#X connect 2 0 9 0;
#X connect 3 0 4 1;
#X connect 4 0 5 0;
#X connect 5 0 1 0;
#X connect 6 0 4 0;
#X connect 6 1 10 0;
#X connect 7 0 8 1;
#X connect 8 0 5 1;
#X connect 9 0 10 1;
#X connect 9 1 7 0;
#X connect 10 0 8 0;
#X restore 131 64 pd rand;
#X obj 131 35 inlet bang;
#X obj 216 35 inlet center;
#X obj 229 63 inlet deviation;
#X obj 266 94 inlet feedback;
#X obj 200 132 -;
#X obj 201 113 f;
#X obj 200 176 +;
#X obj 155 135 f;
#X obj 200 154 *;
#X obj 131 88 within \$1 \$2;
#X obj 91 116 outlet;
#X obj 199 198 change;
#X obj 320 126 inlet minval;
#X obj 353 147 inlet maxval;
#X obj 238 143 / 100;
#X connect 0 0 10 0;
#X connect 1 0 0 0;
#X connect 2 0 0 1;
#X connect 2 0 8 0;
#X connect 3 0 0 2;
#X connect 4 0 15 0;
#X connect 5 0 9 0;
#X connect 6 0 5 0;
#X connect 7 0 8 0;
#X connect 7 0 12 0;
#X connect 8 0 5 1;
#X connect 8 0 7 1;
#X connect 9 0 7 0;
#X connect 10 0 6 0;
#X connect 10 0 11 0;
#X connect 12 0 0 1;
#X connect 13 0 10 1;
#X connect 14 0 10 2;
#X connect 15 0 9 1;
