#N canvas 340 111 561 362 10;
#X obj 107 46 inlet param;
#X obj 197 24 inlet deviation;
#X obj 107 79 t f b f;
#X obj 197 76 *;
#X obj 258 154 f;
#X obj 371 176 f;
#X obj 296 54 inlet trig;
#X obj 340 132 noise;
#X obj 345 198 *;
#X obj 219 155 f;
#X obj 220 176 +;
#X obj 146 173 pack f f;
#X obj 107 265 outlet;
#X obj 296 76 t f b b b;
#X text 387 132 -1->1;
#X obj 200 53 / 100;
#X connect 0 0 2 0;
#X connect 1 0 15 0;
#X connect 2 0 4 1;
#X connect 2 1 3 0;
#X connect 2 2 3 1;
#X connect 3 0 5 1;
#X connect 4 0 9 1;
#X connect 5 0 8 1;
#X connect 6 0 13 0;
#X connect 7 0 8 0;
#X connect 8 0 10 1;
#X connect 9 0 10 0;
#X connect 10 0 11 1;
#X connect 11 0 12 0;
#X connect 13 0 11 0;
#X connect 13 1 9 0;
#X connect 13 2 7 0;
#X connect 13 3 5 0;
#X connect 13 3 4 0;
#X connect 15 0 3 0;
