#N canvas 0 0 450 300 10;
#X obj 105 148 sig~;
#X obj 191 132 samphold~;
#X obj 190 99 noise~;
#X obj 192 166 *~;
#X obj 106 181 +~;
#X obj 296 54 inlet~ trig;
#X obj 107 46 inlet param;
#X obj 197 24 inlet deviation;
#X obj 107 215 outlet~;
#X obj 107 79 t f b f;
#X obj 197 76 *;
#X obj 7 32 inlet change;
#X obj 105 117 f;
#X obj 218 158 f;
#X obj 200 53 / 1000;
#X connect 0 0 4 0;
#X connect 1 0 3 0;
#X connect 2 0 1 0;
#X connect 3 0 4 1;
#X connect 4 0 8 0;
#X connect 5 0 1 1;
#X connect 6 0 9 0;
#X connect 7 0 14 0;
#X connect 9 0 12 1;
#X connect 9 1 10 0;
#X connect 9 2 10 1;
#X connect 10 0 13 1;
#X connect 11 0 13 0;
#X connect 11 0 12 0;
#X connect 12 0 0 0;
#X connect 13 0 3 1;
#X connect 14 0 10 0;
