#N canvas 24 308 450 300 10;
#X obj 115 33 inlet;
#X obj 196 84 inlet;
#X obj 110 82 r hotkey;
#X obj 183 204 outlet;
#X obj 110 101 route send;
#X obj 183 118 0;
#X obj 183 140 + 1;
#X obj 183 158 mod 2;
#X obj 110 156 bang;
#X obj 110 133 route onoff;
#X obj 182 181 spigot;
#X connect 0 0 10 1;
#X connect 1 0 5 1;
#X connect 2 0 4 0;
#X connect 4 0 9 0;
#X connect 5 0 6 0;
#X connect 6 0 7 0;
#X connect 7 0 5 1;
#X connect 7 0 10 0;
#X connect 8 0 5 0;
#X connect 9 0 8 0;
#X connect 10 0 3 0;
