#N canvas 0 15 610 716 10;
#X text 277 96 this one mixes between 2 windows (from abstraction windowing)
\, and even offers smooth fade when changing windows;
#X text 288 142 make sure windowing abs is generated before initing
tables...;
#X obj 114 249 f;
#X obj 148 250 + 1;
#X obj 180 264 0;
#X obj 45 255 sel 1;
#X obj 45 234 < 200;
#X obj 134 333 until;
#X obj 218 352 / 200;
#X obj 133 369 f;
#X obj 161 370 + 1;
#X obj 161 474 tabread goo;
#X obj 130 554 *;
#X obj 131 582 +;
#X obj 162 559 *;
#X obj 219 373 t f f;
#X obj 133 393 t f f f;
#X obj 115 291 t a b a b;
#X obj 182 310 0;
#X obj 219 399 * -1;
#X obj 218 421 + 1;
#X obj 115 193 t b b a;
#X obj 226 234 symbol;
#X msg 248 474 set \$1;
#X obj 73 328 outlet;
#X obj 72 296 bang;
#X obj 115 124 inlet;
#X obj 133 418 tabread \$1;
#X obj 131 639 tabwrite \$1;
#N canvas 0 15 610 716 tabsel 0;
#X obj 76 35 inlet;
#X obj 76 55 sel 0 1 2 3 4 5 6 7 8 9;
#X msg 76 74 hann;
#X msg 91 91 fourthrootsine;
#X msg 106 108 quarticsine;
#X msg 122 125 rpear;
#X msg 138 142 pear;
#X msg 152 159 triangle;
#X msg 169 177 quasigaussian;
#X msg 185 194 rexpodec;
#X msg 200 211 expodec;
#X msg 216 228 sinc;
#X obj 71 261 makefilename 512-win.%s;
#X obj 71 235 symbol;
#X obj 71 283 outlet;
#X connect 0 0 1 0;
#X connect 1 0 2 0;
#X connect 1 1 3 0;
#X connect 1 2 4 0;
#X connect 1 3 5 0;
#X connect 1 4 6 0;
#X connect 1 5 7 0;
#X connect 1 6 8 0;
#X connect 1 7 9 0;
#X connect 1 8 10 0;
#X connect 1 9 11 0;
#X connect 2 0 13 0;
#X connect 3 0 13 0;
#X connect 4 0 13 0;
#X connect 5 0 13 0;
#X connect 6 0 13 0;
#X connect 7 0 13 0;
#X connect 8 0 13 0;
#X connect 9 0 13 0;
#X connect 10 0 13 0;
#X connect 11 0 13 0;
#X connect 12 0 14 0;
#X connect 13 0 12 0;
#X restore 115 157 pd tabsel;
#X obj 251 108 0;
#X obj 251 86 delay 50;
#X obj 251 69 loadbang;
#X obj 114 221 delay 11;
#X obj 426 79 table \$1 515;
#X obj 226 258 t s b s b;
#X obj 278 283 symbol \$1;
#X msg 278 306 \$1 const;
#X msg 134 313 515;
#X connect 2 0 3 0;
#X connect 2 0 17 0;
#X connect 3 0 2 1;
#X connect 4 0 2 1;
#X connect 4 0 9 1;
#X connect 5 0 33 0;
#X connect 5 1 25 0;
#X connect 6 0 5 0;
#X connect 7 0 9 0;
#X connect 8 0 15 0;
#X connect 9 0 10 0;
#X connect 9 0 16 0;
#X connect 10 0 9 1;
#X connect 11 0 14 0;
#X connect 12 0 13 0;
#X connect 13 0 28 0;
#X connect 14 0 13 1;
#X connect 15 0 19 0;
#X connect 15 1 14 1;
#X connect 16 0 27 0;
#X connect 16 1 11 0;
#X connect 16 2 28 1;
#X connect 17 0 6 0;
#X connect 17 1 38 0;
#X connect 17 2 8 0;
#X connect 17 3 18 0;
#X connect 18 0 9 1;
#X connect 19 0 20 0;
#X connect 20 0 12 1;
#X connect 21 0 33 0;
#X connect 21 1 4 0;
#X connect 21 2 22 0;
#X connect 22 0 35 0;
#X connect 23 0 11 0;
#X connect 25 0 24 0;
#X connect 26 0 29 0;
#X connect 27 0 12 0;
#X connect 29 0 21 0;
#X connect 30 0 29 0;
#X connect 31 0 30 0;
#X connect 32 0 31 0;
#X connect 33 0 2 0;
#X connect 35 2 23 0;
#X connect 35 3 36 0;
#X connect 36 0 37 0;
#X connect 38 0 7 0;
#X coords 0 0 1 1 85 200 0;
