#N canvas 0 15 610 695 10;
#N canvas 0 15 610 716 tabsel 0;
#X obj 76 35 inlet;
#X obj 76 55 sel 0 1 2 3 4 5 6 7 8 9;
#X msg 76 74 hann;
#X msg 91 91 fourthrootsine;
#X msg 106 108 quarticsine;
#X msg 122 125 rpear;
#X msg 138 142 pear;
#X msg 152 159 triangle;
#X msg 169 177 quasigaussian;
#X msg 185 194 rexpodec;
#X msg 200 211 expodec;
#X msg 216 228 sinc;
#X obj 71 261 makefilename 512-win.%s;
#X obj 71 235 symbol;
#X obj 71 283 outlet;
#X connect 0 0 1 0;
#X connect 1 0 2 0;
#X connect 1 1 3 0;
#X connect 1 2 4 0;
#X connect 1 3 5 0;
#X connect 1 4 6 0;
#X connect 1 5 7 0;
#X connect 1 6 8 0;
#X connect 1 7 9 0;
#X connect 1 8 10 0;
#X connect 1 9 11 0;
#X connect 2 0 13 0;
#X connect 3 0 13 0;
#X connect 4 0 13 0;
#X connect 5 0 13 0;
#X connect 6 0 13 0;
#X connect 7 0 13 0;
#X connect 8 0 13 0;
#X connect 9 0 13 0;
#X connect 10 0 13 0;
#X connect 11 0 13 0;
#X connect 12 0 14 0;
#X connect 13 0 12 0;
#X restore 103 207 pd tabsel;
#N canvas 0 15 610 695 make 0;
#X obj 86 -3 inlet;
#X msg 85 47 set \$1;
#X obj 321 156 phasor~;
#X obj 320 178 *~ 512;
#X obj 318 277 threshold~ 500 0 1 0;
#X obj 84 136 smoothtabread~;
#X obj 499 163 table \$1-window 512;
#X obj 85 21 t a b;
#X obj 453 35 1;
#X obj 407 61 0;
#X obj 364 -3 t b b;
#X obj 322 107 sl2hz 512;
#X obj 322 80 loadbang;
#X obj 86 270 tabwrite~ \$1-window;
#X obj 322 132 sig~;
#X obj 483 264 delay 1000;
#X obj 435 305 spigot 1;
#X msg 510 309 0;
#X obj 453 66 switch~ 512;
#X connect 0 0 7 0;
#X connect 1 0 5 0;
#X connect 2 0 3 0;
#X connect 3 0 4 0;
#X connect 3 0 5 1;
#X connect 4 1 13 0;
#X connect 4 1 16 0;
#X connect 5 0 13 0;
#X connect 7 0 1 0;
#X connect 7 1 10 0;
#X connect 8 0 16 1;
#X connect 8 0 18 0;
#X connect 9 0 18 0;
#X connect 10 0 8 0;
#X connect 10 1 11 0;
#X connect 11 0 14 0;
#X connect 12 0 11 0;
#X connect 14 0 2 0;
#X connect 15 0 9 0;
#X connect 16 0 15 0;
#X connect 16 0 17 0;
#X connect 17 0 16 1;
#X restore 105 257 pd make;
#X text 370 164 this one mixes between 2 windows (from abstraction
windowing) \, and even offers smooth fade when changing windows;
#X obj 127 14 inlet win1;
#X obj 233 162 0;
#X obj 233 140 delay 50;
#X obj 233 123 loadbang;
#X text 288 142 make sure windowing abs is generated before initing
tables...;
#X connect 0 0 1 0;
#X connect 3 0 0 0;
#X connect 4 0 0 0;
#X connect 5 0 4 0;
#X connect 6 0 5 0;
#X coords 0 0 1 1 85 200 0;
